<svg width="80" height="80" viewBox="0 0 80 80" fill="none" xmlns="http://www.w3.org/2000/svg">
<mask id="mask0" mask-type="alpha" maskUnits="userSpaceOnUse" x="0" y="0" width="80" height="80">
<rect width="80" height="80" fill="#C4C4C4"/>
</mask>
<g mask="url(#mask0)">
</g>
<g clip-path="url(#clip0)">
<path d="M73.8316 8.01172H19.6739C17.7 8.01172 15.9729 9.60821 15.9729 11.6959V48.538C15.9729 50.5029 17.5767 52.2222 19.6739 52.2222H53.3528C56.3136 57.8714 63.2221 61.5556 67.6633 63.2749C66.1829 59.7135 65.9362 55.538 66.0595 52.2222H73.8316C75.8055 52.2222 77.5326 50.6258 77.5326 48.538V11.6959C77.5326 9.60821 75.8055 8.01172 73.8316 8.01172Z" stroke="url(#paint0_linear)" stroke-width="3" stroke-miterlimit="10"/>
<path d="M45.6386 31.2987L42.4288 27.8172C42.4286 27.8171 42.4284 27.8169 42.4283 27.8167C41.9437 27.2888 41.1074 27.2401 40.5711 27.7317L40.9073 28.0984L40.5711 27.7317C40.0427 28.2162 39.9938 29.053 40.4856 29.5894L40.4863 29.5902L44.618 34.0776C44.8509 34.3505 45.2071 34.5208 45.5961 34.5208C45.9211 34.5208 46.2865 34.4027 46.5387 34.1143L56.9887 23.6916C57.5519 23.166 57.4574 22.3291 57.0108 21.8419L56.6422 22.1798L57.0108 21.8419C56.5029 21.2879 55.6527 21.311 55.1375 21.8262L45.6386 31.2987Z" fill="url(#paint1_linear)" stroke="url(#paint2_linear)"/>
<path d="M46.3636 41.0103C40.3608 41.0103 35.4545 36.104 35.4545 30.1013C35.4545 24.0985 40.3608 19.1921 46.3636 19.1921C46.8296 19.1921 47.1859 19.5485 47.1859 20.0144C47.1859 20.4803 46.8295 20.8367 46.3636 20.8367C41.2653 20.8367 37.0991 25.003 37.0991 30.1012C37.0991 35.1995 41.2653 39.3657 46.3636 39.3657C51.4618 39.3657 55.6281 35.1995 55.6281 30.1012C55.6281 29.6352 55.9844 29.2789 56.4504 29.2789C56.9163 29.2789 57.2726 29.6353 57.2726 30.1012C57.2726 36.104 52.3663 41.0103 46.3636 41.0103Z" fill="url(#paint3_linear)"/>
<path d="M36.1462 30.3625H5.6748C3.94768 30.3625 2.46729 31.8362 2.46729 33.5555V58.8538C2.46729 60.5731 3.94768 62.0468 5.6748 62.0468H12.4599C12.7067 64.5029 12.7067 68.1871 11.3496 71.3801C14.9273 70.0292 20.6021 66.8362 22.2059 62.0468H36.1462C37.8734 62.0468 39.3538 60.5731 39.3538 58.8538V33.5555C39.3538 31.7134 37.8734 30.3625 36.1462 30.3625Z" fill="url(#paint4_linear)" stroke="white" stroke-width="3" stroke-miterlimit="10"/>
<path d="M19.2001 48.1553C19.2001 47.4951 19.403 46.8648 19.8087 46.2646C20.2301 45.6644 20.6827 45.1842 21.1665 44.8241C21.6503 44.4489 22.0951 44.0138 22.5009 43.5186C22.9223 43.0234 23.133 42.5282 23.133 42.033C23.133 41.5078 22.9457 41.1027 22.5711 40.8176C22.1966 40.5325 21.6737 40.3899 21.0027 40.3899C19.6917 40.3899 18.7631 41.0577 18.2169 42.3932L15.4545 40.8626C15.9227 39.7522 16.664 38.8969 17.6784 38.2966C18.7085 37.6814 19.8556 37.3738 21.1197 37.3738C22.5399 37.3738 23.765 37.7714 24.7951 38.5667C25.8407 39.347 26.3636 40.4274 26.3636 41.8079C26.3636 42.4382 26.2231 43.0234 25.9422 43.5636C25.6769 44.1038 25.3491 44.569 24.959 44.9591C24.5844 45.3343 24.202 45.6944 23.8119 46.0395C23.4373 46.3697 23.1096 46.7148 22.8286 47.0749C22.5633 47.4351 22.4307 47.7952 22.4307 48.1553H19.2001ZM22.22 53.1747C21.8298 53.5499 21.3616 53.7374 20.8154 53.7374C20.2691 53.7374 19.8009 53.5499 19.4108 53.1747C19.0206 52.7996 18.8255 52.3494 18.8255 51.8242C18.8255 51.299 19.0206 50.8488 19.4108 50.4737C19.8009 50.0986 20.2691 49.911 20.8154 49.911C21.3616 49.911 21.8298 50.0986 22.22 50.4737C22.6101 50.8488 22.8052 51.299 22.8052 51.8242C22.8052 52.3494 22.6101 52.7996 22.22 53.1747Z" fill="white"/>
</g>
<defs>
<linearGradient id="paint0_linear" x1="15.9729" y1="8.01172" x2="70.9159" y2="69.2148" gradientUnits="userSpaceOnUse">
<stop offset="0.0238214" stop-color="#4F5062"/>
<stop offset="0.67038" stop-color="#3A3A4A"/>
</linearGradient>
<linearGradient id="paint1_linear" x1="40.6442" y1="34.0208" x2="56.1831" y2="34.0208" gradientUnits="userSpaceOnUse">
<stop offset="0.151042" stop-color="#F39324"/>
<stop offset="1" stop-color="#EC663B"/>
</linearGradient>
<linearGradient id="paint2_linear" x1="40.6442" y1="34.0208" x2="56.1831" y2="34.0208" gradientUnits="userSpaceOnUse">
<stop offset="0.151042" stop-color="#F39324"/>
<stop offset="1" stop-color="#EC663B"/>
</linearGradient>
<linearGradient id="paint3_linear" x1="35.4545" y1="19.1921" x2="57.2726" y2="41.0103" gradientUnits="userSpaceOnUse">
<stop offset="0.0238214" stop-color="#4F5062"/>
<stop offset="0.67038" stop-color="#3A3A4A"/>
</linearGradient>
<linearGradient id="paint4_linear" x1="2.46729" y1="71.3801" x2="37.7732" y2="71.3801" gradientUnits="userSpaceOnUse">
<stop offset="0.151042" stop-color="#F39324"/>
<stop offset="1" stop-color="#EC663B"/>
</linearGradient>
<clipPath id="clip0">
<rect width="80" height="69.0909" fill="white" transform="translate(0 5.55566)"/>
</clipPath>
</defs>
</svg>
