<svg width="80" height="80" viewBox="0 0 80 80" fill="none" xmlns="http://www.w3.org/2000/svg">
<g clip-path="url(#clip0)">
<path d="M56.7742 60.645H67.0968V78.7095H56.7742V60.645Z" fill="url(#paint0_linear)"/>
<path d="M12.9033 60.645H23.2259V78.7095H12.9033V60.645Z" fill="url(#paint1_linear)"/>
<path d="M37.7975 38.3316C38.3822 37.7469 39.1742 37.4193 40.0002 37.4193C40.8261 37.4193 41.6181 37.7469 42.2028 38.3316L43.8711 39.9999H45.1614V27.0967H34.8389V39.9999H36.1292L37.7975 38.3316Z" fill="url(#paint2_linear)"/>
<path d="M47.7419 27.0967H58.0645V39.9999H47.7419V27.0967Z" fill="url(#paint3_linear)"/>
<path d="M21.9355 27.0967H32.2581V39.9999H21.9355V27.0967Z" fill="url(#paint4_linear)"/>
<path d="M0 77.4194H2.58065V80.0001H0V77.4194Z" fill="url(#paint5_linear)"/>
<path d="M77.4194 77.4194H80.0001V80.0001H77.4194V77.4194Z" fill="url(#paint6_linear)"/>
<path d="M38.7097 49.0322H41.2904V51.6129H38.7097V49.0322Z" fill="url(#paint7_linear)"/>
<path d="M75.7227 55.4839L66.5732 38.7097H63.2258V24.5161H65.8064V16.7742H58.0645V7.74194H65.8064V0H55.4839V16.7742H41.2903V7.74194H49.0323V0H38.7097V16.7742H24.5161V7.74194H32.2581V0H21.9355V16.7742H14.1935V24.5161H16.7742V38.7097H13.4268L4.27734 55.4839H7.74194V77.4193H5.16129V80H74.8387V77.4193H72.2581V55.4839H75.7227ZM58.0645 2.58065H63.2258V5.16129H58.0645V2.58065ZM41.2903 2.58065H46.4516V5.16129H41.2903V2.58065ZM24.5161 2.58065H29.6774V5.16129H24.5161V2.58065ZM71.3741 52.9032H67.8616L61.5278 41.2903H65.0397L71.3741 52.9032ZM55.5948 49.8992L46.9859 41.2903H52.1365L58.4709 52.9032H56.7572C56.7597 52.8503 56.7742 52.7999 56.7742 52.747C56.7742 51.6866 56.3445 50.6489 55.5948 49.8992ZM24.4052 49.8992C23.6555 50.6489 23.2258 51.6866 23.2258 52.747C23.2258 52.7999 23.2403 52.8503 23.2416 52.9032H21.5278L27.8616 41.2903H33.0129L24.4052 49.8992ZM24.9238 41.2903L18.59 52.9032H15.0775L21.4119 41.2903H24.9238ZM31.502 54.1935L40 45.6956L48.498 54.1935H31.502ZM28.3871 56.7742H30.9677V77.4193H28.3871V56.7742ZM33.5484 56.7742H46.4516V77.4193H33.5484V56.7742ZM49.0323 56.7742H51.6129V77.4193H49.0323V56.7742ZM52.747 54.1935C52.3601 54.1935 51.9972 54.0436 51.7238 53.7702L40 42.0464L28.2762 53.7702C28.0028 54.0436 27.6399 54.1935 27.253 54.1935C26.4554 54.1935 25.8065 53.5446 25.8065 52.747C25.8065 52.3664 25.9614 51.9934 26.2298 51.7238L38.7097 39.2439C39.3977 38.5534 40.5998 38.5534 41.2903 39.2439L53.7702 51.7238C54.0386 51.9934 54.1935 52.3664 54.1935 52.747C54.1935 53.5446 53.5446 54.1935 52.747 54.1935ZM61.4119 52.9032L55.0775 41.2903H58.59L64.9238 52.9032H61.4119ZM16.7742 19.3548H63.2258V21.9355H16.7742V19.3548ZM19.3548 24.5161H60.6452V38.7097H44.4052L43.1149 37.4194C41.4516 35.756 38.5459 35.756 36.8838 37.4194L35.5935 38.7097H19.3548V24.5161ZM14.9603 41.2903H18.4722L12.1384 52.9032H8.62588L14.9603 41.2903ZM10.3226 55.4839H24.3164C24.7278 55.9249 25.2337 56.272 25.8065 56.4945V77.4193H10.3226V55.4839ZM69.6774 77.4193H54.1935V56.4945C54.7663 56.272 55.2722 55.9249 55.6836 55.4839H69.6774V77.4193Z" fill="url(#paint8_linear)"/>
</g>
<defs>
<linearGradient id="paint0_linear" x1="56.7742" y1="78.7095" x2="66.6544" y2="78.7095" gradientUnits="userSpaceOnUse">
<stop offset="0.151042" stop-color="#F39324"/>
<stop offset="1" stop-color="#EC663B"/>
</linearGradient>
<linearGradient id="paint1_linear" x1="12.9033" y1="78.7095" x2="22.7836" y2="78.7095" gradientUnits="userSpaceOnUse">
<stop offset="0.151042" stop-color="#F39324"/>
<stop offset="1" stop-color="#EC663B"/>
</linearGradient>
<linearGradient id="paint2_linear" x1="34.8389" y1="39.9999" x2="44.7191" y2="39.9999" gradientUnits="userSpaceOnUse">
<stop offset="0.151042" stop-color="#F39324"/>
<stop offset="1" stop-color="#EC663B"/>
</linearGradient>
<linearGradient id="paint3_linear" x1="47.7419" y1="39.9999" x2="57.6222" y2="39.9999" gradientUnits="userSpaceOnUse">
<stop offset="0.151042" stop-color="#F39324"/>
<stop offset="1" stop-color="#EC663B"/>
</linearGradient>
<linearGradient id="paint4_linear" x1="21.9355" y1="39.9999" x2="31.8158" y2="39.9999" gradientUnits="userSpaceOnUse">
<stop offset="0.151042" stop-color="#F39324"/>
<stop offset="1" stop-color="#EC663B"/>
</linearGradient>
<linearGradient id="paint5_linear" x1="0" y1="77.4194" x2="2.58065" y2="80.0001" gradientUnits="userSpaceOnUse">
<stop offset="0.0238214" stop-color="#4F5062"/>
<stop offset="0.67038" stop-color="#3A3A4A"/>
</linearGradient>
<linearGradient id="paint6_linear" x1="77.4194" y1="77.4194" x2="80.0001" y2="80.0001" gradientUnits="userSpaceOnUse">
<stop offset="0.0238214" stop-color="#4F5062"/>
<stop offset="0.67038" stop-color="#3A3A4A"/>
</linearGradient>
<linearGradient id="paint7_linear" x1="38.7097" y1="49.0322" x2="41.2904" y2="51.6129" gradientUnits="userSpaceOnUse">
<stop offset="0.0238214" stop-color="#4F5062"/>
<stop offset="0.67038" stop-color="#3A3A4A"/>
</linearGradient>
<linearGradient id="paint8_linear" x1="4.27734" y1="0" x2="83.7684" y2="70.9908" gradientUnits="userSpaceOnUse">
<stop offset="0.0238214" stop-color="#4F5062"/>
<stop offset="0.67038" stop-color="#3A3A4A"/>
</linearGradient>
<clipPath id="clip0">
<rect width="80" height="80" fill="white"/>
</clipPath>
</defs>
</svg>
