<svg width="80" height="80" viewBox="0 0 80 80" fill="none" xmlns="http://www.w3.org/2000/svg">
<path d="M72.5 20C69.0538 20 66.25 17.1962 66.25 13.75C66.25 10.3038 69.0538 7.5 72.5 7.5C75.9462 7.5 78.75 10.3038 78.75 13.75C78.75 17.1962 75.9462 20 72.5 20Z" fill="url(#paint0_linear)"/>
<path d="M70 78.75C65.175 78.75 61.25 74.8237 61.25 70C61.25 65.1762 65.175 61.25 70 61.25C74.825 61.25 78.75 65.1762 78.75 70C78.75 74.8237 74.825 78.75 70 78.75ZM70 67.5C68.6213 67.5 67.5 68.6213 67.5 70C67.5 71.3787 68.6213 72.5 70 72.5C71.3787 72.5 72.5 71.3787 72.5 70C72.5 68.6213 71.3787 67.5 70 67.5Z" fill="url(#paint1_linear)"/>
<path d="M10 71.25C5.175 71.25 1.25 67.3237 1.25 62.5C1.25 57.6762 5.175 53.75 10 53.75C14.825 53.75 18.75 57.6762 18.75 62.5C18.75 67.3237 14.825 71.25 10 71.25ZM10 60C8.62125 60 7.5 61.1213 7.5 62.5C7.5 63.8787 8.62125 65 10 65C11.3787 65 12.5 63.8787 12.5 62.5C12.5 61.1213 11.3787 60 10 60Z" fill="url(#paint2_linear)"/>
<path d="M40 8.75C37.9325 8.75 36.25 7.0675 36.25 5C36.25 2.9325 37.9325 1.25 40 1.25C42.0675 1.25 43.75 2.9325 43.75 5C43.75 7.0675 42.0675 8.75 40 8.75Z" fill="url(#paint3_linear)"/>
<path d="M75 38.75C72.9325 38.75 71.25 37.0675 71.25 35C71.25 32.9325 72.9325 31.25 75 31.25C77.0675 31.25 78.75 32.9325 78.75 35C78.75 37.0675 77.0675 38.75 75 38.75Z" fill="url(#paint4_linear)"/>
<path d="M5 38.75C2.9325 38.75 1.25 37.0675 1.25 35C1.25 32.9325 2.9325 31.25 5 31.25C7.0675 31.25 8.75 32.9325 8.75 35C8.75 37.0675 7.0675 38.75 5 38.75Z" fill="url(#paint5_linear)"/>
<path d="M10 16.25C6.55375 16.25 3.75 13.4462 3.75 10C3.75 6.55375 6.55375 3.75 10 3.75C13.4462 3.75 16.25 6.55375 16.25 10C16.25 13.4462 13.4462 16.25 10 16.25Z" fill="url(#paint6_linear)"/>
<path d="M72.5 20C69.0538 20 66.25 17.1962 66.25 13.75C66.25 10.3038 69.0538 7.5 72.5 7.5C75.9462 7.5 78.75 10.3038 78.75 13.75C78.75 17.1962 75.9462 20 72.5 20Z" fill="url(#paint7_linear)"/>
<path d="M51.25 56.25H50.3475C50.7925 54.8325 51.65 53.5763 52.845 52.625C54.6388 51.1963 56.1913 49.4488 57.4625 47.5H67.5C68.1888 47.5 68.75 48.06 68.75 48.75V61.35C69.16 61.2913 69.575 61.25 70 61.25C70.425 61.25 70.84 61.2913 71.25 61.35V48.75C71.25 46.6825 69.5675 45 67.5 45H58.8863C60.22 42.2725 61.0363 39.2788 61.2138 36.25H71.4813C71.34 35.8575 71.25 35.44 71.25 35C71.25 34.56 71.34 34.1425 71.48 33.75H61.1863C60.9713 30.0913 59.835 26.6838 57.9938 23.75H62.7138C63.715 23.75 64.6575 23.36 65.3663 22.6513L69.0588 18.9588C68.3575 18.4938 67.7563 17.8925 67.2913 17.1913L63.5988 20.8838C63.3625 21.12 63.0475 21.25 62.7138 21.25H56.1725C52.5263 16.9675 47.2163 14.1625 41.25 13.8138V8.52002C40.8575 8.66002 40.44 8.75002 40 8.75002C39.56 8.75002 39.1425 8.66002 38.75 8.52002V13.8138C32.7838 14.1638 27.4738 16.9675 23.8275 21.25H12.5C11.8113 21.25 11.25 20.6888 11.25 20V16.1238C10.8463 16.2063 10.4275 16.25 10 16.25C9.57252 16.25 9.15377 16.2063 8.75002 16.1238V20C8.75002 22.0675 10.4325 23.75 12.5 23.75H22.005C20.1638 26.6838 19.0275 30.0913 18.8125 33.75H8.52002C8.66002 34.1425 8.75002 34.56 8.75002 35C8.75002 35.44 8.66002 35.8575 8.52002 36.25H18.7875C18.9925 39.7488 20.05 43.2038 21.7763 46.25H12.5C10.4325 46.25 8.75002 47.9325 8.75002 50V53.85C9.16002 53.7913 9.57502 53.75 10 53.75C10.425 53.75 10.84 53.7913 11.25 53.85V50C11.25 49.31 11.8113 48.75 12.5 48.75H23.4138C24.5025 50.1963 25.755 51.5088 27.155 52.625C28.35 53.5763 29.2075 54.8338 29.6525 56.25H28.75C26.6825 56.25 25 57.9325 25 60C25 60.9638 25.3763 61.835 25.975 62.5C25.375 63.165 25 64.0363 25 65C25 67.0675 26.6825 68.75 28.75 68.75H30C30 74.2638 34.4863 78.75 40 78.75C45.5138 78.75 50 74.2638 50 68.75H51.25C53.3175 68.75 55 67.0675 55 65C55 64.0363 54.6238 63.165 54.025 62.5C54.625 61.835 55 60.9638 55 60C55 57.9325 53.3175 56.25 51.25 56.25ZM28.7125 50.6688C24.11 47.0038 21.25 41 21.25 35C21.25 24.6613 29.6613 16.25 40 16.25C50.3388 16.25 58.75 24.6613 58.75 35C58.75 41 55.89 47.0038 51.2875 50.6688C49.4888 52.1 48.2663 54.0538 47.7613 56.25H43.75V49.76C43.75 49.2025 44.2025 48.75 44.785 48.75C48.0925 48.75 50.9188 46.2725 51.2213 43.1088C51.3138 42.135 51.1563 41.1725 50.815 40.2775C52.6063 39.1513 53.75 37.1775 53.75 35C53.75 32.84 52.6213 30.865 50.8363 29.7375C51.1088 29.0288 51.25 28.2725 51.25 27.5C51.25 24.0538 48.4463 21.25 45 21.25C42.9575 21.25 41.1413 22.235 40 23.7538C38.8588 22.235 37.0425 21.25 35 21.25C31.5538 21.25 28.75 24.0538 28.75 27.5C28.75 28.2863 28.9125 29.0325 29.1788 29.7263C27.3913 30.8538 26.25 32.825 26.25 35C26.25 37.16 27.3788 39.135 29.1638 40.2625C28.7663 41.3 28.65 42.4363 28.84 43.5675C29.3325 46.5213 32.0838 48.75 35.2413 48.75C35.7975 48.75 36.25 49.2025 36.25 49.76V56.25H32.2388C31.7338 54.055 30.5113 52.1013 28.7125 50.6688ZM35.2413 46.25C33.2913 46.25 31.6 44.92 31.305 43.1538C31.1425 42.1788 31.35 41.2013 31.8925 40.4013L32.8025 39.0563L31.27 38.52C29.7625 37.9938 28.75 36.5788 28.75 35C28.75 33.6925 29.4375 32.5075 30.5125 31.8325C31.65 33.01 33.2375 33.75 35 33.75V31.25C32.9325 31.25 31.25 29.5675 31.25 27.5C31.25 25.4325 32.9325 23.75 35 23.75C37.0675 23.75 38.75 25.4325 38.75 27.5H41.25C41.25 25.4325 42.9325 23.75 45 23.75C47.0675 23.75 48.75 25.4325 48.75 27.5C48.75 28.2525 48.5275 28.9775 48.1075 29.5988L47.1975 30.9438L48.73 31.48C50.2375 32.0063 51.25 33.4213 51.25 35C51.25 36.3088 50.5613 37.495 49.4838 38.17C48.3088 36.9563 46.6925 36.25 45 36.25V38.75C46.0538 38.75 47.065 39.1975 47.775 39.9775C48.495 40.7688 48.835 41.7963 48.7325 42.8713C48.5513 44.7663 46.8175 46.25 44.7588 46.25C42.8238 46.25 41.25 47.825 41.25 49.76V56.25H38.75V49.76C38.75 47.825 37.1763 46.25 35.2413 46.25ZM28.75 58.75H51.25C51.9388 58.75 52.5 59.31 52.5 60C52.5 60.69 51.9388 61.25 51.25 61.25H28.75C28.0613 61.25 27.5 60.69 27.5 60C27.5 59.31 28.0613 58.75 28.75 58.75ZM40 76.25C35.8638 76.25 32.5 72.8863 32.5 68.75H47.5C47.5 72.8863 44.1363 76.25 40 76.25ZM51.25 66.25H28.75C28.0613 66.25 27.5 65.69 27.5 65C27.5 64.31 28.0613 63.75 28.75 63.75H51.25C51.9388 63.75 52.5 64.31 52.5 65C52.5 65.69 51.9388 66.25 51.25 66.25Z" fill="url(#paint8_linear)"/>
<path d="M70 66.25C67.9325 66.25 66.25 67.9325 66.25 70C66.25 72.0675 67.9325 73.75 70 73.75C72.0675 73.75 73.75 72.0675 73.75 70C73.75 67.9325 72.0675 66.25 70 66.25ZM70 71.25C69.3112 71.25 68.75 70.69 68.75 70C68.75 69.31 69.3112 68.75 70 68.75C70.6887 68.75 71.25 69.31 71.25 70C71.25 70.69 70.6887 71.25 70 71.25Z" fill="url(#paint9_linear)"/>
<path d="M10 58.75C7.9325 58.75 6.25 60.4325 6.25 62.5C6.25 64.5675 7.9325 66.25 10 66.25C12.0675 66.25 13.75 64.5675 13.75 62.5C13.75 60.4325 12.0675 58.75 10 58.75ZM10 63.75C9.31125 63.75 8.75 63.19 8.75 62.5C8.75 61.81 9.31125 61.25 10 61.25C10.6887 61.25 11.25 61.81 11.25 62.5C11.25 63.19 10.6887 63.75 10 63.75Z" fill="url(#paint10_linear)"/>
<defs>
<linearGradient id="paint0_linear" x1="66.25" y1="20" x2="78.2144" y2="20" gradientUnits="userSpaceOnUse">
<stop offset="0.151042" stop-color="#F39324"/>
<stop offset="1" stop-color="#EC663B"/>
</linearGradient>
<linearGradient id="paint1_linear" x1="61.25" y1="78.75" x2="78.0001" y2="78.75" gradientUnits="userSpaceOnUse">
<stop offset="0.151042" stop-color="#F39324"/>
<stop offset="1" stop-color="#EC663B"/>
</linearGradient>
<linearGradient id="paint2_linear" x1="1.25" y1="71.25" x2="18.0001" y2="71.25" gradientUnits="userSpaceOnUse">
<stop offset="0.151042" stop-color="#F39324"/>
<stop offset="1" stop-color="#EC663B"/>
</linearGradient>
<linearGradient id="paint3_linear" x1="36.25" y1="8.75" x2="43.4286" y2="8.75" gradientUnits="userSpaceOnUse">
<stop offset="0.151042" stop-color="#F39324"/>
<stop offset="1" stop-color="#EC663B"/>
</linearGradient>
<linearGradient id="paint4_linear" x1="71.25" y1="38.75" x2="78.4286" y2="38.75" gradientUnits="userSpaceOnUse">
<stop offset="0.151042" stop-color="#F39324"/>
<stop offset="1" stop-color="#EC663B"/>
</linearGradient>
<linearGradient id="paint5_linear" x1="1.25" y1="38.75" x2="8.42862" y2="38.75" gradientUnits="userSpaceOnUse">
<stop offset="0.151042" stop-color="#F39324"/>
<stop offset="1" stop-color="#EC663B"/>
</linearGradient>
<linearGradient id="paint6_linear" x1="3.75" y1="16.25" x2="15.7144" y2="16.25" gradientUnits="userSpaceOnUse">
<stop offset="0.151042" stop-color="#F39324"/>
<stop offset="1" stop-color="#EC663B"/>
</linearGradient>
<linearGradient id="paint7_linear" x1="66.25" y1="20" x2="78.2144" y2="20" gradientUnits="userSpaceOnUse">
<stop offset="0.151042" stop-color="#F39324"/>
<stop offset="1" stop-color="#EC663B"/>
</linearGradient>
<linearGradient id="paint8_linear" x1="8.52002" y1="8.52002" x2="78.3329" y2="71.1074" gradientUnits="userSpaceOnUse">
<stop offset="0.0238214" stop-color="#4F5062"/>
<stop offset="0.67038" stop-color="#3A3A4A"/>
</linearGradient>
<linearGradient id="paint9_linear" x1="66.25" y1="66.25" x2="73.75" y2="73.75" gradientUnits="userSpaceOnUse">
<stop offset="0.0238214" stop-color="#4F5062"/>
<stop offset="0.67038" stop-color="#3A3A4A"/>
</linearGradient>
<linearGradient id="paint10_linear" x1="6.25" y1="58.75" x2="13.75" y2="66.25" gradientUnits="userSpaceOnUse">
<stop offset="0.0238214" stop-color="#4F5062"/>
<stop offset="0.67038" stop-color="#3A3A4A"/>
</linearGradient>
</defs>
</svg>
