<svg width="825" height="562" viewBox="0 0 825 562" fill="none" xmlns="http://www.w3.org/2000/svg">
<path d="M12.4502 451.82L12.4502 463.02L11.3302 463.02L11.3302 453.516L7.41018 460.076L7.25018 460.076L3.33018 453.516L3.33018 463.02L2.21018 463.02L2.21018 451.82L3.60218 451.82L7.33018 458.06L11.0582 451.82L12.4502 451.82ZM27.4711 461.532C26.3511 462.652 24.9804 463.212 23.3591 463.212C21.7377 463.212 20.3671 462.652 19.2471 461.532C18.1271 460.401 17.5671 459.03 17.5671 457.42C17.5671 455.809 18.1271 454.444 19.2471 453.324C20.3671 452.193 21.7377 451.628 23.3591 451.628C24.9804 451.628 26.3511 452.193 27.4711 453.324C28.5911 454.444 29.1511 455.809 29.1511 457.42C29.1511 459.03 28.5911 460.401 27.4711 461.532ZM20.0311 460.764C20.9271 461.67 22.0364 462.124 23.3591 462.124C24.6817 462.124 25.7911 461.67 26.6871 460.764C27.5831 459.846 28.0311 458.732 28.0311 457.42C28.0311 456.108 27.5831 454.998 26.6871 454.092C25.7911 453.174 24.6817 452.716 23.3591 452.716C22.0364 452.716 20.9271 453.174 20.0311 454.092C19.1351 454.998 18.6871 456.108 18.6871 457.42C18.6871 458.732 19.1351 459.846 20.0311 460.764ZM39.4984 463.212C37.8024 463.212 36.3998 462.652 35.2904 461.532C34.1811 460.412 33.6264 459.041 33.6264 457.42C33.6264 455.798 34.1811 454.428 35.2904 453.308C36.3998 452.188 37.8024 451.628 39.4984 451.628C40.5331 451.628 41.4824 451.878 42.3464 452.38C43.2104 452.87 43.8771 453.537 44.3464 454.38L43.3544 454.956C43.0024 454.273 42.4798 453.729 41.7864 453.324C41.0931 452.918 40.3304 452.716 39.4984 452.716C38.1011 452.716 36.9598 453.169 36.0744 454.076C35.1891 454.982 34.7464 456.097 34.7464 457.42C34.7464 458.742 35.1891 459.857 36.0744 460.764C36.9598 461.67 38.1011 462.124 39.4984 462.124C40.3304 462.124 41.0931 461.921 41.7864 461.516C42.4798 461.11 43.0024 460.566 43.3544 459.884L44.3464 460.444C43.8878 461.286 43.2211 461.958 42.3464 462.46C41.4824 462.961 40.5331 463.212 39.4984 463.212ZM57.2283 463.02L55.7563 463.02L50.5083 457.596L50.5083 463.02L49.3883 463.02L49.3883 451.82L50.5083 451.82L50.5083 456.94L55.5963 451.82L57.0683 451.82L51.6923 457.26L57.2283 463.02ZM68.0776 457.212C68.6216 457.446 69.0536 457.804 69.3736 458.284C69.7042 458.753 69.8696 459.292 69.8696 459.9C69.8696 460.764 69.5656 461.5 68.9575 462.108C68.3496 462.716 67.6136 463.02 66.7496 463.02L61.8696 463.02L61.8696 451.82L66.3816 451.82C67.2136 451.82 67.9229 452.118 68.5096 452.716C69.0962 453.302 69.3896 454.006 69.3896 454.828C69.3896 455.873 68.9522 456.668 68.0776 457.212ZM66.3816 452.876L62.9896 452.876L62.9896 456.78L66.3816 456.78C66.9042 456.78 67.3469 456.593 67.7096 456.22C68.0829 455.836 68.2696 455.372 68.2696 454.828C68.2696 454.294 68.0829 453.836 67.7096 453.452C67.3469 453.068 66.9042 452.876 66.3816 452.876ZM66.7496 461.964C67.3042 461.964 67.7736 461.766 68.1576 461.372C68.5522 460.966 68.7496 460.476 68.7496 459.9C68.7496 459.334 68.5522 458.849 68.1576 458.444C67.7736 458.038 67.3042 457.836 66.7496 457.836L62.9896 457.836L62.9896 461.964L66.7496 461.964ZM82.4474 463.02L81.4074 460.268L76.0954 460.268L75.0554 463.02L73.8714 463.02L78.1754 451.82L79.3274 451.82L83.6314 463.02L82.4474 463.02ZM76.4954 459.212L81.0074 459.212L78.7514 453.212L76.4954 459.212Z" fill="#2C2F49"/>
<path d="M267.275 155.2C268.779 155.2 270.035 155.704 271.043 156.712C272.051 157.72 272.555 158.976 272.555 160.48C272.555 161.984 272.051 163.24 271.043 164.248C270.035 165.256 268.779 165.76 267.275 165.76H262.955V172H261.275V155.2H267.275ZM267.275 164.176C268.315 164.176 269.171 163.832 269.843 163.144C270.531 162.44 270.875 161.552 270.875 160.48C270.875 159.408 270.531 158.528 269.843 157.84C269.171 157.136 268.315 156.784 267.275 156.784H262.955V164.176H267.275ZM294.011 169.768C292.331 171.448 290.275 172.288 287.843 172.288C285.411 172.288 283.355 171.448 281.675 169.768C279.995 168.072 279.155 166.016 279.155 163.6C279.155 161.184 279.995 159.136 281.675 157.456C283.355 155.76 285.411 154.912 287.843 154.912C290.275 154.912 292.331 155.76 294.011 157.456C295.691 159.136 296.531 161.184 296.531 163.6C296.531 166.016 295.691 168.072 294.011 169.768ZM282.851 168.616C284.195 169.976 285.859 170.656 287.843 170.656C289.827 170.656 291.491 169.976 292.835 168.616C294.179 167.24 294.851 165.568 294.851 163.6C294.851 161.632 294.179 159.968 292.835 158.608C291.491 157.232 289.827 156.544 287.843 156.544C285.859 156.544 284.195 157.232 282.851 158.608C281.507 159.968 280.835 161.632 280.835 163.6C280.835 165.568 281.507 167.24 282.851 168.616ZM312.052 172.288C309.508 172.288 307.404 171.448 305.74 169.768C304.076 168.088 303.244 166.032 303.244 163.6C303.244 161.168 304.076 159.112 305.74 157.432C307.404 155.752 309.508 154.912 312.052 154.912C313.604 154.912 315.028 155.288 316.324 156.04C317.62 156.776 318.62 157.776 319.324 159.04L317.836 159.904C317.308 158.88 316.524 158.064 315.484 157.456C314.444 156.848 313.3 156.544 312.052 156.544C309.956 156.544 308.244 157.224 306.916 158.584C305.588 159.944 304.924 161.616 304.924 163.6C304.924 165.584 305.588 167.256 306.916 168.616C308.244 169.976 309.956 170.656 312.052 170.656C313.3 170.656 314.444 170.352 315.484 169.744C316.524 169.136 317.308 168.32 317.836 167.296L319.324 168.136C318.636 169.4 317.636 170.408 316.324 171.16C315.028 171.912 313.604 172.288 312.052 172.288ZM334.734 172.288C332.19 172.288 330.086 171.448 328.422 169.768C326.758 168.088 325.926 166.032 325.926 163.6C325.926 161.168 326.758 159.112 328.422 157.432C330.086 155.752 332.19 154.912 334.734 154.912C336.286 154.912 337.71 155.288 339.006 156.04C340.302 156.776 341.302 157.776 342.006 159.04L340.518 159.904C339.99 158.88 339.206 158.064 338.166 157.456C337.126 156.848 335.982 156.544 334.734 156.544C332.638 156.544 330.926 157.224 329.598 158.584C328.27 159.944 327.606 161.616 327.606 163.6C327.606 165.584 328.27 167.256 329.598 168.616C330.926 169.976 332.638 170.656 334.734 170.656C335.982 170.656 337.126 170.352 338.166 169.744C339.206 169.136 339.99 168.32 340.518 167.296L342.006 168.136C341.318 169.4 340.318 170.408 339.006 171.16C337.71 171.912 336.286 172.288 334.734 172.288ZM360.369 172V158.32L351.009 172H349.569V155.2H351.249V168.88L360.609 155.2H362.049V172H360.369ZM381.722 155.2V172H380.042V165.28H376.01L371.402 172H369.482L374.162 165.208C372.962 165 371.962 164.432 371.162 163.504C370.362 162.56 369.962 161.472 369.962 160.24C369.962 158.848 370.45 157.664 371.426 156.688C372.418 155.696 373.61 155.2 375.002 155.2H381.722ZM375.002 163.696H380.042V156.784H375.002C374.074 156.784 373.282 157.12 372.626 157.792C371.97 158.464 371.642 159.28 371.642 160.24C371.642 161.184 371.97 162 372.626 162.688C373.282 163.36 374.074 163.696 375.002 163.696Z" fill="#C3C4D4"/>
<path d="M587.865 387.745H585.657L577.785 379.609V387.745H576.105V370.945H577.785V378.625L585.417 370.945H587.625L579.561 379.105L587.865 387.745ZM605.627 387.745V374.065L596.267 387.745H594.827V370.945H596.507V384.625L605.867 370.945H607.307V387.745H605.627ZM626.5 370.945V372.529H621.34V387.745H619.66V372.529H614.5V370.945H626.5ZM643.689 387.745L642.129 383.617H634.161L632.601 387.745H630.825L637.281 370.945H639.009L645.465 387.745H643.689ZM634.761 382.033H641.529L638.145 373.033L634.761 382.033ZM655.542 369.025V367.633H661.782V369.025H655.542ZM663.222 387.745V374.065L653.862 387.745H652.422V370.945H654.102V384.625L663.462 370.945H664.902V387.745H663.222Z" fill="#F39323"/>
<path d="M744.105 320.544L745.225 320.544L745.225 331.744L732.585 331.744L732.585 320.544L733.705 320.544L733.705 330.688L738.345 330.688L738.345 320.544L739.465 320.544L739.465 330.688L744.105 330.688L744.105 320.544ZM758.444 331.744L757.404 328.992L752.092 328.992L751.052 331.744L749.868 331.744L754.172 320.544L755.324 320.544L759.628 331.744L758.444 331.744ZM752.492 327.936L757.004 327.936L754.748 321.936L752.492 327.936ZM771.466 320.544L772.586 320.544L772.586 331.744L771.466 331.744L771.466 326.512L765.386 326.512L765.386 331.744L764.266 331.744L764.266 320.544L765.386 320.544L765.386 325.456L771.466 325.456L771.466 320.544ZM786.021 331.744L784.741 331.744L781.701 326.96L778.661 331.744L777.381 331.744L781.061 325.968L777.621 320.544L778.885 320.544L781.701 324.96L784.517 320.544L785.781 320.544L782.341 325.968L786.021 331.744ZM798.278 331.744L797.238 328.992L791.926 328.992L790.886 331.744L789.702 331.744L794.006 320.544L795.158 320.544L799.462 331.744L798.278 331.744ZM792.326 327.936L796.838 327.936L794.582 321.936L792.326 327.936ZM806.18 319.264L806.18 318.336L810.34 318.336L810.34 319.264L806.18 319.264ZM811.3 331.744L811.3 322.624L805.06 331.744L804.1 331.744L804.1 320.544L805.22 320.544L805.22 329.664L811.46 320.544L812.42 320.544L812.42 331.744L811.3 331.744Z" fill="#2C2F49"/>
<path opacity="0.4" d="M164.789 474.948C164.789 492.464 125.537 499.02 125.537 499.02C125.537 499.02 116.803 492.464 116.803 474.948C116.803 468.682 127.545 463.02 140.796 463.02C154.047 463.02 164.789 467.754 164.789 474.948Z" fill="#878894"/>
<path d="M148.775 459.02C148.775 477.02 124.782 499.02 124.782 499.02C124.782 499.02 100.789 477.02 100.789 459.02C100.789 445.765 111.531 435.02 124.782 435.02C138.033 435.02 148.775 445.765 148.775 459.02Z" fill="#2C2F49"/>
<ellipse cx="124.782" cy="459.02" rx="19.9941" ry="20" fill="#EC663B"/>
<path d="M125.575 467.308C123.031 467.308 120.927 466.468 119.263 464.788C117.599 463.108 116.767 461.052 116.767 458.62C116.767 456.188 117.599 454.132 119.263 452.452C120.927 450.772 123.031 449.932 125.575 449.932C127.127 449.932 128.551 450.308 129.847 451.06C131.143 451.796 132.143 452.796 132.847 454.06L131.359 454.924C130.831 453.9 130.047 453.084 129.007 452.476C127.967 451.868 126.823 451.564 125.575 451.564C123.479 451.564 121.767 452.244 120.439 453.604C119.111 454.964 118.447 456.636 118.447 458.62C118.447 460.604 119.111 462.276 120.439 463.636C121.767 464.996 123.479 465.676 125.575 465.676C126.823 465.676 127.967 465.372 129.007 464.764C130.047 464.156 130.831 463.34 131.359 462.316L132.847 463.156C132.159 464.42 131.159 465.428 129.847 466.18C128.551 466.932 127.127 467.308 125.575 467.308Z" fill="white"/>
<path d="M551.488 117.191C552.032 117.426 552.464 117.783 552.784 118.263C553.115 118.732 553.28 119.271 553.28 119.879C553.28 120.743 552.976 121.479 552.368 122.087C551.76 122.695 551.024 122.999 550.16 122.999L545.28 122.999L545.28 111.799L549.792 111.799C550.624 111.799 551.333 112.098 551.92 112.695C552.507 113.282 552.8 113.986 552.8 114.807C552.8 115.852 552.363 116.647 551.488 117.191ZM549.792 112.855L546.4 112.855L546.4 116.759L549.792 116.759C550.315 116.759 550.757 116.572 551.12 116.199C551.493 115.815 551.68 115.351 551.68 114.807C551.68 114.274 551.493 113.815 551.12 113.431C550.757 113.047 550.315 112.855 549.792 112.855ZM550.16 121.943C550.715 121.943 551.184 121.746 551.568 121.351C551.963 120.946 552.16 120.455 552.16 119.879C552.16 119.314 551.963 118.828 551.568 118.423C551.184 118.018 550.715 117.815 550.16 117.815L546.4 117.815L546.4 121.943L550.16 121.943ZM556.877 122.999L556.877 122.007C557.656 122.114 558.237 121.874 558.621 121.287C559.016 120.69 559.213 119.602 559.213 118.023L559.213 111.799L566.477 111.799L566.477 122.999L565.357 122.999L565.358 112.855L560.333 112.855L560.333 118.055C560.333 119.068 560.253 119.916 560.093 120.599C559.933 121.282 559.693 121.804 559.373 122.167C559.064 122.519 558.707 122.759 558.301 122.887C557.907 123.004 557.432 123.042 556.877 122.999ZM579.698 122.999L578.659 120.247L573.346 120.247L572.306 122.999L571.122 122.999L575.426 111.799L576.578 111.799L580.882 122.999L579.698 122.999ZM573.746 119.191L578.259 119.191L576.003 113.191L573.746 119.191ZM593.521 121.943L594.721 121.943L594.721 125.143L593.601 125.143L593.601 122.999L585.601 122.999L585.601 125.143L584.481 125.143L584.481 121.943L585.393 121.943C586.129 121.079 586.497 119.746 586.497 117.943L586.497 111.799L593.521 111.799L593.521 121.943ZM586.721 121.943L592.401 121.943L592.401 112.855L587.617 112.855L587.617 117.975C587.617 119.746 587.318 121.068 586.721 121.943ZM606.967 122.999L606.967 113.879L600.727 122.999L599.767 122.999L599.767 111.799L600.887 111.799L600.887 120.919L607.127 111.799L608.087 111.799L608.087 122.999L606.967 122.999ZM620.051 117.191C620.595 117.426 621.027 117.783 621.347 118.263C621.677 118.732 621.843 119.271 621.843 119.879C621.843 120.743 621.539 121.479 620.93 122.087C620.323 122.695 619.587 122.999 618.723 122.999L613.842 122.999L613.843 111.799L618.355 111.799C619.187 111.799 619.896 112.098 620.483 112.695C621.069 113.282 621.363 113.986 621.363 114.807C621.363 115.852 620.925 116.647 620.051 117.191ZM618.355 112.855L614.963 112.855L614.963 116.759L618.355 116.759C618.877 116.759 619.32 116.572 619.683 116.199C620.056 115.815 620.243 115.351 620.243 114.807C620.243 114.274 620.056 113.815 619.683 113.431C619.32 113.047 618.877 112.855 618.355 112.855ZM618.723 121.943C619.277 121.943 619.747 121.746 620.131 121.351C620.525 120.946 620.723 120.455 620.723 119.879C620.723 119.314 620.525 118.828 620.131 118.423C619.747 118.018 619.277 117.815 618.723 117.815L614.963 117.815L614.963 121.943L618.723 121.943ZM636.228 121.511C635.108 122.631 633.738 123.191 632.116 123.191C630.495 123.191 629.124 122.631 628.004 121.511C626.884 120.38 626.324 119.01 626.324 117.399C626.324 115.788 626.884 114.423 628.004 113.303C629.124 112.172 630.495 111.607 632.116 111.607C633.738 111.607 635.108 112.172 636.228 113.303C637.348 114.423 637.908 115.788 637.908 117.399C637.908 119.01 637.348 120.38 636.228 121.511ZM628.788 120.743C629.684 121.65 630.794 122.103 632.116 122.103C633.439 122.103 634.548 121.65 635.444 120.743C636.34 119.826 636.788 118.711 636.788 117.399C636.788 116.087 636.34 114.978 635.444 114.071C634.548 113.154 633.439 112.695 632.116 112.695C630.794 112.695 629.684 113.154 628.788 114.071C627.892 114.978 627.444 116.087 627.444 117.399C627.444 118.711 627.892 119.826 628.788 120.743ZM648.256 123.191C646.56 123.191 645.157 122.631 644.048 121.511C642.938 120.391 642.384 119.02 642.384 117.399C642.384 115.778 642.938 114.407 644.048 113.287C645.157 112.167 646.56 111.607 648.256 111.607C649.29 111.607 650.24 111.858 651.104 112.359C651.968 112.85 652.634 113.516 653.104 114.359L652.112 114.935C651.76 114.252 651.237 113.708 650.544 113.303C649.85 112.898 649.088 112.695 648.256 112.695C646.858 112.695 645.717 113.148 644.832 114.055C643.946 114.962 643.504 116.076 643.504 117.399C643.504 118.722 643.946 119.836 644.832 120.743C645.717 121.65 646.858 122.103 648.256 122.103C649.088 122.103 649.85 121.9 650.544 121.495C651.237 121.09 651.76 120.546 652.112 119.863L653.104 120.423C652.645 121.266 651.978 121.938 651.104 122.439C650.24 122.94 649.29 123.191 648.256 123.191ZM665.029 111.799L665.029 112.855L661.589 112.855L661.589 122.999L660.469 122.999L660.469 112.855L657.029 112.855L657.029 111.799L665.029 111.799ZM678.453 121.511C677.333 122.631 675.963 123.191 674.341 123.191C672.72 123.191 671.349 122.631 670.229 121.511C669.109 120.38 668.549 119.01 668.549 117.399C668.549 115.788 669.109 114.423 670.229 113.303C671.349 112.172 672.72 111.607 674.341 111.607C675.963 111.607 677.333 112.172 678.453 113.303C679.573 114.423 680.133 115.788 680.133 117.399C680.133 119.01 679.573 120.38 678.453 121.511ZM671.013 120.743C671.909 121.65 673.019 122.103 674.341 122.103C675.664 122.103 676.773 121.65 677.669 120.743C678.565 119.826 679.013 118.711 679.013 117.399C679.013 116.087 678.565 114.978 677.669 114.071C676.773 113.154 675.664 112.695 674.341 112.695C673.019 112.695 671.909 113.154 671.013 114.071C670.117 114.978 669.669 116.087 669.669 117.399C669.669 118.711 670.117 119.826 671.013 120.743ZM693.089 122.999L691.617 122.999L686.369 117.575L686.369 122.999L685.249 122.999L685.249 111.799L686.369 111.799L686.369 116.919L691.457 111.799L692.929 111.799L687.553 117.239L693.089 122.999Z" fill="#2C2F49"/>
<path d="M732.375 136.211C739.871 161.905 765.83 183.868 780.807 190.809C790.757 195.421 805.601 215.754 800.227 234.446C793.195 258.901 778.184 270.266 771.658 280.962" stroke="#EC663B" stroke-width="4" stroke-linecap="round" stroke-linejoin="round" stroke-dasharray="4 8"/>
<path d="M146.311 477.226C145.728 478.165 146.017 479.398 146.955 479.98L162.25 489.471C163.188 490.054 164.421 489.765 165.004 488.827C165.586 487.888 165.297 486.655 164.359 486.073L150.764 477.636L159.201 464.041C159.783 463.102 159.494 461.869 158.556 461.287C157.617 460.705 156.384 460.993 155.802 461.932L146.311 477.226ZM248.098 340.952L246.734 339.489L248.098 340.952ZM462.968 146.769L461.318 145.638L462.968 146.769ZM541.066 83.5476L540.569 81.6104L541.066 83.5476ZM607.185 91.9594L607.256 93.9581L607.185 91.9594ZM676.685 83.5476L677.222 81.6209L676.685 83.5476ZM726.789 142.099C727.028 143.178 728.096 143.858 729.174 143.619C730.252 143.38 730.933 142.312 730.694 141.234L726.789 142.099ZM150.445 479.757C151.519 479.498 152.18 478.418 151.921 477.344C151.661 476.27 150.581 475.61 149.507 475.869L150.445 479.757ZM156.965 473.958C155.899 474.248 155.27 475.347 155.56 476.413C155.85 477.479 156.95 478.108 158.015 477.818L156.965 473.958ZM161.837 476.743C162.898 476.435 163.509 475.326 163.201 474.265C162.893 473.204 161.783 472.594 160.723 472.902L161.837 476.743ZM168.019 470.64C166.97 470.987 166.402 472.119 166.749 473.167C167.097 474.216 168.229 474.784 169.277 474.437L168.019 470.64ZM173.079 473.131C174.119 472.76 174.662 471.616 174.291 470.575C173.921 469.535 172.776 468.992 171.736 469.363L173.079 473.131ZM178.892 466.613C177.872 467.036 177.388 468.206 177.811 469.227C178.235 470.247 179.405 470.731 180.425 470.308L178.892 466.613ZM184.007 468.76C185.015 468.307 185.464 467.123 185.011 466.116C184.557 465.108 183.373 464.659 182.366 465.112L184.007 468.76ZM189.212 461.748C188.239 462.271 187.875 463.484 188.398 464.457C188.921 465.429 190.134 465.794 191.107 465.27L189.212 461.748ZM194.608 463.291C195.558 462.727 195.87 461.5 195.305 460.55C194.741 459.601 193.514 459.289 192.564 459.853L194.608 463.291ZM198.872 455.68C197.983 456.337 197.796 457.589 198.452 458.477C199.109 459.365 200.362 459.553 201.25 458.896L198.872 455.68ZM204.395 456.426C205.242 455.717 205.355 454.456 204.647 453.609C203.939 452.761 202.678 452.648 201.83 453.356L204.395 456.426ZM207.245 448.18C206.503 448.998 206.564 450.263 207.382 451.005C208.2 451.747 209.465 451.686 210.207 450.867L207.245 448.18ZM212.808 447.77C213.485 446.897 213.326 445.641 212.453 444.964C211.58 444.287 210.324 444.446 209.647 445.319L212.808 447.77ZM213.71 439.104C213.182 440.075 213.542 441.289 214.512 441.816C215.483 442.343 216.697 441.984 217.224 441.014L213.71 439.104ZM219.015 437.378C219.463 436.368 219.008 435.186 217.999 434.738C216.989 434.29 215.807 434.745 215.359 435.754L219.015 437.378ZM217.888 428.703C217.587 429.766 218.205 430.872 219.268 431.172C220.33 431.473 221.436 430.856 221.737 429.793L217.888 428.703ZM222.711 425.908C222.949 424.829 222.268 423.762 221.189 423.524C220.111 423.286 219.043 423.967 218.805 425.046L222.711 425.908ZM220.092 417.55C219.95 418.645 220.722 419.649 221.817 419.792C222.912 419.934 223.916 419.162 224.059 418.067L220.092 417.55ZM224.51 414.142C224.62 413.043 223.819 412.062 222.72 411.951C221.621 411.84 220.641 412.641 220.53 413.74L224.51 414.142ZM221.165 406.049C221.087 407.151 221.918 408.107 223.02 408.185C224.121 408.262 225.077 407.432 225.155 406.33L221.165 406.049ZM225.421 402.443C225.496 401.341 224.664 400.387 223.562 400.312C222.46 400.237 221.506 401.069 221.431 402.171L225.421 402.443ZM222.018 394.367C221.922 395.468 222.736 396.438 223.836 396.534C224.936 396.631 225.907 395.817 226.003 394.717L222.018 394.367ZM226.377 390.888C226.497 389.79 225.704 388.803 224.605 388.683C223.507 388.563 222.52 389.357 222.401 390.455L226.377 390.888ZM223.486 382.626C223.298 383.715 224.027 384.75 225.116 384.938C226.204 385.127 227.239 384.397 227.427 383.309L223.486 382.626ZM228.152 379.567C228.385 378.488 227.698 377.424 226.619 377.191C225.539 376.958 224.475 377.645 224.242 378.724L228.152 379.567ZM226.288 371.021C225.952 372.073 226.531 373.199 227.583 373.536C228.635 373.873 229.761 373.293 230.098 372.241L226.288 371.021ZM231.346 368.678C231.74 367.646 231.223 366.49 230.191 366.096C229.159 365.703 228.003 366.22 227.609 367.252L231.346 368.678ZM230.894 359.934C230.384 360.914 230.765 362.122 231.744 362.632C232.724 363.142 233.932 362.762 234.442 361.782L230.894 359.934ZM236.272 358.505C236.838 357.556 236.528 356.329 235.579 355.763C234.631 355.196 233.403 355.506 232.837 356.455L236.272 358.505ZM237.335 349.809C236.666 350.688 236.836 351.943 237.715 352.612C238.594 353.281 239.848 353.111 240.518 352.232L237.335 349.809ZM242.867 349.308C243.58 348.465 243.476 347.203 242.633 346.489C241.79 345.776 240.528 345.881 239.814 346.723L242.867 349.308ZM245.257 340.897C244.466 341.668 244.45 342.935 245.221 343.725C245.992 344.516 247.258 344.533 248.049 343.762L245.257 340.897ZM250.927 341.086C251.756 340.356 251.835 339.092 251.104 338.263C250.374 337.435 249.11 337.356 248.281 338.086L250.927 341.086ZM254.769 332.986C253.862 333.618 253.64 334.864 254.271 335.771C254.903 336.677 256.149 336.899 257.056 336.268L254.769 332.986ZM260.317 334.134C261.259 333.557 261.555 332.326 260.977 331.384C260.4 330.442 259.169 330.147 258.227 330.724L260.317 334.134ZM265.522 326.82C264.52 327.284 264.084 328.473 264.548 329.475C265.012 330.477 266.201 330.913 267.204 330.449L265.522 326.82ZM270.797 328.904C271.823 328.495 272.323 327.332 271.915 326.306C271.506 325.279 270.343 324.779 269.316 325.188L270.797 328.904ZM277.11 322.531C276.049 322.837 275.437 323.946 275.743 325.007C276.049 326.068 277.157 326.681 278.218 326.375L277.11 322.531ZM282.023 325.366C283.096 325.106 283.754 324.024 283.494 322.951C283.233 321.877 282.151 321.219 281.078 321.48L282.023 325.366ZM289.088 319.837C288 320.024 287.268 321.057 287.454 322.146C287.641 323.235 288.675 323.966 289.763 323.78L289.088 319.837ZM293.683 323.163C294.776 323.006 295.535 321.992 295.377 320.898C295.22 319.805 294.206 319.047 293.112 319.204L293.683 323.163ZM301.167 318.209C300.068 318.326 299.273 319.311 299.39 320.409C299.507 321.508 300.493 322.303 301.591 322.186L301.167 318.209ZM305.571 321.785C306.67 321.68 307.476 320.703 307.371 319.603C307.266 318.504 306.289 317.698 305.189 317.803L305.571 321.785ZM313.214 317.077C312.114 317.174 311.301 318.145 311.398 319.245C311.496 320.346 312.467 321.159 313.567 321.061L313.214 317.077ZM317.58 320.701C318.679 320.6 319.489 319.626 319.388 318.526C319.287 317.426 318.313 316.616 317.213 316.718L317.58 320.701ZM325.175 315.916C324.077 316.04 323.287 317.029 323.411 318.127C323.534 319.225 324.524 320.015 325.621 319.891L325.175 315.916ZM329.646 319.407C330.741 319.266 331.515 318.263 331.373 317.167C331.232 316.072 330.229 315.298 329.134 315.44L329.646 319.407ZM336.994 314.254C335.906 314.445 335.179 315.482 335.37 316.57C335.561 317.657 336.598 318.385 337.686 318.193L336.994 314.254ZM341.692 317.432C342.774 317.21 343.471 316.153 343.249 315.071C343.027 313.989 341.97 313.292 340.888 313.514L341.692 317.432ZM348.576 311.673C347.511 311.967 346.887 313.069 347.181 314.134C347.476 315.198 348.578 315.823 349.642 315.528L348.576 311.673ZM353.572 314.36C354.624 314.025 355.206 312.9 354.87 311.847C354.535 310.795 353.41 310.213 352.358 310.549L353.572 314.36ZM359.754 307.853C358.733 308.275 358.248 309.445 358.67 310.465C359.092 311.486 360.261 311.971 361.282 311.549L359.754 307.853ZM365.039 309.898C366.04 309.432 366.474 308.242 366.007 307.241C365.54 306.239 364.35 305.806 363.349 306.273L365.039 309.898ZM370.311 302.636C369.357 303.191 369.033 304.416 369.588 305.37C370.143 306.325 371.367 306.649 372.322 306.094L370.311 302.636ZM375.835 303.943C376.764 303.346 377.032 302.108 376.435 301.179C375.837 300.25 374.599 299.982 373.67 300.58L375.835 303.943ZM380.079 296.044C379.205 296.721 379.046 297.977 379.723 298.85C380.399 299.723 381.655 299.883 382.529 299.206L380.079 296.044ZM385.778 296.584C386.626 295.876 386.74 294.615 386.033 293.767C385.325 292.919 384.064 292.805 383.216 293.513L385.778 296.584ZM389.241 288.167C388.438 288.925 388.401 290.191 389.159 290.994C389.918 291.797 391.184 291.834 391.987 291.075L389.241 288.167ZM394.961 288.176C395.74 287.392 395.736 286.126 394.952 285.348C394.169 284.569 392.903 284.573 392.124 285.357L394.961 288.176ZM397.603 279.471C396.878 280.304 396.964 281.567 397.797 282.293C398.63 283.019 399.893 282.932 400.619 282.099L397.603 279.471ZM403.301 278.918C403.998 278.061 403.87 276.801 403.014 276.104C402.157 275.406 400.898 275.534 400.2 276.391L403.301 278.918ZM405.07 269.997C404.429 270.897 404.64 272.145 405.54 272.786C406.44 273.426 407.689 273.215 408.329 272.315L405.07 269.997ZM410.684 268.888C411.296 267.968 411.045 266.727 410.125 266.116C409.205 265.505 407.963 265.755 407.352 266.675L410.684 268.888ZM411.602 259.827C411.048 260.783 411.373 262.007 412.329 262.561C413.285 263.115 414.508 262.789 415.062 261.834L411.602 259.827ZM417.089 258.219C417.616 257.248 417.256 256.034 416.285 255.507C415.314 254.98 414.1 255.341 413.573 256.311L417.089 258.219ZM417.236 249.113C416.76 250.109 417.182 251.303 418.179 251.779C419.176 252.255 420.37 251.833 420.846 250.836L417.236 249.113ZM422.585 247.084C423.039 246.077 422.589 244.893 421.582 244.439C420.575 243.986 419.391 244.435 418.938 245.443L422.585 247.084ZM422.113 237.989C421.699 239.013 422.194 240.179 423.218 240.593C424.242 241.007 425.408 240.512 425.822 239.488L422.113 237.989ZM427.336 235.654C427.733 234.623 427.22 233.465 426.19 233.068C425.159 232.67 424.002 233.183 423.604 234.213L427.336 235.654ZM426.432 226.59C426.06 227.63 426.601 228.775 427.641 229.147C428.681 229.52 429.826 228.979 430.198 227.939L426.432 226.59ZM431.566 224.066C431.929 223.023 431.378 221.883 430.335 221.519C429.292 221.156 428.152 221.706 427.789 222.749L431.566 224.066ZM430.431 215.026C430.078 216.072 430.64 217.207 431.686 217.56C432.733 217.913 433.868 217.351 434.221 216.305L430.431 215.026ZM435.526 212.427C435.878 211.379 435.314 210.245 434.267 209.894C433.22 209.542 432.086 210.105 431.734 211.153L435.526 212.427ZM434.353 203.394C433.997 204.44 434.555 205.576 435.601 205.932C436.647 206.289 437.783 205.73 438.139 204.684L434.353 203.394ZM439.465 200.825C439.827 199.781 439.274 198.642 438.231 198.28C437.187 197.918 436.048 198.471 435.686 199.514L439.465 200.825ZM438.439 191.775C438.059 192.812 438.592 193.96 439.629 194.34C440.666 194.72 441.815 194.187 442.195 193.15L438.439 191.775ZM443.615 189.34C444.007 188.308 443.487 187.153 442.455 186.761C441.422 186.369 440.267 186.888 439.875 187.921L443.615 189.34ZM442.906 180.256C442.485 181.277 442.971 182.447 443.991 182.868C445.012 183.29 446.182 182.804 446.603 181.783L442.906 180.256ZM448.182 178.048C448.621 177.035 448.155 175.857 447.142 175.418C446.128 174.98 444.95 175.445 444.512 176.459L448.182 178.048ZM447.933 168.947C447.455 169.943 447.876 171.138 448.872 171.615C449.868 172.093 451.062 171.673 451.54 170.677L447.933 168.947ZM453.33 167.04C453.829 166.055 453.434 164.852 452.449 164.353C451.463 163.854 450.26 164.249 449.761 165.235L453.33 167.04ZM453.656 157.947C453.113 158.909 453.453 160.129 454.414 160.672C455.376 161.215 456.596 160.875 457.139 159.913L453.656 157.947ZM459.17 156.416C459.736 155.467 459.426 154.239 458.477 153.673C457.529 153.107 456.301 153.417 455.735 154.366L459.17 156.416ZM460.151 147.366C459.538 148.285 459.787 149.527 460.706 150.139C461.625 150.752 462.867 150.503 463.479 149.584L460.151 147.366ZM465.687 146.351C466.319 145.444 466.096 144.198 465.189 143.567C464.283 142.935 463.036 143.158 462.405 144.065L465.687 146.351ZM466.883 137.844C466.224 138.73 466.408 139.983 467.294 140.643C468.18 141.302 469.433 141.119 470.092 140.232L466.883 137.844ZM472.365 137.23C473.039 136.355 472.876 135.099 472.001 134.425C471.126 133.751 469.87 133.914 469.196 134.789L472.365 137.23ZM473.976 128.795C473.273 129.646 473.393 130.907 474.244 131.61C475.096 132.314 476.357 132.194 477.06 131.342L473.976 128.795ZM479.483 128.461C480.202 127.623 480.104 126.36 479.266 125.641C478.427 124.923 477.164 125.02 476.446 125.859L479.483 128.461ZM481.548 120.125C480.798 120.936 480.847 122.201 481.658 122.951C482.469 123.701 483.734 123.651 484.484 122.84L481.548 120.125ZM487.064 120.106C487.83 119.31 487.806 118.044 487.01 117.278C486.215 116.512 484.949 116.536 484.183 117.331L487.064 120.106ZM489.628 111.909C488.829 112.671 488.798 113.937 489.561 114.736C490.323 115.536 491.589 115.566 492.388 114.804L489.628 111.909ZM495.134 112.244C495.951 111.5 496.01 110.235 495.266 109.419C494.523 108.602 493.258 108.543 492.441 109.287L495.134 112.244ZM498.254 104.243C497.402 104.946 497.281 106.206 497.984 107.058C498.687 107.911 499.948 108.031 500.8 107.328L498.254 104.243ZM503.721 104.981C504.592 104.301 504.746 103.044 504.065 102.174C503.385 101.304 502.128 101.15 501.258 101.83L503.721 104.981ZM507.464 97.2512C506.556 97.8812 506.332 99.1274 506.961 100.035C507.592 100.942 508.838 101.167 509.745 100.537L507.464 97.2512ZM512.848 98.4513C513.774 97.8493 514.036 96.6105 513.434 95.6844C512.832 94.7584 511.594 94.4957 510.667 95.0977L512.848 98.4513ZM517.28 91.0963C516.317 91.6364 515.973 92.8552 516.513 93.8188C517.053 94.7824 518.272 95.1257 519.236 94.5857L517.28 91.0963ZM522.521 92.8196C523.503 92.314 523.889 91.1079 523.383 90.1259C522.877 89.1439 521.671 88.7578 520.689 89.2634L522.521 92.8196ZM527.706 85.9753C526.689 86.4052 526.212 87.5786 526.642 88.596C527.072 89.6135 528.246 90.0898 529.263 89.6598L527.706 85.9753ZM532.716 88.2815C533.75 87.893 534.274 86.7399 533.885 85.7059C533.497 84.6718 532.343 84.1486 531.309 84.5371L532.716 88.2815ZM538.691 82.1151C537.627 82.4136 537.007 83.5177 537.306 84.5812C537.604 85.6446 538.708 86.2647 539.772 85.9662L538.691 82.1151ZM543.321 85.0678C544.4 84.8327 545.084 83.7672 544.849 82.688C544.614 81.6087 543.548 80.9244 542.469 81.1595L543.321 85.0678ZM550.188 80.0945C549.085 80.1586 548.243 81.1045 548.307 82.2072C548.371 83.3099 549.317 84.1519 550.42 84.0877L550.188 80.0945ZM554.005 84.0215C555.11 84.0443 556.023 83.1675 556.046 82.0632C556.069 80.9589 555.192 80.0452 554.088 80.0224L554.005 84.0215ZM561.817 80.7438C560.727 80.5678 559.7 81.3091 559.524 82.3996C559.348 83.49 560.09 84.5167 561.18 84.6927L561.817 80.7438ZM564.752 85.3725C565.831 85.607 566.896 84.9221 567.131 83.8427C567.366 82.7633 566.681 81.6982 565.601 81.4636L564.752 85.3725ZM572.982 83.3654C571.921 83.0589 570.813 83.6708 570.506 84.732C570.2 85.7932 570.812 86.9019 571.873 87.2083L572.982 83.3654ZM575.44 88.2668C576.497 88.5863 577.613 87.9882 577.933 86.9308C578.252 85.8735 577.654 84.7573 576.597 84.4378L575.44 88.2668ZM583.743 86.5695C582.681 86.2668 581.575 86.8827 581.272 87.945C580.969 89.0073 581.585 90.1138 582.648 90.4164L583.743 86.5695ZM586.312 91.4117C587.382 91.6861 588.472 91.0411 588.746 89.9712C589.02 88.9012 588.375 87.8115 587.305 87.5371L586.312 91.4117ZM594.462 89.0804C593.373 88.8961 592.34 89.6296 592.156 90.7187C591.972 91.8078 592.705 92.84 593.794 93.0243L594.462 89.0804ZM597.609 93.5673C598.706 93.6932 599.698 92.9057 599.824 91.8084C599.95 90.711 599.162 89.7193 598.065 89.5934L597.609 93.5673ZM605.299 89.9968C604.194 90.0019 603.303 90.9014 603.308 92.006C603.313 93.1105 604.212 94.0018 605.317 93.9968L605.299 89.9968ZM609.3 93.8422C610.401 93.7572 611.225 92.7956 611.14 91.6942C611.055 90.593 610.094 89.7691 608.992 89.854L609.3 93.8422ZM616.543 88.7826C615.459 88.9936 614.751 90.0435 614.962 91.1278C615.173 92.212 616.223 92.9199 617.307 92.7089L616.543 88.7826ZM621.215 91.8762C622.291 91.6292 622.964 90.5561 622.717 89.4795C622.47 88.403 621.397 87.7305 620.32 87.9775L621.215 91.8762ZM627.881 86.0864C626.813 86.3679 626.175 87.462 626.457 88.5301C626.739 89.5982 627.833 90.2358 628.901 89.9543L627.881 86.0864ZM632.704 88.9449C633.771 88.6612 634.407 87.5659 634.123 86.4984C633.84 85.4308 632.744 84.7954 631.677 85.079L632.704 88.9449ZM639.327 83.1068C638.254 83.3691 637.597 84.4516 637.86 85.5245C638.122 86.5975 639.204 87.2547 640.277 86.9923L639.327 83.1068ZM644.063 86.107C645.141 85.8677 645.821 84.7995 645.582 83.7211C645.342 82.6428 644.274 81.9627 643.196 82.2021L644.063 86.107ZM651.045 80.7065C649.953 80.8749 649.205 81.8964 649.373 82.9881C649.541 84.0797 650.563 84.8281 651.654 84.6597L651.045 80.7065ZM655.462 84.156C656.56 84.0362 657.353 83.0491 657.234 81.951C657.114 80.8529 656.127 80.0598 655.029 80.1795L655.462 84.156ZM663.099 79.7388C661.995 79.7335 661.095 80.6247 661.09 81.7293C661.085 82.8338 661.976 83.7335 663.08 83.7387L663.099 79.7388ZM666.869 83.8841C667.971 83.965 668.93 83.1375 669.01 82.0359C669.091 80.9343 668.264 79.9757 667.162 79.8949L666.869 83.8841ZM675.235 81.1125C674.159 80.861 673.084 81.5291 672.832 82.6047C672.581 83.6803 673.249 84.756 674.324 85.0074L675.235 81.1125ZM677.928 86.0075C678.979 86.3452 680.106 85.7663 680.443 84.7146C680.781 83.6629 680.202 82.5366 679.15 82.199L677.928 86.0075ZM686.592 85.199C685.598 84.7166 684.402 85.131 683.919 86.1246C683.437 87.1182 683.851 88.3149 684.845 88.7973L686.592 85.199ZM688.161 90.5394C689.123 91.083 690.343 90.7441 690.886 89.7825C691.43 88.8209 691.091 87.6008 690.13 87.0572L688.161 90.5394ZM696.829 91.367C695.934 90.7197 694.684 90.9206 694.037 91.8156C693.39 92.7106 693.59 93.9609 694.485 94.6082L696.829 91.367ZM697.486 96.8971C698.348 97.5887 699.606 97.4511 700.298 96.5898C700.99 95.7286 700.852 94.4697 699.991 93.7781L697.486 96.8971ZM705.933 99.0285C705.139 98.2601 703.873 98.2805 703.105 99.0739C702.336 99.8674 702.357 101.134 703.15 101.902L705.933 99.0285ZM705.811 104.595C706.571 105.397 707.837 105.431 708.639 104.672C709.441 103.913 709.476 102.647 708.716 101.845L705.811 104.595ZM713.909 107.814C713.22 106.952 711.961 106.811 711.098 107.501C710.236 108.191 710.096 109.45 710.785 110.312L713.909 107.814ZM713.092 113.321C713.746 114.212 714.997 114.403 715.888 113.749C716.778 113.095 716.969 111.844 716.316 110.953L713.092 113.321ZM720.732 117.516C720.154 116.575 718.922 116.281 717.981 116.859C717.04 117.437 716.746 118.669 717.324 119.61L720.732 117.516ZM719.237 122.879C719.775 123.844 720.993 124.191 721.958 123.653C722.923 123.116 723.27 121.898 722.732 120.933L719.237 122.879ZM726.274 128.026C725.827 127.016 724.646 126.559 723.636 127.006C722.626 127.453 722.17 128.634 722.617 129.644L726.274 128.026ZM724.057 133.129C724.452 134.161 725.609 134.676 726.64 134.28C727.672 133.885 728.187 132.728 727.791 131.696L724.057 133.129ZM730.229 139.289C729.954 138.219 728.864 137.574 727.794 137.848C726.724 138.123 726.08 139.213 726.354 140.283L730.229 139.289ZM148.466 480.228C149.132 480.072 149.792 479.915 150.445 479.757L149.507 475.869C148.862 476.025 148.211 476.179 147.554 476.333L148.466 480.228ZM158.015 477.818C159.315 477.464 160.589 477.106 161.837 476.743L160.723 472.902C159.496 473.258 158.244 473.61 156.965 473.958L158.015 477.818ZM169.277 474.437C170.575 474.007 171.842 473.571 173.079 473.131L171.736 469.363C170.528 469.793 169.289 470.219 168.019 470.64L169.277 474.437ZM180.425 470.308C181.653 469.798 182.847 469.282 184.007 468.76L182.366 465.112C181.243 465.618 180.085 466.118 178.892 466.613L180.425 470.308ZM191.107 465.27C192.317 464.619 193.484 463.96 194.608 463.291L192.564 459.853C191.491 460.491 190.374 461.123 189.212 461.748L191.107 465.27ZM201.25 458.896C202.349 458.084 203.396 457.26 204.395 456.426L201.83 453.356C200.894 454.138 199.909 454.913 198.872 455.68L201.25 458.896ZM210.207 450.867C211.132 449.848 211.998 448.815 212.808 447.77L209.647 445.319C208.9 446.282 208.101 447.236 207.245 448.18L210.207 450.867ZM217.224 441.014C217.877 439.813 218.472 438.6 219.015 437.378L215.359 435.754C214.858 436.883 214.31 437.999 213.71 439.104L217.224 441.014ZM221.737 429.793C222.101 428.505 222.424 427.21 222.711 425.908L218.805 425.046C218.533 426.278 218.229 427.497 217.888 428.703L221.737 429.793ZM224.059 418.067C224.229 416.763 224.377 415.454 224.51 414.142L220.53 413.74C220.4 415.021 220.257 416.291 220.092 417.55L224.059 418.067ZM225.155 406.33C225.246 405.038 225.333 403.74 225.421 402.443L221.431 402.171C221.342 403.473 221.255 404.764 221.165 406.049L225.155 406.33ZM226.003 394.717C226.115 393.441 226.238 392.165 226.377 390.888L222.401 390.455C222.258 391.764 222.132 393.069 222.018 394.367L226.003 394.717ZM227.427 383.309C227.643 382.061 227.883 380.814 228.152 379.567L224.242 378.724C223.961 380.028 223.71 381.329 223.486 382.626L227.427 383.309ZM230.098 372.241C230.479 371.052 230.893 369.865 231.346 368.678L227.609 367.252C227.129 368.509 226.691 369.766 226.288 371.021L230.098 372.241ZM234.442 361.782C235.011 360.689 235.62 359.596 236.272 358.505L232.837 356.455C232.145 357.613 231.499 358.773 230.894 359.934L234.442 361.782ZM240.518 352.232C241.26 351.256 242.042 350.282 242.867 349.308L239.814 346.723C238.945 347.749 238.12 348.778 237.335 349.809L240.518 352.232ZM248.049 343.762C248.51 343.312 248.981 342.864 249.462 342.415L246.734 339.489C246.232 339.958 245.739 340.427 245.257 340.897L248.049 343.762ZM249.462 342.415C249.948 341.962 250.437 341.519 250.927 341.086L248.281 338.086C247.763 338.543 247.248 339.011 246.734 339.489L249.462 342.415ZM257.056 336.268C258.135 335.516 259.222 334.805 260.317 334.134L258.227 330.724C257.066 331.436 255.913 332.189 254.769 332.986L257.056 336.268ZM267.204 330.449C268.392 329.898 269.59 329.384 270.797 328.904L269.316 325.188C268.044 325.694 266.779 326.237 265.522 326.82L267.204 330.449ZM278.218 326.375C279.478 326.012 280.746 325.677 282.023 325.366L281.078 321.48C279.75 321.802 278.427 322.152 277.11 322.531L278.218 326.375ZM289.763 323.78C291.063 323.557 292.369 323.353 293.683 323.163L293.112 319.204C291.767 319.398 290.426 319.608 289.088 319.837L289.763 323.78ZM301.591 322.186C302.912 322.045 304.238 321.912 305.571 321.785L305.189 317.803C303.846 317.932 302.505 318.066 301.167 318.209L301.591 322.186ZM313.567 321.061C314.9 320.943 316.238 320.824 317.58 320.701L317.213 316.718C315.879 316.84 314.546 316.959 313.214 317.077L313.567 321.061ZM325.621 319.891C326.96 319.741 328.301 319.581 329.646 319.407L329.134 315.44C327.814 315.61 326.494 315.768 325.175 315.916L325.621 319.891ZM337.686 318.193C339.02 317.959 340.355 317.707 341.692 317.432L340.888 313.514C339.591 313.78 338.293 314.026 336.994 314.254L337.686 318.193ZM349.642 315.528C350.952 315.166 352.262 314.777 353.572 314.36L352.358 310.549C351.099 310.95 349.838 311.324 348.576 311.673L349.642 315.528ZM361.282 311.549C362.536 311.031 363.788 310.482 365.039 309.898L363.349 306.273C362.153 306.831 360.954 307.357 359.754 307.853L361.282 311.549ZM372.322 306.094C373.496 305.412 374.667 304.696 375.835 303.943L373.67 300.58C372.553 301.299 371.433 301.984 370.311 302.636L372.322 306.094ZM382.529 299.206C383.072 298.785 383.615 298.355 384.157 297.916L381.64 294.807C381.12 295.228 380.6 295.64 380.079 296.044L382.529 299.206ZM384.157 297.916C384.704 297.474 385.244 297.029 385.778 296.584L383.216 293.513C382.697 293.945 382.172 294.377 381.64 294.807L384.157 297.916ZM391.987 291.075C393.004 290.115 393.995 289.148 394.961 288.176L392.124 285.357C391.188 286.299 390.227 287.236 389.241 288.167L391.987 291.075ZM400.619 282.099C401.538 281.045 402.432 279.984 403.301 278.918L400.2 276.391C399.358 277.423 398.493 278.45 397.603 279.471L400.619 282.099ZM408.329 272.315C409.138 271.178 409.922 270.036 410.684 268.888L407.352 266.675C406.613 267.788 405.853 268.895 405.07 269.997L408.329 272.315ZM415.062 261.834C415.758 260.634 416.433 259.429 417.089 258.219L413.573 256.311C412.935 257.489 412.278 258.661 411.602 259.827L415.062 261.834ZM420.846 250.836C421.441 249.59 422.02 248.339 422.585 247.084L418.938 245.443C418.385 246.671 417.818 247.895 417.236 249.113L420.846 250.836ZM425.822 239.488C426.337 238.213 426.841 236.935 427.336 235.654L423.604 234.213C423.116 235.477 422.62 236.735 422.113 237.989L425.822 239.488ZM430.198 227.939C430.66 226.65 431.115 225.359 431.566 224.066L427.789 222.749C427.341 224.034 426.89 225.314 426.432 226.59L430.198 227.939ZM434.221 216.305C434.657 215.014 435.091 213.721 435.526 212.427L431.734 211.153C431.3 212.447 430.866 213.738 430.431 215.026L434.221 216.305ZM438.139 204.684C438.577 203.399 439.019 202.112 439.465 200.825L435.686 199.514C435.236 200.81 434.793 202.103 434.353 203.394L438.139 204.684ZM442.195 193.15C442.66 191.881 443.133 190.611 443.615 189.34L439.875 187.921C439.387 189.207 438.909 190.492 438.439 191.775L442.195 193.15ZM446.603 181.783C447.118 180.538 447.643 179.293 448.182 178.048L444.512 176.459C443.963 177.725 443.429 178.991 442.906 180.256L446.603 181.783ZM451.54 170.677C452.121 169.464 452.718 168.252 453.33 167.04L449.761 165.235C449.135 166.472 448.526 167.71 447.933 168.947L451.54 170.677ZM457.139 159.913C457.798 158.746 458.475 157.58 459.17 156.416L455.735 154.366C455.023 155.559 454.33 156.753 453.656 157.947L457.139 159.913ZM463.479 149.584C463.854 149.022 464.233 148.46 464.618 147.899L461.318 145.638C460.924 146.214 460.535 146.79 460.151 147.366L463.479 149.584ZM464.618 147.899C464.972 147.383 465.328 146.867 465.687 146.351L462.405 144.065C462.04 144.589 461.678 145.114 461.318 145.638L464.618 147.899ZM470.092 140.232C470.839 139.229 471.597 138.227 472.365 137.23L469.196 134.789C468.414 135.805 467.643 136.823 466.883 137.844L470.092 140.232ZM477.06 131.342C477.858 130.376 478.666 129.416 479.483 128.461L476.446 125.859C475.612 126.832 474.789 127.811 473.976 128.795L477.06 131.342ZM484.484 122.84C485.335 121.92 486.195 121.008 487.064 120.106L484.183 117.331C483.294 118.254 482.416 119.185 481.548 120.125L484.484 122.84ZM492.388 114.804C493.295 113.939 494.21 113.086 495.134 112.244L492.441 109.287C491.494 110.149 490.556 111.024 489.628 111.909L492.388 114.804ZM500.8 107.328C501.765 106.532 502.739 105.749 503.721 104.981L501.258 101.83C500.247 102.62 499.246 103.425 498.254 104.243L500.8 107.328ZM509.745 100.537C510.771 99.8244 511.805 99.1289 512.848 98.4513L510.667 95.0977C509.59 95.798 508.522 96.5161 507.464 97.2512L509.745 100.537ZM519.236 94.5857C520.323 93.9765 521.418 93.3875 522.521 92.8196L520.689 89.2634C519.544 89.8533 518.407 90.4646 517.28 91.0963L519.236 94.5857ZM529.263 89.6598C530.407 89.1766 531.558 88.7168 532.716 88.2815L531.309 84.5371C530.099 84.9917 528.898 85.4715 527.706 85.9753L529.263 89.6598ZM539.772 85.9662C540.367 85.7991 540.965 85.6386 541.564 85.4848L540.569 81.6104C539.941 81.7716 539.315 81.9399 538.691 82.1151L539.772 85.9662ZM541.564 85.4848C542.155 85.3329 542.741 85.1941 543.321 85.0678L542.469 81.1595C541.841 81.2963 541.208 81.4464 540.569 81.6104L541.564 85.4848ZM550.42 84.0877C551.634 84.0172 552.827 83.9972 554.005 84.0215L554.088 80.0224C552.809 79.9959 551.51 80.0177 550.188 80.0945L550.42 84.0877ZM561.18 84.6927C562.377 84.8859 563.566 85.1149 564.752 85.3725L565.601 81.4636C564.354 81.1927 563.094 80.9498 561.817 80.7438L561.18 84.6927ZM571.873 87.2083C573.057 87.5502 574.243 87.9052 575.44 88.2668L576.597 84.4378C575.394 84.0746 574.19 83.714 572.982 83.3654L571.873 87.2083ZM582.648 90.4164C583.853 90.7597 585.073 91.0941 586.312 91.4117L587.305 87.5371C586.108 87.2301 584.923 86.9054 583.743 86.5695L582.648 90.4164ZM593.794 93.0243C595.043 93.2355 596.314 93.4187 597.609 93.5673L598.065 89.5934C596.845 89.4534 595.645 89.2805 594.462 89.0804L593.794 93.0243ZM605.317 93.9968C605.957 93.9938 606.603 93.9811 607.256 93.9581L607.114 89.9606C606.503 89.9822 605.898 89.9941 605.299 89.9968L605.317 93.9968ZM607.256 93.9581C607.933 93.9342 608.615 93.8951 609.3 93.8422L608.992 89.854C608.359 89.9029 607.733 89.9387 607.114 89.9606L607.256 93.9581ZM617.307 92.7089C618.599 92.4576 619.902 92.1773 621.215 91.8762L620.32 87.9775C619.043 88.2706 617.784 88.5412 616.543 88.7826L617.307 92.7089ZM628.901 89.9543C630.16 89.6223 631.431 89.2831 632.704 88.9449L631.677 85.079C630.398 85.4188 629.135 85.7558 627.881 86.0864L628.901 89.9543ZM640.277 86.9923C641.535 86.6848 642.797 86.388 644.063 86.107L643.196 82.2021C641.898 82.4903 640.608 82.7937 639.327 83.1068L640.277 86.9923ZM651.654 84.6597C652.923 84.464 654.192 84.2944 655.462 84.156L655.029 80.1795C653.695 80.325 652.366 80.5025 651.045 80.7065L651.654 84.6597ZM663.08 83.7387C664.345 83.7447 665.608 83.7916 666.869 83.8841L667.162 79.8949C665.805 79.7953 664.45 79.7452 663.099 79.7388L663.08 83.7387ZM674.324 85.0074C674.933 85.1498 675.541 85.3052 676.149 85.4743L677.222 81.6209C676.56 81.4365 675.897 81.2673 675.235 81.1125L674.324 85.0074ZM676.149 85.4743C676.743 85.6398 677.336 85.8177 677.928 86.0075L679.15 82.199C678.51 81.9934 677.867 81.8006 677.222 81.6209L676.149 85.4743ZM684.845 88.7973C685.96 89.3387 687.066 89.9202 688.161 90.5394L690.13 87.0572C688.964 86.3985 687.785 85.7781 686.592 85.199L684.845 88.7973ZM694.485 94.6082C695.499 95.3415 696.5 96.1053 697.486 96.8971L699.991 93.7781C698.954 92.9454 697.899 92.1408 696.829 91.367L694.485 94.6082ZM703.15 101.902C704.055 102.778 704.942 103.676 705.811 104.595L708.716 101.845C707.808 100.885 706.88 99.9456 705.933 99.0285L703.15 101.902ZM710.785 110.312C711.576 111.301 712.345 112.305 713.092 113.321L716.316 110.953C715.537 109.893 714.734 108.846 713.909 107.814L710.785 110.312ZM717.324 119.61C717.989 120.692 718.627 121.783 719.237 122.879L722.732 120.933C722.094 119.787 721.427 118.647 720.732 117.516L717.324 119.61ZM722.617 129.644C723.131 130.807 723.612 131.97 724.057 133.129L727.791 131.696C727.322 130.473 726.815 129.248 726.274 128.026L722.617 129.644ZM726.354 140.283C726.51 140.891 726.655 141.497 726.789 142.099L730.694 141.234C730.55 140.587 730.395 139.939 730.229 139.289L726.354 140.283Z" fill="#EC663B"/>
<circle cx="415.713" cy="245.712" r="33" fill="white" stroke="#EC663B" stroke-width="2"/>
<path d="M435.167 250.666H434.333V234.833C434.333 234.372 433.961 234 433.5 234H398.5C398.039 234 397.667 234.372 397.667 234.833V250.666H396.833C396.373 250.666 396 251.039 396 251.5C396 251.96 396.373 252.333 396.833 252.333H398.13C397.843 252.825 397.667 253.39 397.667 254C397.667 255.838 399.162 257.333 401 257.333C402.838 257.333 404.333 255.838 404.333 254C404.333 253.39 404.157 252.825 403.87 252.333H404.797C404.51 252.825 404.333 253.39 404.333 254C404.333 255.838 405.828 257.333 407.667 257.333C409.505 257.333 411 255.838 411 254C411 253.39 410.824 252.825 410.536 252.333H410.655L412.077 253.755C412.234 253.912 412.445 254 412.667 254H419.333C419.555 254 419.766 253.912 419.923 253.755L421.345 252.333H421.464C421.177 252.825 421 253.39 421 254C421 255.838 422.495 257.333 424.333 257.333C426.172 257.333 427.667 255.838 427.667 254C427.667 253.39 427.49 252.825 427.203 252.333H428.13C427.843 252.825 427.667 253.39 427.667 254C427.667 255.838 429.162 257.333 431 257.333C432.838 257.333 434.333 255.838 434.333 254C434.333 253.39 434.157 252.825 433.87 252.333H435.167C435.627 252.333 436 251.96 436 251.5C436 251.039 435.627 250.666 435.167 250.666ZM401 255.666C400.081 255.666 399.333 254.918 399.333 254C399.333 253.081 400.081 252.333 401 252.333C401.919 252.333 402.667 253.081 402.667 254C402.667 254.918 401.919 255.666 401 255.666ZM407.667 255.666C406.748 255.666 406 254.918 406 254C406 253.081 406.748 252.333 407.667 252.333C408.585 252.333 409.333 253.081 409.333 254C409.333 254.918 408.585 255.666 407.667 255.666ZM409.333 250.666H399.333V235.666H409.333V250.666ZM421 250.666H411V235.666H421V250.666ZM424.333 255.666C423.415 255.666 422.667 254.918 422.667 254C422.667 253.081 423.415 252.333 424.333 252.333C425.252 252.333 426 253.081 426 254C426 254.918 425.252 255.666 424.333 255.666ZM431 255.666C430.081 255.666 429.333 254.918 429.333 254C429.333 253.081 430.081 252.333 431 252.333C431.919 252.333 432.667 253.081 432.667 254C432.667 254.918 431.919 255.666 431 255.666ZM432.667 250.666H422.667V235.666H432.667V250.666Z" fill="#EC663B"/>
<path d="M401.833 239H406.833C407.294 239 407.667 238.627 407.667 238.166C407.667 237.706 407.294 237.333 406.833 237.333H401.833C401.373 237.333 401 237.706 401 238.166C401 238.627 401.373 239 401.833 239Z" fill="#EC663B"/>
<path d="M401.833 242.333H406.833C407.294 242.333 407.667 241.96 407.667 241.499C407.667 241.039 407.294 240.666 406.833 240.666H401.833C401.373 240.666 401 241.039 401 241.499C401 241.96 401.373 242.333 401.833 242.333Z" fill="#EC663B"/>
<path d="M401.833 245.666H406.833C407.294 245.666 407.667 245.293 407.667 244.833C407.667 244.372 407.294 244 406.833 244H401.833C401.373 244 401 244.372 401 244.833C401 245.293 401.373 245.666 401.833 245.666Z" fill="#EC663B"/>
<path d="M401.833 249H406.833C407.294 249 407.667 248.627 407.667 248.166C407.667 247.706 407.294 247.333 406.833 247.333H401.833C401.373 247.333 401 247.706 401 248.166C401 248.627 401.373 249 401.833 249Z" fill="#EC663B"/>
<path d="M413.5 239H418.5C418.961 239 419.333 238.627 419.333 238.166C419.333 237.706 418.961 237.333 418.5 237.333H413.5C413.039 237.333 412.667 237.706 412.667 238.166C412.667 238.627 413.039 239 413.5 239Z" fill="#EC663B"/>
<path d="M413.5 242.333H418.5C418.961 242.333 419.333 241.96 419.333 241.499C419.333 241.039 418.961 240.666 418.5 240.666H413.5C413.039 240.666 412.667 241.039 412.667 241.499C412.667 241.96 413.039 242.333 413.5 242.333Z" fill="#EC663B"/>
<path d="M413.5 245.666H418.5C418.961 245.666 419.333 245.293 419.333 244.833C419.333 244.372 418.961 244 418.5 244H413.5C413.039 244 412.667 244.372 412.667 244.833C412.667 245.293 413.039 245.666 413.5 245.666Z" fill="#EC663B"/>
<path d="M413.5 249H418.5C418.961 249 419.333 248.627 419.333 248.166C419.333 247.706 418.961 247.333 418.5 247.333H413.5C413.039 247.333 412.667 247.706 412.667 248.166C412.667 248.627 413.039 249 413.5 249Z" fill="#EC663B"/>
<path d="M425.167 239H430.167C430.627 239 431 238.627 431 238.166C431 237.706 430.627 237.333 430.167 237.333H425.167C424.706 237.333 424.333 237.706 424.333 238.166C424.333 238.627 424.706 239 425.167 239Z" fill="#EC663B"/>
<path d="M425.167 242.333H430.167C430.627 242.333 431 241.96 431 241.499C431 241.039 430.627 240.666 430.167 240.666H425.167C424.706 240.666 424.333 241.039 424.333 241.499C424.333 241.96 424.706 242.333 425.167 242.333Z" fill="#EC663B"/>
<path d="M425.167 245.666H430.167C430.627 245.666 431 245.293 431 244.833C431 244.372 430.627 244 430.167 244H425.167C424.706 244 424.333 244.372 424.333 244.833C424.333 245.293 424.706 245.666 425.167 245.666Z" fill="#EC663B"/>
<path d="M425.167 249H430.167C430.627 249 431 248.627 431 248.166C431 247.706 430.627 247.333 430.167 247.333H425.167C424.706 247.333 424.333 247.706 424.333 248.166C424.333 248.627 424.706 249 425.167 249Z" fill="#EC663B"/>
<circle cx="777.713" cy="192.712" r="33" fill="white" stroke="#EC663B" stroke-width="2"/>
<mask id="path-27-outside-1" maskUnits="userSpaceOnUse" x="757" y="169.999" width="42" height="42" fill="black">
<rect fill="white" x="757" y="169.999" width="42" height="42"/>
<path d="M797.771 208.339C797.466 208.033 796.972 208.033 796.666 208.339C795.958 209.047 795.017 209.437 794.016 209.437C793.014 209.437 792.073 209.047 791.365 208.339C791.218 208.192 791.02 208.11 790.813 208.11C790.605 208.11 790.407 208.192 790.26 208.339C789.925 208.674 789.537 208.936 789.116 209.121L792.734 196.294C792.843 195.906 792.639 195.498 792.263 195.353L790.031 194.493V187.996C790.031 186.187 788.559 184.715 786.75 184.715H786.281V183.13C786.281 181.592 785.03 180.34 783.491 180.34H781.75V177.371C781.75 176.596 781.119 175.965 780.344 175.965H778.703V174.476C778.703 173.42 779.562 172.562 780.617 172.562H788.121C787.947 173.451 787.162 174.124 786.223 174.124H783.703C783.272 174.124 782.922 174.474 782.922 174.905C782.922 175.337 783.272 175.687 783.703 175.687H786.223C788.15 175.687 789.719 174.118 789.719 172.19V171.78C789.719 171.349 789.369 170.999 788.938 170.999H780.617C778.7 170.999 777.141 172.559 777.141 174.476V175.965H775.656C774.881 175.965 774.25 176.596 774.25 177.371V180.34H772.509C770.971 180.34 769.719 181.592 769.719 183.13V184.715H769.25C767.441 184.715 765.969 186.187 765.969 187.996V194.493L763.737 195.353C763.361 195.498 763.157 195.906 763.267 196.294L766.884 209.121C766.463 208.936 766.075 208.674 765.74 208.339C765.593 208.192 765.395 208.11 765.188 208.11C764.98 208.11 764.782 208.192 764.635 208.339C763.927 209.047 762.986 209.437 761.984 209.437C760.983 209.437 760.042 209.047 759.334 208.339C759.029 208.033 758.534 208.033 758.229 208.339C757.924 208.644 757.924 209.138 758.229 209.443C759.232 210.447 760.566 210.999 761.984 210.999C763.156 210.999 764.27 210.622 765.188 209.926C766.105 210.622 767.219 210.999 768.391 210.999C769.562 210.999 770.676 210.622 771.594 209.926C772.511 210.622 773.625 210.999 774.797 210.999C775.969 210.999 777.083 210.622 778 209.926C778.918 210.622 780.031 210.999 781.203 210.999C782.375 210.999 783.489 210.622 784.406 209.926C785.324 210.622 786.438 210.999 787.609 210.999C788.781 210.999 789.895 210.622 790.813 209.926C791.73 210.622 792.844 210.999 794.016 210.999C795.434 210.999 796.768 210.447 797.771 209.443C798.076 209.138 798.076 208.644 797.771 208.339ZM775.813 177.527H780.188V180.34H775.813V177.527ZM771.281 183.13C771.281 182.453 771.832 181.902 772.509 181.902H775.031H780.969H783.491C784.168 181.902 784.719 182.453 784.719 183.13V184.715H771.281V183.13ZM767.531 187.996C767.531 187.048 768.302 186.277 769.25 186.277H786.75C787.698 186.277 788.469 187.048 788.469 187.996V193.89L778.281 189.962C778.1 189.893 777.9 189.893 777.719 189.962L767.531 193.89V187.996ZM787.405 209.431C786.481 209.381 785.618 208.998 784.959 208.339C784.812 208.192 784.614 208.11 784.406 208.11C784.199 208.11 784 208.192 783.854 208.339C783.146 209.047 782.205 209.437 781.203 209.437C780.306 209.437 779.457 209.123 778.781 208.548V198.165C778.781 197.734 778.431 197.384 778 197.384C777.569 197.384 777.219 197.734 777.219 198.165V208.548C776.543 209.123 775.694 209.437 774.797 209.437C773.796 209.437 772.854 209.047 772.146 208.339C772 208.192 771.801 208.11 771.594 208.11C771.387 208.11 771.188 208.192 771.041 208.339C770.382 208.998 769.519 209.381 768.595 209.431L766.335 201.417L772.005 199.231C772.408 199.076 772.608 198.623 772.453 198.221C772.298 197.818 771.845 197.618 771.443 197.773L765.909 199.907L764.964 196.555L778 191.529L791.037 196.555L790.091 199.907L784.455 197.733C784.052 197.578 783.6 197.779 783.445 198.181C783.29 198.584 783.49 199.036 783.893 199.191L789.665 201.417L787.405 209.431Z"/>
</mask>
<path d="M797.771 208.339C797.466 208.033 796.972 208.033 796.666 208.339C795.958 209.047 795.017 209.437 794.016 209.437C793.014 209.437 792.073 209.047 791.365 208.339C791.218 208.192 791.02 208.11 790.813 208.11C790.605 208.11 790.407 208.192 790.26 208.339C789.925 208.674 789.537 208.936 789.116 209.121L792.734 196.294C792.843 195.906 792.639 195.498 792.263 195.353L790.031 194.493V187.996C790.031 186.187 788.559 184.715 786.75 184.715H786.281V183.13C786.281 181.592 785.03 180.34 783.491 180.34H781.75V177.371C781.75 176.596 781.119 175.965 780.344 175.965H778.703V174.476C778.703 173.42 779.562 172.562 780.617 172.562H788.121C787.947 173.451 787.162 174.124 786.223 174.124H783.703C783.272 174.124 782.922 174.474 782.922 174.905C782.922 175.337 783.272 175.687 783.703 175.687H786.223C788.15 175.687 789.719 174.118 789.719 172.19V171.78C789.719 171.349 789.369 170.999 788.938 170.999H780.617C778.7 170.999 777.141 172.559 777.141 174.476V175.965H775.656C774.881 175.965 774.25 176.596 774.25 177.371V180.34H772.509C770.971 180.34 769.719 181.592 769.719 183.13V184.715H769.25C767.441 184.715 765.969 186.187 765.969 187.996V194.493L763.737 195.353C763.361 195.498 763.157 195.906 763.267 196.294L766.884 209.121C766.463 208.936 766.075 208.674 765.74 208.339C765.593 208.192 765.395 208.11 765.188 208.11C764.98 208.11 764.782 208.192 764.635 208.339C763.927 209.047 762.986 209.437 761.984 209.437C760.983 209.437 760.042 209.047 759.334 208.339C759.029 208.033 758.534 208.033 758.229 208.339C757.924 208.644 757.924 209.138 758.229 209.443C759.232 210.447 760.566 210.999 761.984 210.999C763.156 210.999 764.27 210.622 765.188 209.926C766.105 210.622 767.219 210.999 768.391 210.999C769.562 210.999 770.676 210.622 771.594 209.926C772.511 210.622 773.625 210.999 774.797 210.999C775.969 210.999 777.083 210.622 778 209.926C778.918 210.622 780.031 210.999 781.203 210.999C782.375 210.999 783.489 210.622 784.406 209.926C785.324 210.622 786.438 210.999 787.609 210.999C788.781 210.999 789.895 210.622 790.813 209.926C791.73 210.622 792.844 210.999 794.016 210.999C795.434 210.999 796.768 210.447 797.771 209.443C798.076 209.138 798.076 208.644 797.771 208.339ZM775.813 177.527H780.188V180.34H775.813V177.527ZM771.281 183.13C771.281 182.453 771.832 181.902 772.509 181.902H775.031H780.969H783.491C784.168 181.902 784.719 182.453 784.719 183.13V184.715H771.281V183.13ZM767.531 187.996C767.531 187.048 768.302 186.277 769.25 186.277H786.75C787.698 186.277 788.469 187.048 788.469 187.996V193.89L778.281 189.962C778.1 189.893 777.9 189.893 777.719 189.962L767.531 193.89V187.996ZM787.405 209.431C786.481 209.381 785.618 208.998 784.959 208.339C784.812 208.192 784.614 208.11 784.406 208.11C784.199 208.11 784 208.192 783.854 208.339C783.146 209.047 782.205 209.437 781.203 209.437C780.306 209.437 779.457 209.123 778.781 208.548V198.165C778.781 197.734 778.431 197.384 778 197.384C777.569 197.384 777.219 197.734 777.219 198.165V208.548C776.543 209.123 775.694 209.437 774.797 209.437C773.796 209.437 772.854 209.047 772.146 208.339C772 208.192 771.801 208.11 771.594 208.11C771.387 208.11 771.188 208.192 771.041 208.339C770.382 208.998 769.519 209.381 768.595 209.431L766.335 201.417L772.005 199.231C772.408 199.076 772.608 198.623 772.453 198.221C772.298 197.818 771.845 197.618 771.443 197.773L765.909 199.907L764.964 196.555L778 191.529L791.037 196.555L790.091 199.907L784.455 197.733C784.052 197.578 783.6 197.779 783.445 198.181C783.29 198.584 783.49 199.036 783.893 199.191L789.665 201.417L787.405 209.431Z" fill="#EC663B"/>
<path d="M797.771 208.339C797.466 208.033 796.972 208.033 796.666 208.339C795.958 209.047 795.017 209.437 794.016 209.437C793.014 209.437 792.073 209.047 791.365 208.339C791.218 208.192 791.02 208.11 790.813 208.11C790.605 208.11 790.407 208.192 790.26 208.339C789.925 208.674 789.537 208.936 789.116 209.121L792.734 196.294C792.843 195.906 792.639 195.498 792.263 195.353L790.031 194.493V187.996C790.031 186.187 788.559 184.715 786.75 184.715H786.281V183.13C786.281 181.592 785.03 180.34 783.491 180.34H781.75V177.371C781.75 176.596 781.119 175.965 780.344 175.965H778.703V174.476C778.703 173.42 779.562 172.562 780.617 172.562H788.121C787.947 173.451 787.162 174.124 786.223 174.124H783.703C783.272 174.124 782.922 174.474 782.922 174.905C782.922 175.337 783.272 175.687 783.703 175.687H786.223C788.15 175.687 789.719 174.118 789.719 172.19V171.78C789.719 171.349 789.369 170.999 788.938 170.999H780.617C778.7 170.999 777.141 172.559 777.141 174.476V175.965H775.656C774.881 175.965 774.25 176.596 774.25 177.371V180.34H772.509C770.971 180.34 769.719 181.592 769.719 183.13V184.715H769.25C767.441 184.715 765.969 186.187 765.969 187.996V194.493L763.737 195.353C763.361 195.498 763.157 195.906 763.267 196.294L766.884 209.121C766.463 208.936 766.075 208.674 765.74 208.339C765.593 208.192 765.395 208.11 765.188 208.11C764.98 208.11 764.782 208.192 764.635 208.339C763.927 209.047 762.986 209.437 761.984 209.437C760.983 209.437 760.042 209.047 759.334 208.339C759.029 208.033 758.534 208.033 758.229 208.339C757.924 208.644 757.924 209.138 758.229 209.443C759.232 210.447 760.566 210.999 761.984 210.999C763.156 210.999 764.27 210.622 765.188 209.926C766.105 210.622 767.219 210.999 768.391 210.999C769.562 210.999 770.676 210.622 771.594 209.926C772.511 210.622 773.625 210.999 774.797 210.999C775.969 210.999 777.083 210.622 778 209.926C778.918 210.622 780.031 210.999 781.203 210.999C782.375 210.999 783.489 210.622 784.406 209.926C785.324 210.622 786.438 210.999 787.609 210.999C788.781 210.999 789.895 210.622 790.813 209.926C791.73 210.622 792.844 210.999 794.016 210.999C795.434 210.999 796.768 210.447 797.771 209.443C798.076 209.138 798.076 208.644 797.771 208.339ZM775.813 177.527H780.188V180.34H775.813V177.527ZM771.281 183.13C771.281 182.453 771.832 181.902 772.509 181.902H775.031H780.969H783.491C784.168 181.902 784.719 182.453 784.719 183.13V184.715H771.281V183.13ZM767.531 187.996C767.531 187.048 768.302 186.277 769.25 186.277H786.75C787.698 186.277 788.469 187.048 788.469 187.996V193.89L778.281 189.962C778.1 189.893 777.9 189.893 777.719 189.962L767.531 193.89V187.996ZM787.405 209.431C786.481 209.381 785.618 208.998 784.959 208.339C784.812 208.192 784.614 208.11 784.406 208.11C784.199 208.11 784 208.192 783.854 208.339C783.146 209.047 782.205 209.437 781.203 209.437C780.306 209.437 779.457 209.123 778.781 208.548V198.165C778.781 197.734 778.431 197.384 778 197.384C777.569 197.384 777.219 197.734 777.219 198.165V208.548C776.543 209.123 775.694 209.437 774.797 209.437C773.796 209.437 772.854 209.047 772.146 208.339C772 208.192 771.801 208.11 771.594 208.11C771.387 208.11 771.188 208.192 771.041 208.339C770.382 208.998 769.519 209.381 768.595 209.431L766.335 201.417L772.005 199.231C772.408 199.076 772.608 198.623 772.453 198.221C772.298 197.818 771.845 197.618 771.443 197.773L765.909 199.907L764.964 196.555L778 191.529L791.037 196.555L790.091 199.907L784.455 197.733C784.052 197.578 783.6 197.779 783.445 198.181C783.29 198.584 783.49 199.036 783.893 199.191L789.665 201.417L787.405 209.431Z" stroke="#EC663B" stroke-width="0.4" mask="url(#path-27-outside-1)"/>
<path d="M778 194.146C778.232 194.146 778.459 194.24 778.623 194.404C778.623 194.404 778.623 194.404 778.623 194.404C778.623 194.404 778.623 194.404 778.623 194.404C778.787 194.568 778.881 194.795 778.881 195.027C778.881 195.26 778.787 195.486 778.623 195.65L778 194.146ZM778 194.146C777.768 194.146 777.541 194.24 777.377 194.404M778 194.146L777.377 194.404M777.377 194.404C777.213 194.568 777.119 194.795 777.119 195.027M777.377 194.404L777.119 195.027M777.119 195.027C777.119 195.259 777.213 195.486 777.377 195.65M777.119 195.027L777.377 195.65M777.377 195.65C777.541 195.814 777.768 195.909 778 195.909M777.377 195.65L778 195.909M778 195.909C778.232 195.909 778.459 195.814 778.623 195.65L778 195.909Z" fill="#EC663B" stroke="#EC663B" stroke-width="0.2"/>
<path d="M772.818 188.347H770.63C770.144 188.347 769.749 188.741 769.749 189.228C769.749 189.715 770.144 190.109 770.63 190.109H772.818C773.304 190.109 773.699 189.715 773.699 189.228C773.699 188.741 773.305 188.347 772.818 188.347Z" fill="#EC663B" stroke="#EC663B" stroke-width="0.2"/>
<path d="M785.5 188.347H783.313C782.826 188.347 782.431 188.741 782.431 189.228C782.431 189.715 782.826 190.109 783.313 190.109H785.5C785.987 190.109 786.381 189.715 786.381 189.228C786.381 188.741 785.987 188.347 785.5 188.347Z" fill="#EC663B" stroke="#EC663B" stroke-width="0.2"/>
<path opacity="0.4" d="M812 276.672C812 294.189 772.749 300.744 772.749 300.744C772.749 300.744 764.015 294.189 764.015 276.672C764.015 270.407 774.757 264.744 788.008 264.744C801.258 264.744 812 269.478 812 276.672Z" fill="#878894"/>
<path d="M795.986 260.744C795.986 278.744 771.993 300.744 771.993 300.744C771.993 300.744 748 278.744 748 260.744C748 247.489 758.742 236.744 771.993 236.744C785.244 236.744 795.986 247.489 795.986 260.744Z" fill="#2C2F49"/>
<ellipse cx="771.993" cy="260.744" rx="19.9941" ry="20" fill="#EC663B"/>
<path d="M777.505 268.744L775.945 264.616L767.977 264.616L766.417 268.744L764.641 268.744L771.097 251.944L772.825 251.944L779.281 268.744L777.505 268.744ZM768.577 263.032L775.345 263.032L771.961 254.032L768.577 263.032Z" fill="white"/>
<path opacity="0.4" d="M774.001 133.927C774.001 151.443 734.749 157.999 734.749 157.999C734.749 157.999 726.015 151.443 726.015 133.927C726.015 127.662 736.757 121.999 750.008 121.999C763.259 121.999 774.001 126.733 774.001 133.927Z" fill="#878894"/>
<path d="M757.987 117.999C757.987 135.999 733.994 157.999 733.994 157.999C733.994 157.999 710.001 135.999 710.001 117.999C710.001 104.744 720.743 93.999 733.994 93.999C747.245 93.999 757.987 104.744 757.987 117.999Z" fill="#2C2F49"/>
<ellipse cx="733.994" cy="117.999" rx="19.9941" ry="20" fill="white"/>
<path d="M737.75 117.287C738.566 117.639 739.214 118.175 739.694 118.895C740.19 119.599 740.438 120.407 740.438 121.319C740.438 122.615 739.982 123.719 739.07 124.631C738.158 125.543 737.054 125.999 735.758 125.999L728.438 125.999L728.438 109.199L735.206 109.199C736.454 109.199 737.518 109.647 738.398 110.543C739.278 111.423 739.718 112.479 739.718 113.711C739.718 115.279 739.062 116.471 737.75 117.287ZM735.206 110.783L730.118 110.783L730.118 116.639L735.206 116.639C735.99 116.639 736.654 116.359 737.198 115.799C737.758 115.223 738.038 114.527 738.038 113.711C738.038 112.911 737.758 112.223 737.198 111.647C736.654 111.071 735.99 110.783 735.206 110.783ZM735.758 124.415C736.59 124.415 737.294 124.119 737.87 123.527C738.462 122.919 738.758 122.183 738.758 121.319C738.758 120.471 738.462 119.743 737.87 119.135C737.294 118.527 736.59 118.223 735.758 118.223L730.118 118.223L730.118 124.415L735.758 124.415Z" fill="#2C2F49"/>
</svg>
