<svg width="905" height="662" viewBox="0 0 905 662" fill="none" xmlns="http://www.w3.org/2000/svg">
<path d="M816.5 116C839.833 112.166 882.8 125.1 868 207.5C849.5 310.5 878.5 296.5 890 322C901.5 347.5 907.5 352.5 897 361C886.5 369.5 833.5 355 825 361C816.5 367 790.5 420.5 767.5 432.5C744.5 444.5 674.5 462.5 617 445C559.5 427.5 558.5 481 554 492.5C549.5 504 531.5 549 519.5 557.5C507.5 566 498 565.5 486.5 560C475 554.5 411 529 389.5 524.5C368 520 350.5 510 339.5 511.5C328.5 513 301 530 290 536.5C279 543 277.5 556 253 563.5C228.5 571 222 557.5 205.5 563.5C189 569.5 163 607 156 619.5C149 632 126 651 110.5 657.5C95 664 69 657 65 608.5C61 560 70.5 553 74.5 541.5C78.5 530 84.5001 529 87.5001 521.5C90.5001 514 82.5001 494.5 85.0001 481.5C87.5001 468.5 80.5002 459 77.5001 449C74.5 439 79.5001 426.5 85.0001 426.5C90.5001 426.5 94.5001 430 98.5001 432.5C102.5 435 112 436.5 115 439C118 441.5 129 441.5 131.5 434C134 426.5 141.5 408.5 137.5 397.5C133.5 386.5 128.5 381 130 374.5C131.5 368 141.5 347.5 147.5 346.5C153.5 345.5 222.5 329.5 232.5 302" stroke="#EC663B" stroke-width="4" stroke-linecap="round" stroke-linejoin="round" stroke-dasharray="4 8"/>
<circle cx="685" cy="449" r="33" fill="white" stroke="#EC663B" stroke-width="2"/>
<mask id="path-3-outside-1" maskUnits="userSpaceOnUse" x="664.287" y="426.287" width="42" height="42" fill="black">
<rect fill="white" x="664.287" y="426.287" width="42" height="42"/>
<path d="M705.058 464.627C704.753 464.322 704.259 464.322 703.953 464.627C703.245 465.335 702.304 465.725 701.303 465.725C700.301 465.725 699.36 465.335 698.652 464.627C698.506 464.48 698.307 464.398 698.1 464.398C697.892 464.398 697.694 464.48 697.547 464.627C697.212 464.962 696.825 465.224 696.403 465.409L700.021 452.582C700.13 452.194 699.926 451.786 699.55 451.641L697.318 450.781V444.284C697.318 442.475 695.846 441.003 694.037 441.003H693.568V439.419C693.568 437.88 692.317 436.628 690.778 436.628H689.037V433.659C689.037 432.884 688.406 432.253 687.631 432.253H685.99V430.764C685.99 429.708 686.849 428.85 687.904 428.85H695.408C695.234 429.739 694.449 430.412 693.51 430.412H690.99C690.559 430.412 690.209 430.762 690.209 431.193C690.209 431.625 690.559 431.975 690.99 431.975H693.51C695.438 431.975 697.006 430.406 697.006 428.479V428.068C697.006 427.637 696.656 427.287 696.225 427.287H687.904C685.987 427.287 684.428 428.847 684.428 430.764V432.253H682.943C682.168 432.253 681.537 432.884 681.537 433.659V436.628H679.796C678.258 436.628 677.006 437.88 677.006 439.419V441.003H676.537C674.728 441.003 673.256 442.475 673.256 444.284V450.781L671.025 451.641C670.648 451.786 670.444 452.194 670.554 452.582L674.171 465.409C673.75 465.224 673.362 464.962 673.027 464.627C672.881 464.48 672.682 464.398 672.475 464.398C672.267 464.398 672.069 464.48 671.922 464.627C671.214 465.335 670.273 465.725 669.272 465.725C668.27 465.725 667.329 465.335 666.621 464.627C666.316 464.322 665.821 464.322 665.516 464.627C665.211 464.932 665.211 465.426 665.516 465.731C666.519 466.735 667.853 467.287 669.272 467.287C670.443 467.287 671.557 466.91 672.475 466.214C673.392 466.91 674.506 467.287 675.678 467.287C676.85 467.287 677.963 466.91 678.881 466.214C679.798 466.91 680.912 467.287 682.084 467.287C683.256 467.287 684.37 466.91 685.287 466.214C686.205 466.91 687.318 467.287 688.49 467.287C689.662 467.287 690.776 466.91 691.693 466.214C692.611 466.91 693.725 467.287 694.897 467.287C696.068 467.287 697.182 466.91 698.1 466.214C699.017 466.91 700.131 467.287 701.303 467.287C702.721 467.287 704.055 466.735 705.058 465.731C705.363 465.426 705.363 464.932 705.058 464.627ZM683.1 433.815H687.475V436.628H683.1V433.815ZM678.568 439.418C678.568 438.741 679.119 438.19 679.796 438.19H682.318H688.256H690.778C691.455 438.19 692.006 438.741 692.006 439.418V441.003H678.568V439.418ZM674.818 444.284C674.818 443.336 675.589 442.565 676.537 442.565H694.037C694.985 442.565 695.756 443.336 695.756 444.284V450.178L685.568 446.251C685.387 446.181 685.187 446.181 685.006 446.251L674.818 450.178V444.284ZM694.692 465.719C693.768 465.67 692.905 465.286 692.246 464.627C692.099 464.48 691.901 464.398 691.693 464.398C691.486 464.398 691.287 464.48 691.141 464.627C690.433 465.335 689.492 465.725 688.49 465.725C687.593 465.725 686.745 465.411 686.068 464.836V454.453C686.068 454.022 685.719 453.672 685.287 453.672C684.856 453.672 684.506 454.022 684.506 454.453V464.836C683.83 465.411 682.981 465.725 682.084 465.725C681.083 465.725 680.141 465.335 679.433 464.627C679.287 464.48 679.088 464.398 678.881 464.398C678.674 464.398 678.475 464.48 678.328 464.627C677.669 465.286 676.806 465.67 675.882 465.719L673.622 457.705L679.292 455.519C679.695 455.364 679.895 454.911 679.74 454.509C679.585 454.106 679.132 453.906 678.73 454.061L673.196 456.195L672.251 452.843L685.287 447.817L698.324 452.843L697.378 456.195L691.742 454.022C691.339 453.866 690.887 454.067 690.732 454.469C690.577 454.872 690.777 455.324 691.18 455.479L696.952 457.705L694.692 465.719Z"/>
</mask>
<path d="M705.058 464.627C704.753 464.322 704.259 464.322 703.953 464.627C703.245 465.335 702.304 465.725 701.303 465.725C700.301 465.725 699.36 465.335 698.652 464.627C698.506 464.48 698.307 464.398 698.1 464.398C697.892 464.398 697.694 464.48 697.547 464.627C697.212 464.962 696.825 465.224 696.403 465.409L700.021 452.582C700.13 452.194 699.926 451.786 699.55 451.641L697.318 450.781V444.284C697.318 442.475 695.846 441.003 694.037 441.003H693.568V439.419C693.568 437.88 692.317 436.628 690.778 436.628H689.037V433.659C689.037 432.884 688.406 432.253 687.631 432.253H685.99V430.764C685.99 429.708 686.849 428.85 687.904 428.85H695.408C695.234 429.739 694.449 430.412 693.51 430.412H690.99C690.559 430.412 690.209 430.762 690.209 431.193C690.209 431.625 690.559 431.975 690.99 431.975H693.51C695.438 431.975 697.006 430.406 697.006 428.479V428.068C697.006 427.637 696.656 427.287 696.225 427.287H687.904C685.987 427.287 684.428 428.847 684.428 430.764V432.253H682.943C682.168 432.253 681.537 432.884 681.537 433.659V436.628H679.796C678.258 436.628 677.006 437.88 677.006 439.419V441.003H676.537C674.728 441.003 673.256 442.475 673.256 444.284V450.781L671.025 451.641C670.648 451.786 670.444 452.194 670.554 452.582L674.171 465.409C673.75 465.224 673.362 464.962 673.027 464.627C672.881 464.48 672.682 464.398 672.475 464.398C672.267 464.398 672.069 464.48 671.922 464.627C671.214 465.335 670.273 465.725 669.272 465.725C668.27 465.725 667.329 465.335 666.621 464.627C666.316 464.322 665.821 464.322 665.516 464.627C665.211 464.932 665.211 465.426 665.516 465.731C666.519 466.735 667.853 467.287 669.272 467.287C670.443 467.287 671.557 466.91 672.475 466.214C673.392 466.91 674.506 467.287 675.678 467.287C676.85 467.287 677.963 466.91 678.881 466.214C679.798 466.91 680.912 467.287 682.084 467.287C683.256 467.287 684.37 466.91 685.287 466.214C686.205 466.91 687.318 467.287 688.49 467.287C689.662 467.287 690.776 466.91 691.693 466.214C692.611 466.91 693.725 467.287 694.897 467.287C696.068 467.287 697.182 466.91 698.1 466.214C699.017 466.91 700.131 467.287 701.303 467.287C702.721 467.287 704.055 466.735 705.058 465.731C705.363 465.426 705.363 464.932 705.058 464.627ZM683.1 433.815H687.475V436.628H683.1V433.815ZM678.568 439.418C678.568 438.741 679.119 438.19 679.796 438.19H682.318H688.256H690.778C691.455 438.19 692.006 438.741 692.006 439.418V441.003H678.568V439.418ZM674.818 444.284C674.818 443.336 675.589 442.565 676.537 442.565H694.037C694.985 442.565 695.756 443.336 695.756 444.284V450.178L685.568 446.251C685.387 446.181 685.187 446.181 685.006 446.251L674.818 450.178V444.284ZM694.692 465.719C693.768 465.67 692.905 465.286 692.246 464.627C692.099 464.48 691.901 464.398 691.693 464.398C691.486 464.398 691.287 464.48 691.141 464.627C690.433 465.335 689.492 465.725 688.49 465.725C687.593 465.725 686.745 465.411 686.068 464.836V454.453C686.068 454.022 685.719 453.672 685.287 453.672C684.856 453.672 684.506 454.022 684.506 454.453V464.836C683.83 465.411 682.981 465.725 682.084 465.725C681.083 465.725 680.141 465.335 679.433 464.627C679.287 464.48 679.088 464.398 678.881 464.398C678.674 464.398 678.475 464.48 678.328 464.627C677.669 465.286 676.806 465.67 675.882 465.719L673.622 457.705L679.292 455.519C679.695 455.364 679.895 454.911 679.74 454.509C679.585 454.106 679.132 453.906 678.73 454.061L673.196 456.195L672.251 452.843L685.287 447.817L698.324 452.843L697.378 456.195L691.742 454.022C691.339 453.866 690.887 454.067 690.732 454.469C690.577 454.872 690.777 455.324 691.18 455.479L696.952 457.705L694.692 465.719Z" fill="#EC663B"/>
<path d="M705.058 464.627C704.753 464.322 704.259 464.322 703.953 464.627C703.245 465.335 702.304 465.725 701.303 465.725C700.301 465.725 699.36 465.335 698.652 464.627C698.506 464.48 698.307 464.398 698.1 464.398C697.892 464.398 697.694 464.48 697.547 464.627C697.212 464.962 696.825 465.224 696.403 465.409L700.021 452.582C700.13 452.194 699.926 451.786 699.55 451.641L697.318 450.781V444.284C697.318 442.475 695.846 441.003 694.037 441.003H693.568V439.419C693.568 437.88 692.317 436.628 690.778 436.628H689.037V433.659C689.037 432.884 688.406 432.253 687.631 432.253H685.99V430.764C685.99 429.708 686.849 428.85 687.904 428.85H695.408C695.234 429.739 694.449 430.412 693.51 430.412H690.99C690.559 430.412 690.209 430.762 690.209 431.193C690.209 431.625 690.559 431.975 690.99 431.975H693.51C695.438 431.975 697.006 430.406 697.006 428.479V428.068C697.006 427.637 696.656 427.287 696.225 427.287H687.904C685.987 427.287 684.428 428.847 684.428 430.764V432.253H682.943C682.168 432.253 681.537 432.884 681.537 433.659V436.628H679.796C678.258 436.628 677.006 437.88 677.006 439.419V441.003H676.537C674.728 441.003 673.256 442.475 673.256 444.284V450.781L671.025 451.641C670.648 451.786 670.444 452.194 670.554 452.582L674.171 465.409C673.75 465.224 673.362 464.962 673.027 464.627C672.881 464.48 672.682 464.398 672.475 464.398C672.267 464.398 672.069 464.48 671.922 464.627C671.214 465.335 670.273 465.725 669.272 465.725C668.27 465.725 667.329 465.335 666.621 464.627C666.316 464.322 665.821 464.322 665.516 464.627C665.211 464.932 665.211 465.426 665.516 465.731C666.519 466.735 667.853 467.287 669.272 467.287C670.443 467.287 671.557 466.91 672.475 466.214C673.392 466.91 674.506 467.287 675.678 467.287C676.85 467.287 677.963 466.91 678.881 466.214C679.798 466.91 680.912 467.287 682.084 467.287C683.256 467.287 684.37 466.91 685.287 466.214C686.205 466.91 687.318 467.287 688.49 467.287C689.662 467.287 690.776 466.91 691.693 466.214C692.611 466.91 693.725 467.287 694.897 467.287C696.068 467.287 697.182 466.91 698.1 466.214C699.017 466.91 700.131 467.287 701.303 467.287C702.721 467.287 704.055 466.735 705.058 465.731C705.363 465.426 705.363 464.932 705.058 464.627ZM683.1 433.815H687.475V436.628H683.1V433.815ZM678.568 439.418C678.568 438.741 679.119 438.19 679.796 438.19H682.318H688.256H690.778C691.455 438.19 692.006 438.741 692.006 439.418V441.003H678.568V439.418ZM674.818 444.284C674.818 443.336 675.589 442.565 676.537 442.565H694.037C694.985 442.565 695.756 443.336 695.756 444.284V450.178L685.568 446.251C685.387 446.181 685.187 446.181 685.006 446.251L674.818 450.178V444.284ZM694.692 465.719C693.768 465.67 692.905 465.286 692.246 464.627C692.099 464.48 691.901 464.398 691.693 464.398C691.486 464.398 691.287 464.48 691.141 464.627C690.433 465.335 689.492 465.725 688.49 465.725C687.593 465.725 686.745 465.411 686.068 464.836V454.453C686.068 454.022 685.719 453.672 685.287 453.672C684.856 453.672 684.506 454.022 684.506 454.453V464.836C683.83 465.411 682.981 465.725 682.084 465.725C681.083 465.725 680.141 465.335 679.433 464.627C679.287 464.48 679.088 464.398 678.881 464.398C678.674 464.398 678.475 464.48 678.328 464.627C677.669 465.286 676.806 465.67 675.882 465.719L673.622 457.705L679.292 455.519C679.695 455.364 679.895 454.911 679.74 454.509C679.585 454.106 679.132 453.906 678.73 454.061L673.196 456.195L672.251 452.843L685.287 447.817L698.324 452.843L697.378 456.195L691.742 454.022C691.339 453.866 690.887 454.067 690.732 454.469C690.577 454.872 690.777 455.324 691.18 455.479L696.952 457.705L694.692 465.719Z" stroke="#EC663B" stroke-width="0.4" mask="url(#path-3-outside-1)"/>
<path d="M685.287 450.434C685.519 450.434 685.746 450.528 685.91 450.692C685.91 450.692 685.91 450.692 685.91 450.692C685.91 450.692 685.91 450.692 685.91 450.692C686.074 450.856 686.168 451.083 686.168 451.315C686.168 451.548 686.074 451.774 685.91 451.938L685.287 450.434ZM685.287 450.434C685.055 450.434 684.828 450.528 684.664 450.692M685.287 450.434L684.664 450.692M684.664 450.692C684.5 450.856 684.406 451.083 684.406 451.315M684.664 450.692L684.406 451.315M684.406 451.315C684.406 451.547 684.5 451.774 684.664 451.939M684.406 451.315L684.664 451.939M684.664 451.939C684.828 452.103 685.055 452.197 685.287 452.197M684.664 451.939L685.287 452.197M685.287 452.197C685.519 452.197 685.746 452.103 685.91 451.938L685.287 452.197Z" fill="#EC663B" stroke="#EC663B" stroke-width="0.2"/>
<path d="M680.105 444.635H677.917C677.431 444.635 677.036 445.029 677.036 445.516C677.036 446.003 677.431 446.397 677.917 446.397H680.105C680.592 446.397 680.986 446.003 680.986 445.516C680.986 445.029 680.592 444.635 680.105 444.635Z" fill="#EC663B" stroke="#EC663B" stroke-width="0.2"/>
<path d="M692.787 444.635H690.6C690.113 444.635 689.718 445.029 689.718 445.516C689.718 446.003 690.113 446.397 690.6 446.397H692.787C693.274 446.397 693.668 446.003 693.668 445.516C693.668 445.029 693.274 444.635 692.787 444.635Z" fill="#EC663B" stroke="#EC663B" stroke-width="0.2"/>
<path d="M6.66512 258.164C4.96912 258.164 3.56646 257.604 2.45712 256.484C1.34779 255.364 0.793122 253.994 0.793122 252.372C0.793122 250.751 1.34779 249.38 2.45712 248.26C3.56646 247.14 4.96912 246.58 6.66512 246.58C7.69979 246.58 8.64912 246.831 9.51312 247.332C10.3771 247.823 11.0438 248.49 11.5131 249.332L10.5211 249.908C10.1691 249.226 9.64646 248.682 8.95312 248.276C8.25979 247.871 7.49712 247.668 6.66512 247.668C5.26779 247.668 4.12646 248.122 3.24112 249.028C2.35579 249.935 1.91312 251.05 1.91312 252.372C1.91312 253.695 2.35579 254.81 3.24112 255.716C4.12646 256.623 5.26779 257.076 6.66512 257.076C7.49712 257.076 8.25979 256.874 8.95312 256.468C9.64646 256.063 10.1691 255.519 10.5211 254.836L11.5131 255.396C11.0545 256.239 10.3878 256.911 9.51312 257.412C8.64912 257.914 7.69979 258.164 6.66512 258.164ZM23.8547 257.972L22.8147 255.22L17.5027 255.22L16.4627 257.972L15.2787 257.972L19.5827 246.772L20.7347 246.772L25.0387 257.972L23.8547 257.972ZM17.9027 254.164L22.4147 254.164L20.1587 248.164L17.9027 254.164ZM36.8769 246.772L37.9969 246.772L37.9969 257.972L36.8769 257.972L36.8769 252.74L30.7969 252.74L30.7969 257.972L29.6769 257.972L29.6769 246.772L30.7969 246.772L30.7969 251.684L36.8769 251.684L36.8769 246.772ZM51.5919 257.972L50.1199 257.972L44.8719 252.548L44.8719 257.972L43.7519 257.972L43.7519 246.772L44.8719 246.772L44.8719 251.892L49.9599 246.772L51.4319 246.772L46.0559 252.212L51.5919 257.972ZM63.2731 246.772L63.2731 247.828L59.8331 247.828L59.8331 257.972L58.7131 257.972L58.7131 247.828L55.2731 247.828L55.2731 246.772L63.2731 246.772ZM67.2769 253.54L67.2769 252.516L73.0369 252.516L73.0369 253.54L67.2769 253.54ZM86.7894 246.772L86.7894 257.972L85.6694 257.972L85.6694 247.828L79.9094 247.828L79.9094 257.972L78.7894 257.972L78.7894 246.772L86.7894 246.772ZM93.6719 256.916L99.1119 256.916L99.1119 257.972L92.5519 257.972L92.5519 246.772L99.0319 246.772L99.0319 247.828L93.6719 247.828L93.6719 251.796L98.6319 251.796L98.6319 252.852L93.6719 252.852L93.6719 256.916ZM111.276 246.772L111.276 247.828L107.836 247.828L107.836 257.972L106.716 257.972L106.716 247.828L103.276 247.828L103.276 246.772L111.276 246.772ZM117.197 256.916L122.637 256.916L122.637 257.972L116.077 257.972L116.077 246.772L122.557 246.772L122.557 247.828L117.197 247.828L117.197 251.796L122.157 251.796L122.157 252.852L117.197 252.852L117.197 256.916ZM131.761 246.772C132.764 246.772 133.601 247.108 134.273 247.78C134.945 248.452 135.281 249.29 135.281 250.292C135.281 251.295 134.945 252.132 134.273 252.804C133.601 253.476 132.764 253.812 131.761 253.812L128.881 253.812L128.881 257.972L127.761 257.972L127.761 246.772L131.761 246.772ZM131.761 252.756C132.455 252.756 133.025 252.527 133.473 252.068C133.932 251.599 134.161 251.007 134.161 250.292C134.161 249.578 133.932 248.991 133.473 248.532C133.025 248.063 132.455 247.828 131.761 247.828L128.881 247.828L128.881 252.756L131.761 252.756ZM144.559 251.252C145.487 251.252 146.276 251.583 146.927 252.244C147.588 252.906 147.919 253.695 147.919 254.612C147.919 255.54 147.588 256.335 146.927 256.996C146.276 257.647 145.487 257.972 144.559 257.972L140.399 257.972L140.399 246.772L146.959 246.772L146.959 247.828L141.519 247.828L141.519 251.252L144.559 251.252ZM144.559 256.916C145.177 256.916 145.705 256.692 146.143 256.244C146.58 255.796 146.799 255.252 146.799 254.612C146.799 253.983 146.58 253.444 146.143 252.996C145.705 252.538 145.177 252.308 144.559 252.308L141.519 252.308L141.519 256.916L144.559 256.916ZM159.002 246.772L160.154 246.772L156.426 255.524C156.052 256.42 155.578 257.066 155.002 257.46C154.426 257.855 153.711 258.026 152.858 257.972L152.858 256.948C153.455 257.012 153.946 256.927 154.33 256.692C154.724 256.447 155.05 256.026 155.306 255.428L155.53 254.9L151.674 246.772L152.826 246.772L156.058 253.652L159.002 246.772ZM168.799 246.772C169.801 246.772 170.639 247.108 171.311 247.78C171.983 248.452 172.319 249.29 172.319 250.292C172.319 251.295 171.983 252.132 171.311 252.804C170.639 253.476 169.801 253.812 168.799 253.812L165.919 253.812L165.919 257.972L164.799 257.972L164.799 246.772L168.799 246.772ZM168.799 252.756C169.492 252.756 170.063 252.527 170.511 252.068C170.969 251.599 171.199 251.007 171.199 250.292C171.199 249.578 170.969 248.991 170.511 248.532C170.063 248.063 169.492 247.828 168.799 247.828L165.919 247.828L165.919 252.756L168.799 252.756ZM183.676 246.772L183.676 247.828L178.556 247.828L178.556 257.972L177.436 257.972L177.436 246.772L183.676 246.772Z" fill="#2C2F49"/>
<path d="M282.661 257.792L282.661 268.992L281.541 268.992L281.541 259.488L277.621 266.048L277.461 266.048L273.541 259.488L273.541 268.992L272.421 268.992L272.421 257.792L273.813 257.792L277.541 264.032L281.269 257.792L282.661 257.792ZM297.682 267.504C296.562 268.624 295.191 269.184 293.57 269.184C291.948 269.184 290.578 268.624 289.458 267.504C288.338 266.374 287.778 265.003 287.778 263.392C287.778 261.782 288.338 260.416 289.458 259.296C290.578 258.166 291.948 257.6 293.57 257.6C295.191 257.6 296.562 258.166 297.682 259.296C298.802 260.416 299.362 261.782 299.362 263.392C299.362 265.003 298.802 266.374 297.682 267.504ZM290.242 266.736C291.138 267.643 292.247 268.096 293.57 268.096C294.892 268.096 296.002 267.643 296.898 266.736C297.794 265.819 298.242 264.704 298.242 263.392C298.242 262.08 297.794 260.971 296.898 260.064C296.002 259.147 294.892 258.688 293.57 258.688C292.247 258.688 291.138 259.147 290.242 260.064C289.346 260.971 288.898 262.08 288.898 263.392C288.898 264.704 289.346 265.819 290.242 266.736ZM309.709 269.184C308.013 269.184 306.61 268.624 305.501 267.504C304.392 266.384 303.837 265.014 303.837 263.392C303.837 261.771 304.392 260.4 305.501 259.28C306.61 258.16 308.013 257.6 309.709 257.6C310.744 257.6 311.693 257.851 312.557 258.352C313.421 258.843 314.088 259.51 314.557 260.352L313.565 260.928C313.213 260.246 312.69 259.702 311.997 259.296C311.304 258.891 310.541 258.688 309.709 258.688C308.312 258.688 307.17 259.142 306.285 260.048C305.4 260.955 304.957 262.07 304.957 263.392C304.957 264.715 305.4 265.83 306.285 266.736C307.17 267.643 308.312 268.096 309.709 268.096C310.541 268.096 311.304 267.894 311.997 267.488C312.69 267.083 313.213 266.539 313.565 265.856L314.557 266.416C314.098 267.259 313.432 267.931 312.557 268.432C311.693 268.934 310.744 269.184 309.709 269.184ZM327.439 268.992L325.967 268.992L320.719 263.568L320.719 268.992L319.599 268.992L319.599 257.792L320.719 257.792L320.719 262.912L325.807 257.792L327.279 257.792L321.903 263.232L327.439 268.992ZM338.288 263.184C338.832 263.419 339.264 263.776 339.584 264.256C339.915 264.726 340.08 265.264 340.08 265.872C340.08 266.736 339.776 267.472 339.168 268.08C338.56 268.688 337.824 268.992 336.96 268.992L332.08 268.992L332.08 257.792L336.592 257.792C337.424 257.792 338.133 258.091 338.72 258.688C339.307 259.275 339.6 259.979 339.6 260.8C339.6 261.846 339.163 262.64 338.288 263.184ZM336.592 258.848L333.2 258.848L333.2 262.752L336.592 262.752C337.115 262.752 337.557 262.566 337.92 262.192C338.293 261.808 338.48 261.344 338.48 260.8C338.48 260.267 338.293 259.808 337.92 259.424C337.557 259.04 337.115 258.848 336.592 258.848ZM336.96 267.936C337.515 267.936 337.984 267.739 338.368 267.344C338.763 266.939 338.96 266.448 338.96 265.872C338.96 265.307 338.763 264.822 338.368 264.416C337.984 264.011 337.515 263.808 336.96 263.808L333.2 263.808L333.2 267.936L336.96 267.936ZM352.658 268.992L351.618 266.24L346.306 266.24L345.266 268.992L344.082 268.992L348.386 257.792L349.538 257.792L353.842 268.992L352.658 268.992ZM346.706 265.184L351.218 265.184L348.962 259.184L346.706 265.184Z" fill="#2C2F49"/>
<path d="M362.275 5.2C363.779 5.2 365.035 5.704 366.043 6.712C367.051 7.72 367.555 8.976 367.555 10.48C367.555 11.984 367.051 13.24 366.043 14.248C365.035 15.256 363.779 15.76 362.275 15.76H357.955V22H356.275V5.2L362.275 5.2ZM362.275 14.176C363.315 14.176 364.171 13.832 364.843 13.144C365.531 12.44 365.875 11.552 365.875 10.48C365.875 9.408 365.531 8.528 364.843 7.84C364.171 7.136 363.315 6.784 362.275 6.784L357.955 6.784V14.176H362.275ZM389.011 19.768C387.331 21.448 385.275 22.288 382.843 22.288C380.411 22.288 378.355 21.448 376.675 19.768C374.995 18.072 374.155 16.016 374.155 13.6C374.155 11.184 374.995 9.136 376.675 7.456C378.355 5.76 380.411 4.912 382.843 4.912C385.275 4.912 387.331 5.76 389.011 7.456C390.691 9.136 391.531 11.184 391.531 13.6C391.531 16.016 390.691 18.072 389.011 19.768ZM377.851 18.616C379.195 19.976 380.859 20.656 382.843 20.656C384.827 20.656 386.491 19.976 387.835 18.616C389.179 17.24 389.851 15.568 389.851 13.6C389.851 11.632 389.179 9.968 387.835 8.608C386.491 7.232 384.827 6.544 382.843 6.544C380.859 6.544 379.195 7.232 377.851 8.608C376.507 9.968 375.835 11.632 375.835 13.6C375.835 15.568 376.507 17.24 377.851 18.616ZM407.052 22.288C404.508 22.288 402.404 21.448 400.74 19.768C399.076 18.088 398.244 16.032 398.244 13.6C398.244 11.168 399.076 9.112 400.74 7.432C402.404 5.752 404.508 4.912 407.052 4.912C408.604 4.912 410.028 5.288 411.324 6.04C412.62 6.776 413.62 7.776 414.324 9.04L412.836 9.904C412.308 8.88 411.524 8.064 410.484 7.456C409.444 6.848 408.3 6.544 407.052 6.544C404.956 6.544 403.244 7.224 401.916 8.584C400.588 9.944 399.924 11.616 399.924 13.6C399.924 15.584 400.588 17.256 401.916 18.616C403.244 19.976 404.956 20.656 407.052 20.656C408.3 20.656 409.444 20.352 410.484 19.744C411.524 19.136 412.308 18.32 412.836 17.296L414.324 18.136C413.636 19.4 412.636 20.408 411.324 21.16C410.028 21.912 408.604 22.288 407.052 22.288ZM429.734 22.288C427.19 22.288 425.086 21.448 423.422 19.768C421.758 18.088 420.926 16.032 420.926 13.6C420.926 11.168 421.758 9.112 423.422 7.432C425.086 5.752 427.19 4.912 429.734 4.912C431.286 4.912 432.71 5.288 434.006 6.04C435.302 6.776 436.302 7.776 437.006 9.04L435.518 9.904C434.99 8.88 434.206 8.064 433.166 7.456C432.126 6.848 430.982 6.544 429.734 6.544C427.638 6.544 425.926 7.224 424.598 8.584C423.27 9.944 422.606 11.616 422.606 13.6C422.606 15.584 423.27 17.256 424.598 18.616C425.926 19.976 427.638 20.656 429.734 20.656C430.982 20.656 432.126 20.352 433.166 19.744C434.206 19.136 434.99 18.32 435.518 17.296L437.006 18.136C436.318 19.4 435.318 20.408 434.006 21.16C432.71 21.912 431.286 22.288 429.734 22.288ZM455.369 22V8.32L446.009 22H444.569V5.2H446.249V18.88L455.609 5.2H457.049V22H455.369ZM476.722 5.2V22H475.042V15.28H471.01L466.402 22H464.482L469.162 15.208C467.962 15 466.962 14.432 466.162 13.504C465.362 12.56 464.962 11.472 464.962 10.24C464.962 8.848 465.45 7.664 466.426 6.688C467.418 5.696 468.61 5.2 470.002 5.2L476.722 5.2ZM470.002 13.696H475.042V6.784L470.002 6.784C469.074 6.784 468.282 7.12 467.626 7.792C466.97 8.464 466.642 9.28 466.642 10.24C466.642 11.184 466.97 12 467.626 12.688C468.282 13.36 469.074 13.696 470.002 13.696Z" fill="#C3C4D4"/>
<path d="M651.865 194H649.657L641.785 185.864V194H640.105V177.2H641.785V184.88L649.417 177.2H651.625L643.561 185.36L651.865 194ZM669.627 194V180.32L660.267 194H658.827V177.2H660.507V190.88L669.867 177.2H671.307V194H669.627ZM690.5 177.2V178.784H685.34V194H683.66V178.784H678.5V177.2H690.5ZM707.689 194L706.129 189.872H698.161L696.601 194H694.825L701.281 177.2H703.009L709.465 194H707.689ZM698.761 188.288H705.529L702.145 179.288L698.761 188.288ZM719.542 175.28V173.888H725.782V175.28H719.542ZM727.222 194V180.32L717.862 194H716.422V177.2H718.102V190.88L727.462 177.2H728.902V194H727.222Z" fill="#F39323"/>
<path opacity="0.4" d="M270.808 279.921C270.808 297.437 231.545 303.992 231.545 303.992C231.545 303.992 222.808 297.437 222.808 279.921C222.808 273.655 233.553 267.992 246.808 267.992C260.063 267.992 270.808 272.727 270.808 279.921Z" fill="#878894"/>
<path d="M254.789 263.992C254.789 281.992 230.789 303.992 230.789 303.992C230.789 303.992 206.789 281.992 206.789 263.992C206.789 250.737 217.534 239.992 230.789 239.992C244.044 239.992 254.789 250.737 254.789 263.992Z" fill="#2C2F49"/>
<circle cx="230.789" cy="263.992" r="20" fill="#EC663B"/>
<path d="M231.581 272.28C229.037 272.28 226.933 271.44 225.269 269.76C223.605 268.08 222.773 266.024 222.773 263.592C222.773 261.16 223.605 259.104 225.269 257.424C226.933 255.744 229.037 254.904 231.581 254.904C233.133 254.904 234.557 255.28 235.853 256.032C237.149 256.768 238.149 257.768 238.853 259.032L237.365 259.896C236.837 258.872 236.053 258.056 235.013 257.448C233.973 256.84 232.829 256.536 231.581 256.536C229.485 256.536 227.773 257.216 226.445 258.576C225.117 259.936 224.453 261.608 224.453 263.592C224.453 265.576 225.117 267.248 226.445 268.608C227.773 269.968 229.485 270.648 231.581 270.648C232.829 270.648 233.973 270.344 235.013 269.736C236.053 269.128 236.837 268.312 237.365 267.288L238.853 268.128C238.165 269.392 237.165 270.4 235.853 271.152C234.557 271.904 233.133 272.28 231.581 272.28Z" fill="white"/>
<path opacity="0.4" d="M200.019 317.9C200.019 335.417 160.756 341.972 160.756 341.972C160.756 341.972 152.019 335.417 152.019 317.9C152.019 311.635 162.764 305.972 176.019 305.972C189.274 305.972 200.019 310.707 200.019 317.9Z" fill="#878894"/>
<path d="M184 301.972C184 319.972 160 341.972 160 341.972C160 341.972 136 319.972 136 301.972C136 288.717 146.745 277.972 160 277.972C173.255 277.972 184 288.717 184 301.972Z" fill="#2C2F49"/>
<circle cx="160" cy="301.972" r="20" fill="white"/>
<path d="M163.756 301.26C164.572 301.612 165.22 302.148 165.7 302.868C166.196 303.572 166.444 304.38 166.444 305.292C166.444 306.588 165.988 307.692 165.076 308.604C164.164 309.516 163.06 309.972 161.764 309.972L154.444 309.972L154.444 293.172L161.212 293.172C162.46 293.172 163.524 293.62 164.404 294.516C165.284 295.396 165.724 296.452 165.724 297.684C165.724 299.252 165.068 300.444 163.756 301.26ZM161.212 294.756L156.124 294.756L156.124 300.612L161.212 300.612C161.996 300.612 162.66 300.332 163.204 299.772C163.764 299.196 164.044 298.5 164.044 297.684C164.044 296.884 163.764 296.196 163.204 295.62C162.66 295.044 161.996 294.756 161.212 294.756ZM161.764 308.388C162.596 308.388 163.3 308.092 163.876 307.5C164.468 306.892 164.764 306.156 164.764 305.292C164.764 304.444 164.468 303.716 163.876 303.108C163.3 302.5 162.596 302.196 161.764 302.196L156.124 302.196L156.124 308.388L161.764 308.388Z" fill="#2C2F49"/>
<circle cx="211.713" cy="347.685" r="33" fill="white" stroke="#EC663B" stroke-width="2"/>
<path d="M224.508 338.422V338.522H224.608H226.053H226.153V338.422V332.139C226.153 330.892 225.133 329.872 223.886 329.872H199.26C198.014 329.872 196.994 330.892 196.994 332.139V338.422V338.522H197.094H198.538H198.638V338.422V332.139C198.638 331.797 198.918 331.516 199.26 331.516H223.886C224.228 331.516 224.508 331.797 224.508 332.139V338.422Z" fill="#EC663B" stroke="#EC663B" stroke-width="0.2"/>
<path d="M197.817 346.574C198.666 346.574 199.361 345.879 199.361 345.029V340.696C199.361 339.847 198.666 339.152 197.817 339.152H196.444C195.595 339.152 194.9 339.847 194.9 340.696V345.029C194.9 345.879 195.595 346.574 196.444 346.574H197.817ZM196.544 340.796H197.717V344.929H196.544V340.796Z" fill="#EC663B" stroke="#EC663B" stroke-width="0.2"/>
<path d="M215.581 348.649H207.565C206.499 348.649 205.66 349.488 205.66 350.554V354.093C205.66 355.159 206.499 355.998 207.565 355.998H215.581C216.648 355.998 217.487 355.159 217.487 354.093V350.554C217.487 349.488 216.648 348.649 215.581 348.649ZM215.842 354.093C215.842 354.178 215.814 354.242 215.772 354.284C215.731 354.326 215.667 354.354 215.581 354.354H207.565C207.48 354.354 207.416 354.326 207.374 354.284C207.332 354.242 207.304 354.178 207.304 354.093V350.554C207.304 350.468 207.332 350.405 207.374 350.363C207.416 350.321 207.48 350.293 207.565 350.293H215.581C215.667 350.293 215.731 350.321 215.772 350.363C215.814 350.405 215.842 350.468 215.842 350.554V354.093Z" fill="#EC663B" stroke="#EC663B" stroke-width="0.2"/>
<path d="M202.943 351.501H200.054C199.205 351.501 198.51 352.196 198.51 353.045V354.454C198.51 355.303 199.205 355.998 200.054 355.998H202.943C203.793 355.998 204.487 355.303 204.487 354.454V353.045C204.487 352.196 203.793 351.501 202.943 351.501ZM200.154 354.354V353.145H202.843V354.354H200.154Z" fill="#EC663B" stroke="#EC663B" stroke-width="0.2"/>
<path d="M223.128 351.501H220.24C219.39 351.501 218.695 352.196 218.695 353.045V354.454C218.695 355.303 219.39 355.998 220.24 355.998H223.128C223.978 355.998 224.673 355.303 224.673 354.454V353.045C224.673 352.196 223.978 351.501 223.128 351.501ZM220.34 354.354V353.145H223.028V354.354H220.34Z" fill="#EC663B" stroke="#EC663B" stroke-width="0.2"/>
<path d="M226.774 339.152H225.402C224.552 339.152 223.858 339.847 223.858 340.696V345.029C223.858 345.879 224.552 346.574 225.402 346.574H226.774C227.624 346.574 228.319 345.879 228.319 345.029V340.696C228.319 339.847 227.624 339.152 226.774 339.152ZM225.502 344.929V340.796H226.674V344.929H225.502Z" fill="#EC663B" stroke="#EC663B" stroke-width="0.2"/>
<path d="M198.639 348.649H198.639V347.304V347.204H198.539H197.094H196.994V347.304V349.089C196.126 349.618 195.55 350.574 195.55 351.673V357.415V358.859V360.989V362.434V363.481C195.55 364.908 196.714 366.072 198.141 366.072H200.994C202.421 366.072 203.586 364.908 203.586 363.481V362.534H219.454V363.481C219.454 364.909 220.619 366.072 222.081 366.072H224.97C226.397 366.072 227.561 364.908 227.561 363.481V362.434V360.989V358.859V357.415V351.711C227.597 350.61 227.021 349.654 226.153 349.125V347.304V347.204H226.053H224.609H224.509V347.304V348.649H224.509H224.509H224.508H224.508H224.508H224.508H224.508H224.507H224.507H224.507H224.507H224.506H224.506H224.506H224.506H224.506H224.505H224.505H224.505H224.505H224.505H224.504H224.504H224.504H224.504H224.503H224.503H224.503H224.503H224.503H224.502H224.502H224.502H224.502H224.502H224.501H224.501H224.501H224.501H224.501H223.251L221.892 339.497C221.891 339.255 221.806 338.909 221.431 338.533C220.83 337.877 219.693 337.394 218.052 337.073C216.405 336.751 214.231 336.588 211.538 336.588C208.773 336.588 206.555 336.733 204.899 337.023C204.071 337.168 203.381 337.351 202.833 337.571C202.285 337.79 201.872 338.051 201.605 338.356C201.339 338.659 201.257 338.968 201.255 339.173L199.968 348.649H198.647H198.647H198.647H198.646H198.646H198.646H198.646H198.646H198.645H198.645H198.645H198.645H198.644H198.644H198.644H198.644H198.644H198.643H198.643H198.643H198.643H198.643H198.642H198.642H198.642H198.642H198.642H198.641H198.641H198.641H198.641H198.64H198.64H198.64H198.64H198.64H198.639H198.639H198.639H198.639ZM202.013 363.381H201.977V363.481C201.977 364.003 201.553 364.428 201.03 364.428H198.178C197.655 364.428 197.23 364.003 197.23 363.481V362.534H202.013V363.381ZM201.382 350.207L201.873 346.667C203.23 346.955 206.12 347.332 211.574 347.332C217.064 347.332 219.955 346.955 221.312 346.666L221.838 350.208L221.851 350.293H221.937H224.501C225.276 350.293 225.917 350.934 225.917 351.71V357.315H197.194V351.71C197.194 350.934 197.836 350.293 198.611 350.293H201.283H201.37L201.382 350.207ZM211.574 338.233C215.36 338.233 217.526 338.567 218.755 338.915C219.88 339.234 220.213 339.564 220.289 339.655L221.102 344.989C219.969 345.239 217.194 345.616 211.61 345.616C206.03 345.616 203.288 345.206 202.153 344.986L202.894 339.405C202.997 339.302 203.382 339.023 204.554 338.763C205.808 338.485 207.949 338.233 211.574 338.233ZM225.953 363.481C225.953 364.003 225.529 364.428 225.006 364.428H222.153C221.627 364.428 221.17 363.999 221.17 363.481V362.534H225.953V363.481ZM225.953 360.853H219.626H203.522H197.194V358.959H225.953V360.853Z" fill="#EC663B" stroke="#EC663B" stroke-width="0.2"/>
<path d="M706.105 71.8L707.225 71.8L707.225 83L694.585 83L694.585 71.8L695.705 71.8L695.705 81.944L700.345 81.944L700.345 71.8L701.465 71.8L701.465 81.944L706.105 81.944L706.105 71.8ZM720.444 83L719.404 80.248L714.092 80.248L713.052 83L711.868 83L716.172 71.8L717.324 71.8L721.628 83L720.444 83ZM714.492 79.192L719.004 79.192L716.748 73.192L714.492 79.192ZM733.466 71.8L734.586 71.8L734.586 83L733.466 83L733.466 77.768L727.386 77.768L727.386 83L726.266 83L726.266 71.8L727.386 71.8L727.386 76.712L733.466 76.712L733.466 71.8ZM748.021 83L746.741 83L743.701 78.216L740.661 83L739.381 83L743.061 77.224L739.621 71.8L740.885 71.8L743.701 76.216L746.517 71.8L747.781 71.8L744.341 77.224L748.021 83ZM760.278 83L759.238 80.248L753.926 80.248L752.886 83L751.702 83L756.006 71.8L757.158 71.8L761.462 83L760.278 83ZM754.326 79.192L758.838 79.192L756.582 73.192L754.326 79.192ZM768.18 70.52L768.18 69.592L772.34 69.592L772.34 70.52L768.18 70.52ZM773.3 83L773.3 73.88L767.06 83L766.1 83L766.1 71.8L767.22 71.8L767.22 80.92L773.46 71.8L774.42 71.8L774.42 83L773.3 83Z" fill="#2C2F49"/>
<path opacity="0.4" d="M856.02 92.9283C856.02 110.444 816.756 117 816.756 117C816.756 117 808.02 110.444 808.02 92.9283C808.02 86.6627 818.765 81 832.02 81C845.274 81 856.02 85.7343 856.02 92.9283Z" fill="#878894"/>
<path d="M840 77C840 95 816 117 816 117C816 117 792 95 792 77C792 63.7452 802.746 53 816 53C829.255 53 840 63.7452 840 77Z" fill="#2C2F49"/>
<circle cx="816" cy="77" r="20" fill="#EC663B"/>
<path d="M821.511 85L819.951 80.872L811.983 80.872L810.423 85L808.647 85L815.103 68.2L816.831 68.2L823.287 85L821.511 85ZM812.583 79.288L819.351 79.288L815.967 70.288L812.583 79.288Z" fill="white"/>
</svg>
