<svg width="814" height="380" viewBox="0 0 814 380" fill="none" xmlns="http://www.w3.org/2000/svg">
<path d="M12.4502 331.82L12.4502 343.02L11.3302 343.02L11.3302 333.516L7.41018 340.076L7.25018 340.076L3.33018 333.516L3.33018 343.02L2.21018 343.02L2.21018 331.82L3.60218 331.82L7.33018 338.06L11.0582 331.82L12.4502 331.82ZM27.4711 341.532C26.3511 342.652 24.9804 343.212 23.3591 343.212C21.7377 343.212 20.3671 342.652 19.2471 341.532C18.1271 340.401 17.5671 339.031 17.5671 337.42C17.5671 335.809 18.1271 334.444 19.2471 333.324C20.3671 332.193 21.7377 331.628 23.3591 331.628C24.9804 331.628 26.3511 332.193 27.4711 333.324C28.5911 334.444 29.1511 335.809 29.1511 337.42C29.1511 339.031 28.5911 340.401 27.4711 341.532ZM20.0311 340.764C20.9271 341.671 22.0364 342.124 23.3591 342.124C24.6817 342.124 25.7911 341.671 26.6871 340.764C27.5831 339.847 28.0311 338.732 28.0311 337.42C28.0311 336.108 27.5831 334.999 26.6871 334.092C25.7911 333.175 24.6817 332.716 23.3591 332.716C22.0364 332.716 20.9271 333.175 20.0311 334.092C19.1351 334.999 18.6871 336.108 18.6871 337.42C18.6871 338.732 19.1351 339.847 20.0311 340.764ZM39.4984 343.212C37.8024 343.212 36.3998 342.652 35.2904 341.532C34.1811 340.412 33.6264 339.041 33.6264 337.42C33.6264 335.799 34.1811 334.428 35.2904 333.308C36.3998 332.188 37.8024 331.628 39.4984 331.628C40.5331 331.628 41.4824 331.879 42.3464 332.38C43.2104 332.871 43.8771 333.537 44.3464 334.38L43.3544 334.956C43.0024 334.273 42.4798 333.729 41.7864 333.324C41.0931 332.919 40.3304 332.716 39.4984 332.716C38.1011 332.716 36.9598 333.169 36.0744 334.076C35.1891 334.983 34.7464 336.097 34.7464 337.42C34.7464 338.743 35.1891 339.857 36.0744 340.764C36.9598 341.671 38.1011 342.124 39.4984 342.124C40.3304 342.124 41.0931 341.921 41.7864 341.516C42.4798 341.111 43.0024 340.567 43.3544 339.884L44.3464 340.444C43.8878 341.287 43.2211 341.959 42.3464 342.46C41.4824 342.961 40.5331 343.212 39.4984 343.212ZM57.2283 343.02L55.7563 343.02L50.5083 337.596L50.5083 343.02L49.3883 343.02L49.3883 331.82L50.5083 331.82L50.5083 336.94L55.5963 331.82L57.0683 331.82L51.6923 337.26L57.2283 343.02ZM68.0776 337.212C68.6216 337.447 69.0536 337.804 69.3736 338.284C69.7042 338.753 69.8696 339.292 69.8696 339.9C69.8696 340.764 69.5656 341.5 68.9575 342.108C68.3496 342.716 67.6136 343.02 66.7496 343.02L61.8696 343.02L61.8696 331.82L66.3816 331.82C67.2136 331.82 67.9229 332.119 68.5096 332.716C69.0962 333.303 69.3896 334.007 69.3896 334.828C69.3896 335.873 68.9522 336.668 68.0776 337.212ZM66.3816 332.876L62.9896 332.876L62.9896 336.78L66.3816 336.78C66.9042 336.78 67.3469 336.593 67.7096 336.22C68.0829 335.836 68.2696 335.372 68.2696 334.828C68.2696 334.295 68.0829 333.836 67.7096 333.452C67.3469 333.068 66.9042 332.876 66.3816 332.876ZM66.7496 341.964C67.3042 341.964 67.7736 341.767 68.1576 341.372C68.5522 340.967 68.7496 340.476 68.7496 339.9C68.7496 339.335 68.5522 338.849 68.1576 338.444C67.7736 338.039 67.3042 337.836 66.7496 337.836L62.9896 337.836L62.9896 341.964L66.7496 341.964ZM82.4474 343.02L81.4074 340.268L76.0954 340.268L75.0554 343.02L73.8714 343.02L78.1754 331.82L79.3274 331.82L83.6314 343.02L82.4474 343.02ZM76.4954 339.212L81.0074 339.212L78.7514 333.212L76.4954 339.212Z" fill="#2C2F49"/>
<path d="M294.275 5.2C295.779 5.2 297.035 5.704 298.043 6.712C299.051 7.72 299.555 8.976 299.555 10.48C299.555 11.984 299.051 13.24 298.043 14.248C297.035 15.256 295.779 15.76 294.275 15.76H289.955V22H288.275V5.2L294.275 5.2ZM294.275 14.176C295.315 14.176 296.171 13.832 296.843 13.144C297.531 12.44 297.875 11.552 297.875 10.48C297.875 9.408 297.531 8.528 296.843 7.84C296.171 7.136 295.315 6.784 294.275 6.784L289.955 6.784V14.176H294.275ZM321.011 19.768C319.331 21.448 317.275 22.288 314.843 22.288C312.411 22.288 310.355 21.448 308.675 19.768C306.995 18.072 306.155 16.016 306.155 13.6C306.155 11.184 306.995 9.136 308.675 7.456C310.355 5.76 312.411 4.912 314.843 4.912C317.275 4.912 319.331 5.76 321.011 7.456C322.691 9.136 323.531 11.184 323.531 13.6C323.531 16.016 322.691 18.072 321.011 19.768ZM309.851 18.616C311.195 19.976 312.859 20.656 314.843 20.656C316.827 20.656 318.491 19.976 319.835 18.616C321.179 17.24 321.851 15.568 321.851 13.6C321.851 11.632 321.179 9.968 319.835 8.608C318.491 7.232 316.827 6.544 314.843 6.544C312.859 6.544 311.195 7.232 309.851 8.608C308.507 9.968 307.835 11.632 307.835 13.6C307.835 15.568 308.507 17.24 309.851 18.616ZM339.052 22.288C336.508 22.288 334.404 21.448 332.74 19.768C331.076 18.088 330.244 16.032 330.244 13.6C330.244 11.168 331.076 9.112 332.74 7.432C334.404 5.752 336.508 4.912 339.052 4.912C340.604 4.912 342.028 5.288 343.324 6.04C344.62 6.776 345.62 7.776 346.324 9.04L344.836 9.904C344.308 8.88 343.524 8.064 342.484 7.456C341.444 6.848 340.3 6.544 339.052 6.544C336.956 6.544 335.244 7.224 333.916 8.584C332.588 9.944 331.924 11.616 331.924 13.6C331.924 15.584 332.588 17.256 333.916 18.616C335.244 19.976 336.956 20.656 339.052 20.656C340.3 20.656 341.444 20.352 342.484 19.744C343.524 19.136 344.308 18.32 344.836 17.296L346.324 18.136C345.636 19.4 344.636 20.408 343.324 21.16C342.028 21.912 340.604 22.288 339.052 22.288ZM361.734 22.288C359.19 22.288 357.086 21.448 355.422 19.768C353.758 18.088 352.926 16.032 352.926 13.6C352.926 11.168 353.758 9.112 355.422 7.432C357.086 5.752 359.19 4.912 361.734 4.912C363.286 4.912 364.71 5.288 366.006 6.04C367.302 6.776 368.302 7.776 369.006 9.04L367.518 9.904C366.99 8.88 366.206 8.064 365.166 7.456C364.126 6.848 362.982 6.544 361.734 6.544C359.638 6.544 357.926 7.224 356.598 8.584C355.27 9.944 354.606 11.616 354.606 13.6C354.606 15.584 355.27 17.256 356.598 18.616C357.926 19.976 359.638 20.656 361.734 20.656C362.982 20.656 364.126 20.352 365.166 19.744C366.206 19.136 366.99 18.32 367.518 17.296L369.006 18.136C368.318 19.4 367.318 20.408 366.006 21.16C364.71 21.912 363.286 22.288 361.734 22.288ZM387.369 22V8.32L378.009 22H376.569V5.2H378.249V18.88L387.609 5.2H389.049V22H387.369ZM408.722 5.2V22H407.042V15.28H403.01L398.402 22H396.482L401.162 15.208C399.962 15 398.962 14.432 398.162 13.504C397.362 12.56 396.962 11.472 396.962 10.24C396.962 8.848 397.45 7.664 398.426 6.688C399.418 5.696 400.61 5.2 402.002 5.2L408.722 5.2ZM402.002 13.696H407.042V6.784L402.002 6.784C401.074 6.784 400.282 7.12 399.626 7.792C398.97 8.464 398.642 9.28 398.642 10.24C398.642 11.184 398.97 12 399.626 12.688C400.282 13.36 401.074 13.696 402.002 13.696Z" fill="#C3C4D4"/>
<path d="M587.865 267.745H585.657L577.785 259.609V267.745H576.105V250.945H577.785V258.625L585.417 250.945H587.625L579.561 259.105L587.865 267.745ZM605.627 267.745V254.065L596.267 267.745H594.827V250.945H596.507V264.625L605.867 250.945H607.307V267.745H605.627ZM626.5 250.945V252.529H621.34V267.745H619.66V252.529H614.5V250.945H626.5ZM643.689 267.745L642.129 263.617H634.161L632.601 267.745H630.825L637.281 250.945H639.009L645.465 267.745H643.689ZM634.761 262.033H641.529L638.145 253.033L634.761 262.033ZM655.542 249.025V247.633H661.782V249.025H655.542ZM663.222 267.745V254.065L653.862 267.745H652.422V250.945H654.102V264.625L663.462 250.945H664.902V267.745H663.222Z" fill="#F39323"/>
<path d="M744.105 200.544L745.225 200.544L745.225 211.744L732.585 211.744L732.585 200.544L733.705 200.544L733.705 210.688L738.345 210.688L738.345 200.544L739.465 200.544L739.465 210.688L744.105 210.688L744.105 200.544ZM758.444 211.744L757.404 208.992L752.092 208.992L751.052 211.744L749.868 211.744L754.172 200.544L755.324 200.544L759.628 211.744L758.444 211.744ZM752.492 207.936L757.004 207.936L754.748 201.936L752.492 207.936ZM771.466 200.544L772.586 200.544L772.586 211.744L771.466 211.744L771.466 206.512L765.386 206.512L765.386 211.744L764.266 211.744L764.266 200.544L765.386 200.544L765.386 205.456L771.466 205.456L771.466 200.544ZM786.021 211.744L784.741 211.744L781.701 206.96L778.661 211.744L777.381 211.744L781.061 205.968L777.621 200.544L778.885 200.544L781.701 204.96L784.517 200.544L785.781 200.544L782.341 205.968L786.021 211.744ZM798.278 211.744L797.238 208.992L791.926 208.992L790.886 211.744L789.702 211.744L794.006 200.544L795.158 200.544L799.462 211.744L798.278 211.744ZM792.326 207.936L796.838 207.936L794.582 201.936L792.326 207.936ZM806.18 199.264L806.18 198.336L810.34 198.336L810.34 199.264L806.18 199.264ZM811.3 211.744L811.3 202.624L805.06 211.744L804.1 211.744L804.1 200.544L805.22 200.544L805.22 209.664L811.46 200.544L812.42 200.544L812.42 211.744L811.3 211.744Z" fill="#2C2F49"/>
<path d="M772.5 175.744C656 3.7442 272 131.744 127 375.244" stroke="#EC663B" stroke-width="4" stroke-linecap="round" stroke-linejoin="round" stroke-dasharray="4 8"/>
<path opacity="0.4" d="M166.789 354.948C166.789 372.464 127.537 379.02 127.537 379.02C127.537 379.02 118.803 372.464 118.803 354.948C118.803 348.682 129.545 343.02 142.796 343.02C156.047 343.02 166.789 347.754 166.789 354.948Z" fill="#878894"/>
<path d="M150.775 339.02C150.775 357.02 126.782 379.02 126.782 379.02C126.782 379.02 102.789 357.02 102.789 339.02C102.789 325.765 113.531 315.02 126.782 315.02C140.033 315.02 150.775 325.765 150.775 339.02Z" fill="#2C2F49"/>
<ellipse cx="126.782" cy="339.02" rx="19.9941" ry="20" fill="#EC663B"/>
<path d="M130.539 338.308C131.355 338.66 132.003 339.196 132.483 339.916C132.979 340.62 133.227 341.428 133.227 342.34C133.227 343.636 132.771 344.74 131.859 345.652C130.947 346.564 129.843 347.02 128.547 347.02L121.227 347.02L121.227 330.22L127.995 330.22C129.243 330.22 130.307 330.668 131.187 331.564C132.067 332.444 132.507 333.5 132.507 334.732C132.507 336.3 131.851 337.492 130.539 338.308ZM127.995 331.804L122.907 331.804L122.907 337.66L127.995 337.66C128.779 337.66 129.443 337.38 129.987 336.82C130.547 336.244 130.827 335.548 130.827 334.732C130.827 333.932 130.547 333.244 129.987 332.668C129.443 332.092 128.779 331.804 127.995 331.804ZM128.547 345.436C129.379 345.436 130.083 345.14 130.659 344.548C131.251 343.94 131.547 343.204 131.547 342.34C131.547 341.492 131.251 340.764 130.659 340.156C130.083 339.548 129.379 339.244 128.547 339.244L122.907 339.244L122.907 345.436L128.547 345.436Z" fill="white"/>
<path opacity="0.4" d="M812 156.673C812 174.189 772.749 180.745 772.749 180.745C772.749 180.745 764.015 174.189 764.015 156.673C764.015 150.407 774.757 144.745 788.008 144.745C801.258 144.745 812 149.479 812 156.673Z" fill="#878894"/>
<path d="M795.986 140.745C795.986 158.745 771.993 180.745 771.993 180.745C771.993 180.745 748 158.745 748 140.745C748 127.49 758.742 116.745 771.993 116.745C785.244 116.745 795.986 127.49 795.986 140.745Z" fill="#2C2F49"/>
<ellipse cx="771.993" cy="140.745" rx="19.9941" ry="20" fill="#EC663B"/>
<path d="M777.505 148.745L775.945 144.617L767.977 144.617L766.417 148.745L764.641 148.745L771.097 131.945L772.825 131.945L779.281 148.745L777.505 148.745ZM768.577 143.033L775.345 143.033L771.961 134.033L768.577 143.033Z" fill="white"/>
<circle cx="424.713" cy="133.457" r="33" fill="white" stroke="#EC663B" stroke-width="2"/>
<path d="M425.617 146.837C425.674 146.819 425.729 146.795 425.781 146.765L429.39 144.682C429.788 144.452 429.925 143.942 429.695 143.543C429.465 143.145 428.955 143.008 428.556 143.238L425.043 145.266C424.808 145.322 424.062 145.454 423.81 145.016C423.556 144.578 424.049 143.997 424.21 143.823L425.558 143.045C425.956 142.815 426.093 142.305 425.863 141.906C425.633 141.508 425.123 141.371 424.725 141.601L423.281 142.435C423.229 142.465 423.181 142.5 423.137 142.541C422.483 143.136 421.587 144.5 422.366 145.85C423.145 147.199 424.776 147.104 425.617 146.837Z" fill="#EC663B"/>
<path d="M433.28 150.11C433.337 150.092 433.393 150.068 433.445 150.038L437.053 147.955C437.451 147.725 437.588 147.215 437.358 146.816C437.128 146.418 436.618 146.281 436.22 146.511L432.706 148.539C432.471 148.595 431.725 148.727 431.473 148.289C431.219 147.851 431.712 147.27 431.873 147.096L433.221 146.318C433.62 146.088 433.756 145.578 433.526 145.179C433.296 144.781 432.786 144.644 432.388 144.874L430.944 145.708C430.892 145.738 430.844 145.773 430.8 145.814C430.146 146.409 429.25 147.773 430.029 149.123C430.809 150.472 432.44 150.377 433.28 150.11Z" fill="#EC663B"/>
<path d="M409.802 145.282C413.557 146.205 420.275 142.317 422.094 141.211L437.017 147.906C438.234 148.453 439.65 148.38 440.805 147.713L441.495 147.315C441.7 147.197 441.845 146.995 441.893 146.765C441.942 146.535 441.891 146.294 441.752 146.104L432.872 133.887L437.253 130.571L443.689 132.296C443.902 132.351 444.13 132.322 444.322 132.211L445.765 131.378C445.987 131.25 446.138 131.026 446.174 130.772C446.21 130.519 446.127 130.261 445.948 130.077L441.243 125.211L440.512 123.946L438.649 117.436C438.578 117.189 438.398 116.988 438.161 116.893C437.923 116.797 437.654 116.816 437.432 116.944L435.989 117.777C435.797 117.888 435.657 118.071 435.6 118.285L433.876 124.721L428.813 126.856L422.673 113.058C422.579 112.841 422.396 112.677 422.17 112.603C421.945 112.53 421.7 112.556 421.495 112.674L420.805 113.072C419.65 113.739 418.88 114.928 418.744 116.256L417.081 132.528C415.216 133.545 408.487 137.424 407.409 141.137C407.135 142.082 407.226 142.959 407.679 143.744C408.133 144.53 408.847 145.047 409.802 145.282ZM409.009 141.604C409.842 138.727 415.956 134.986 418.251 133.792C418.491 133.674 418.665 133.416 418.693 133.138L420.401 116.427C420.478 115.672 420.896 114.994 421.527 114.583L427.624 128.28C427.808 128.695 428.291 128.884 428.709 128.709L434.899 126.097C434.93 126.085 434.961 126.069 434.992 126.051C435.182 125.941 435.322 125.76 435.379 125.546L437.121 119.048L437.34 118.922L438.938 124.502C438.956 124.567 438.983 124.63 439.017 124.689L439.85 126.133C439.884 126.192 439.926 126.247 439.973 126.295L444.007 130.469L443.787 130.595L437.293 128.854C437.045 128.788 436.785 128.841 436.573 128.994L431.217 133.049C430.854 133.322 430.778 133.836 431.045 134.203L439.859 146.331C439.188 146.672 438.391 146.695 437.7 146.385L422.372 139.509C422.116 139.393 421.82 139.397 421.584 139.565C419.411 140.945 413.113 144.379 410.2 143.663C409.689 143.539 409.347 143.299 409.123 142.911C408.898 142.523 408.862 142.107 409.009 141.604Z" fill="#EC663B"/>
<path d="M416.45 130.959C416.507 130.942 416.562 130.917 416.614 130.887L418.058 130.054C418.456 129.824 418.593 129.314 418.363 128.916C418.133 128.517 417.623 128.381 417.224 128.611L415.876 129.389C415.641 129.444 414.895 129.576 414.643 129.139C414.389 128.7 414.882 128.12 415.043 127.946L418.556 125.917C418.955 125.687 419.091 125.177 418.861 124.779C418.631 124.381 418.121 124.244 417.723 124.474L414.114 126.557C414.062 126.587 414.014 126.623 413.97 126.664C413.316 127.258 412.42 128.623 413.199 129.972C413.978 131.322 415.61 131.227 416.45 130.959Z" fill="#EC663B"/>
<path d="M417.447 122.686C417.504 122.669 417.56 122.644 417.612 122.614L419.055 121.781C419.453 121.551 419.59 121.041 419.36 120.643C419.13 120.244 418.62 120.108 418.222 120.338L416.873 121.116C416.638 121.171 415.892 121.303 415.64 120.866C415.386 120.427 415.879 119.846 416.04 119.672L419.553 117.644C419.952 117.414 420.088 116.904 419.858 116.506C419.628 116.107 419.118 115.971 418.72 116.201L415.111 118.284C415.059 118.314 415.011 118.35 414.967 118.39C414.313 118.985 413.417 120.349 414.196 121.699C414.976 123.049 416.607 122.954 417.447 122.686Z" fill="#EC663B"/>
<path d="M415.237 142.239C415.677 142.117 415.933 141.656 415.808 141.214C415.685 140.774 415.226 140.515 414.783 140.636C414.773 140.638 413.734 140.897 413.453 140.411C413.172 139.925 413.916 139.154 413.92 139.15C414.251 138.83 414.26 138.303 413.94 137.972C413.669 137.69 413.249 137.642 412.926 137.828C412.867 137.863 412.812 137.904 412.762 137.952C412.13 138.563 411.259 139.945 412.009 141.244C412.759 142.543 414.392 142.48 415.237 142.239Z" fill="#EC663B"/>
</svg>
