<svg width="592" height="428" viewBox="0 0 592 428" fill="none" xmlns="http://www.w3.org/2000/svg">
<path d="M506.029 104.213C511.716 123.708 531.412 140.372 542.775 145.639C550.325 149.137 561.587 164.565 557.51 178.746C552.175 197.301 540.785 205.924 535.833 214.04" stroke="#EC663B" stroke-width="4.76229" stroke-linecap="round" stroke-linejoin="round" stroke-dasharray="2.38 9.52"/>
<path d="M62.6564 363.75C152.756 342.655 96.9448 298.379 138.596 259.556C167.71 232.417 206.174 253.812 240.872 225.724C280.293 193.812 274.42 151.929 301.623 112.223C315.933 91.3367 336.347 70.5535 360.878 64.2561C379.789 59.4015 391.52 71.328 411.044 70.6384C426.179 70.1038 445.245 59.0964 463.775 64.2562C482.695 69.5241 499.302 90.4453 503.272 108.352" stroke="#EC663B" stroke-width="4" stroke-linecap="round" stroke-linejoin="round" stroke-dasharray="2.38 9.52"/>
<path opacity="0.4" d="M108.057 341.552C108.057 363.448 58.9925 371.642 58.9925 371.642C58.9925 371.642 48.075 363.448 48.075 341.552C48.075 333.72 61.5024 326.642 78.066 326.642C94.6297 326.642 108.057 332.56 108.057 341.552Z" fill="#878894"/>
<path d="M88.0394 321.642C88.0394 344.142 58.0483 371.642 58.0483 371.642C58.0483 371.642 28.0573 344.142 28.0573 321.642C28.0573 305.074 41.4847 291.642 58.0483 291.642C74.6119 291.642 88.0394 305.074 88.0394 321.642Z" fill="#2C2F49"/>
<ellipse cx="58.0498" cy="321.642" rx="24.9926" ry="25" fill="#EC663B"/>
<path d="M58.978 332.142C55.9034 332.142 53.3606 331.127 51.3495 329.097C49.3384 327.066 48.3329 324.581 48.3329 321.642C48.3329 318.703 49.3384 316.218 51.3495 314.188C53.3606 312.157 55.9034 311.142 58.978 311.142C60.8537 311.142 62.5748 311.597 64.1411 312.505C65.7074 313.395 66.916 314.603 67.7668 316.131L65.9684 317.175C65.3303 315.938 64.3828 314.952 63.1259 314.217C61.869 313.482 60.4863 313.114 58.978 313.114C56.4449 313.114 54.3758 313.936 52.7708 315.58C51.1658 317.224 50.3633 319.244 50.3633 321.642C50.3633 324.04 51.1658 326.061 52.7708 327.704C54.3758 329.348 56.4449 330.17 58.978 330.17C60.4863 330.17 61.869 329.803 63.1259 329.068C64.3828 328.333 65.3303 327.347 65.9684 326.109L67.7668 327.124C66.9353 328.652 65.7267 329.87 64.1411 330.779C62.5748 331.688 60.8537 332.142 58.978 332.142Z" fill="white"/>
<path opacity="0.4" d="M555.676 86.7207C555.676 108.616 506.612 116.81 506.612 116.81C506.612 116.81 495.694 108.616 495.694 86.7207C495.694 78.8886 509.122 71.8103 525.685 71.8103C542.249 71.8103 555.676 77.7282 555.676 86.7207Z" fill="#878894"/>
<path d="M535.659 66.8103C535.659 89.3103 505.668 116.81 505.668 116.81C505.668 116.81 475.677 89.3103 475.677 66.8103C475.677 50.2418 489.104 36.8103 505.668 36.8103C522.232 36.8103 535.659 50.2418 535.659 66.8103Z" fill="#2C2F49"/>
<ellipse cx="505.602" cy="66.8103" rx="24.9926" ry="25" fill="white"/>
<path d="M509.743 66.4201C510.763 66.8601 511.573 67.5301 512.173 68.4301C512.793 69.3101 513.103 70.3201 513.103 71.4601C513.103 73.0801 512.533 74.4601 511.393 75.6001C510.253 76.7401 508.873 77.3101 507.253 77.3101L498.103 77.3101L498.103 56.3101L506.563 56.3101C508.123 56.3101 509.453 56.8701 510.553 57.9901C511.653 59.0901 512.203 60.4101 512.203 61.9501C512.203 63.9101 511.383 65.4001 509.743 66.4201ZM506.563 58.2901L500.203 58.2901L500.203 65.6101L506.563 65.6101C507.543 65.6101 508.373 65.2601 509.053 64.5601C509.753 63.8401 510.103 62.9701 510.103 61.9501C510.103 60.9501 509.753 60.0901 509.053 59.3701C508.373 58.6501 507.543 58.2901 506.563 58.2901ZM507.253 75.3301C508.293 75.3301 509.173 74.9601 509.893 74.2201C510.633 73.4601 511.003 72.5401 511.003 71.4601C511.003 70.4001 510.633 69.4901 509.893 68.7301C509.173 67.9701 508.293 67.5901 507.253 67.5901L500.203 67.5901L500.203 75.3301L507.253 75.3301Z" fill="#2C2F49"/>
<path d="M438.35 11.0023C438.894 11.237 439.326 11.5943 439.646 12.0743C439.977 12.5436 440.142 13.0823 440.142 13.6903C440.142 14.5543 439.838 15.2903 439.23 15.8983C438.622 16.5063 437.886 16.8103 437.022 16.8103L432.142 16.8103L432.142 5.6103L436.654 5.6103C437.486 5.6103 438.196 5.90897 438.782 6.5063C439.369 7.09297 439.662 7.79697 439.662 8.6183C439.662 9.66364 439.225 10.4583 438.35 11.0023ZM436.654 6.6663L433.262 6.6663L433.262 10.5703L436.654 10.5703C437.177 10.5703 437.62 10.3836 437.982 10.0103C438.356 9.6263 438.542 9.1623 438.542 8.6183C438.542 8.08497 438.356 7.6263 437.982 7.2423C437.62 6.8583 437.177 6.6663 436.654 6.6663ZM437.022 15.7543C437.577 15.7543 438.046 15.557 438.43 15.1623C438.825 14.757 439.022 14.2663 439.022 13.6903C439.022 13.125 438.825 12.6396 438.43 12.2343C438.046 11.829 437.577 11.6263 437.022 11.6263L433.262 11.6263L433.262 15.7543L437.022 15.7543ZM443.74 16.8103L443.74 15.8183C444.519 15.925 445.1 15.685 445.484 15.0983C445.879 14.501 446.076 13.413 446.076 11.8343L446.076 5.6103L453.34 5.6103L453.34 16.8103L452.22 16.8103L452.22 6.6663L447.196 6.6663L447.196 11.8663C447.196 12.8796 447.116 13.7276 446.956 14.4103C446.796 15.093 446.556 15.6156 446.236 15.9783C445.927 16.3303 445.569 16.5703 445.164 16.6983C444.769 16.8156 444.295 16.853 443.74 16.8103ZM466.561 16.8103L465.521 14.0583L460.209 14.0583L459.169 16.8103L457.985 16.8103L462.289 5.6103L463.441 5.6103L467.745 16.8103L466.561 16.8103ZM460.609 13.0023L465.121 13.0023L462.865 7.0023L460.609 13.0023ZM480.383 15.7543L481.583 15.7543L481.583 18.9543L480.463 18.9543L480.463 16.8103L472.463 16.8103L472.463 18.9543L471.343 18.9543L471.343 15.7543L472.255 15.7543C472.991 14.8903 473.359 13.557 473.359 11.7543L473.359 5.6103L480.383 5.6103L480.383 15.7543ZM473.583 15.7543L479.263 15.7543L479.263 6.6663L474.479 6.6663L474.479 11.7863C474.479 13.557 474.18 14.8796 473.583 15.7543ZM493.83 16.8103L493.83 7.6903L487.59 16.8103L486.63 16.8103L486.63 5.6103L487.75 5.6103L487.75 14.7303L493.99 5.6103L494.95 5.6103L494.95 16.8103L493.83 16.8103ZM506.913 11.0023C507.457 11.237 507.889 11.5943 508.209 12.0743C508.54 12.5436 508.705 13.0823 508.705 13.6903C508.705 14.5543 508.401 15.2903 507.793 15.8983C507.185 16.5063 506.449 16.8103 505.585 16.8103L500.705 16.8103L500.705 5.6103L505.217 5.6103C506.049 5.6103 506.758 5.90897 507.345 6.5063C507.932 7.09297 508.225 7.79697 508.225 8.6183C508.225 9.66364 507.788 10.4583 506.913 11.0023ZM505.217 6.6663L501.825 6.6663L501.825 10.5703L505.217 10.5703C505.74 10.5703 506.182 10.3836 506.545 10.0103C506.918 9.6263 507.105 9.1623 507.105 8.6183C507.105 8.08497 506.918 7.6263 506.545 7.2423C506.182 6.8583 505.74 6.6663 505.217 6.6663ZM505.585 15.7543C506.14 15.7543 506.609 15.557 506.993 15.1623C507.388 14.757 507.585 14.2663 507.585 13.6903C507.585 13.125 507.388 12.6396 506.993 12.2343C506.609 11.829 506.14 11.6263 505.585 11.6263L501.825 11.6263L501.825 15.7543L505.585 15.7543ZM523.091 15.3223C521.971 16.4423 520.6 17.0023 518.979 17.0023C517.357 17.0023 515.987 16.4423 514.867 15.3223C513.747 14.1916 513.187 12.821 513.187 11.2103C513.187 9.59964 513.747 8.2343 514.867 7.1143C515.987 5.98364 517.357 5.4183 518.979 5.4183C520.6 5.4183 521.971 5.98364 523.091 7.1143C524.211 8.2343 524.771 9.59964 524.771 11.2103C524.771 12.821 524.211 14.1916 523.091 15.3223ZM515.651 14.5543C516.547 15.461 517.656 15.9143 518.979 15.9143C520.301 15.9143 521.411 15.461 522.307 14.5543C523.203 13.637 523.651 12.5223 523.651 11.2103C523.651 9.8983 523.203 8.78897 522.307 7.8823C521.411 6.96497 520.301 6.5063 518.979 6.5063C517.656 6.5063 516.547 6.96497 515.651 7.8823C514.755 8.78897 514.307 9.8983 514.307 11.2103C514.307 12.5223 514.755 13.637 515.651 14.5543ZM535.118 17.0023C533.422 17.0023 532.02 16.4423 530.91 15.3223C529.801 14.2023 529.246 12.8316 529.246 11.2103C529.246 9.58897 529.801 8.2183 530.91 7.0983C532.02 5.9783 533.422 5.4183 535.118 5.4183C536.153 5.4183 537.102 5.66897 537.966 6.1703C538.83 6.66097 539.497 7.32764 539.966 8.1703L538.974 8.7463C538.622 8.06364 538.1 7.51964 537.406 7.1143C536.713 6.70897 535.95 6.5063 535.118 6.5063C533.721 6.5063 532.58 6.95964 531.694 7.8663C530.809 8.77297 530.366 9.88764 530.366 11.2103C530.366 12.533 530.809 13.6476 531.694 14.5543C532.58 15.461 533.721 15.9143 535.118 15.9143C535.95 15.9143 536.713 15.7116 537.406 15.3063C538.1 14.901 538.622 14.357 538.974 13.6743L539.966 14.2343C539.508 15.077 538.841 15.749 537.966 16.2503C537.102 16.7516 536.153 17.0023 535.118 17.0023ZM551.892 5.6103L551.892 6.6663L548.452 6.6663L548.452 16.8103L547.332 16.8103L547.332 6.6663L543.892 6.6663L543.892 5.6103L551.892 5.6103ZM565.316 15.3223C564.196 16.4423 562.825 17.0023 561.204 17.0023C559.582 17.0023 558.212 16.4423 557.092 15.3223C555.972 14.1916 555.412 12.821 555.412 11.2103C555.412 9.59964 555.972 8.2343 557.092 7.1143C558.212 5.98364 559.582 5.4183 561.204 5.4183C562.825 5.4183 564.196 5.98364 565.316 7.1143C566.436 8.2343 566.996 9.59964 566.996 11.2103C566.996 12.821 566.436 14.1916 565.316 15.3223ZM557.876 14.5543C558.772 15.461 559.881 15.9143 561.204 15.9143C562.526 15.9143 563.636 15.461 564.532 14.5543C565.428 13.637 565.876 12.5223 565.876 11.2103C565.876 9.8983 565.428 8.78897 564.532 7.8823C563.636 6.96497 562.526 6.5063 561.204 6.5063C559.881 6.5063 558.772 6.96497 557.876 7.8823C556.98 8.78897 556.532 9.8983 556.532 11.2103C556.532 12.5223 556.98 13.637 557.876 14.5543ZM579.951 16.8103L578.479 16.8103L573.231 11.3863L573.231 16.8103L572.111 16.8103L572.111 5.6103L573.231 5.6103L573.231 10.7303L578.319 5.6103L579.791 5.6103L574.415 11.0503L579.951 16.8103Z" fill="#2C2F49"/>
<path d="M26.6742 396.737L26.6742 407.937L25.5542 407.937L25.5542 398.433L21.6342 404.993L21.4742 404.993L17.5542 398.433L17.5542 407.937L16.4342 407.937L16.4342 396.737L17.8262 396.737L21.5542 402.977L25.2822 396.737L26.6742 396.737ZM41.6951 406.449C40.5751 407.569 39.2044 408.129 37.5831 408.129C35.9617 408.129 34.5911 407.569 33.4711 406.449C32.3511 405.319 31.7911 403.948 31.7911 402.337C31.7911 400.727 32.3511 399.361 33.4711 398.241C34.5911 397.111 35.9617 396.545 37.5831 396.545C39.2044 396.545 40.5751 397.111 41.6951 398.241C42.8151 399.361 43.3751 400.727 43.3751 402.337C43.3751 403.948 42.8151 405.319 41.6951 406.449ZM34.2551 405.681C35.1511 406.588 36.2604 407.041 37.5831 407.041C38.9057 407.041 40.0151 406.588 40.9111 405.681C41.8071 404.764 42.2551 403.649 42.2551 402.337C42.2551 401.025 41.8071 399.916 40.9111 399.009C40.0151 398.092 38.9057 397.633 37.5831 397.633C36.2604 397.633 35.1511 398.092 34.2551 399.009C33.3591 399.916 32.9111 401.025 32.9111 402.337C32.9111 403.649 33.3591 404.764 34.2551 405.681ZM53.7224 408.129C52.0264 408.129 50.6238 407.569 49.5144 406.449C48.4051 405.329 47.8504 403.959 47.8504 402.337C47.8504 400.716 48.4051 399.345 49.5144 398.225C50.6238 397.105 52.0264 396.545 53.7224 396.545C54.7571 396.545 55.7064 396.796 56.5704 397.297C57.4344 397.788 58.1011 398.455 58.5704 399.297L57.5784 399.873C57.2264 399.191 56.7038 398.647 56.0104 398.241C55.3171 397.836 54.5544 397.633 53.7224 397.633C52.3251 397.633 51.1838 398.087 50.2984 398.993C49.4131 399.9 48.9704 401.015 48.9704 402.337C48.9704 403.66 49.4131 404.775 50.2984 405.681C51.1838 406.588 52.3251 407.041 53.7224 407.041C54.5544 407.041 55.3171 406.839 56.0104 406.433C56.7038 406.028 57.2264 405.484 57.5784 404.801L58.5704 405.361C58.1118 406.204 57.4451 406.876 56.5704 407.377C55.7064 407.879 54.7571 408.129 53.7224 408.129ZM71.4523 407.937L69.9803 407.937L64.7323 402.513L64.7323 407.937L63.6123 407.937L63.6123 396.737L64.7323 396.737L64.7323 401.857L69.8203 396.737L71.2923 396.737L65.9163 402.177L71.4523 407.937ZM82.3016 402.129C82.8456 402.364 83.2776 402.721 83.5976 403.201C83.9282 403.671 84.0936 404.209 84.0936 404.817C84.0936 405.681 83.7896 406.417 83.1816 407.025C82.5736 407.633 81.8376 407.937 80.9736 407.937L76.0936 407.937L76.0936 396.737L80.6056 396.737C81.4376 396.737 82.1469 397.036 82.7336 397.633C83.3202 398.22 83.6136 398.924 83.6136 399.745C83.6136 400.791 83.1762 401.585 82.3016 402.129ZM80.6056 397.793L77.2136 397.793L77.2136 401.697L80.6056 401.697C81.1282 401.697 81.5709 401.511 81.9336 401.137C82.3069 400.753 82.4936 400.289 82.4936 399.745C82.4936 399.212 82.3069 398.753 81.9336 398.369C81.5709 397.985 81.1282 397.793 80.6056 397.793ZM80.9736 406.881C81.5282 406.881 81.9976 406.684 82.3816 406.289C82.7762 405.884 82.9736 405.393 82.9736 404.817C82.9736 404.252 82.7762 403.767 82.3816 403.361C81.9976 402.956 81.5282 402.753 80.9736 402.753L77.2136 402.753L77.2136 406.881L80.9736 406.881ZM96.6714 407.937L95.6314 405.185L90.3194 405.185L89.2794 407.937L88.0954 407.937L92.3994 396.737L93.5514 396.737L97.8554 407.937L96.6714 407.937ZM90.7194 404.129L95.2314 404.129L92.9754 398.129L90.7194 404.129Z" fill="#2C2F49"/>
<path d="M506.799 237.2L507.919 237.2L507.919 248.4L495.279 248.4L495.279 237.2L496.399 237.2L496.399 247.344L501.039 247.344L501.039 237.2L502.159 237.2L502.159 247.344L506.799 247.344L506.799 237.2ZM521.138 248.4L520.098 245.648L514.786 245.648L513.746 248.4L512.562 248.4L516.866 237.2L518.018 237.2L522.322 248.4L521.138 248.4ZM515.186 244.592L519.698 244.592L517.442 238.592L515.186 244.592ZM534.16 237.2L535.28 237.2L535.28 248.4L534.16 248.4L534.16 243.168L528.08 243.168L528.08 248.4L526.96 248.4L526.96 237.2L528.08 237.2L528.08 242.112L534.16 242.112L534.16 237.2ZM548.715 248.4L547.435 248.4L544.395 243.616L541.355 248.4L540.075 248.4L543.755 242.624L540.315 237.2L541.579 237.2L544.395 241.616L547.211 237.2L548.475 237.2L545.035 242.624L548.715 248.4ZM560.972 248.4L559.932 245.648L554.62 245.648L553.58 248.4L552.396 248.4L556.7 237.2L557.852 237.2L562.156 248.4L560.972 248.4ZM555.02 244.592L559.532 244.592L557.276 238.592L555.02 244.592ZM568.875 235.92L568.875 234.992L573.035 234.992L573.035 235.92L568.875 235.92ZM573.995 248.4L573.995 239.28L567.755 248.4L566.795 248.4L566.795 237.2L567.915 237.2L567.915 246.32L574.155 237.2L575.115 237.2L575.115 248.4L573.995 248.4Z" fill="#2C2F49"/>
<path d="M195.27 82.1015C196.272 82.1015 197.11 82.4375 197.782 83.1095C198.454 83.7815 198.79 84.6188 198.79 85.6215C198.79 86.6242 198.454 87.4615 197.782 88.1335C197.11 88.8055 196.272 89.1415 195.27 89.1415H192.39V93.3015H191.27V82.1015H195.27ZM195.27 88.0855C195.963 88.0855 196.534 87.8562 196.982 87.3975C197.44 86.9282 197.67 86.3362 197.67 85.6215C197.67 84.9068 197.44 84.3202 196.982 83.8615C196.534 83.3922 195.963 83.1575 195.27 83.1575H192.39V88.0855H195.27ZM213.093 91.8135C211.973 92.9335 210.602 93.4935 208.981 93.4935C207.36 93.4935 205.989 92.9335 204.869 91.8135C203.749 90.6828 203.189 89.3122 203.189 87.7015C203.189 86.0908 203.749 84.7255 204.869 83.6055C205.989 82.4748 207.36 81.9095 208.981 81.9095C210.602 81.9095 211.973 82.4748 213.093 83.6055C214.213 84.7255 214.773 86.0908 214.773 87.7015C214.773 89.3122 214.213 90.6828 213.093 91.8135ZM205.653 91.0455C206.549 91.9522 207.658 92.4055 208.981 92.4055C210.304 92.4055 211.413 91.9522 212.309 91.0455C213.205 90.1282 213.653 89.0135 213.653 87.7015C213.653 86.3895 213.205 85.2802 212.309 84.3735C211.413 83.4562 210.304 82.9975 208.981 82.9975C207.658 82.9975 206.549 83.4562 205.653 84.3735C204.757 85.2802 204.309 86.3895 204.309 87.7015C204.309 89.0135 204.757 90.1282 205.653 91.0455ZM225.12 93.4935C223.424 93.4935 222.022 92.9335 220.912 91.8135C219.803 90.6935 219.248 89.3228 219.248 87.7015C219.248 86.0802 219.803 84.7095 220.912 83.5895C222.022 82.4695 223.424 81.9095 225.12 81.9095C226.155 81.9095 227.104 82.1602 227.968 82.6615C228.832 83.1522 229.499 83.8188 229.968 84.6615L228.976 85.2375C228.624 84.5548 228.102 84.0108 227.408 83.6055C226.715 83.2002 225.952 82.9975 225.12 82.9975C223.723 82.9975 222.582 83.4508 221.696 84.3575C220.811 85.2642 220.368 86.3788 220.368 87.7015C220.368 89.0242 220.811 90.1388 221.696 91.0455C222.582 91.9522 223.723 92.4055 225.12 92.4055C225.952 92.4055 226.715 92.2028 227.408 91.7975C228.102 91.3922 228.624 90.8482 228.976 90.1655L229.968 90.7255C229.51 91.5682 228.843 92.2402 227.968 92.7415C227.104 93.2428 226.155 93.4935 225.12 93.4935ZM240.242 93.4935C238.546 93.4935 237.144 92.9335 236.034 91.8135C234.925 90.6935 234.37 89.3228 234.37 87.7015C234.37 86.0802 234.925 84.7095 236.034 83.5895C237.144 82.4695 238.546 81.9095 240.242 81.9095C241.277 81.9095 242.226 82.1602 243.09 82.6615C243.954 83.1522 244.621 83.8188 245.09 84.6615L244.098 85.2375C243.746 84.5548 243.224 84.0108 242.53 83.6055C241.837 83.2002 241.074 82.9975 240.242 82.9975C238.845 82.9975 237.704 83.4508 236.818 84.3575C235.933 85.2642 235.49 86.3788 235.49 87.7015C235.49 89.0242 235.933 90.1388 236.818 91.0455C237.704 91.9522 238.845 92.4055 240.242 92.4055C241.074 92.4055 241.837 92.2028 242.53 91.7975C243.224 91.3922 243.746 90.8482 244.098 90.1655L245.09 90.7255C244.632 91.5682 243.965 92.2402 243.09 92.7415C242.226 93.2428 241.277 93.4935 240.242 93.4935ZM257.332 93.3015V84.1815L251.092 93.3015H250.132V82.1015H251.252V91.2215L257.492 82.1015H258.452V93.3015H257.332ZM271.567 82.1015V93.3015H270.447V88.8215H267.759L264.687 93.3015H263.407L266.527 88.7735C265.727 88.6348 265.061 88.2562 264.527 87.6375C263.994 87.0082 263.727 86.2828 263.727 85.4615C263.727 84.5335 264.053 83.7442 264.703 83.0935C265.365 82.4322 266.159 82.1015 267.087 82.1015H271.567ZM267.087 87.7655H270.447V83.1575H267.087C266.469 83.1575 265.941 83.3815 265.503 83.8295C265.066 84.2775 264.847 84.8215 264.847 85.4615C264.847 86.0908 265.066 86.6348 265.503 87.0935C265.941 87.5415 266.469 87.7655 267.087 87.7655Z" fill="#C3C4D4"/>
<path d="M393.367 283.405H391.895L386.647 277.981V283.405H385.527V272.205H386.647V277.325L391.735 272.205H393.207L387.831 277.645L393.367 283.405ZM405.208 283.405V274.285L398.968 283.405H398.008V272.205H399.128V281.325L405.368 272.205H406.328V283.405H405.208ZM419.123 272.205V273.261H415.683V283.405H414.563V273.261H411.123V272.205H419.123ZM430.583 283.405L429.543 280.653H424.231L423.191 283.405H422.007L426.311 272.205H427.463L431.767 283.405H430.583ZM424.631 279.597H429.143L426.887 273.597L424.631 279.597ZM438.485 270.925V269.997H442.645V270.925H438.485ZM443.605 283.405V274.285L437.365 283.405H436.405V272.205H437.525V281.325L443.765 272.205H444.725V283.405H443.605Z" fill="#F39323"/>
<circle cx="268.94" cy="184.648" r="41" fill="white" stroke="#EC663B" stroke-width="2"/>
<path d="M292.898 191.014H291.856V170.855C291.856 170.268 291.39 169.794 290.815 169.794H247.065C246.489 169.794 246.023 170.268 246.023 170.855V191.014H244.981C244.405 191.014 243.94 191.489 243.94 192.075C243.94 192.662 244.405 193.136 244.981 193.136H246.602C246.244 193.763 246.023 194.482 246.023 195.258C246.023 197.599 247.892 199.502 250.19 199.502C252.488 199.502 254.356 197.599 254.356 195.258C254.356 194.482 254.136 193.763 253.777 193.136H254.936C254.577 193.763 254.356 194.482 254.356 195.258C254.356 197.599 256.225 199.502 258.523 199.502C260.821 199.502 262.69 197.599 262.69 195.258C262.69 194.482 262.469 193.763 262.11 193.136H262.258L264.036 194.947C264.232 195.146 264.496 195.258 264.773 195.258H273.106C273.383 195.258 273.647 195.146 273.843 194.947L275.621 193.136H275.769C275.41 193.763 275.19 194.482 275.19 195.258C275.19 197.599 277.058 199.502 279.356 199.502C281.654 199.502 283.523 197.599 283.523 195.258C283.523 194.482 283.302 193.763 282.943 193.136H284.102C283.744 193.763 283.523 194.482 283.523 195.258C283.523 197.599 285.392 199.502 287.69 199.502C289.988 199.502 291.856 197.599 291.856 195.258C291.856 194.482 291.636 193.763 291.277 193.136H292.898C293.474 193.136 293.94 192.662 293.94 192.075C293.94 191.489 293.474 191.014 292.898 191.014ZM250.19 197.38C249.041 197.38 248.106 196.428 248.106 195.258C248.106 194.088 249.041 193.136 250.19 193.136C251.338 193.136 252.273 194.088 252.273 195.258C252.273 196.428 251.338 197.38 250.19 197.38ZM258.523 197.38C257.374 197.38 256.44 196.428 256.44 195.258C256.44 194.088 257.374 193.136 258.523 193.136C259.671 193.136 260.606 194.088 260.606 195.258C260.606 196.428 259.671 197.38 258.523 197.38ZM260.606 191.014H248.106V171.916H260.606V191.014ZM275.19 191.014H262.69V171.916H275.19V191.014ZM279.356 197.38C278.208 197.38 277.273 196.428 277.273 195.258C277.273 194.088 278.208 193.136 279.356 193.136C280.505 193.136 281.44 194.088 281.44 195.258C281.44 196.428 280.505 197.38 279.356 197.38ZM287.69 197.38C286.541 197.38 285.606 196.428 285.606 195.258C285.606 194.088 286.541 193.136 287.69 193.136C288.838 193.136 289.773 194.088 289.773 195.258C289.773 196.428 288.838 197.38 287.69 197.38ZM289.773 191.014H277.273V171.916H289.773V191.014Z" fill="#EC663B"/>
<path d="M251.231 176.159H257.481C258.057 176.159 258.523 175.685 258.523 175.098C258.523 174.512 258.057 174.037 257.481 174.037H251.231C250.655 174.037 250.19 174.512 250.19 175.098C250.19 175.685 250.655 176.159 251.231 176.159Z" fill="#EC663B"/>
<path d="M251.231 180.403H257.481C258.057 180.403 258.523 179.928 258.523 179.342C258.523 178.755 258.057 178.281 257.481 178.281H251.231C250.655 178.281 250.19 178.755 250.19 179.342C250.19 179.928 250.655 180.403 251.231 180.403Z" fill="#EC663B"/>
<path d="M251.231 184.648H257.481C258.057 184.648 258.523 184.173 258.523 183.587C258.523 183 258.057 182.526 257.481 182.526H251.231C250.655 182.526 250.19 183 250.19 183.587C250.19 184.173 250.655 184.648 251.231 184.648Z" fill="#EC663B"/>
<path d="M251.231 188.891H257.481C258.057 188.891 258.523 188.417 258.523 187.83C258.523 187.244 258.057 186.769 257.481 186.769H251.231C250.655 186.769 250.19 187.244 250.19 187.83C250.19 188.417 250.655 188.891 251.231 188.891Z" fill="#EC663B"/>
<path d="M265.815 176.159H272.065C272.641 176.159 273.107 175.685 273.107 175.098C273.107 174.512 272.641 174.037 272.065 174.037H265.815C265.239 174.037 264.773 174.512 264.773 175.098C264.773 175.685 265.239 176.159 265.815 176.159Z" fill="#EC663B"/>
<path d="M265.815 180.403H272.065C272.641 180.403 273.107 179.928 273.107 179.342C273.107 178.755 272.641 178.281 272.065 178.281H265.815C265.239 178.281 264.773 178.755 264.773 179.342C264.773 179.928 265.239 180.403 265.815 180.403Z" fill="#EC663B"/>
<path d="M265.815 184.648H272.065C272.641 184.648 273.107 184.173 273.107 183.587C273.107 183 272.641 182.526 272.065 182.526H265.815C265.239 182.526 264.773 183 264.773 183.587C264.773 184.173 265.239 184.648 265.815 184.648Z" fill="#EC663B"/>
<path d="M265.815 188.891H272.065C272.641 188.891 273.107 188.417 273.107 187.83C273.107 187.244 272.641 186.769 272.065 186.769H265.815C265.239 186.769 264.773 187.244 264.773 187.83C264.773 188.417 265.239 188.891 265.815 188.891Z" fill="#EC663B"/>
<path d="M280.398 176.159H286.648C287.223 176.159 287.689 175.685 287.689 175.098C287.689 174.512 287.223 174.037 286.648 174.037H280.398C279.822 174.037 279.356 174.512 279.356 175.098C279.356 175.685 279.822 176.159 280.398 176.159Z" fill="#EC663B"/>
<path d="M280.398 180.403H286.648C287.223 180.403 287.689 179.928 287.689 179.342C287.689 178.755 287.223 178.281 286.648 178.281H280.398C279.822 178.281 279.356 178.755 279.356 179.342C279.356 179.928 279.822 180.403 280.398 180.403Z" fill="#EC663B"/>
<path d="M280.398 184.648H286.648C287.223 184.648 287.689 184.173 287.689 183.587C287.689 183 287.223 182.526 286.648 182.526H280.398C279.822 182.526 279.356 183 279.356 183.587C279.356 184.173 279.822 184.648 280.398 184.648Z" fill="#EC663B"/>
<path d="M280.398 188.891H286.648C287.223 188.891 287.689 188.417 287.689 187.83C287.689 187.244 287.223 186.769 286.648 186.769H280.398C279.822 186.769 279.356 187.244 279.356 187.83C279.356 188.417 279.822 188.891 280.398 188.891Z" fill="#EC663B"/>
<circle cx="515.676" cy="118.302" r="41" fill="white" stroke="#EC663B" stroke-width="2"/>
<mask id="path-31-outside-1" maskUnits="userSpaceOnUse" x="489.676" y="91.8374" width="52" height="53" fill="black">
<rect fill="white" x="489.676" y="91.8374" width="52" height="53"/>
<path d="M540.391 140.379C540.009 139.99 539.391 139.99 539.009 140.379C538.124 141.28 536.948 141.777 535.696 141.777C534.444 141.777 533.268 141.28 532.383 140.379C532.2 140.192 531.951 140.088 531.692 140.088C531.433 140.088 531.185 140.192 531.002 140.379C530.583 140.805 530.098 141.14 529.572 141.376L534.093 125.044C534.23 124.549 533.975 124.03 533.505 123.846L530.716 122.75V114.478C530.716 112.175 528.876 110.301 526.614 110.301H526.028V108.283C526.028 106.324 524.463 104.73 522.54 104.73H520.364V100.951C520.364 99.9633 519.575 99.16 518.606 99.16H516.555V97.2638C516.555 95.9201 517.629 94.8268 518.948 94.8268H528.327C528.11 95.959 527.129 96.8162 525.955 96.8162H522.805C522.266 96.8162 521.829 97.2615 521.829 97.8109C521.829 98.3603 522.266 98.8056 522.805 98.8056H525.955C528.364 98.8056 530.325 96.8089 530.325 94.3543V93.8321C530.325 93.2827 529.888 92.8374 529.348 92.8374H518.948C516.552 92.8374 514.602 94.8231 514.602 97.2638V99.16H512.747C511.778 99.16 510.989 99.9633 510.989 100.951V104.73H508.813C506.89 104.73 505.325 106.324 505.325 108.283V110.301H504.739C502.477 110.301 500.637 112.175 500.637 114.478V122.75L497.848 123.846C497.378 124.03 497.123 124.549 497.26 125.044L501.781 141.376C501.255 141.14 500.77 140.805 500.351 140.379C500.168 140.192 499.92 140.088 499.661 140.088C499.402 140.088 499.153 140.192 498.97 140.379C498.085 141.28 496.909 141.777 495.657 141.777C494.405 141.777 493.229 141.28 492.344 140.379C491.962 139.99 491.344 139.99 490.962 140.379C490.581 140.767 490.581 141.397 490.962 141.786C492.217 143.063 493.884 143.766 495.657 143.766C497.122 143.766 498.514 143.286 499.661 142.4C500.808 143.286 502.2 143.766 503.665 143.766C505.129 143.766 506.522 143.286 507.669 142.4C508.816 143.286 510.208 143.766 511.673 143.766C513.137 143.766 514.53 143.286 515.676 142.4C516.823 143.286 518.216 143.766 519.68 143.766C521.145 143.766 522.537 143.286 523.684 142.4C524.831 143.286 526.223 143.766 527.688 143.766C529.153 143.766 530.545 143.286 531.692 142.4C532.839 143.286 534.231 143.766 535.696 143.766C537.469 143.766 539.136 143.063 540.39 141.786C540.772 141.397 540.772 140.767 540.391 140.379ZM512.942 101.149H518.411V104.73H512.942V101.149ZM507.278 108.283C507.278 107.421 507.967 106.72 508.813 106.72H511.966H519.387H522.54C523.386 106.72 524.075 107.421 524.075 108.283V110.301H507.278V108.283ZM502.591 114.478C502.591 113.272 503.554 112.29 504.739 112.29H526.614C527.799 112.29 528.762 113.272 528.762 114.478V121.983L516.028 116.982C515.802 116.893 515.551 116.893 515.325 116.982L502.591 121.983V114.478ZM527.433 141.769C526.277 141.707 525.199 141.219 524.375 140.379C524.192 140.192 523.943 140.088 523.684 140.088C523.425 140.088 523.177 140.192 522.994 140.379C522.109 141.28 520.932 141.777 519.68 141.777C518.559 141.777 517.498 141.377 516.653 140.646V127.426C516.653 126.877 516.216 126.431 515.676 126.431C515.137 126.431 514.7 126.877 514.7 127.426V140.646C513.855 141.377 512.794 141.777 511.673 141.777C510.421 141.777 509.244 141.28 508.359 140.379C508.176 140.192 507.928 140.088 507.669 140.088C507.41 140.088 507.161 140.192 506.978 140.379C506.154 141.219 505.075 141.707 503.92 141.769L501.095 131.566L508.183 128.783C508.686 128.585 508.937 128.009 508.742 127.497C508.549 126.984 507.983 126.729 507.48 126.927L500.562 129.643L499.381 125.376L515.676 118.976L531.972 125.376L530.791 129.643L523.745 126.876C523.242 126.679 522.677 126.934 522.483 127.447C522.289 127.959 522.539 128.535 523.042 128.732L530.258 131.566L527.433 141.769Z"/>
</mask>
<path d="M540.391 140.379C540.009 139.99 539.391 139.99 539.009 140.379C538.124 141.28 536.948 141.777 535.696 141.777C534.444 141.777 533.268 141.28 532.383 140.379C532.2 140.192 531.951 140.088 531.692 140.088C531.433 140.088 531.185 140.192 531.002 140.379C530.583 140.805 530.098 141.14 529.572 141.376L534.093 125.044C534.23 124.549 533.975 124.03 533.505 123.846L530.716 122.75V114.478C530.716 112.175 528.876 110.301 526.614 110.301H526.028V108.283C526.028 106.324 524.463 104.73 522.54 104.73H520.364V100.951C520.364 99.9633 519.575 99.16 518.606 99.16H516.555V97.2638C516.555 95.9201 517.629 94.8268 518.948 94.8268H528.327C528.11 95.959 527.129 96.8162 525.955 96.8162H522.805C522.266 96.8162 521.829 97.2615 521.829 97.8109C521.829 98.3603 522.266 98.8056 522.805 98.8056H525.955C528.364 98.8056 530.325 96.8089 530.325 94.3543V93.8321C530.325 93.2827 529.888 92.8374 529.348 92.8374H518.948C516.552 92.8374 514.602 94.8231 514.602 97.2638V99.16H512.747C511.778 99.16 510.989 99.9633 510.989 100.951V104.73H508.813C506.89 104.73 505.325 106.324 505.325 108.283V110.301H504.739C502.477 110.301 500.637 112.175 500.637 114.478V122.75L497.848 123.846C497.378 124.03 497.123 124.549 497.26 125.044L501.781 141.376C501.255 141.14 500.77 140.805 500.351 140.379C500.168 140.192 499.92 140.088 499.661 140.088C499.402 140.088 499.153 140.192 498.97 140.379C498.085 141.28 496.909 141.777 495.657 141.777C494.405 141.777 493.229 141.28 492.344 140.379C491.962 139.99 491.344 139.99 490.962 140.379C490.581 140.767 490.581 141.397 490.962 141.786C492.217 143.063 493.884 143.766 495.657 143.766C497.122 143.766 498.514 143.286 499.661 142.4C500.808 143.286 502.2 143.766 503.665 143.766C505.129 143.766 506.522 143.286 507.669 142.4C508.816 143.286 510.208 143.766 511.673 143.766C513.137 143.766 514.53 143.286 515.676 142.4C516.823 143.286 518.216 143.766 519.68 143.766C521.145 143.766 522.537 143.286 523.684 142.4C524.831 143.286 526.223 143.766 527.688 143.766C529.153 143.766 530.545 143.286 531.692 142.4C532.839 143.286 534.231 143.766 535.696 143.766C537.469 143.766 539.136 143.063 540.39 141.786C540.772 141.397 540.772 140.767 540.391 140.379ZM512.942 101.149H518.411V104.73H512.942V101.149ZM507.278 108.283C507.278 107.421 507.967 106.72 508.813 106.72H511.966H519.387H522.54C523.386 106.72 524.075 107.421 524.075 108.283V110.301H507.278V108.283ZM502.591 114.478C502.591 113.272 503.554 112.29 504.739 112.29H526.614C527.799 112.29 528.762 113.272 528.762 114.478V121.983L516.028 116.982C515.802 116.893 515.551 116.893 515.325 116.982L502.591 121.983V114.478ZM527.433 141.769C526.277 141.707 525.199 141.219 524.375 140.379C524.192 140.192 523.943 140.088 523.684 140.088C523.425 140.088 523.177 140.192 522.994 140.379C522.109 141.28 520.932 141.777 519.68 141.777C518.559 141.777 517.498 141.377 516.653 140.646V127.426C516.653 126.877 516.216 126.431 515.676 126.431C515.137 126.431 514.7 126.877 514.7 127.426V140.646C513.855 141.377 512.794 141.777 511.673 141.777C510.421 141.777 509.244 141.28 508.359 140.379C508.176 140.192 507.928 140.088 507.669 140.088C507.41 140.088 507.161 140.192 506.978 140.379C506.154 141.219 505.075 141.707 503.92 141.769L501.095 131.566L508.183 128.783C508.686 128.585 508.937 128.009 508.742 127.497C508.549 126.984 507.983 126.729 507.48 126.927L500.562 129.643L499.381 125.376L515.676 118.976L531.972 125.376L530.791 129.643L523.745 126.876C523.242 126.679 522.677 126.934 522.483 127.447C522.289 127.959 522.539 128.535 523.042 128.732L530.258 131.566L527.433 141.769Z" fill="#EC663B"/>
<path d="M540.391 140.379C540.009 139.99 539.391 139.99 539.009 140.379C538.124 141.28 536.948 141.777 535.696 141.777C534.444 141.777 533.268 141.28 532.383 140.379C532.2 140.192 531.951 140.088 531.692 140.088C531.433 140.088 531.185 140.192 531.002 140.379C530.583 140.805 530.098 141.14 529.572 141.376L534.093 125.044C534.23 124.549 533.975 124.03 533.505 123.846L530.716 122.75V114.478C530.716 112.175 528.876 110.301 526.614 110.301H526.028V108.283C526.028 106.324 524.463 104.73 522.54 104.73H520.364V100.951C520.364 99.9633 519.575 99.16 518.606 99.16H516.555V97.2638C516.555 95.9201 517.629 94.8268 518.948 94.8268H528.327C528.11 95.959 527.129 96.8162 525.955 96.8162H522.805C522.266 96.8162 521.829 97.2615 521.829 97.8109C521.829 98.3603 522.266 98.8056 522.805 98.8056H525.955C528.364 98.8056 530.325 96.8089 530.325 94.3543V93.8321C530.325 93.2827 529.888 92.8374 529.348 92.8374H518.948C516.552 92.8374 514.602 94.8231 514.602 97.2638V99.16H512.747C511.778 99.16 510.989 99.9633 510.989 100.951V104.73H508.813C506.89 104.73 505.325 106.324 505.325 108.283V110.301H504.739C502.477 110.301 500.637 112.175 500.637 114.478V122.75L497.848 123.846C497.378 124.03 497.123 124.549 497.26 125.044L501.781 141.376C501.255 141.14 500.77 140.805 500.351 140.379C500.168 140.192 499.92 140.088 499.661 140.088C499.402 140.088 499.153 140.192 498.97 140.379C498.085 141.28 496.909 141.777 495.657 141.777C494.405 141.777 493.229 141.28 492.344 140.379C491.962 139.99 491.344 139.99 490.962 140.379C490.581 140.767 490.581 141.397 490.962 141.786C492.217 143.063 493.884 143.766 495.657 143.766C497.122 143.766 498.514 143.286 499.661 142.4C500.808 143.286 502.2 143.766 503.665 143.766C505.129 143.766 506.522 143.286 507.669 142.4C508.816 143.286 510.208 143.766 511.673 143.766C513.137 143.766 514.53 143.286 515.676 142.4C516.823 143.286 518.216 143.766 519.68 143.766C521.145 143.766 522.537 143.286 523.684 142.4C524.831 143.286 526.223 143.766 527.688 143.766C529.153 143.766 530.545 143.286 531.692 142.4C532.839 143.286 534.231 143.766 535.696 143.766C537.469 143.766 539.136 143.063 540.39 141.786C540.772 141.397 540.772 140.767 540.391 140.379ZM512.942 101.149H518.411V104.73H512.942V101.149ZM507.278 108.283C507.278 107.421 507.967 106.72 508.813 106.72H511.966H519.387H522.54C523.386 106.72 524.075 107.421 524.075 108.283V110.301H507.278V108.283ZM502.591 114.478C502.591 113.272 503.554 112.29 504.739 112.29H526.614C527.799 112.29 528.762 113.272 528.762 114.478V121.983L516.028 116.982C515.802 116.893 515.551 116.893 515.325 116.982L502.591 121.983V114.478ZM527.433 141.769C526.277 141.707 525.199 141.219 524.375 140.379C524.192 140.192 523.943 140.088 523.684 140.088C523.425 140.088 523.177 140.192 522.994 140.379C522.109 141.28 520.932 141.777 519.68 141.777C518.559 141.777 517.498 141.377 516.653 140.646V127.426C516.653 126.877 516.216 126.431 515.676 126.431C515.137 126.431 514.7 126.877 514.7 127.426V140.646C513.855 141.377 512.794 141.777 511.673 141.777C510.421 141.777 509.244 141.28 508.359 140.379C508.176 140.192 507.928 140.088 507.669 140.088C507.41 140.088 507.161 140.192 506.978 140.379C506.154 141.219 505.075 141.707 503.92 141.769L501.095 131.566L508.183 128.783C508.686 128.585 508.937 128.009 508.742 127.497C508.549 126.984 507.983 126.729 507.48 126.927L500.562 129.643L499.381 125.376L515.676 118.976L531.972 125.376L530.791 129.643L523.745 126.876C523.242 126.679 522.677 126.934 522.483 127.447C522.289 127.959 522.539 128.535 523.042 128.732L530.258 131.566L527.433 141.769Z" stroke="#EC663B" stroke-width="0.2" mask="url(#path-31-outside-1)"/>
<path d="M515.676 122.385C515.947 122.385 516.212 122.497 516.402 122.691C516.402 122.691 516.402 122.691 516.402 122.691L516.367 122.727C516.548 122.912 516.653 123.168 516.653 123.43C516.653 123.692 516.548 123.948 516.367 124.133L515.676 122.385ZM515.676 122.385C515.406 122.385 515.141 122.497 514.95 122.691C514.759 122.886 514.65 123.155 514.65 123.43C514.65 123.704 514.759 123.974 514.95 124.168C515.141 124.362 515.406 124.474 515.676 124.474C515.947 124.474 516.212 124.363 516.402 124.168L515.676 122.385Z" fill="#EC663B" stroke="#EC663B" stroke-width="0.1"/>
<path d="M509.198 115.002H506.464C505.896 115.002 505.437 115.471 505.437 116.047C505.437 116.623 505.896 117.091 506.464 117.091H509.198C509.766 117.091 510.225 116.623 510.225 116.047C510.225 115.471 509.766 115.002 509.198 115.002Z" fill="#EC663B" stroke="#EC663B" stroke-width="0.1"/>
<path d="M525.051 115.002H522.317C521.749 115.002 521.29 115.471 521.29 116.047C521.29 116.623 521.749 117.091 522.317 117.091H525.051C525.619 117.091 526.078 116.623 526.078 116.047C526.078 115.471 525.619 115.002 525.051 115.002Z" fill="#EC663B" stroke="#EC663B" stroke-width="0.1"/>
<path opacity="0.4" d="M585.668 185.016C585.668 206.911 536.603 215.105 536.603 215.105C536.603 215.105 525.685 206.911 525.685 185.016C525.685 177.184 539.113 170.105 555.676 170.105C572.24 170.105 585.668 176.023 585.668 185.016Z" fill="#878894"/>
<path d="M565.65 165.105C565.65 187.605 535.659 215.105 535.659 215.105C535.659 215.105 505.668 187.605 505.668 165.105C505.668 148.537 519.095 135.105 535.659 135.105C552.222 135.105 565.65 148.537 565.65 165.105Z" fill="#2C2F49"/>
<ellipse cx="535.659" cy="165.105" rx="24.9925" ry="25" fill="#EC663B"/>
<path d="M542.545 175.105L540.596 169.945L530.638 169.945L528.689 175.105L526.47 175.105L534.537 154.105L536.697 154.105L544.764 175.105L542.545 175.105ZM531.388 167.965L539.846 167.965L535.617 156.715L531.388 167.965Z" fill="white"/>
</svg>
