<svg width="48" height="28" viewBox="0 0 48 28" fill="none" xmlns="http://www.w3.org/2000/svg">
<path d="M46.9998 19.9991H45.9998V0.999057C45.9998 0.446306 45.5525 -0.000976562 44.9998 -0.000976562H2.99976C2.44701 -0.000976562 1.99973 0.446306 1.99973 0.999057V19.9991H0.999789C0.447038 19.9991 -0.000244141 20.4464 -0.000244141 20.9992C-0.000244141 21.5519 0.447038 21.9992 0.999789 21.9992H2.55604C2.2116 22.5899 1.99973 23.2673 1.99973 23.9992C1.99973 26.2052 3.79364 27.9992 5.99977 27.9992C8.2059 27.9992 9.99981 26.2053 9.99981 23.9992C9.99981 23.2673 9.78803 22.5898 9.44349 21.9992H10.556C10.2116 22.5899 9.99971 23.2673 9.99971 23.9992C9.99971 26.2052 11.7936 27.9992 13.9998 27.9992C16.2059 27.9992 17.9998 26.2052 17.9998 23.9992C17.9998 23.2673 17.788 22.5898 17.4435 21.9992H17.5857L19.2927 23.7062C19.4802 23.8937 19.7341 23.9992 19.9998 23.9992H27.9997C28.2653 23.9992 28.5193 23.8937 28.7068 23.7062L30.4138 21.9992H30.556C30.2116 22.5899 29.9997 23.2673 29.9997 23.9992C29.9997 26.2052 31.7936 27.9992 33.9998 27.9992C36.2059 27.9992 37.9998 26.2053 37.9998 23.9992C37.9998 23.2673 37.788 22.5898 37.4435 21.9992H38.556C38.2116 22.5899 37.9997 23.2673 37.9997 23.9992C37.9997 26.2052 39.7936 27.9992 41.9997 27.9992C44.2059 27.9992 45.9998 26.2053 45.9998 23.9992C45.9998 23.2673 45.788 22.5898 45.4435 21.9992H46.9997C47.5525 21.9992 47.9998 21.5519 47.9998 20.9992C47.9999 20.4464 47.5526 19.9991 46.9998 19.9991ZM5.99977 25.9991C4.89727 25.9991 3.99979 25.1017 3.99979 23.9992C3.99979 22.8967 4.89727 21.9991 5.99977 21.9991C7.10227 21.9991 7.99974 22.8966 7.99974 23.9991C7.99974 25.1016 7.10227 25.9991 5.99977 25.9991ZM13.9998 25.9991C12.8972 25.9991 11.9998 25.1017 11.9998 23.9992C11.9998 22.8967 12.8972 21.9992 13.9998 21.9992C15.1023 21.9992 15.9997 22.8967 15.9997 23.9992C15.9997 25.1017 15.1023 25.9991 13.9998 25.9991ZM15.9998 19.9991H3.99979V1.99909H15.9998V19.9991ZM29.9998 19.9991H17.9998V1.99909H29.9998V19.9991ZM33.9999 25.9991C32.8974 25.9991 31.9999 25.1017 31.9999 23.9992C31.9999 22.8967 32.8974 21.9992 33.9999 21.9992C35.1024 21.9992 35.9998 22.8966 35.9998 23.9992C35.9998 25.1018 35.1024 25.9991 33.9999 25.9991ZM41.9998 25.9991C40.8973 25.9991 39.9999 25.1017 39.9999 23.9992C39.9999 22.8967 40.8973 21.9992 41.9998 21.9992C43.1023 21.9992 43.9998 22.8967 43.9998 23.9992C43.9998 25.1017 43.1023 25.9991 41.9998 25.9991ZM43.9998 19.9991H31.9998V1.99909H43.9998V19.9991Z" fill="#EC663B"/>
<path d="M6.99979 5.99909H12.9998C13.5526 5.99909 13.9998 5.55181 13.9998 4.99906C13.9998 4.44631 13.5526 3.99902 12.9998 3.99902H6.99979C6.44704 3.99902 5.99976 4.44631 5.99976 4.99906C5.99976 5.55181 6.44704 5.99909 6.99979 5.99909Z" fill="#EC663B"/>
<path d="M6.99979 9.99909H12.9998C13.5526 9.99909 13.9998 9.55181 13.9998 8.99906C13.9998 8.44631 13.5526 7.99902 12.9998 7.99902H6.99979C6.44704 7.99912 5.99976 8.4464 5.99976 8.99915C5.99976 9.5519 6.44704 9.99909 6.99979 9.99909Z" fill="#EC663B"/>
<path d="M6.99979 13.9991H12.9998C13.5526 13.9991 13.9998 13.5518 13.9998 12.9991C13.9998 12.4463 13.5526 11.999 12.9998 11.999H6.99979C6.44704 11.999 5.99976 12.4463 5.99976 12.9991C5.99976 13.5518 6.44704 13.9991 6.99979 13.9991Z" fill="#EC663B"/>
<path d="M6.99979 17.9991H12.9998C13.5526 17.9991 13.9998 17.5518 13.9998 16.9991C13.9998 16.4463 13.5526 15.999 12.9998 15.999H6.99979C6.44704 15.999 5.99976 16.4463 5.99976 16.9991C5.99976 17.5518 6.44704 17.9991 6.99979 17.9991Z" fill="#EC663B"/>
<path d="M20.9998 5.99909H26.9998C27.5526 5.99909 27.9998 5.55181 27.9998 4.99906C27.9998 4.44631 27.5526 3.99902 26.9998 3.99902H20.9998C20.447 3.99902 19.9998 4.44631 19.9998 4.99906C19.9998 5.55181 20.447 5.99909 20.9998 5.99909Z" fill="#EC663B"/>
<path d="M20.9998 9.99909H26.9998C27.5526 9.99909 27.9998 9.55181 27.9998 8.99906C27.9998 8.44631 27.5526 7.99902 26.9998 7.99902H20.9998C20.447 7.99902 19.9998 8.44631 19.9998 8.99906C19.9998 9.5519 20.447 9.99909 20.9998 9.99909Z" fill="#EC663B"/>
<path d="M20.9998 13.9991H26.9998C27.5526 13.9991 27.9998 13.5518 27.9998 12.9991C27.9998 12.4463 27.5526 11.999 26.9998 11.999H20.9998C20.447 11.999 19.9998 12.4463 19.9998 12.9991C19.9998 13.5518 20.447 13.9991 20.9998 13.9991Z" fill="#EC663B"/>
<path d="M20.9998 17.9991H26.9998C27.5526 17.9991 27.9998 17.5518 27.9998 16.9991C27.9998 16.4463 27.5526 15.999 26.9998 15.999H20.9998C20.447 15.999 19.9998 16.4463 19.9998 16.9991C19.9998 17.5518 20.447 17.9991 20.9998 17.9991Z" fill="#EC663B"/>
<path d="M34.9998 5.99909H40.9998C41.5526 5.99909 41.9998 5.55181 41.9998 4.99906C41.9998 4.44631 41.5526 3.99902 40.9998 3.99902H34.9998C34.447 3.99902 33.9998 4.44631 33.9998 4.99906C33.9998 5.55181 34.4471 5.99909 34.9998 5.99909Z" fill="#EC663B"/>
<path d="M34.9998 9.99909H40.9998C41.5526 9.99909 41.9998 9.55181 41.9998 8.99906C41.9998 8.44631 41.5526 7.99902 40.9998 7.99902H34.9998C34.447 7.99902 33.9998 8.44631 33.9998 8.99906C33.9998 9.5519 34.4471 9.99909 34.9998 9.99909Z" fill="#EC663B"/>
<path d="M34.9998 13.9991H40.9998C41.5526 13.9991 41.9998 13.5518 41.9998 12.9991C41.9998 12.4463 41.5526 11.999 40.9998 11.999H34.9998C34.447 11.999 33.9998 12.4463 33.9998 12.9991C33.9998 13.5518 34.4471 13.9991 34.9998 13.9991Z" fill="#EC663B"/>
<path d="M34.9998 17.9991H40.9998C41.5526 17.9991 41.9998 17.5518 41.9998 16.9991C41.9998 16.4463 41.5526 15.999 40.9998 15.999H34.9998C34.447 15.999 33.9998 16.4463 33.9998 16.9991C33.9998 17.5518 34.4471 17.9991 34.9998 17.9991Z" fill="#EC663B"/>
</svg>
