<svg width="48" height="49" viewBox="0 0 48 49" fill="none" xmlns="http://www.w3.org/2000/svg">
<path d="M10.024 17.7786C10.008 17.8487 10 17.9207 10 17.9927L10 22.9926C10 23.5446 10.448 23.9927 11 23.9927C11.552 23.9927 12.0001 23.5446 12.0001 22.9926L12.0001 18.1247C12.0841 17.8467 12.3941 16.9926 13.0001 16.9926C13.6081 16.9926 13.9161 17.8526 14.0001 18.1247L14.0001 19.9926C14.0001 20.5446 14.4482 20.9927 15.0002 20.9927C15.5522 20.9927 16.0002 20.5446 16.0002 19.9926L16.0002 17.9927C16.0002 17.9207 15.9922 17.8487 15.9762 17.7786C15.7502 16.7426 14.8702 14.9927 13.0002 14.9927C11.1302 14.9927 10.25 16.7447 10.024 17.7786Z" fill="#EC663B"/>
<path d="M2.02449 23.7786C2.00846 23.8487 2.00049 23.9207 2.00049 23.9927L2.00049 28.9926C2.00049 29.5446 2.44852 29.9927 3.00052 29.9927C3.55252 29.9927 4.00055 29.5446 4.00055 28.9926L4.00055 24.1247C4.08455 23.8467 4.39459 22.9926 5.00059 22.9926C5.60856 22.9926 5.91662 23.8526 6.00062 24.1247L6.00062 25.9926C6.00062 26.5446 6.44865 26.9927 7.00065 26.9927C7.55266 26.9927 8.00069 26.5446 8.00069 25.9926L8.00069 23.9927C8.00069 23.9207 7.99272 23.8487 7.97669 23.7786C7.75066 22.7426 6.87072 20.9927 5.00068 20.9927C3.13046 20.9927 2.25052 22.7447 2.02449 23.7786Z" fill="#EC663B"/>
<path d="M21.128 2.27664C17.916 5.62465 17.926 14.9386 17.984 17.4927L2.07197 28.9847C0.774001 29.9207 -7.67417e-07 31.4367 -6.97482e-07 33.0366L-6.55695e-07 33.9926C-6.43282e-07 34.2766 0.121968 34.5486 0.331969 34.7366C0.541969 34.9246 0.82397 35.0166 1.104 34.9866L19.128 33.0887L19.946 39.6307L14.292 45.2846C14.106 45.4726 14 45.7267 14 45.9926L14 47.9927C14 48.3007 14.142 48.5907 14.384 48.7807C14.626 48.9707 14.944 49.0387 15.242 48.9626L23.122 46.9927L24.876 46.9927L32.758 48.9627C33.058 49.0367 33.374 48.9707 33.616 48.7808C33.858 48.5907 34 48.3008 34 47.9928L34 45.9928C34 45.7269 33.894 45.4728 33.706 45.2848L28.052 39.6308L28.87 33.0889L46.894 34.9868C47.176 35.0188 47.4561 34.9268 47.668 34.7368C47.88 34.5468 48 34.2768 48 33.9928L48 33.0368C48 31.4368 47.226 29.9228 45.928 28.9848L30.016 17.4929C30.078 14.9448 30.084 5.62483 26.872 2.27682C26.054 1.42482 25.088 0.992827 24 0.992827C22.912 0.99264 21.946 1.42464 21.128 2.27664ZM25.426 3.65861C27.916 6.25062 28.136 14.8486 28 17.9506C27.978 18.2706 28.142 18.6066 28.414 18.8026L44.7561 30.6047C45.4941 31.1367 45.9481 31.9787 45.9961 32.8806L28.1041 30.9986C27.5621 30.9406 27.0761 31.3286 27.008 31.8686L26.008 39.8686C26.002 39.9086 26 39.9506 26 39.9926C26 40.2566 26.104 40.5106 26.292 40.6987L32 46.4066L32 46.7107L25.242 45.0227C25.164 45.0027 25.082 44.9927 25.0001 44.9927L23.0001 44.9927C22.9181 44.9927 22.8361 45.0027 22.7581 45.0227L16.0002 46.7107L16.0002 46.4066L21.7062 40.7026C21.9241 40.4846 22.0242 40.1826 21.9922 39.8706L20.9922 31.8706C20.9262 31.3306 20.4382 30.9425 19.8961 31.0006L2.004 32.8827C2.052 31.9807 2.50604 31.1387 3.24404 30.6067L19.586 18.8026C19.86 18.6066 20.034 18.2967 20 17.9506C19.87 14.8647 20.08 6.25859 22.572 3.66058C23.0081 3.20458 23.462 2.99261 24 2.99261C24.538 2.99261 24.992 3.20458 25.426 3.65861Z" fill="#EC663B"/>
<path d="M32.024 17.7786C32.008 17.8487 32 17.9207 32 17.9927L32 19.9926C32 20.5446 32.448 20.9927 33 20.9927C33.552 20.9927 34.0001 20.5446 34.0001 19.9926L34.0001 18.1247C34.0841 17.8467 34.3941 16.9926 35.0001 16.9926C35.6081 16.9926 35.9161 17.8526 36.0001 18.1247L36.0001 22.9926C36.0001 23.5446 36.4482 23.9927 37.0002 23.9927C37.5522 23.9927 38.0002 23.5446 38.0002 22.9926L38.0002 17.9927C38.0002 17.9207 37.9922 17.8487 37.9762 17.7786C37.7502 16.7426 36.8702 14.9927 35.0002 14.9927C33.1302 14.9927 32.25 16.7447 32.024 17.7786Z" fill="#EC663B"/>
<path d="M40.0235 23.7786C40.0075 23.8487 39.9995 23.9207 39.9995 23.9927L39.9995 25.9926C39.9995 26.5446 40.4475 26.9927 40.9995 26.9927C41.5515 26.9927 41.9996 26.5446 41.9996 25.9926L41.9996 24.1247C42.0836 23.8467 42.3936 22.9926 42.9996 22.9926C43.6076 22.9926 43.9156 23.8526 43.9996 24.1247L43.9996 28.9926C43.9996 29.5446 44.4477 29.9927 44.9997 29.9927C45.5517 29.9927 45.9997 29.5446 45.9997 28.9926L45.9997 23.9927C45.9997 23.9207 45.9917 23.8487 45.9757 23.7786C45.7497 22.7426 44.8697 20.9927 42.9997 20.9927C41.1297 20.9927 40.2495 22.7447 40.0235 23.7786Z" fill="#EC663B"/>
<path d="M21.03 9.75077C20.892 10.2807 21.2179 10.8228 21.7519 10.9587C22.284 11.0948 22.8279 10.7727 22.968 10.2407C22.972 10.2287 23.326 8.99271 24 8.99271C24.6739 8.99271 25.0279 10.2287 25.03 10.2347C25.164 10.7707 25.706 11.0967 26.242 10.9627C26.698 10.8506 27 10.4426 27 9.99471C27 9.91268 26.99 9.83074 26.97 9.75068C26.714 8.72664 25.8 6.99264 24 6.99264C22.2 6.99264 21.2859 8.72683 21.03 9.75077Z" fill="#EC663B"/>
</svg>
