<svg width="675" height="505" viewBox="0 0 675 505" fill="none" xmlns="http://www.w3.org/2000/svg">
<path d="M605.058 76.9189C623.343 73.9148 657.015 84.0504 645.417 148.625C630.919 229.344 653.646 218.372 662.658 238.356C671.67 258.34 676.372 262.258 668.144 268.919C659.915 275.581 618.38 264.217 611.719 268.919C605.058 273.621 584.682 315.548 566.658 324.952C548.633 334.356 493.776 348.462 448.715 334.748C403.653 321.034 402.87 362.96 399.343 371.973C395.816 380.985 381.71 416.25 372.306 422.912C362.902 429.573 355.457 429.181 346.445 424.871C337.433 420.561 287.277 400.577 270.428 397.05C253.579 393.524 239.865 385.687 231.245 386.863C222.624 388.038 201.073 401.361 192.453 406.454C183.832 411.548 182.657 421.736 163.457 427.614C144.257 433.491 139.163 422.912 126.232 427.614C113.302 432.316 92.926 461.704 87.4402 471.499C81.9545 481.295 63.93 496.185 51.783 501.279C39.636 506.373 19.2605 500.887 16.1258 462.879C12.9911 424.871 20.436 419.385 23.5707 410.373C26.7054 401.361 31.4075 400.577 33.7586 394.699C36.1096 388.822 29.8402 373.54 31.7994 363.352C33.7586 353.165 28.2729 345.72 25.9218 337.883C23.5707 330.046 27.4892 320.25 31.7994 320.25C36.1096 320.25 39.2443 322.993 42.379 324.952C45.5137 326.911 52.9586 328.087 55.3096 330.046C57.6607 332.005 66.2811 332.005 68.2403 326.128C70.1995 320.25 76.077 306.144 72.9423 297.524C69.8076 288.903 65.8893 284.593 67.0648 279.499C68.2403 274.405 76.077 258.34 80.7791 257.556C85.4811 256.772 139.555 244.234 147.391 222.683" stroke="#EC663B" stroke-width="4" stroke-linecap="round" stroke-linejoin="round" stroke-dasharray="2.38 9.52"/>
<path opacity="0.4" d="M197.516 194.199C197.516 216.094 148.451 224.288 148.451 224.288C148.451 224.288 137.534 216.094 137.534 194.199C137.534 186.367 150.961 179.288 167.525 179.288C184.089 179.288 197.516 185.206 197.516 194.199Z" fill="#878894"/>
<path d="M177.499 174.289C177.499 196.789 147.507 224.289 147.507 224.289C147.507 224.289 117.516 196.789 117.516 174.289C117.516 157.72 130.944 144.289 147.507 144.289C164.071 144.289 177.499 157.72 177.499 174.289Z" fill="#2C2F49"/>
<ellipse cx="147.417" cy="174.215" rx="24.9926" ry="25" fill="#EC663B"/>
<path d="M148.345 184.715C145.271 184.715 142.728 183.7 140.717 181.67C138.706 179.639 137.7 177.154 137.7 174.215C137.7 171.276 138.706 168.791 140.717 166.761C142.728 164.73 145.271 163.715 148.345 163.715C150.221 163.715 151.942 164.17 153.508 165.078C155.075 165.968 156.283 167.176 157.134 168.704L155.336 169.748C154.698 168.511 153.75 167.525 152.493 166.79C151.236 166.055 149.854 165.687 148.345 165.687C145.812 165.687 143.743 166.509 142.138 168.153C140.533 169.797 139.731 171.817 139.731 174.215C139.731 176.613 140.533 178.634 142.138 180.277C143.743 181.921 145.812 182.743 148.345 182.743C149.854 182.743 151.236 182.376 152.493 181.641C153.75 180.906 154.698 179.92 155.336 178.682L157.134 179.697C156.303 181.225 155.094 182.443 153.508 183.352C151.942 184.261 150.221 184.715 148.345 184.715Z" fill="white"/>
<path opacity="0.4" d="M142.53 226.104C142.53 248 93.4649 256.194 93.4649 256.194C93.4649 256.194 82.5474 248 82.5474 226.104C82.5474 218.272 95.9748 211.194 112.538 211.194C129.102 211.194 142.53 217.112 142.53 226.104Z" fill="#878894"/>
<path d="M122.512 206.194C122.512 228.694 92.5211 256.194 92.5211 256.194C92.5211 256.194 62.53 228.694 62.53 206.194C62.53 189.626 75.9575 176.194 92.5211 176.194C109.085 176.194 122.512 189.626 122.512 206.194Z" fill="#2C2F49"/>
<ellipse cx="92.4557" cy="206.194" rx="24.9926" ry="25" fill="white"/>
<path d="M96.5958 205.804C97.6158 206.244 98.4258 206.914 99.0258 207.814C99.6458 208.694 99.9558 209.704 99.9558 210.844C99.9558 212.464 99.3858 213.844 98.2458 214.984C97.1058 216.124 95.7258 216.694 94.1058 216.694L84.9558 216.694L84.9558 195.694L93.4158 195.694C94.9758 195.694 96.3058 196.254 97.4058 197.374C98.5058 198.474 99.0558 199.794 99.0558 201.334C99.0558 203.294 98.2358 204.784 96.5958 205.804ZM93.4158 197.674L87.0558 197.674L87.0558 204.994L93.4158 204.994C94.3958 204.994 95.2258 204.644 95.9058 203.944C96.6058 203.224 96.9558 202.354 96.9558 201.334C96.9558 200.334 96.6058 199.474 95.9058 198.754C95.2258 198.034 94.3958 197.674 93.4158 197.674ZM94.1058 214.714C95.1458 214.714 96.0258 214.344 96.7458 213.604C97.4858 212.844 97.8558 211.924 97.8558 210.844C97.8558 209.784 97.4858 208.874 96.7458 208.114C96.0258 207.354 95.1458 206.974 94.1058 206.974L87.0558 206.974L87.0558 214.714L94.1058 214.714Z" fill="#2C2F49"/>
<path opacity="0.4" d="M650.899 50.4814C650.899 72.3766 601.834 80.571 601.834 80.571C601.834 80.571 590.917 72.3766 590.917 50.4814C590.917 42.6494 604.344 35.571 620.908 35.571C637.471 35.571 650.899 41.489 650.899 50.4814Z" fill="#878894"/>
<path d="M630.881 30.571C630.881 53.071 600.89 80.571 600.89 80.571C600.89 80.571 570.899 53.071 570.899 30.571C570.899 14.0025 584.327 0.571045 600.89 0.571045C617.454 0.571045 630.881 14.0025 630.881 30.571Z" fill="#2C2F49"/>
<ellipse cx="600.89" cy="30.5713" rx="24.9925" ry="25" fill="#EC663B"/>
<path d="M607.776 40.571L605.827 35.411L595.87 35.411L593.921 40.571L591.701 40.571L599.769 19.571L601.928 19.571L609.996 40.571L607.776 40.571ZM596.62 33.431L605.077 33.431L600.848 22.181L596.62 33.431Z" fill="white"/>
<path d="M205.019 168.088L205.019 179.288L203.899 179.288L203.899 169.784L199.979 176.344L199.819 176.344L195.899 169.784L195.899 179.288L194.779 179.288L194.779 168.088L196.171 168.088L199.899 174.328L203.627 168.088L205.019 168.088ZM220.039 177.8C218.919 178.92 217.549 179.48 215.927 179.48C214.306 179.48 212.935 178.92 211.815 177.8C210.695 176.67 210.135 175.299 210.135 173.688C210.135 172.078 210.695 170.712 211.815 169.592C212.935 168.462 214.306 167.896 215.927 167.896C217.549 167.896 218.919 168.462 220.039 169.592C221.159 170.712 221.719 172.078 221.719 173.688C221.719 175.299 221.159 176.67 220.039 177.8ZM212.599 177.032C213.495 177.939 214.605 178.392 215.927 178.392C217.25 178.392 218.359 177.939 219.255 177.032C220.151 176.115 220.599 175 220.599 173.688C220.599 172.376 220.151 171.267 219.255 170.36C218.359 169.443 217.25 168.984 215.927 168.984C214.605 168.984 213.495 169.443 212.599 170.36C211.703 171.267 211.255 172.376 211.255 173.688C211.255 175 211.703 176.115 212.599 177.032ZM232.067 179.48C230.371 179.48 228.968 178.92 227.859 177.8C226.749 176.68 226.195 175.31 226.195 173.688C226.195 172.067 226.749 170.696 227.859 169.576C228.968 168.456 230.371 167.896 232.067 167.896C233.101 167.896 234.051 168.147 234.915 168.648C235.779 169.139 236.445 169.806 236.915 170.648L235.923 171.224C235.571 170.542 235.048 169.998 234.355 169.592C233.661 169.187 232.899 168.984 232.067 168.984C230.669 168.984 229.528 169.438 228.643 170.344C227.757 171.251 227.315 172.366 227.315 173.688C227.315 175.011 227.757 176.126 228.643 177.032C229.528 177.939 230.669 178.392 232.067 178.392C232.899 178.392 233.661 178.19 234.355 177.784C235.048 177.379 235.571 176.835 235.923 176.152L236.915 176.712C236.456 177.555 235.789 178.227 234.915 178.728C234.051 179.23 233.101 179.48 232.067 179.48ZM249.797 179.288L248.325 179.288L243.077 173.864L243.077 179.288L241.957 179.288L241.957 168.088L243.077 168.088L243.077 173.208L248.165 168.088L249.637 168.088L244.261 173.528L249.797 179.288ZM260.646 173.48C261.19 173.715 261.622 174.072 261.942 174.552C262.273 175.022 262.438 175.56 262.438 176.168C262.438 177.032 262.134 177.768 261.526 178.376C260.918 178.984 260.182 179.288 259.318 179.288L254.438 179.288L254.438 168.088L258.95 168.088C259.782 168.088 260.491 168.387 261.078 168.984C261.665 169.571 261.958 170.275 261.958 171.096C261.958 172.142 261.521 172.936 260.646 173.48ZM258.95 169.144L255.558 169.144L255.558 173.048L258.95 173.048C259.473 173.048 259.915 172.862 260.278 172.488C260.651 172.104 260.838 171.64 260.838 171.096C260.838 170.563 260.651 170.104 260.278 169.72C259.915 169.336 259.473 169.144 258.95 169.144ZM259.318 178.232C259.873 178.232 260.342 178.035 260.726 177.64C261.121 177.235 261.318 176.744 261.318 176.168C261.318 175.603 261.121 175.118 260.726 174.712C260.342 174.307 259.873 174.104 259.318 174.104L255.558 174.104L255.558 178.232L259.318 178.232ZM275.016 179.288L273.976 176.536L268.664 176.536L267.624 179.288L266.44 179.288L270.744 168.088L271.896 168.088L276.2 179.288L275.016 179.288ZM269.064 175.48L273.576 175.48L271.32 169.48L269.064 175.48Z" fill="#2C2F49"/>
<path d="M7.033 132.994C5.337 132.994 3.93433 132.434 2.825 131.314C1.71566 130.194 1.161 128.823 1.161 127.202C1.161 125.58 1.71566 124.21 2.825 123.09C3.93433 121.97 5.337 121.41 7.033 121.41C8.06766 121.41 9.017 121.66 9.881 122.162C10.745 122.652 11.4117 123.319 11.881 124.162L10.889 124.738C10.537 124.055 10.0143 123.511 9.321 123.106C8.62766 122.7 7.865 122.498 7.033 122.498C5.63566 122.498 4.49433 122.951 3.609 123.858C2.72366 124.764 2.281 125.879 2.281 127.202C2.281 128.524 2.72366 129.639 3.609 130.546C4.49433 131.452 5.63566 131.906 7.033 131.906C7.865 131.906 8.62766 131.703 9.321 131.298C10.0143 130.892 10.537 130.348 10.889 129.666L11.881 130.226C11.4223 131.068 10.7557 131.74 9.881 132.242C9.017 132.743 8.06766 132.994 7.033 132.994ZM24.2226 132.802L23.1826 130.05L17.8706 130.05L16.8306 132.802L15.6466 132.802L19.9506 121.602L21.1026 121.602L25.4066 132.802L24.2226 132.802ZM18.2706 128.994L22.7826 128.994L20.5266 122.994L18.2706 128.994ZM37.2447 121.602L38.3647 121.602L38.3647 132.802L37.2447 132.802L37.2447 127.57L31.1647 127.57L31.1647 132.802L30.0447 132.802L30.0447 121.602L31.1647 121.602L31.1647 126.514L37.2447 126.514L37.2447 121.602ZM51.9597 132.802L50.4877 132.802L45.2397 127.378L45.2397 132.802L44.1197 132.802L44.1197 121.602L45.2397 121.602L45.2397 126.722L50.3277 121.602L51.7997 121.602L46.4237 127.042L51.9597 132.802ZM63.641 121.602L63.641 122.658L60.201 122.658L60.201 132.802L59.081 132.802L59.081 122.658L55.641 122.658L55.641 121.602L63.641 121.602ZM67.6447 128.37L67.6447 127.346L73.4047 127.346L73.4047 128.37L67.6447 128.37ZM87.1572 121.602L87.1572 132.802L86.0372 132.802L86.0372 122.658L80.2772 122.658L80.2772 132.802L79.1572 132.802L79.1572 121.602L87.1572 121.602ZM94.0397 131.746L99.4797 131.746L99.4797 132.802L92.9197 132.802L92.9197 121.602L99.3997 121.602L99.3997 122.658L94.0397 122.658L94.0397 126.626L98.9997 126.626L98.9997 127.682L94.0397 127.682L94.0397 131.746ZM111.644 121.602L111.644 122.658L108.204 122.658L108.204 132.802L107.084 132.802L107.084 122.658L103.644 122.658L103.644 121.602L111.644 121.602ZM117.565 131.746L123.005 131.746L123.005 132.802L116.445 132.802L116.445 121.602L122.925 121.602L122.925 122.658L117.565 122.658L117.565 126.626L122.525 126.626L122.525 127.682L117.565 127.682L117.565 131.746ZM132.129 121.602C133.132 121.602 133.969 121.938 134.641 122.61C135.313 123.282 135.649 124.119 135.649 125.122C135.649 126.124 135.313 126.962 134.641 127.634C133.969 128.306 133.132 128.642 132.129 128.642L129.249 128.642L129.249 132.802L128.129 132.802L128.129 121.602L132.129 121.602ZM132.129 127.586C132.822 127.586 133.393 127.356 133.841 126.898C134.3 126.428 134.529 125.836 134.529 125.122C134.529 124.407 134.3 123.82 133.841 123.362C133.393 122.892 132.822 122.658 132.129 122.658L129.249 122.658L129.249 127.586L132.129 127.586ZM144.927 126.082C145.855 126.082 146.644 126.412 147.295 127.074C147.956 127.735 148.287 128.524 148.287 129.442C148.287 130.37 147.956 131.164 147.295 131.826C146.644 132.476 145.855 132.802 144.927 132.802L140.767 132.802L140.767 121.602L147.327 121.602L147.327 122.658L141.887 122.658L141.887 126.082L144.927 126.082ZM144.927 131.746C145.545 131.746 146.073 131.522 146.511 131.074C146.948 130.626 147.167 130.082 147.167 129.442C147.167 128.812 146.948 128.274 146.511 127.826C146.073 127.367 145.545 127.138 144.927 127.138L141.887 127.138L141.887 131.746L144.927 131.746ZM159.37 121.602L160.522 121.602L156.794 130.354C156.42 131.25 155.946 131.895 155.37 132.29C154.794 132.684 154.079 132.855 153.226 132.802L153.226 131.778C153.823 131.842 154.314 131.756 154.698 131.522C155.092 131.276 155.418 130.855 155.674 130.258L155.898 129.73L152.042 121.602L153.194 121.602L156.426 128.482L159.37 121.602ZM169.167 121.602C170.169 121.602 171.007 121.938 171.679 122.61C172.351 123.282 172.687 124.119 172.687 125.122C172.687 126.124 172.351 126.962 171.679 127.634C171.007 128.306 170.169 128.642 169.167 128.642L166.287 128.642L166.287 132.802L165.167 132.802L165.167 121.602L169.167 121.602ZM169.167 127.586C169.86 127.586 170.431 127.356 170.879 126.898C171.337 126.428 171.567 125.836 171.567 125.122C171.567 124.407 171.337 123.82 170.879 123.362C170.431 122.892 169.86 122.658 169.167 122.658L166.287 122.658L166.287 127.586L169.167 127.586ZM184.044 121.602L184.044 122.658L178.924 122.658L178.924 132.802L177.804 132.802L177.804 121.602L184.044 121.602Z" fill="#2C2F49"/>
<path d="M485.309 24.371L486.429 24.371L486.429 35.571L473.789 35.571L473.789 24.371L474.909 24.371L474.909 34.515L479.549 34.515L479.549 24.371L480.669 24.371L480.669 34.515L485.309 34.515L485.309 24.371ZM499.648 35.571L498.608 32.819L493.296 32.819L492.256 35.571L491.072 35.571L495.376 24.371L496.528 24.371L500.832 35.571L499.648 35.571ZM493.696 31.763L498.208 31.763L495.952 25.763L493.696 31.763ZM512.67 24.371L513.79 24.371L513.79 35.571L512.67 35.571L512.67 30.339L506.59 30.339L506.59 35.571L505.47 35.571L505.47 24.371L506.59 24.371L506.59 29.283L512.67 29.283L512.67 24.371ZM527.225 35.571L525.945 35.571L522.905 30.787L519.865 35.571L518.585 35.571L522.265 29.795L518.825 24.371L520.089 24.371L522.905 28.787L525.721 24.371L526.985 24.371L523.545 29.795L527.225 35.571ZM539.482 35.571L538.442 32.819L533.13 32.819L532.09 35.571L530.906 35.571L535.21 24.371L536.362 24.371L540.666 35.571L539.482 35.571ZM533.53 31.763L538.042 31.763L535.786 25.763L533.53 31.763ZM547.384 23.091L547.384 22.163L551.544 22.163L551.544 23.091L547.384 23.091ZM552.504 35.571L552.504 26.451L546.264 35.571L545.304 35.571L545.304 24.371L546.424 24.371L546.424 33.491L552.664 24.371L553.624 24.371L553.624 35.571L552.504 35.571Z" fill="#2C2F49"/>
<path d="M223.977 70.7531C224.98 70.7531 225.817 71.0891 226.489 71.7611C227.161 72.4331 227.497 73.2705 227.497 74.2731C227.497 75.2758 227.161 76.1131 226.489 76.7851C225.817 77.4571 224.98 77.7931 223.977 77.7931H221.097V81.9531H219.977V70.7531H223.977ZM223.977 76.7371C224.67 76.7371 225.241 76.5078 225.689 76.0491C226.148 75.5798 226.377 74.9878 226.377 74.2731C226.377 73.5585 226.148 72.9718 225.689 72.5131C225.241 72.0438 224.67 71.8091 223.977 71.8091H221.097V76.7371H223.977ZM241.8 80.4651C240.68 81.5851 239.31 82.1451 237.688 82.1451C236.067 82.1451 234.696 81.5851 233.576 80.4651C232.456 79.3345 231.896 77.9638 231.896 76.3531C231.896 74.7425 232.456 73.3771 233.576 72.2571C234.696 71.1265 236.067 70.5611 237.688 70.5611C239.31 70.5611 240.68 71.1265 241.8 72.2571C242.92 73.3771 243.48 74.7425 243.48 76.3531C243.48 77.9638 242.92 79.3345 241.8 80.4651ZM234.36 79.6971C235.256 80.6038 236.366 81.0571 237.688 81.0571C239.011 81.0571 240.12 80.6038 241.016 79.6971C241.912 78.7798 242.36 77.6651 242.36 76.3531C242.36 75.0411 241.912 73.9318 241.016 73.0251C240.12 72.1078 239.011 71.6491 237.688 71.6491C236.366 71.6491 235.256 72.1078 234.36 73.0251C233.464 73.9318 233.016 75.0411 233.016 76.3531C233.016 77.6651 233.464 78.7798 234.36 79.6971ZM253.828 82.1451C252.132 82.1451 250.729 81.5851 249.62 80.4651C248.51 79.3451 247.956 77.9745 247.956 76.3531C247.956 74.7318 248.51 73.3611 249.62 72.2411C250.729 71.1211 252.132 70.5611 253.828 70.5611C254.862 70.5611 255.812 70.8118 256.676 71.3131C257.54 71.8038 258.206 72.4705 258.676 73.3131L257.684 73.8891C257.332 73.2065 256.809 72.6625 256.116 72.2571C255.422 71.8518 254.66 71.6491 253.828 71.6491C252.43 71.6491 251.289 72.1025 250.404 73.0091C249.518 73.9158 249.076 75.0305 249.076 76.3531C249.076 77.6758 249.518 78.7905 250.404 79.6971C251.289 80.6038 252.43 81.0571 253.828 81.0571C254.66 81.0571 255.422 80.8545 256.116 80.4491C256.809 80.0438 257.332 79.4998 257.684 78.8171L258.676 79.3771C258.217 80.2198 257.55 80.8918 256.676 81.3931C255.812 81.8945 254.862 82.1451 253.828 82.1451ZM268.95 82.1451C267.254 82.1451 265.851 81.5851 264.742 80.4651C263.632 79.3451 263.078 77.9745 263.078 76.3531C263.078 74.7318 263.632 73.3611 264.742 72.2411C265.851 71.1211 267.254 70.5611 268.95 70.5611C269.984 70.5611 270.934 70.8118 271.798 71.3131C272.662 71.8038 273.328 72.4705 273.798 73.3131L272.806 73.8891C272.454 73.2065 271.931 72.6625 271.238 72.2571C270.544 71.8518 269.782 71.6491 268.95 71.6491C267.552 71.6491 266.411 72.1025 265.526 73.0091C264.64 73.9158 264.198 75.0305 264.198 76.3531C264.198 77.6758 264.64 78.7905 265.526 79.6971C266.411 80.6038 267.552 81.0571 268.95 81.0571C269.782 81.0571 270.544 80.8545 271.238 80.4491C271.931 80.0438 272.454 79.4998 272.806 78.8171L273.798 79.3771C273.339 80.2198 272.672 80.8918 271.798 81.3931C270.934 81.8945 269.984 82.1451 268.95 82.1451ZM286.04 81.9531V72.8331L279.8 81.9531H278.84V70.7531H279.96V79.8731L286.2 70.7531H287.16V81.9531H286.04ZM300.275 70.7531V81.9531H299.155V77.4731H296.467L293.395 81.9531H292.115L295.235 77.4251C294.435 77.2865 293.768 76.9078 293.235 76.2891C292.701 75.6598 292.435 74.9345 292.435 74.1131C292.435 73.1851 292.76 72.3958 293.411 71.7451C294.072 71.0838 294.867 70.7531 295.795 70.7531H300.275ZM295.795 76.4171H299.155V71.8091H295.795C295.176 71.8091 294.648 72.0331 294.211 72.4811C293.773 72.9291 293.555 73.4731 293.555 74.1131C293.555 74.7425 293.773 75.2865 294.211 75.7451C294.648 76.1931 295.176 76.4171 295.795 76.4171Z" fill="#C3C4D4"/>
<path d="M451.367 145.802H449.895L444.647 140.378V145.802H443.527V134.602H444.647V139.722L449.735 134.602H451.207L445.831 140.042L451.367 145.802ZM463.208 145.802V136.682L456.968 145.802H456.008V134.602H457.128V143.722L463.368 134.602H464.328V145.802H463.208ZM477.123 134.602V135.658H473.683V145.802H472.563V135.658H469.123V134.602H477.123ZM488.583 145.802L487.543 143.05H482.231L481.191 145.802H480.007L484.311 134.602H485.463L489.767 145.802H488.583ZM482.631 141.994H487.143L484.887 135.994L482.631 141.994ZM496.485 133.322V132.394H500.645V133.322H496.485ZM501.605 145.802V136.682L495.365 145.802H494.405V134.602H495.525V143.722L501.765 134.602H502.725V145.802H501.605Z" fill="#F39323"/>
<circle cx="529" cy="332.245" r="41" fill="white" stroke="#EC663B" stroke-width="2"/>
<mask id="path-20-outside-1" maskUnits="userSpaceOnUse" x="503" y="305.781" width="52" height="53" fill="black">
<rect fill="white" x="503" y="305.781" width="52" height="53"/>
<path d="M553.714 354.322C553.333 353.934 552.715 353.934 552.333 354.322C551.448 355.224 550.271 355.72 549.02 355.72C547.768 355.72 546.591 355.224 545.706 354.322C545.523 354.136 545.275 354.031 545.016 354.031C544.757 354.031 544.508 354.136 544.325 354.322C543.906 354.749 543.422 355.084 542.895 355.319L547.417 338.987C547.554 338.493 547.299 337.974 546.828 337.789L544.039 336.694V328.422C544.039 326.118 542.199 324.244 539.938 324.244H539.352V322.227C539.352 320.268 537.787 318.674 535.863 318.674H533.688V314.894C533.688 313.907 532.899 313.104 531.93 313.104H529.879V311.207C529.879 309.864 530.952 308.77 532.272 308.77H541.651C541.434 309.903 540.452 310.76 539.278 310.76H536.129C535.59 310.76 535.152 311.205 535.152 311.755C535.152 312.304 535.59 312.749 536.129 312.749H539.278C541.688 312.749 543.649 310.752 543.649 308.298V307.776C543.649 307.226 543.211 306.781 542.672 306.781H532.272C529.875 306.781 527.926 308.767 527.926 311.207V313.104H526.07C525.101 313.104 524.313 313.907 524.313 314.894V318.674H522.137C520.213 318.674 518.649 320.268 518.649 322.227V324.244H518.063C515.801 324.244 513.961 326.118 513.961 328.422V336.694L511.172 337.789C510.701 337.974 510.446 338.493 510.583 338.987L515.105 355.319C514.578 355.084 514.094 354.749 513.675 354.322C513.492 354.136 513.243 354.031 512.984 354.031C512.725 354.031 512.477 354.136 512.294 354.322C511.409 355.224 510.232 355.72 508.981 355.72C507.729 355.72 506.552 355.224 505.667 354.322C505.286 353.934 504.668 353.934 504.286 354.322C503.905 354.711 503.905 355.341 504.286 355.729C505.54 357.006 507.207 357.71 508.981 357.71C510.445 357.71 511.838 357.23 512.984 356.343C514.131 357.23 515.524 357.71 516.988 357.71C518.453 357.71 519.845 357.23 520.992 356.343C522.139 357.23 523.531 357.71 524.996 357.71C526.461 357.71 527.853 357.23 529 356.343C530.147 357.23 531.539 357.71 533.004 357.71C534.469 357.71 535.861 357.23 537.008 356.343C538.155 357.23 539.547 357.71 541.012 357.71C542.477 357.71 543.869 357.23 545.016 356.343C546.163 357.23 547.555 357.71 549.02 357.71C550.793 357.71 552.46 357.006 553.714 355.729C554.095 355.341 554.095 354.711 553.714 354.322ZM526.266 315.093H531.734V318.674H526.266V315.093ZM520.602 322.227C520.602 321.365 521.29 320.663 522.137 320.663H525.289H532.711H535.863C536.71 320.663 537.399 321.365 537.399 322.227V324.244H520.602V322.227ZM515.914 328.422C515.914 327.215 516.878 326.234 518.063 326.234H539.938C541.122 326.234 542.086 327.215 542.086 328.422V335.927L529.351 330.926C529.125 330.837 528.875 330.837 528.649 330.926L515.914 335.927V328.422ZM540.757 355.713C539.601 355.65 538.523 355.163 537.698 354.323C537.515 354.136 537.267 354.031 537.008 354.031C536.749 354.031 536.5 354.136 536.317 354.322C535.432 355.224 534.256 355.72 533.004 355.72C531.882 355.72 530.822 355.321 529.977 354.589V341.37C529.977 340.82 529.539 340.375 529 340.375C528.461 340.375 528.024 340.82 528.024 341.37V354.589C527.178 355.321 526.118 355.72 524.996 355.72C523.745 355.72 522.568 355.224 521.683 354.322C521.5 354.136 521.251 354.031 520.992 354.031C520.733 354.031 520.485 354.136 520.302 354.322C519.477 355.162 518.399 355.65 517.243 355.713L514.418 345.51L521.506 342.726C522.009 342.529 522.26 341.953 522.066 341.44C521.872 340.928 521.307 340.672 520.804 340.87L513.886 343.587L512.704 339.319L529 332.92L545.296 339.319L544.114 343.587L537.069 340.82C536.565 340.622 536 340.878 535.806 341.39C535.612 341.903 535.863 342.478 536.366 342.676L543.582 345.51L540.757 355.713Z"/>
</mask>
<path d="M553.714 354.322C553.333 353.934 552.715 353.934 552.333 354.322C551.448 355.224 550.271 355.72 549.02 355.72C547.768 355.72 546.591 355.224 545.706 354.322C545.523 354.136 545.275 354.031 545.016 354.031C544.757 354.031 544.508 354.136 544.325 354.322C543.906 354.749 543.422 355.084 542.895 355.319L547.417 338.987C547.554 338.493 547.299 337.974 546.828 337.789L544.039 336.694V328.422C544.039 326.118 542.199 324.244 539.938 324.244H539.352V322.227C539.352 320.268 537.787 318.674 535.863 318.674H533.688V314.894C533.688 313.907 532.899 313.104 531.93 313.104H529.879V311.207C529.879 309.864 530.952 308.77 532.272 308.77H541.651C541.434 309.903 540.452 310.76 539.278 310.76H536.129C535.59 310.76 535.152 311.205 535.152 311.755C535.152 312.304 535.59 312.749 536.129 312.749H539.278C541.688 312.749 543.649 310.752 543.649 308.298V307.776C543.649 307.226 543.211 306.781 542.672 306.781H532.272C529.875 306.781 527.926 308.767 527.926 311.207V313.104H526.07C525.101 313.104 524.313 313.907 524.313 314.894V318.674H522.137C520.213 318.674 518.649 320.268 518.649 322.227V324.244H518.063C515.801 324.244 513.961 326.118 513.961 328.422V336.694L511.172 337.789C510.701 337.974 510.446 338.493 510.583 338.987L515.105 355.319C514.578 355.084 514.094 354.749 513.675 354.322C513.492 354.136 513.243 354.031 512.984 354.031C512.725 354.031 512.477 354.136 512.294 354.322C511.409 355.224 510.232 355.72 508.981 355.72C507.729 355.72 506.552 355.224 505.667 354.322C505.286 353.934 504.668 353.934 504.286 354.322C503.905 354.711 503.905 355.341 504.286 355.729C505.54 357.006 507.207 357.71 508.981 357.71C510.445 357.71 511.838 357.23 512.984 356.343C514.131 357.23 515.524 357.71 516.988 357.71C518.453 357.71 519.845 357.23 520.992 356.343C522.139 357.23 523.531 357.71 524.996 357.71C526.461 357.71 527.853 357.23 529 356.343C530.147 357.23 531.539 357.71 533.004 357.71C534.469 357.71 535.861 357.23 537.008 356.343C538.155 357.23 539.547 357.71 541.012 357.71C542.477 357.71 543.869 357.23 545.016 356.343C546.163 357.23 547.555 357.71 549.02 357.71C550.793 357.71 552.46 357.006 553.714 355.729C554.095 355.341 554.095 354.711 553.714 354.322ZM526.266 315.093H531.734V318.674H526.266V315.093ZM520.602 322.227C520.602 321.365 521.29 320.663 522.137 320.663H525.289H532.711H535.863C536.71 320.663 537.399 321.365 537.399 322.227V324.244H520.602V322.227ZM515.914 328.422C515.914 327.215 516.878 326.234 518.063 326.234H539.938C541.122 326.234 542.086 327.215 542.086 328.422V335.927L529.351 330.926C529.125 330.837 528.875 330.837 528.649 330.926L515.914 335.927V328.422ZM540.757 355.713C539.601 355.65 538.523 355.163 537.698 354.323C537.515 354.136 537.267 354.031 537.008 354.031C536.749 354.031 536.5 354.136 536.317 354.322C535.432 355.224 534.256 355.72 533.004 355.72C531.882 355.72 530.822 355.321 529.977 354.589V341.37C529.977 340.82 529.539 340.375 529 340.375C528.461 340.375 528.024 340.82 528.024 341.37V354.589C527.178 355.321 526.118 355.72 524.996 355.72C523.745 355.72 522.568 355.224 521.683 354.322C521.5 354.136 521.251 354.031 520.992 354.031C520.733 354.031 520.485 354.136 520.302 354.322C519.477 355.162 518.399 355.65 517.243 355.713L514.418 345.51L521.506 342.726C522.009 342.529 522.26 341.953 522.066 341.44C521.872 340.928 521.307 340.672 520.804 340.87L513.886 343.587L512.704 339.319L529 332.92L545.296 339.319L544.114 343.587L537.069 340.82C536.565 340.622 536 340.878 535.806 341.39C535.612 341.903 535.863 342.478 536.366 342.676L543.582 345.51L540.757 355.713Z" fill="#EC663B"/>
<path d="M553.714 354.322C553.333 353.934 552.715 353.934 552.333 354.322C551.448 355.224 550.271 355.72 549.02 355.72C547.768 355.72 546.591 355.224 545.706 354.322C545.523 354.136 545.275 354.031 545.016 354.031C544.757 354.031 544.508 354.136 544.325 354.322C543.906 354.749 543.422 355.084 542.895 355.319L547.417 338.987C547.554 338.493 547.299 337.974 546.828 337.789L544.039 336.694V328.422C544.039 326.118 542.199 324.244 539.938 324.244H539.352V322.227C539.352 320.268 537.787 318.674 535.863 318.674H533.688V314.894C533.688 313.907 532.899 313.104 531.93 313.104H529.879V311.207C529.879 309.864 530.952 308.77 532.272 308.77H541.651C541.434 309.903 540.452 310.76 539.278 310.76H536.129C535.59 310.76 535.152 311.205 535.152 311.755C535.152 312.304 535.59 312.749 536.129 312.749H539.278C541.688 312.749 543.649 310.752 543.649 308.298V307.776C543.649 307.226 543.211 306.781 542.672 306.781H532.272C529.875 306.781 527.926 308.767 527.926 311.207V313.104H526.07C525.101 313.104 524.313 313.907 524.313 314.894V318.674H522.137C520.213 318.674 518.649 320.268 518.649 322.227V324.244H518.063C515.801 324.244 513.961 326.118 513.961 328.422V336.694L511.172 337.789C510.701 337.974 510.446 338.493 510.583 338.987L515.105 355.319C514.578 355.084 514.094 354.749 513.675 354.322C513.492 354.136 513.243 354.031 512.984 354.031C512.725 354.031 512.477 354.136 512.294 354.322C511.409 355.224 510.232 355.72 508.981 355.72C507.729 355.72 506.552 355.224 505.667 354.322C505.286 353.934 504.668 353.934 504.286 354.322C503.905 354.711 503.905 355.341 504.286 355.729C505.54 357.006 507.207 357.71 508.981 357.71C510.445 357.71 511.838 357.23 512.984 356.343C514.131 357.23 515.524 357.71 516.988 357.71C518.453 357.71 519.845 357.23 520.992 356.343C522.139 357.23 523.531 357.71 524.996 357.71C526.461 357.71 527.853 357.23 529 356.343C530.147 357.23 531.539 357.71 533.004 357.71C534.469 357.71 535.861 357.23 537.008 356.343C538.155 357.23 539.547 357.71 541.012 357.71C542.477 357.71 543.869 357.23 545.016 356.343C546.163 357.23 547.555 357.71 549.02 357.71C550.793 357.71 552.46 357.006 553.714 355.729C554.095 355.341 554.095 354.711 553.714 354.322ZM526.266 315.093H531.734V318.674H526.266V315.093ZM520.602 322.227C520.602 321.365 521.29 320.663 522.137 320.663H525.289H532.711H535.863C536.71 320.663 537.399 321.365 537.399 322.227V324.244H520.602V322.227ZM515.914 328.422C515.914 327.215 516.878 326.234 518.063 326.234H539.938C541.122 326.234 542.086 327.215 542.086 328.422V335.927L529.351 330.926C529.125 330.837 528.875 330.837 528.649 330.926L515.914 335.927V328.422ZM540.757 355.713C539.601 355.65 538.523 355.163 537.698 354.323C537.515 354.136 537.267 354.031 537.008 354.031C536.749 354.031 536.5 354.136 536.317 354.322C535.432 355.224 534.256 355.72 533.004 355.72C531.882 355.72 530.822 355.321 529.977 354.589V341.37C529.977 340.82 529.539 340.375 529 340.375C528.461 340.375 528.024 340.82 528.024 341.37V354.589C527.178 355.321 526.118 355.72 524.996 355.72C523.745 355.72 522.568 355.224 521.683 354.322C521.5 354.136 521.251 354.031 520.992 354.031C520.733 354.031 520.485 354.136 520.302 354.322C519.477 355.162 518.399 355.65 517.243 355.713L514.418 345.51L521.506 342.726C522.009 342.529 522.26 341.953 522.066 341.44C521.872 340.928 521.307 340.672 520.804 340.87L513.886 343.587L512.704 339.319L529 332.92L545.296 339.319L544.114 343.587L537.069 340.82C536.565 340.622 536 340.878 535.806 341.39C535.612 341.903 535.863 342.478 536.366 342.676L543.582 345.51L540.757 355.713Z" stroke="#EC663B" stroke-width="0.2" mask="url(#path-20-outside-1)"/>
<path d="M529 336.329C529.27 336.329 529.535 336.441 529.726 336.635C529.726 336.635 529.726 336.635 529.726 336.635L529.69 336.67C529.872 336.855 529.977 337.112 529.977 337.373C529.977 337.636 529.872 337.892 529.69 338.077L529 336.329ZM529 336.329C528.73 336.329 528.465 336.441 528.274 336.635C528.083 336.83 527.973 337.099 527.973 337.373C527.973 337.648 528.083 337.917 528.274 338.112C528.465 338.306 528.73 338.418 529 338.418C529.27 338.418 529.535 338.306 529.726 338.112L529 336.329Z" fill="#EC663B" stroke="#EC663B" stroke-width="0.1"/>
<path d="M522.522 328.946H519.788C519.22 328.946 518.761 329.414 518.761 329.99C518.761 330.566 519.22 331.035 519.788 331.035H522.522C523.09 331.035 523.549 330.566 523.549 329.99C523.549 329.414 523.09 328.946 522.522 328.946Z" fill="#EC663B" stroke="#EC663B" stroke-width="0.1"/>
<path d="M538.375 328.946H535.641C535.073 328.946 534.614 329.414 534.614 329.99C534.614 330.566 535.073 331.035 535.641 331.035H538.375C538.943 331.035 539.402 330.566 539.402 329.99C539.402 329.414 538.943 328.946 538.375 328.946Z" fill="#EC663B" stroke="#EC663B" stroke-width="0.1"/>
<circle cx="117.134" cy="246.194" r="41" fill="white" stroke="#EC663B" stroke-width="2"/>
<path d="M133.333 234.034V234.084H133.383H135.188H135.238V234.034V226.035C135.238 224.491 133.998 223.226 132.48 223.226H101.698C100.18 223.226 98.9395 224.491 98.9395 226.035V234.034V234.084H98.9895H100.795H100.845V234.034V226.035C100.845 225.556 101.23 225.165 101.698 225.165H132.48C132.948 225.165 133.333 225.556 133.333 226.035V234.034Z" fill="#EC663B" stroke="#EC663B" stroke-width="0.1"/>
<path d="M99.8929 244.335C100.914 244.335 101.748 243.485 101.748 242.446V236.93C101.748 235.891 100.914 235.041 99.8929 235.041H98.1777C97.1563 235.041 96.3223 235.891 96.3223 236.93V242.446C96.3223 243.485 97.1563 244.335 98.1777 244.335H99.8929ZM98.2277 236.98H99.8429V242.396H98.2277V236.98Z" fill="#EC663B" stroke="#EC663B" stroke-width="0.1"/>
<path d="M122.099 247.132H112.079C110.787 247.132 109.772 248.167 109.772 249.481V253.987C109.772 255.301 110.787 256.335 112.079 256.335H122.099C123.391 256.335 124.406 255.301 124.406 253.987V249.481C124.406 248.167 123.391 247.132 122.099 247.132ZM122.5 253.987C122.5 254.113 122.459 254.215 122.39 254.285C122.322 254.354 122.223 254.396 122.099 254.396H112.079C111.955 254.396 111.856 254.354 111.787 254.285C111.719 254.215 111.677 254.113 111.677 253.987V249.481C111.677 249.354 111.719 249.253 111.787 249.183C111.856 249.113 111.955 249.071 112.079 249.071H122.099C122.223 249.071 122.322 249.113 122.39 249.183C122.459 249.253 122.5 249.354 122.5 249.481V253.987Z" fill="#EC663B" stroke="#EC663B" stroke-width="0.1"/>
<path d="M106.302 250.765H102.691C101.67 250.765 100.836 251.616 100.836 252.654V254.447C100.836 255.485 101.67 256.336 102.691 256.336H106.302C107.324 256.336 108.158 255.485 108.158 254.447V252.654C108.158 251.616 107.324 250.765 106.302 250.765ZM102.741 254.397V252.704H106.252V254.397H102.741Z" fill="#EC663B" stroke="#EC663B" stroke-width="0.1"/>
<path d="M131.532 250.765H127.922C126.9 250.765 126.066 251.616 126.066 252.654V254.447C126.066 255.485 126.9 256.336 127.922 256.336H131.532C132.554 256.336 133.388 255.485 133.388 254.447V252.654C133.388 251.616 132.554 250.765 131.532 250.765ZM127.972 254.397V252.704H131.482V254.397H127.972Z" fill="#EC663B" stroke="#EC663B" stroke-width="0.1"/>
<path d="M136.091 235.041H134.376C133.355 235.041 132.521 235.891 132.521 236.93V242.446C132.521 243.485 133.355 244.335 134.376 244.335H136.091C137.113 244.335 137.947 243.485 137.947 242.446V236.93C137.947 235.891 137.113 235.041 136.091 235.041ZM134.426 242.396V236.98H136.041V242.396H134.426Z" fill="#EC663B" stroke="#EC663B" stroke-width="0.1"/>
<path d="M100.846 247.132H100.846V245.343V245.293H100.796H98.9902H98.9402V245.343V247.659C97.8556 248.315 97.1348 249.519 97.1348 250.906V258.216V260.055V262.767V264.606V265.939C97.1348 267.713 98.5555 269.161 100.299 269.161H103.865C105.608 269.161 107.029 267.713 107.029 265.939V264.656H127.014V265.939C127.014 267.713 128.436 269.161 130.224 269.161H133.835C135.578 269.161 136.999 267.713 136.999 265.939V264.606V262.767V260.055V258.216V250.953C137.044 249.565 136.323 248.361 135.239 247.705V245.343V245.293H135.189H133.383H133.333V245.343L133.333 247.132H133.333H133.333H133.333H133.332H133.332H133.332H133.332H133.331H133.331H133.331H133.33H133.33H133.33H133.33H133.329H133.329H133.329H133.329H133.328H133.328H133.328H133.328H133.327H133.327H133.327H133.326H133.326H133.326H133.326H133.325H133.325H133.325H133.325H133.324H133.324H133.324H133.324H133.323H133.323H133.323H133.323H133.322H133.322H133.322H133.321H133.321H133.321H133.321H133.32H133.32H133.32H133.32H133.319H133.319H133.319H133.319H133.318H133.318H133.318H133.318H133.317H133.317H133.317H133.316H133.316H133.316H133.316H133.315H133.315H133.315H133.315H133.314H133.314H133.314H133.314H133.313H133.313H133.313H133.312H133.312H133.312H133.312H133.311H133.311H133.311H133.311H133.31H133.31H133.31H133.31H133.309H133.309H133.309H133.309H133.308H133.308H133.308H133.307H133.307H133.307H133.307H133.306H133.306H133.306H133.306H133.305H133.305H133.305H133.305H133.304H133.304H133.304H133.303H133.303H133.303H133.303H133.302H133.302H133.302H133.302H133.301H133.301H133.301H133.301H133.3H133.3H133.3H133.3H133.299H133.299H133.299H133.298H133.298H133.298H133.298H133.297H133.297H133.297H133.297H133.296H133.296H133.296H133.296H133.295H133.295H133.295H133.294H133.294H133.294H133.294H133.293H133.293H133.293H133.293H133.292H133.292H133.292H133.292H133.291H133.291H133.291H133.291H133.29H133.29H133.29H133.289H133.289H133.289H133.289H133.288H133.288H133.288H133.288H133.287H133.287H133.287H133.287H133.286H133.286H133.286H133.286H133.285H133.285H133.285H133.284H133.284H133.284H133.284H133.283H133.283H133.283H133.283H133.282H133.282H133.282H133.282H133.281H133.281H133.281H133.28H133.28H133.28H133.28H133.279H133.279H133.279H133.279H133.278H133.278H133.278H133.278H133.277H133.277H133.277H133.277H133.276H133.276H133.276H133.275H133.275H133.275H133.275H133.274H133.274H133.274H133.274H133.273H133.273H133.273H133.273H133.272H133.272H133.272H133.271H133.271H133.271H133.271H133.27H133.27H133.27H133.27H133.269H133.269H133.269H133.269H133.268H133.268H133.268H133.268H133.267H133.267H133.267H133.266H133.266H133.266H133.266H133.265H133.265H133.265H133.265H133.264H133.264H133.264H133.264H133.263H133.263H133.263H133.262H133.262H133.262H133.262H133.261H133.261H133.261H133.261H133.26H133.26H133.26H133.26H133.259H133.259H133.259H133.259H133.258H133.258H133.258H133.257H133.257H133.257H133.257H133.256H133.256H133.256H133.256H133.255H133.255H133.255H133.255H133.254H133.254H133.254H133.254H133.253H133.253H133.253H133.252H133.252H133.252H133.252H133.251H133.251H133.251H133.251H133.25H133.25H133.25H133.25H133.249H133.249H133.249H133.248H133.248H133.248H131.621L129.913 235.409C129.912 235.121 129.816 234.696 129.358 234.229C128.624 233.412 127.222 232.801 125.173 232.393C123.12 231.984 120.409 231.777 117.044 231.777C113.59 231.777 110.822 231.961 108.759 232.329C107.727 232.513 106.87 232.744 106.191 233.022C105.512 233.299 105.008 233.625 104.684 234.001C104.362 234.376 104.267 234.753 104.266 234.995L102.648 247.132H100.931H100.931H100.931H100.93H100.93H100.93H100.929H100.929H100.929H100.929H100.928H100.928H100.928H100.928H100.927H100.927H100.927H100.927H100.926H100.926H100.926H100.925H100.925H100.925H100.925H100.924H100.924H100.924H100.924H100.923H100.923H100.923H100.923H100.922H100.922H100.922H100.922H100.921H100.921H100.921H100.92H100.92H100.92H100.92H100.919H100.919H100.919H100.919H100.918H100.918H100.918H100.918H100.917H100.917H100.917H100.917H100.916H100.916H100.916H100.915H100.915H100.915H100.915H100.914H100.914H100.914H100.914H100.913H100.913H100.913H100.913H100.912H100.912H100.912H100.911H100.911H100.911H100.911H100.91H100.91H100.91H100.91H100.909H100.909H100.909H100.909H100.908H100.908H100.908H100.908H100.907H100.907H100.907H100.906H100.906H100.906H100.906H100.905H100.905H100.905H100.905H100.904H100.904H100.904H100.904H100.903H100.903H100.903H100.902H100.902H100.902H100.902H100.901H100.901H100.901H100.901H100.9H100.9H100.9H100.9H100.899H100.899H100.899H100.899H100.898H100.898H100.898H100.897H100.897H100.897H100.897H100.896H100.896H100.896H100.896H100.895H100.895H100.895H100.895H100.894H100.894H100.894H100.893H100.893H100.893H100.893H100.892H100.892H100.892H100.892H100.891H100.891H100.891H100.891H100.89H100.89H100.89H100.89H100.889H100.889H100.889H100.888H100.888H100.888H100.888H100.887H100.887H100.887H100.887H100.886H100.886H100.886H100.886H100.885H100.885H100.885H100.885H100.884H100.884H100.884H100.883H100.883H100.883H100.883H100.882H100.882H100.882H100.882H100.881H100.881H100.881H100.881H100.88H100.88H100.88H100.879H100.879H100.879H100.879H100.878H100.878H100.878H100.878H100.877H100.877H100.877H100.877H100.876H100.876H100.876H100.876H100.875H100.875H100.875H100.874H100.874H100.874H100.874H100.873H100.873H100.873H100.873H100.872H100.872H100.872H100.872H100.871H100.871H100.871H100.87H100.87H100.87H100.87H100.869H100.869H100.869H100.869H100.868H100.868H100.868H100.868H100.867H100.867H100.867H100.867H100.866H100.866H100.866H100.865H100.865H100.865H100.865H100.864H100.864H100.864H100.864H100.863H100.863H100.863H100.863H100.862H100.862H100.862H100.861H100.861H100.861H100.861H100.86H100.86H100.86H100.86H100.859H100.859H100.859H100.859H100.858H100.858H100.858H100.858H100.857H100.857H100.857H100.856H100.856H100.856H100.856H100.855H100.855H100.855H100.855H100.854H100.854H100.854H100.854H100.853H100.853H100.853H100.853H100.852H100.852H100.852H100.851H100.851H100.851H100.851H100.85H100.85H100.85H100.85H100.849H100.849H100.849H100.849H100.848H100.848H100.848H100.847H100.847H100.847H100.847H100.846H100.846H100.846ZM105.214 265.889H105.169V265.939C105.169 266.648 104.604 267.222 103.91 267.222H100.344C99.6506 267.222 99.0854 266.648 99.0854 265.939V264.656H105.214V265.889ZM104.275 249.028L104.9 244.438C106.555 244.806 110.167 245.301 117.09 245.301C124.058 245.301 127.67 244.806 129.325 244.438L129.994 249.028L130 249.071H130.043H133.248C134.258 249.071 135.094 249.921 135.094 250.952V258.166H99.0402V250.952C99.0402 249.921 99.8763 249.071 100.886 249.071H104.226H104.27L104.275 249.028ZM117.09 233.716C121.826 233.716 124.541 234.141 126.086 234.587C127.577 235.018 127.976 235.468 128.055 235.57L129.084 242.454C127.705 242.775 124.232 243.27 117.135 243.27C110.04 243.27 106.61 242.731 105.229 242.453L106.169 235.25C106.288 235.115 106.764 234.739 108.299 234.392C109.874 234.037 112.555 233.716 117.09 233.716ZM135.139 265.939C135.139 266.648 134.574 267.222 133.88 267.222H130.314C129.618 267.222 129.01 266.646 129.01 265.939V264.656H135.139V265.939ZM135.139 262.671H127.155H107.024H99.0402V260.105H135.139V262.671Z" fill="#EC663B" stroke="#EC663B" stroke-width="0.1"/>
</svg>
