<svg width="42" height="42" viewBox="0 0 42 42" fill="none" xmlns="http://www.w3.org/2000/svg">
<mask id="path-1-outside-1" maskUnits="userSpaceOnUse" x="-0.000244141" y="0" width="42" height="42" fill="black">
<rect fill="white" x="-0.000244141" width="42" height="42"/>
<path d="M40.7711 38.3395C40.4659 38.0345 39.9714 38.0345 39.6661 38.3395C38.9581 39.0476 38.0168 39.4375 37.0154 39.4375C36.0141 39.4375 35.0728 39.0476 34.3647 38.3395C34.2183 38.1931 34.0195 38.1107 33.8123 38.1107C33.6051 38.1107 33.4064 38.1931 33.2599 38.3395C32.9249 38.6745 32.5372 38.9373 32.116 39.1223L35.7333 26.2951C35.8427 25.9069 35.6387 25.4991 35.2625 25.3541L33.0311 24.4938V17.9971C33.0311 16.1878 31.5591 14.7159 29.7498 14.7159H29.2811V13.1314C29.2811 11.5927 28.0293 10.3409 26.4905 10.3409H24.7498V7.37211C24.7498 6.59672 24.119 5.96586 23.3436 5.96586H21.7029V4.47656C21.7029 3.42117 22.5615 2.5625 23.617 2.5625H31.1204C30.9468 3.45172 30.1617 4.125 29.2225 4.125H26.7029C26.2715 4.125 25.9217 4.47477 25.9217 4.90625C25.9217 5.33773 26.2715 5.6875 26.7029 5.6875H29.2225C31.1502 5.6875 32.7186 4.11922 32.7186 2.19141V1.78125C32.7186 1.34977 32.3687 1 31.9373 1H23.617C21.7001 1 20.1404 2.55961 20.1404 4.47656V5.96586H18.6561C17.8807 5.96586 17.2498 6.59672 17.2498 7.37211V10.3409H15.5091C13.9704 10.3409 12.7186 11.5927 12.7186 13.1314V14.7159H12.2498C10.4405 14.7159 8.96856 16.1878 8.96856 17.9971V24.4938L6.73716 25.3541C6.36091 25.4991 6.15685 25.9069 6.2663 26.2951L9.88364 39.1223C9.46247 38.9373 9.07474 38.6745 8.73974 38.3395C8.59325 38.1931 8.3945 38.1107 8.18731 38.1107C7.98013 38.1107 7.78138 38.1931 7.63489 38.3395C6.92685 39.0476 5.98552 39.4375 4.98419 39.4375C3.98286 39.4375 3.04153 39.0476 2.33349 38.3395C2.02849 38.0345 1.53396 38.0345 1.22856 38.3395C0.923486 38.6446 0.923486 39.1393 1.22856 39.4444C2.23185 40.4476 3.56552 41 4.98419 41C6.15599 41 7.26981 40.6231 8.18731 39.9266C9.10481 40.6231 10.2186 41 11.3904 41C12.5622 41 13.6761 40.6231 14.5936 39.9266C15.5111 40.6231 16.6249 41 17.7967 41C18.9685 41 20.0823 40.6231 20.9998 39.9266C21.9173 40.6231 23.0311 41 24.2029 41C25.3747 41 26.4886 40.6231 27.4061 39.9266C28.3236 40.6231 29.4374 41 30.6092 41C31.781 41 32.8948 40.6231 33.8123 39.9266C34.7298 40.6231 35.8436 41 37.0154 41C38.4341 41 39.7678 40.4476 40.771 39.4444C41.0761 39.1393 41.0761 38.6446 40.7711 38.3395ZM18.8123 7.52836H23.1873V10.3409H18.8123V7.52836ZM14.2811 13.1313C14.2811 12.4542 14.832 11.9033 15.5091 11.9033H18.0311H23.9686H26.4905C27.1676 11.9033 27.7186 12.4541 27.7186 13.1313V14.7158H14.2811V13.1313ZM10.5311 17.9971C10.5311 17.0494 11.3021 16.2784 12.2498 16.2784H29.7498C30.6975 16.2784 31.4686 17.0494 31.4686 17.9971V23.8913L21.2809 19.9634C21.1 19.8937 20.8997 19.8937 20.7188 19.9634L10.5311 23.8913V17.9971ZM30.4051 39.4317C29.4805 39.3824 28.6181 38.9993 27.9584 38.3396C27.8121 38.1931 27.6133 38.1107 27.4061 38.1107C27.1989 38.1107 27.0001 38.1931 26.8536 38.3395C26.1456 39.0476 25.2043 39.4375 24.2029 39.4375C23.3058 39.4375 22.4572 39.1236 21.7811 38.5491V28.1663C21.7811 27.7348 21.4312 27.3851 20.9998 27.3851C20.5684 27.3851 20.2186 27.7348 20.2186 28.1663V38.5491C19.5424 39.1236 18.6939 39.4375 17.7967 39.4375C16.7954 39.4375 15.854 39.0476 15.146 38.3395C14.9995 38.1931 14.8008 38.1107 14.5936 38.1107C14.3864 38.1107 14.1876 38.1931 14.0411 38.3395C13.3815 38.9992 12.519 39.3824 11.5944 39.4316L9.3345 31.418L15.0048 29.2318C15.4073 29.0766 15.6079 28.6244 15.4526 28.2218C15.2975 27.8191 14.8451 27.6187 14.4426 27.7739L8.90849 29.9076L7.96333 26.5559L20.9998 21.5297L34.0363 26.5559L33.0911 29.9076L27.4548 27.7345C27.0521 27.5792 26.6 27.7798 26.4448 28.1823C26.2896 28.5849 26.49 29.0371 26.8926 29.1923L32.6651 31.418L30.4051 39.4317Z"/>
</mask>
<path d="M40.7711 38.3395C40.4659 38.0345 39.9714 38.0345 39.6661 38.3395C38.9581 39.0476 38.0168 39.4375 37.0154 39.4375C36.0141 39.4375 35.0728 39.0476 34.3647 38.3395C34.2183 38.1931 34.0195 38.1107 33.8123 38.1107C33.6051 38.1107 33.4064 38.1931 33.2599 38.3395C32.9249 38.6745 32.5372 38.9373 32.116 39.1223L35.7333 26.2951C35.8427 25.9069 35.6387 25.4991 35.2625 25.3541L33.0311 24.4938V17.9971C33.0311 16.1878 31.5591 14.7159 29.7498 14.7159H29.2811V13.1314C29.2811 11.5927 28.0293 10.3409 26.4905 10.3409H24.7498V7.37211C24.7498 6.59672 24.119 5.96586 23.3436 5.96586H21.7029V4.47656C21.7029 3.42117 22.5615 2.5625 23.617 2.5625H31.1204C30.9468 3.45172 30.1617 4.125 29.2225 4.125H26.7029C26.2715 4.125 25.9217 4.47477 25.9217 4.90625C25.9217 5.33773 26.2715 5.6875 26.7029 5.6875H29.2225C31.1502 5.6875 32.7186 4.11922 32.7186 2.19141V1.78125C32.7186 1.34977 32.3687 1 31.9373 1H23.617C21.7001 1 20.1404 2.55961 20.1404 4.47656V5.96586H18.6561C17.8807 5.96586 17.2498 6.59672 17.2498 7.37211V10.3409H15.5091C13.9704 10.3409 12.7186 11.5927 12.7186 13.1314V14.7159H12.2498C10.4405 14.7159 8.96856 16.1878 8.96856 17.9971V24.4938L6.73716 25.3541C6.36091 25.4991 6.15685 25.9069 6.2663 26.2951L9.88364 39.1223C9.46247 38.9373 9.07474 38.6745 8.73974 38.3395C8.59325 38.1931 8.3945 38.1107 8.18731 38.1107C7.98013 38.1107 7.78138 38.1931 7.63489 38.3395C6.92685 39.0476 5.98552 39.4375 4.98419 39.4375C3.98286 39.4375 3.04153 39.0476 2.33349 38.3395C2.02849 38.0345 1.53396 38.0345 1.22856 38.3395C0.923486 38.6446 0.923486 39.1393 1.22856 39.4444C2.23185 40.4476 3.56552 41 4.98419 41C6.15599 41 7.26981 40.6231 8.18731 39.9266C9.10481 40.6231 10.2186 41 11.3904 41C12.5622 41 13.6761 40.6231 14.5936 39.9266C15.5111 40.6231 16.6249 41 17.7967 41C18.9685 41 20.0823 40.6231 20.9998 39.9266C21.9173 40.6231 23.0311 41 24.2029 41C25.3747 41 26.4886 40.6231 27.4061 39.9266C28.3236 40.6231 29.4374 41 30.6092 41C31.781 41 32.8948 40.6231 33.8123 39.9266C34.7298 40.6231 35.8436 41 37.0154 41C38.4341 41 39.7678 40.4476 40.771 39.4444C41.0761 39.1393 41.0761 38.6446 40.7711 38.3395ZM18.8123 7.52836H23.1873V10.3409H18.8123V7.52836ZM14.2811 13.1313C14.2811 12.4542 14.832 11.9033 15.5091 11.9033H18.0311H23.9686H26.4905C27.1676 11.9033 27.7186 12.4541 27.7186 13.1313V14.7158H14.2811V13.1313ZM10.5311 17.9971C10.5311 17.0494 11.3021 16.2784 12.2498 16.2784H29.7498C30.6975 16.2784 31.4686 17.0494 31.4686 17.9971V23.8913L21.2809 19.9634C21.1 19.8937 20.8997 19.8937 20.7188 19.9634L10.5311 23.8913V17.9971ZM30.4051 39.4317C29.4805 39.3824 28.6181 38.9993 27.9584 38.3396C27.8121 38.1931 27.6133 38.1107 27.4061 38.1107C27.1989 38.1107 27.0001 38.1931 26.8536 38.3395C26.1456 39.0476 25.2043 39.4375 24.2029 39.4375C23.3058 39.4375 22.4572 39.1236 21.7811 38.5491V28.1663C21.7811 27.7348 21.4312 27.3851 20.9998 27.3851C20.5684 27.3851 20.2186 27.7348 20.2186 28.1663V38.5491C19.5424 39.1236 18.6939 39.4375 17.7967 39.4375C16.7954 39.4375 15.854 39.0476 15.146 38.3395C14.9995 38.1931 14.8008 38.1107 14.5936 38.1107C14.3864 38.1107 14.1876 38.1931 14.0411 38.3395C13.3815 38.9992 12.519 39.3824 11.5944 39.4316L9.3345 31.418L15.0048 29.2318C15.4073 29.0766 15.6079 28.6244 15.4526 28.2218C15.2975 27.8191 14.8451 27.6187 14.4426 27.7739L8.90849 29.9076L7.96333 26.5559L20.9998 21.5297L34.0363 26.5559L33.0911 29.9076L27.4548 27.7345C27.0521 27.5792 26.6 27.7798 26.4448 28.1823C26.2896 28.5849 26.49 29.0371 26.8926 29.1923L32.6651 31.418L30.4051 39.4317Z" fill="#EC663B"/>
<path d="M40.7711 38.3395C40.4659 38.0345 39.9714 38.0345 39.6661 38.3395C38.9581 39.0476 38.0168 39.4375 37.0154 39.4375C36.0141 39.4375 35.0728 39.0476 34.3647 38.3395C34.2183 38.1931 34.0195 38.1107 33.8123 38.1107C33.6051 38.1107 33.4064 38.1931 33.2599 38.3395C32.9249 38.6745 32.5372 38.9373 32.116 39.1223L35.7333 26.2951C35.8427 25.9069 35.6387 25.4991 35.2625 25.3541L33.0311 24.4938V17.9971C33.0311 16.1878 31.5591 14.7159 29.7498 14.7159H29.2811V13.1314C29.2811 11.5927 28.0293 10.3409 26.4905 10.3409H24.7498V7.37211C24.7498 6.59672 24.119 5.96586 23.3436 5.96586H21.7029V4.47656C21.7029 3.42117 22.5615 2.5625 23.617 2.5625H31.1204C30.9468 3.45172 30.1617 4.125 29.2225 4.125H26.7029C26.2715 4.125 25.9217 4.47477 25.9217 4.90625C25.9217 5.33773 26.2715 5.6875 26.7029 5.6875H29.2225C31.1502 5.6875 32.7186 4.11922 32.7186 2.19141V1.78125C32.7186 1.34977 32.3687 1 31.9373 1H23.617C21.7001 1 20.1404 2.55961 20.1404 4.47656V5.96586H18.6561C17.8807 5.96586 17.2498 6.59672 17.2498 7.37211V10.3409H15.5091C13.9704 10.3409 12.7186 11.5927 12.7186 13.1314V14.7159H12.2498C10.4405 14.7159 8.96856 16.1878 8.96856 17.9971V24.4938L6.73716 25.3541C6.36091 25.4991 6.15685 25.9069 6.2663 26.2951L9.88364 39.1223C9.46247 38.9373 9.07474 38.6745 8.73974 38.3395C8.59325 38.1931 8.3945 38.1107 8.18731 38.1107C7.98013 38.1107 7.78138 38.1931 7.63489 38.3395C6.92685 39.0476 5.98552 39.4375 4.98419 39.4375C3.98286 39.4375 3.04153 39.0476 2.33349 38.3395C2.02849 38.0345 1.53396 38.0345 1.22856 38.3395C0.923486 38.6446 0.923486 39.1393 1.22856 39.4444C2.23185 40.4476 3.56552 41 4.98419 41C6.15599 41 7.26981 40.6231 8.18731 39.9266C9.10481 40.6231 10.2186 41 11.3904 41C12.5622 41 13.6761 40.6231 14.5936 39.9266C15.5111 40.6231 16.6249 41 17.7967 41C18.9685 41 20.0823 40.6231 20.9998 39.9266C21.9173 40.6231 23.0311 41 24.2029 41C25.3747 41 26.4886 40.6231 27.4061 39.9266C28.3236 40.6231 29.4374 41 30.6092 41C31.781 41 32.8948 40.6231 33.8123 39.9266C34.7298 40.6231 35.8436 41 37.0154 41C38.4341 41 39.7678 40.4476 40.771 39.4444C41.0761 39.1393 41.0761 38.6446 40.7711 38.3395ZM18.8123 7.52836H23.1873V10.3409H18.8123V7.52836ZM14.2811 13.1313C14.2811 12.4542 14.832 11.9033 15.5091 11.9033H18.0311H23.9686H26.4905C27.1676 11.9033 27.7186 12.4541 27.7186 13.1313V14.7158H14.2811V13.1313ZM10.5311 17.9971C10.5311 17.0494 11.3021 16.2784 12.2498 16.2784H29.7498C30.6975 16.2784 31.4686 17.0494 31.4686 17.9971V23.8913L21.2809 19.9634C21.1 19.8937 20.8997 19.8937 20.7188 19.9634L10.5311 23.8913V17.9971ZM30.4051 39.4317C29.4805 39.3824 28.6181 38.9993 27.9584 38.3396C27.8121 38.1931 27.6133 38.1107 27.4061 38.1107C27.1989 38.1107 27.0001 38.1931 26.8536 38.3395C26.1456 39.0476 25.2043 39.4375 24.2029 39.4375C23.3058 39.4375 22.4572 39.1236 21.7811 38.5491V28.1663C21.7811 27.7348 21.4312 27.3851 20.9998 27.3851C20.5684 27.3851 20.2186 27.7348 20.2186 28.1663V38.5491C19.5424 39.1236 18.6939 39.4375 17.7967 39.4375C16.7954 39.4375 15.854 39.0476 15.146 38.3395C14.9995 38.1931 14.8008 38.1107 14.5936 38.1107C14.3864 38.1107 14.1876 38.1931 14.0411 38.3395C13.3815 38.9992 12.519 39.3824 11.5944 39.4316L9.3345 31.418L15.0048 29.2318C15.4073 29.0766 15.6079 28.6244 15.4526 28.2218C15.2975 27.8191 14.8451 27.6187 14.4426 27.7739L8.90849 29.9076L7.96333 26.5559L20.9998 21.5297L34.0363 26.5559L33.0911 29.9076L27.4548 27.7345C27.0521 27.5792 26.6 27.7798 26.4448 28.1823C26.2896 28.5849 26.49 29.0371 26.8926 29.1923L32.6651 31.418L30.4051 39.4317Z" stroke="#EC663B" stroke-width="0.4" mask="url(#path-1-outside-1)"/>
<path d="M20.9998 24.1471C21.2318 24.1471 21.4587 24.2412 21.6227 24.4052C21.6227 24.4053 21.6227 24.4053 21.6227 24.4053C21.6227 24.4053 21.6227 24.4053 21.6228 24.4053C21.7869 24.5693 21.881 24.7963 21.881 25.0283C21.881 25.2612 21.7867 25.4874 21.6228 25.6514L20.9998 24.1471ZM20.9998 24.1471C20.7677 24.1471 20.5407 24.2412 20.3767 24.4053M20.9998 24.1471L20.3767 24.4053M20.3767 24.4053C20.2127 24.5693 20.1185 24.7963 20.1185 25.0283M20.3767 24.4053L20.1185 25.0283M20.1185 25.0283C20.1185 25.2603 20.2126 25.4873 20.3767 25.6514M20.1185 25.0283L20.3767 25.6514M20.3767 25.6514C20.5408 25.8154 20.7677 25.9096 20.9998 25.9096M20.3767 25.6514L20.9998 25.9096M20.9998 25.9096C21.2318 25.9096 21.4588 25.8154 21.6227 25.6514L20.9998 25.9096Z" fill="#EC663B" stroke="#EC663B" stroke-width="0.2"/>
<path d="M15.8176 18.3482H13.6301C13.1435 18.3482 12.7489 18.7428 12.7489 19.2295C12.7489 19.7162 13.1435 20.1107 13.6301 20.1107H15.8176C16.3043 20.1107 16.6989 19.7162 16.6989 19.2295C16.6989 18.7428 16.3043 18.3482 15.8176 18.3482Z" fill="#EC663B" stroke="#EC663B" stroke-width="0.2"/>
<path d="M28.4998 18.3482H26.3123C25.8256 18.3482 25.431 18.7428 25.431 19.2295C25.431 19.7162 25.8256 20.1107 26.3123 20.1107H28.4998C28.9864 20.1107 29.381 19.7162 29.381 19.2295C29.381 18.7428 28.9864 18.3482 28.4998 18.3482Z" fill="#EC663B" stroke="#EC663B" stroke-width="0.2"/>
</svg>
