<svg width="39" height="42" viewBox="0 0 39 42" fill="none" xmlns="http://www.w3.org/2000/svg">
<path d="M33.798 10.3872V10.4872H33.898H35.5028H35.6028V10.3872V3.40625C35.6028 2.02705 34.4748 0.899023 33.0956 0.899023H5.7334C4.3542 0.899023 3.22617 2.02705 3.22617 3.40625V10.3872V10.4872H3.32617H4.93099H5.03099V10.3872V3.40625C5.03099 3.02015 5.3473 2.70384 5.7334 2.70384H33.0956C33.4816 2.70384 33.798 3.02015 33.798 3.40625V10.3872Z" fill="#EC663B" stroke="#EC663B" stroke-width="0.2"/>
<path d="M4.1294 19.4342C5.06728 19.4342 5.83422 18.6672 5.83422 17.7293V12.9149C5.83422 11.977 5.06728 11.2101 4.1294 11.2101H2.60482C1.66694 11.2101 0.9 11.977 0.9 12.9149V17.7293C0.9 18.6672 1.66694 19.4342 2.60482 19.4342H4.1294ZM2.70482 13.0149H4.0294V17.6293H2.70482V13.0149Z" fill="#EC663B" stroke="#EC663B" stroke-width="0.2"/>
<path d="M23.8678 21.7618H14.9611C13.7825 21.7618 12.8551 22.6892 12.8551 23.8678V27.7996C12.8551 28.9782 13.7825 29.9057 14.9611 29.9057H23.8678C25.0464 29.9057 25.9739 28.9782 25.9739 27.7996V23.8678C25.9739 22.6892 25.0464 21.7618 23.8678 21.7618ZM24.1691 27.7996C24.1691 27.8973 24.1369 27.9709 24.088 28.0198C24.0391 28.0687 23.9655 28.1009 23.8678 28.1009H14.9611C14.8635 28.1009 14.7899 28.0687 14.7409 28.0198C14.692 27.9709 14.6599 27.8973 14.6599 27.7996V23.8678C14.6599 23.7702 14.692 23.6966 14.7409 23.6477C14.7899 23.5987 14.8635 23.5666 14.9611 23.5666H23.8678C23.9655 23.5666 24.0391 23.5987 24.088 23.6477C24.1369 23.6966 24.1691 23.7702 24.1691 23.8678V27.7996Z" fill="#EC663B" stroke="#EC663B" stroke-width="0.2"/>
<path d="M9.82593 24.9312H6.61629C5.67841 24.9312 4.91147 25.6982 4.91147 26.6361V28.2008C4.91147 29.1386 5.67841 29.9056 6.61629 29.9056H9.82593C10.7638 29.9056 11.5307 29.1386 11.5307 28.2008V26.6361C11.5307 25.6982 10.7638 24.9312 9.82593 24.9312ZM6.71629 28.1008V26.7361H9.72593V28.1008H6.71629Z" fill="#EC663B" stroke="#EC663B" stroke-width="0.2"/>
<path d="M32.2534 24.9312H29.0438C28.1059 24.9312 27.339 25.6982 27.339 26.6361V28.2008C27.339 29.1386 28.1059 29.9056 29.0438 29.9056H32.2534C33.1913 29.9056 33.9582 29.1386 33.9582 28.2008V26.6361C33.9582 25.6982 33.1913 24.9312 32.2534 24.9312ZM29.1438 28.1008V26.7361H32.1534V28.1008H29.1438Z" fill="#EC663B" stroke="#EC663B" stroke-width="0.2"/>
<path d="M36.3049 11.2101H34.7804C33.8425 11.2101 33.0755 11.977 33.0755 12.9149V17.7293C33.0755 18.6672 33.8425 19.4342 34.7804 19.4342H36.3049C37.2428 19.4342 38.0098 18.6672 38.0098 17.7293V12.9149C38.0098 11.977 37.2428 11.2101 36.3049 11.2101ZM34.8804 17.6293V13.0149H36.2049V17.6293H34.8804Z" fill="#EC663B" stroke="#EC663B" stroke-width="0.2"/>
<path d="M5.03195 21.7617H5.03181V20.2568V20.1568H4.93181H3.32699H3.22699V20.2568V22.2461C2.2619 22.8318 1.62217 23.892 1.62217 25.1114V31.4906V33.0954V35.4625V37.0673V38.2308C1.62217 39.8106 2.91067 41.0991 4.49048 41.0991H7.66C9.2398 41.0991 10.5283 39.8106 10.5283 38.2308V37.1673H28.1819V38.2308C28.1819 39.8116 29.4714 41.0991 31.0903 41.0991H34.3C35.8798 41.0991 37.1683 39.8106 37.1683 38.2308V37.0673V35.4625V33.0954V31.4906V25.1533C37.2084 23.932 36.5681 22.8716 35.6036 22.2862V20.2568V20.1568H35.5036H33.8988H33.7988V20.2568V21.7617H33.7986H33.7984H33.7982H33.7979H33.7977H33.7975H33.7972H33.797H33.7968H33.7965H33.7963H33.7961H33.7958H33.7956H33.7953H33.7951H33.7949H33.7946H33.7944H33.7942H33.7939H33.7937H33.7935H33.7932H33.793H33.7928H33.7925H33.7923H33.7921H33.7918H33.7916H33.7913H33.7911H33.7909H33.7906H33.7904H33.7902H33.7899H33.7897H33.7895H33.7892H33.789H33.7888H33.7885H33.7883H33.7881H33.7878H33.7876H33.7874H33.7871H33.7869H33.7866H33.7864H33.7862H33.7859H33.7857H33.7855H33.7852H33.785H33.7848H33.7845H33.7843H33.7841H33.7838H33.7836H33.7834H33.7831H33.7829H33.7826H33.7824H33.7822H33.7819H33.7817H33.7815H33.7812H33.781H33.7808H33.7805H33.7803H33.7801H33.7798H33.7796H33.7794H33.7791H33.7789H33.7787H33.7784H32.3802L30.8694 11.5833C30.8677 11.317 30.7751 10.9343 30.3602 10.5187C29.6951 9.79246 28.4343 9.25652 26.611 8.8999C24.7817 8.54209 22.3673 8.36143 19.3752 8.36143C16.3034 8.36143 13.8395 8.52198 12.0008 8.84437C11.0814 9.00558 10.3156 9.20771 9.70714 9.45187C9.09955 9.69567 8.64226 9.98396 8.34703 10.3214C8.05357 10.6567 7.96306 10.9974 7.96123 11.2228L6.52953 21.7617H5.05217H5.05193H5.0517H5.05146H5.05123H5.05099H5.05076H5.05052H5.05029H5.05005H5.04982H5.04958H5.04935H5.04911H5.04888H5.04864H5.04841H5.04817H5.04794H5.0477H5.04747H5.04723H5.047H5.04676H5.04653H5.04629H5.04605H5.04582H5.04558H5.04535H5.04511H5.04488H5.04464H5.04441H5.04417H5.04394H5.0437H5.04347H5.04323H5.043H5.04276H5.04253H5.04229H5.04206H5.04182H5.04159H5.04135H5.04112H5.04088H5.04065H5.04041H5.04018H5.03994H5.03971H5.03947H5.03924H5.039H5.03877H5.03853H5.0383H5.03806H5.03783H5.03759H5.03736H5.03712H5.03689H5.03665H5.03642H5.03618H5.03595H5.03571H5.03548H5.03524H5.03501H5.03477H5.03454H5.0343H5.03407H5.03383H5.0336H5.03336H5.03313H5.03289H5.03266H5.03242H5.03219H5.03195ZM8.80373 38.1308H8.76361V38.2308C8.76361 38.8175 8.28682 39.2943 7.70012 39.2943H4.5306C3.9439 39.2943 3.46711 38.8175 3.46711 38.2308V37.1673H8.80373V38.1308ZM8.08001 23.4802L8.62687 19.535C10.1288 19.8557 13.3398 20.2766 19.4153 20.2766C25.5314 20.2766 28.7434 19.8555 30.2449 19.5348L30.831 23.4812L30.8436 23.5665H30.9299H33.7784C34.646 23.5665 35.3635 24.284 35.3635 25.1515V31.3906H3.42699V25.1515C3.42699 24.284 4.1445 23.5665 5.01205 23.5665H7.98096H8.06806L8.08001 23.4802ZM19.4153 10.1662C23.6232 10.1662 26.0302 10.5371 27.3971 10.9247C28.6593 11.2827 29.0274 11.6531 29.1098 11.7523L30.0146 17.6925C28.7606 17.9714 25.6769 18.3915 19.4554 18.3915C13.2385 18.3915 10.191 17.9339 8.93499 17.6894L9.76105 11.4743C9.87334 11.3593 10.3006 11.0464 11.6134 10.7557C13.0078 10.4469 15.3869 10.1662 19.4153 10.1662ZM35.4036 38.2308C35.4036 38.8175 34.9268 39.2943 34.3401 39.2943H31.1706C30.5795 39.2943 30.067 38.8132 30.067 38.2308V37.1673H35.4036V38.2308ZM35.4036 35.3224H28.3622H10.4684H3.42699V33.1954H35.4036V35.3224Z" fill="#EC663B" stroke="#EC663B" stroke-width="0.2"/>
</svg>
