<svg width="592" height="339" viewBox="0 0 592 339" fill="none" xmlns="http://www.w3.org/2000/svg">
<path d="M536.385 131.589C449.233 2.91774 166.247 107.775 57.7745 289.934" stroke="#EC663B" stroke-width="4" stroke-linecap="round" stroke-linejoin="round" stroke-dasharray="2.38 9.52"/>
<path opacity="0.4" d="M108.057 263.552C108.057 285.448 58.9925 293.642 58.9925 293.642C58.9925 293.642 48.075 285.448 48.075 263.552C48.075 255.72 61.5024 248.642 78.066 248.642C94.6297 248.642 108.057 254.56 108.057 263.552Z" fill="#878894"/>
<path d="M88.0394 243.642C88.0394 266.142 58.0483 293.642 58.0483 293.642C58.0483 293.642 28.0573 266.142 28.0573 243.642C28.0573 227.074 41.4847 213.642 58.0483 213.642C74.6119 213.642 88.0394 227.074 88.0394 243.642Z" fill="#2C2F49"/>
<ellipse cx="58.0498" cy="243.642" rx="24.9926" ry="25" fill="#EC663B"/>
<path d="M62.7416 242.752C63.7613 243.192 64.5711 243.862 65.1709 244.762C65.7907 245.642 66.1006 246.652 66.1006 247.792C66.1006 249.412 65.5308 250.792 64.3912 251.932C63.2515 253.072 61.8719 253.642 60.2524 253.642L51.1051 253.642L51.1051 232.642L59.5626 232.642C61.1221 232.642 62.4517 233.202 63.5514 234.322C64.6511 235.422 65.2009 236.742 65.2009 238.282C65.2009 240.242 64.3812 241.732 62.7416 242.752ZM59.5626 234.622L53.2045 234.622L53.2045 241.942L59.5626 241.942C60.5423 241.942 61.372 241.592 62.0518 240.892C62.7516 240.172 63.1015 239.302 63.1015 238.282C63.1015 237.282 62.7516 236.422 62.0518 235.702C61.372 234.982 60.5423 234.622 59.5626 234.622ZM60.2524 251.662C61.2921 251.662 62.1718 251.292 62.8916 250.552C63.6314 249.792 64.0013 248.872 64.0013 247.792C64.0013 246.732 63.6314 245.822 62.8916 245.062C62.1718 244.302 61.2921 243.922 60.2524 243.922L53.2045 243.922L53.2045 251.662L60.2524 251.662Z" fill="white"/>
<path opacity="0.4" d="M585.668 107.016C585.668 128.911 536.603 137.105 536.603 137.105C536.603 137.105 525.685 128.911 525.685 107.016C525.685 99.1835 539.113 92.1052 555.676 92.1052C572.24 92.1052 585.668 98.0232 585.668 107.016Z" fill="#878894"/>
<path d="M565.65 87.1052C565.65 109.605 535.659 137.105 535.659 137.105C535.659 137.105 505.668 109.605 505.668 87.1052C505.668 70.5367 519.095 57.1052 535.659 57.1052C552.222 57.1052 565.65 70.5367 565.65 87.1052Z" fill="#2C2F49"/>
<ellipse cx="535.659" cy="87.1055" rx="24.9925" ry="25" fill="#EC663B"/>
<path d="M542.545 97.1052L540.596 91.9452L530.638 91.9452L528.689 97.1052L526.47 97.1052L534.537 76.1052L536.697 76.1052L544.764 97.1052L542.545 97.1052ZM531.388 89.9652L539.846 89.9652L535.617 78.7152L531.388 89.9652Z" fill="white"/>
<path d="M26.6742 318.737L26.6742 329.937L25.5542 329.937L25.5542 320.433L21.6342 326.993L21.4742 326.993L17.5542 320.433L17.5542 329.937L16.4342 329.937L16.4342 318.737L17.8262 318.737L21.5542 324.977L25.2822 318.737L26.6742 318.737ZM41.6951 328.449C40.5751 329.569 39.2044 330.129 37.5831 330.129C35.9617 330.129 34.5911 329.569 33.4711 328.449C32.3511 327.319 31.7911 325.948 31.7911 324.337C31.7911 322.727 32.3511 321.361 33.4711 320.241C34.5911 319.111 35.9617 318.545 37.5831 318.545C39.2044 318.545 40.5751 319.111 41.6951 320.241C42.8151 321.361 43.3751 322.727 43.3751 324.337C43.3751 325.948 42.8151 327.319 41.6951 328.449ZM34.2551 327.681C35.1511 328.588 36.2604 329.041 37.5831 329.041C38.9057 329.041 40.0151 328.588 40.9111 327.681C41.8071 326.764 42.2551 325.649 42.2551 324.337C42.2551 323.025 41.8071 321.916 40.9111 321.009C40.0151 320.092 38.9057 319.633 37.5831 319.633C36.2604 319.633 35.1511 320.092 34.2551 321.009C33.3591 321.916 32.9111 323.025 32.9111 324.337C32.9111 325.649 33.3591 326.764 34.2551 327.681ZM53.7224 330.129C52.0264 330.129 50.6238 329.569 49.5144 328.449C48.4051 327.329 47.8504 325.959 47.8504 324.337C47.8504 322.716 48.4051 321.345 49.5144 320.225C50.6238 319.105 52.0264 318.545 53.7224 318.545C54.7571 318.545 55.7064 318.796 56.5704 319.297C57.4344 319.788 58.1011 320.455 58.5704 321.297L57.5784 321.873C57.2264 321.191 56.7038 320.647 56.0104 320.241C55.3171 319.836 54.5544 319.633 53.7224 319.633C52.3251 319.633 51.1838 320.087 50.2984 320.993C49.4131 321.9 48.9704 323.015 48.9704 324.337C48.9704 325.66 49.4131 326.775 50.2984 327.681C51.1838 328.588 52.3251 329.041 53.7224 329.041C54.5544 329.041 55.3171 328.839 56.0104 328.433C56.7038 328.028 57.2264 327.484 57.5784 326.801L58.5704 327.361C58.1118 328.204 57.4451 328.876 56.5704 329.377C55.7064 329.879 54.7571 330.129 53.7224 330.129ZM71.4523 329.937L69.9803 329.937L64.7323 324.513L64.7323 329.937L63.6123 329.937L63.6123 318.737L64.7323 318.737L64.7323 323.857L69.8203 318.737L71.2923 318.737L65.9163 324.177L71.4523 329.937ZM82.3016 324.129C82.8456 324.364 83.2776 324.721 83.5976 325.201C83.9282 325.671 84.0936 326.209 84.0936 326.817C84.0936 327.681 83.7896 328.417 83.1816 329.025C82.5736 329.633 81.8376 329.937 80.9736 329.937L76.0936 329.937L76.0936 318.737L80.6056 318.737C81.4376 318.737 82.1469 319.036 82.7336 319.633C83.3202 320.22 83.6136 320.924 83.6136 321.745C83.6136 322.791 83.1762 323.585 82.3016 324.129ZM80.6056 319.793L77.2136 319.793L77.2136 323.697L80.6056 323.697C81.1282 323.697 81.5709 323.511 81.9336 323.137C82.3069 322.753 82.4936 322.289 82.4936 321.745C82.4936 321.212 82.3069 320.753 81.9336 320.369C81.5709 319.985 81.1282 319.793 80.6056 319.793ZM80.9736 328.881C81.5282 328.881 81.9976 328.684 82.3816 328.289C82.7762 327.884 82.9736 327.393 82.9736 326.817C82.9736 326.252 82.7762 325.767 82.3816 325.361C81.9976 324.956 81.5282 324.753 80.9736 324.753L77.2136 324.753L77.2136 328.881L80.9736 328.881ZM96.6714 329.937L95.6314 327.185L90.3194 327.185L89.2794 329.937L88.0954 329.937L92.3994 318.737L93.5514 318.737L97.8554 329.937L96.6714 329.937ZM90.7194 326.129L95.2314 326.129L92.9754 320.129L90.7194 326.129Z" fill="#2C2F49"/>
<path d="M506.799 159.2L507.919 159.2L507.919 170.4L495.279 170.4L495.279 159.2L496.399 159.2L496.399 169.344L501.039 169.344L501.039 159.2L502.159 159.2L502.159 169.344L506.799 169.344L506.799 159.2ZM521.138 170.4L520.098 167.648L514.786 167.648L513.746 170.4L512.562 170.4L516.866 159.2L518.018 159.2L522.322 170.4L521.138 170.4ZM515.186 166.592L519.698 166.592L517.442 160.592L515.186 166.592ZM534.16 159.2L535.28 159.2L535.28 170.4L534.16 170.4L534.16 165.168L528.08 165.168L528.08 170.4L526.96 170.4L526.96 159.2L528.08 159.2L528.08 164.112L534.16 164.112L534.16 159.2ZM548.715 170.4L547.435 170.4L544.395 165.616L541.355 170.4L540.075 170.4L543.755 164.624L540.315 159.2L541.579 159.2L544.395 163.616L547.211 159.2L548.475 159.2L545.035 164.624L548.715 170.4ZM560.972 170.4L559.932 167.648L554.62 167.648L553.58 170.4L552.396 170.4L556.7 159.2L557.852 159.2L562.156 170.4L560.972 170.4ZM555.02 166.592L559.532 166.592L557.276 160.592L555.02 166.592ZM568.875 157.92L568.875 156.992L573.035 156.992L573.035 157.92L568.875 157.92ZM573.995 170.4L573.995 161.28L567.755 170.4L566.795 170.4L566.795 159.2L567.915 159.2L567.915 168.32L574.155 159.2L575.115 159.2L575.115 170.4L573.995 170.4Z" fill="#2C2F49"/>
<path d="M195.27 4.10151C196.272 4.10151 197.11 4.43751 197.782 5.10951C198.454 5.78151 198.79 6.61885 198.79 7.62151C198.79 8.62418 198.454 9.46151 197.782 10.1335C197.11 10.8055 196.272 11.1415 195.27 11.1415H192.39V15.3015H191.27V4.10151H195.27ZM195.27 10.0855C195.963 10.0855 196.534 9.85618 196.982 9.39751C197.44 8.92818 197.67 8.33618 197.67 7.62151C197.67 6.90685 197.44 6.32018 196.982 5.86151C196.534 5.39218 195.963 5.15751 195.27 5.15751H192.39V10.0855H195.27ZM213.093 13.8135C211.973 14.9335 210.602 15.4935 208.981 15.4935C207.36 15.4935 205.989 14.9335 204.869 13.8135C203.749 12.6828 203.189 11.3122 203.189 9.70151C203.189 8.09085 203.749 6.72551 204.869 5.60551C205.989 4.47485 207.36 3.90951 208.981 3.90951C210.602 3.90951 211.973 4.47485 213.093 5.60551C214.213 6.72551 214.773 8.09085 214.773 9.70151C214.773 11.3122 214.213 12.6828 213.093 13.8135ZM205.653 13.0455C206.549 13.9522 207.658 14.4055 208.981 14.4055C210.304 14.4055 211.413 13.9522 212.309 13.0455C213.205 12.1282 213.653 11.0135 213.653 9.70151C213.653 8.38951 213.205 7.28018 212.309 6.37351C211.413 5.45618 210.304 4.99751 208.981 4.99751C207.658 4.99751 206.549 5.45618 205.653 6.37351C204.757 7.28018 204.309 8.38951 204.309 9.70151C204.309 11.0135 204.757 12.1282 205.653 13.0455ZM225.12 15.4935C223.424 15.4935 222.022 14.9335 220.912 13.8135C219.803 12.6935 219.248 11.3228 219.248 9.70151C219.248 8.08018 219.803 6.70951 220.912 5.58951C222.022 4.46951 223.424 3.90951 225.12 3.90951C226.155 3.90951 227.104 4.16018 227.968 4.66151C228.832 5.15218 229.499 5.81885 229.968 6.66151L228.976 7.23751C228.624 6.55485 228.102 6.01085 227.408 5.60551C226.715 5.20018 225.952 4.99751 225.12 4.99751C223.723 4.99751 222.582 5.45085 221.696 6.35751C220.811 7.26418 220.368 8.37885 220.368 9.70151C220.368 11.0242 220.811 12.1388 221.696 13.0455C222.582 13.9522 223.723 14.4055 225.12 14.4055C225.952 14.4055 226.715 14.2028 227.408 13.7975C228.102 13.3922 228.624 12.8482 228.976 12.1655L229.968 12.7255C229.51 13.5682 228.843 14.2402 227.968 14.7415C227.104 15.2428 226.155 15.4935 225.12 15.4935ZM240.242 15.4935C238.546 15.4935 237.144 14.9335 236.034 13.8135C234.925 12.6935 234.37 11.3228 234.37 9.70151C234.37 8.08018 234.925 6.70951 236.034 5.58951C237.144 4.46951 238.546 3.90951 240.242 3.90951C241.277 3.90951 242.226 4.16018 243.09 4.66151C243.954 5.15218 244.621 5.81885 245.09 6.66151L244.098 7.23751C243.746 6.55485 243.224 6.01085 242.53 5.60551C241.837 5.20018 241.074 4.99751 240.242 4.99751C238.845 4.99751 237.704 5.45085 236.818 6.35751C235.933 7.26418 235.49 8.37885 235.49 9.70151C235.49 11.0242 235.933 12.1388 236.818 13.0455C237.704 13.9522 238.845 14.4055 240.242 14.4055C241.074 14.4055 241.837 14.2028 242.53 13.7975C243.224 13.3922 243.746 12.8482 244.098 12.1655L245.09 12.7255C244.632 13.5682 243.965 14.2402 243.09 14.7415C242.226 15.2428 241.277 15.4935 240.242 15.4935ZM257.332 15.3015V6.18151L251.092 15.3015H250.132V4.10151H251.252V13.2215L257.492 4.10151H258.452V15.3015H257.332ZM271.567 4.10151V15.3015H270.447V10.8215L267.759 10.8215L264.687 15.3015H263.407L266.527 10.7735C265.727 10.6348 265.061 10.2562 264.527 9.63751C263.994 9.00818 263.727 8.28285 263.727 7.46151C263.727 6.53351 264.053 5.74418 264.703 5.09351C265.365 4.43218 266.159 4.10151 267.087 4.10151H271.567ZM267.087 9.76551L270.447 9.76551V5.15751H267.087C266.469 5.15751 265.941 5.38151 265.503 5.82951C265.066 6.27751 264.847 6.82151 264.847 7.46151C264.847 8.09085 265.066 8.63485 265.503 9.09351C265.941 9.54151 266.469 9.76551 267.087 9.76551Z" fill="#C3C4D4"/>
<path d="M393.367 205.405H391.895L386.647 199.981V205.405H385.527V194.205H386.647V199.325L391.735 194.205H393.207L387.831 199.645L393.367 205.405ZM405.208 205.405V196.285L398.968 205.405H398.008V194.205H399.128V203.325L405.368 194.205H406.328V205.405H405.208ZM419.123 194.205V195.261H415.683V205.405H414.563V195.261H411.123V194.205H419.123ZM430.583 205.405L429.543 202.653H424.231L423.191 205.405H422.007L426.311 194.205H427.463L431.767 205.405H430.583ZM424.631 201.597H429.143L426.887 195.597L424.631 201.597ZM438.485 192.925V191.997H442.645V192.925H438.485ZM443.605 205.405V196.285L437.365 205.405H436.405V194.205H437.525V203.325L443.765 194.205H444.725V205.405H443.605Z" fill="#F39323"/>
<circle cx="283.627" cy="97.8833" r="41" fill="white" stroke="#EC663B" stroke-width="2"/>
<path d="M284.757 114.608C284.829 114.586 284.898 114.555 284.963 114.518L289.473 111.914C289.971 111.626 290.142 110.989 289.854 110.491C289.567 109.993 288.929 109.822 288.431 110.109L284.04 112.645C283.746 112.714 282.814 112.879 282.498 112.332C282.181 111.784 282.797 111.058 282.998 110.841L284.683 109.868C285.181 109.58 285.352 108.943 285.065 108.445C284.777 107.947 284.14 107.776 283.642 108.063L281.838 109.105C281.773 109.142 281.712 109.187 281.657 109.238C280.84 109.982 279.72 111.687 280.694 113.374C281.668 115.061 283.707 114.942 284.757 114.608Z" fill="url(#paint0_linear)"/>
<path d="M294.336 118.699C294.408 118.677 294.477 118.647 294.542 118.609L299.052 116.005C299.55 115.717 299.721 115.08 299.433 114.582C299.146 114.084 298.508 113.913 298.011 114.201L293.619 116.736C293.325 116.805 292.393 116.97 292.077 116.424C291.76 115.875 292.376 115.149 292.577 114.932L294.262 113.959C294.76 113.671 294.931 113.034 294.644 112.536C294.356 112.038 293.719 111.867 293.221 112.155L291.417 113.196C291.352 113.234 291.291 113.278 291.236 113.329C290.419 114.073 289.299 115.778 290.273 117.465C291.247 119.152 293.286 119.034 294.336 118.699Z" fill="url(#paint1_linear)"/>
<path d="M264.989 112.664C269.682 113.818 278.079 108.958 280.353 107.576L299.008 115.945C300.528 116.628 302.299 116.537 303.742 115.703L304.604 115.205C304.861 115.057 305.043 114.806 305.103 114.518C305.163 114.231 305.099 113.929 304.926 113.692L293.826 98.4206L299.302 94.2754L307.347 96.4311C307.614 96.501 307.898 96.4643 308.138 96.3258L309.942 95.2841C310.22 95.1237 310.408 94.8445 310.453 94.5273C310.499 94.2101 310.394 93.8878 310.171 93.6585L304.289 87.5759L303.376 85.9937L301.048 77.8571C300.958 77.548 300.734 77.2972 300.437 77.1779C300.139 77.0586 299.804 77.0815 299.526 77.2419L297.722 78.2835C297.482 78.422 297.308 78.65 297.236 78.9175L295.08 86.9628L288.753 89.6322L281.077 72.384C280.959 72.1129 280.731 71.9082 280.449 71.816C280.167 71.7237 279.861 71.7561 279.605 71.904L278.742 72.4019C277.299 73.2353 276.336 74.722 276.166 76.3815L274.087 96.7213C271.756 97.9925 263.345 102.841 261.998 107.483C261.655 108.664 261.768 109.761 262.335 110.742C262.902 111.724 263.794 112.37 264.989 112.664ZM263.997 108.067C265.039 104.471 272.68 99.7944 275.55 98.3015C275.85 98.1547 276.067 97.8317 276.102 97.4843L278.238 76.595C278.333 75.6522 278.856 74.8041 279.645 74.291L287.266 91.4118C287.496 91.9309 288.099 92.1673 288.622 91.9474L296.359 88.6829C296.399 88.6675 296.438 88.6474 296.475 88.6255C296.714 88.488 296.889 88.2619 296.96 87.9943L299.137 79.8722L299.411 79.7138L301.408 86.6894C301.431 86.7702 301.464 86.8494 301.507 86.9233L302.549 88.7275C302.591 88.8015 302.643 88.8702 302.702 88.9302L307.744 94.1475L307.47 94.3058L299.352 92.1292C299.042 92.0461 298.718 92.1132 298.453 92.3046L291.757 97.3734C291.304 97.7141 291.208 98.3564 291.543 98.8152L302.559 113.976C301.721 114.402 300.725 114.431 299.86 114.042L280.7 105.448C280.381 105.303 280.011 105.307 279.716 105.518C277 107.243 269.127 111.536 265.485 110.641C264.847 110.485 264.419 110.186 264.139 109.701C263.859 109.215 263.814 108.695 263.997 108.067Z" fill="url(#paint2_linear)"/>
<path d="M273.299 94.7612C273.37 94.7392 273.439 94.7089 273.504 94.6714L275.308 93.6297C275.806 93.3422 275.977 92.7047 275.69 92.2068C275.402 91.7088 274.765 91.538 274.267 91.8255L272.581 92.7984C272.287 92.8674 271.355 93.0325 271.039 92.4858C270.723 91.9374 271.338 91.2116 271.54 90.9941L275.931 88.4587C276.429 88.1712 276.6 87.5337 276.312 87.0357C276.025 86.5377 275.387 86.3669 274.89 86.6544L270.379 89.2586C270.314 89.2961 270.253 89.3407 270.198 89.3917C269.382 90.1352 268.261 91.8404 269.235 93.5274C270.209 95.2144 272.248 95.0958 273.299 94.7612Z" fill="url(#paint3_linear)"/>
<path d="M274.545 84.4192C274.616 84.3972 274.685 84.3669 274.75 84.3294L276.555 83.2877C277.053 83.0002 277.223 82.3627 276.936 81.8647C276.648 81.3667 276.011 81.1959 275.513 81.4834L273.828 82.4563C273.533 82.5253 272.601 82.6905 272.286 82.1438C271.969 81.5953 272.584 80.8695 272.786 80.652L277.178 78.1166C277.676 77.8291 277.846 77.1916 277.559 76.6936C277.271 76.1957 276.634 76.0249 276.136 76.3124L271.625 78.9165C271.56 78.954 271.5 78.9987 271.445 79.0496C270.628 79.7931 269.508 81.4984 270.481 83.1854C271.455 84.8723 273.494 84.7538 274.545 84.4192Z" fill="url(#paint4_linear)"/>
<path d="M271.782 108.86C272.332 108.708 272.652 108.132 272.496 107.579C272.342 107.028 271.768 106.705 271.215 106.856C271.202 106.859 269.903 107.183 269.552 106.575C269.201 105.967 270.131 105.004 270.136 104.999C270.549 104.599 270.561 103.94 270.161 103.526C269.823 103.173 269.297 103.114 268.893 103.347C268.819 103.39 268.75 103.441 268.689 103.501C267.898 104.265 266.81 105.993 267.747 107.617C268.685 109.241 270.725 109.162 271.782 108.86Z" fill="url(#paint5_linear)"/>
<defs>
<linearGradient id="paint0_linear" x1="287.25" y1="105.98" x2="279.479" y2="110.467" gradientUnits="userSpaceOnUse">
<stop offset="0.151042" stop-color="#F39324"/>
<stop offset="1" stop-color="#EC663B"/>
</linearGradient>
<linearGradient id="paint1_linear" x1="296.829" y1="110.071" x2="289.058" y2="114.558" gradientUnits="userSpaceOnUse">
<stop offset="0.151042" stop-color="#F39324"/>
<stop offset="1" stop-color="#EC663B"/>
</linearGradient>
<linearGradient id="paint2_linear" x1="293.137" y1="64.0913" x2="251.691" y2="88.0202" gradientUnits="userSpaceOnUse">
<stop offset="0.151042" stop-color="#F39324"/>
<stop offset="1" stop-color="#EC663B"/>
</linearGradient>
<linearGradient id="paint3_linear" x1="275.792" y1="86.1335" x2="268.021" y2="90.6202" gradientUnits="userSpaceOnUse">
<stop offset="0.151042" stop-color="#F39324"/>
<stop offset="1" stop-color="#EC663B"/>
</linearGradient>
<linearGradient id="paint4_linear" x1="277.038" y1="75.7915" x2="269.267" y2="80.2782" gradientUnits="userSpaceOnUse">
<stop offset="0.151042" stop-color="#F39324"/>
<stop offset="1" stop-color="#EC663B"/>
</linearGradient>
<linearGradient id="paint5_linear" x1="269.794" y1="102.827" x2="266.34" y2="104.821" gradientUnits="userSpaceOnUse">
<stop offset="0.151042" stop-color="#F39324"/>
<stop offset="1" stop-color="#EC663B"/>
</linearGradient>
</defs>
</svg>
