<svg width="48" height="26" viewBox="0 0 48 26" fill="none" xmlns="http://www.w3.org/2000/svg">
<path d="M15.0065 11.1471C13.6155 11.1471 12.5438 11.6931 11.8141 12.8079V8.00732H10.3547V19.7927H11.8141V18.3366C12.5438 19.4515 13.6155 19.9975 15.0065 19.9975C16.1923 19.9975 17.1956 19.5652 18.0165 18.7006C18.8374 17.8361 19.2707 16.7895 19.2707 15.5609C19.2707 14.3323 18.8602 13.2857 18.0165 12.4212C17.1956 11.5793 16.1923 11.1471 15.0065 11.1471ZM16.9448 17.7223C16.3747 18.2911 15.6678 18.5869 14.8241 18.5869C13.9804 18.5869 13.2507 18.2911 12.6806 17.7223C12.1106 17.1535 11.8141 16.4255 11.8141 15.5837C11.8141 14.7418 12.1106 14.0138 12.6806 13.445C13.2507 12.8762 13.9576 12.5804 14.8241 12.5804C15.6678 12.5804 16.3747 12.8762 16.9448 13.445C17.5148 14.0138 17.8113 14.7418 17.8113 15.5837C17.8113 16.4255 17.5148 17.1535 16.9448 17.7223Z" fill="#878894"/>
<path d="M22.4782 12.7861V11.3755H21.0188V19.7937H22.4782V15.3343C22.4782 14.4242 22.729 13.7417 23.2535 13.3322C23.7779 12.9226 24.3936 12.7179 25.1005 12.7634V11.239C23.8464 11.2162 22.9798 11.7395 22.4782 12.7861Z" fill="#878894"/>
<path d="M32.3643 15.8336C32.3643 16.7664 32.1363 17.4717 31.6803 17.9268C31.2242 18.3818 30.6313 18.6093 29.9016 18.6093C29.2403 18.6093 28.7387 18.4273 28.3738 18.0405C28.009 17.6538 27.8266 17.1305 27.8266 16.4479V11.3743H26.3672V16.5389C26.3672 17.6082 26.6636 18.4501 27.2565 19.0644C27.8494 19.6787 28.6475 19.9972 29.628 19.9972C30.8593 19.9972 31.7715 19.5194 32.3643 18.5638V19.7924H33.8237V11.3743H32.3643V15.8336Z" fill="#878894"/>
<path d="M40.247 15.4712L48 4.77787H47.9088L47.9316 4.73237L42.1169 0.0227518H0.228029L0.205226 0V0.0227518V0.409532L0 21.2729L5.13064 25.482L5.15344 25.4365H47.6352L40.247 15.4712ZM41.5924 1.47886L45.6513 4.77787H6.01995L2.02945 1.50162L41.5924 1.47886ZM1.6418 3.09424L5.06223 5.91546V23.5481L1.45938 20.5903L1.6418 3.09424ZM6.54442 6.25673H45.0812L39.2665 14.2881L37.123 11.3759H35.39L38.4456 15.4484L38.4228 15.4712L35.2076 19.794H36.9178L39.2665 16.6543L44.6936 23.9804H6.54442V6.25673Z" fill="#878894"/>
</svg>
