<svg width="49" height="48" viewBox="0 0 49 48" fill="none" xmlns="http://www.w3.org/2000/svg">
<rect x="14.1819" y="1.63661" width="9.27273" height="12" fill="url(#paint0_linear)"/>
<path fill-rule="evenodd" clip-rule="evenodd" d="M38.2346 21.2757H46.1609C46.9563 21.2757 47.602 21.9211 47.602 22.7168V35.6556C47.602 41.8387 42.5858 46.901 36.3567 46.901C30.4547 46.901 25.1113 42.2934 25.1113 35.2877H1.44108C0.644635 35.2877 0 34.642 0 33.8467V1.44132C0 0.644879 0.644635 0.000244141 1.44108 0.000244141H12.4586H24.9616H36.7939C37.59 0.000244141 38.2346 0.644879 38.2346 1.44132V21.2757ZM12.4586 2.88203V15.5279C12.4586 16.6697 13.7308 17.3612 14.6893 16.7333L18.7107 14.1002L22.731 16.7333C23.6833 17.3565 24.9616 16.677 24.9616 15.5279V2.88203H35.3529V21.2757H26.5524C25.756 21.2757 25.1113 21.9211 25.1113 22.7168V32.4059H2.88179V2.88203H12.4586ZM36.3567 44.0214C40.673 43.9981 44.7202 40.597 44.7202 35.6556V24.1575H27.9931V35.6556C27.9931 40.3246 31.8228 44.0453 36.3567 44.0214ZM19.4995 11.172L22.0795 12.8618V2.93154H15.3408V12.8618L17.9211 11.172C18.3998 10.8586 19.0194 10.8578 19.4995 11.172Z" fill="white"/>
<path d="M44.8246 21.9849H27.3589C26.8193 21.9849 26.3818 22.4223 26.3818 22.962V35.9085C26.504 38.9619 28.5803 45.0688 35.9085 45.0688C43.2368 45.0688 45.5574 38.9619 45.8017 35.9085V22.962C45.8017 22.4223 45.3642 21.9849 44.8246 21.9849Z" fill="url(#paint1_linear)"/>
<path fill-rule="evenodd" clip-rule="evenodd" d="M48.7336 36.0257L48.7243 36.1424C48.5645 38.1394 47.7589 41.0179 45.8012 43.465C43.751 46.0278 40.515 48.0002 35.9092 48.0002C31.2964 48.0002 28.0944 46.0189 26.1097 43.4075C24.225 40.9276 23.5334 38.0238 23.4535 36.0258L23.4512 35.9673V22.9621C23.4512 20.8036 25.201 19.0537 27.3596 19.0537H44.8252C46.9837 19.0537 48.7336 20.8036 48.7336 22.9621V36.0257ZM27.3596 21.985H44.8252C45.3648 21.985 45.8023 22.4225 45.8023 22.9621V35.9087C45.558 38.9621 43.2374 45.0689 35.9092 45.0689C28.5809 45.0689 26.5046 38.9621 26.3825 35.9087V22.9621C26.3825 22.4225 26.8199 21.985 27.3596 21.985Z" fill="white"/>
<path d="M34.7988 34.1489L32.5046 31.8551C31.9417 31.2921 31.0301 31.2921 30.4672 31.8551C29.9054 32.4165 29.9043 33.3296 30.4672 33.8925L33.7804 37.2057C34.3437 37.769 35.2542 37.7697 35.8178 37.2057L41.9842 31.0405C42.5475 30.4775 42.5475 29.5649 41.9842 29.002C41.4213 28.4398 40.509 28.4398 39.946 29.002C39.4336 29.514 35.3087 33.639 34.7988 34.1489Z" fill="white"/>
<defs>
<linearGradient id="paint0_linear" x1="14.1819" y1="13.6366" x2="23.0573" y2="13.6366" gradientUnits="userSpaceOnUse">
<stop offset="0.151042" stop-color="#F39324"/>
<stop offset="1" stop-color="#EC663B"/>
</linearGradient>
<linearGradient id="paint1_linear" x1="26.3818" y1="45.0688" x2="44.9695" y2="45.0688" gradientUnits="userSpaceOnUse">
<stop offset="0.151042" stop-color="#F39324"/>
<stop offset="1" stop-color="#EC663B"/>
</linearGradient>
</defs>
</svg>
