<svg width="48" height="48" viewBox="0 0 48 48" fill="none" xmlns="http://www.w3.org/2000/svg">
<path d="M45.2727 1.36389H18.5454L19.0909 4.09116L21.2727 4.63662L22.3636 6.54571H29.4545L30.5454 9.27298V44.1821H44.7272L47.1818 41.7275V4.09116L45.2727 1.36389Z" fill="url(#paint0_linear)"/>
<path d="M7.82326 19.5827C8.28718 20.0165 9.27348 20.1109 9.8233 19.4666L13.3433 15.4506C13.8546 14.8673 13.7957 13.9804 13.2117 13.4696C12.6279 12.959 11.7401 13.0176 11.2288 13.601L8.64973 16.5435L7.95845 15.9186C7.38286 15.3985 6.49436 15.4428 5.97358 16.0177C5.45289 16.5927 5.49729 17.4803 6.07279 18.0005L7.82326 19.5827Z" fill="url(#paint1_linear)"/>
<path d="M25.1142 17.0829H17.0058C16.2298 17.0829 15.6006 17.7114 15.6006 18.4867C15.6006 19.2621 16.2298 19.8906 17.0058 19.8906H25.1142C25.8903 19.8906 26.5195 19.2621 26.5195 18.4867C26.5195 17.7114 25.8903 17.0829 25.1142 17.0829Z" fill="white"/>
<path d="M25.1157 22.906H6.90134C6.12527 22.906 5.49609 23.5345 5.49609 24.3098C5.49609 25.0852 6.12527 25.7137 6.90134 25.7137H25.1157C25.8918 25.7137 26.5209 25.0852 26.5209 24.3098C26.5209 23.5345 25.8918 22.906 25.1157 22.906Z" fill="white"/>
<path d="M7.82326 35.6755C8.28718 36.1093 9.27348 36.2037 9.8233 35.5593L13.3433 31.5433C13.8546 30.9601 13.7957 30.0732 13.2117 29.5624C12.6279 29.0517 11.7401 29.1104 11.2288 29.6937L8.64973 32.6362L7.95845 32.0115C7.38286 31.4913 6.49427 31.5357 5.97358 32.1106C5.45289 32.6855 5.49729 33.5733 6.07279 34.0934L7.82326 35.6755Z" fill="url(#paint2_linear)"/>
<path d="M25.1142 33.1705H17.0058C16.2298 33.1705 15.6006 33.7991 15.6006 34.5744C15.6006 35.3497 16.2298 35.9782 17.0058 35.9782H25.1142C25.8903 35.9782 26.5195 35.3497 26.5195 34.5744C26.5195 33.7991 25.8903 33.1705 25.1142 33.1705Z" fill="white"/>
<path d="M25.1157 38.9103H6.90134C6.12527 38.9103 5.49609 39.5389 5.49609 40.3142C5.49609 41.0895 6.12527 41.718 6.90134 41.718H25.1157C25.8918 41.718 26.5209 41.0895 26.5209 40.3142C26.5209 39.5389 25.8918 38.9103 25.1157 38.9103Z" fill="white"/>
<path d="M44.5247 0.000244141H17.7672C17.5126 0.00146202 17.2082 0.0515825 16.9076 0.168499C16.6233 0.113976 16.3321 0.0856832 16.0366 0.0856832C14.8311 0.0856832 13.6934 0.550258 12.8333 1.39388C12.314 1.90314 11.9309 2.51611 11.7039 3.18669H10.202C9.14133 3.18669 8.2727 4.0141 8.20346 5.05651H3.24781C1.45696 5.05651 0 6.51198 0 8.30105V44.7557C0 46.5448 1.45696 48.0002 3.24781 48.0002H28.8255C30.3237 48.0002 31.5875 46.9813 31.9609 45.6009H44.7608C46.4496 45.4985 47.9842 43.9653 47.9525 42.1767V3.42446C47.9525 1.53637 46.4148 0.000244141 44.5247 0.000244141V0.000244141ZM11.0071 5.99428H12.8694C13.6345 5.99428 14.259 5.38281 14.2743 4.61864C14.2934 3.66719 15.084 2.89318 16.0366 2.89318C16.9892 2.89318 17.7798 3.66719 17.799 4.61864C17.8143 5.38281 18.4388 5.99428 19.2039 5.99428H21.0662V7.54052H11.0071V5.99428ZM29.2628 44.7556C29.2628 44.9966 29.0666 45.1926 28.8255 45.1926H3.24781C3.00667 45.1926 2.8105 44.9966 2.8105 44.7556V8.30095C2.8105 8.06009 3.00667 7.86411 3.24781 7.86411H8.19663V8.16239C8.19663 9.36763 9.17814 10.3482 10.3846 10.3482H21.6887C22.8951 10.3482 23.8767 9.36772 23.8767 8.16239V7.86411H28.8255C29.0666 7.86411 29.2628 8.06009 29.2628 8.30095V44.7556ZM45.142 42.1766C45.142 42.4897 44.9078 42.7526 44.5971 42.7881C44.5837 42.7897 44.5702 42.7914 44.5568 42.7933H32.0733V8.30095C32.0733 6.51198 30.6163 5.05642 28.8255 5.05642H23.869C23.7911 4.0127 22.9181 3.1866 21.8537 3.1866H20.3693C20.3257 3.05788 20.2745 2.93197 20.2196 2.80784H44.5247C44.8651 2.80784 45.142 3.08448 45.142 3.42446V42.1766Z" fill="white"/>
<defs>
<linearGradient id="paint0_linear" x1="18.5454" y1="44.1821" x2="45.9547" y2="44.1821" gradientUnits="userSpaceOnUse">
<stop offset="0.151042" stop-color="#F39324"/>
<stop offset="1" stop-color="#EC663B"/>
</linearGradient>
<linearGradient id="paint1_linear" x1="5.61035" y1="19.929" x2="13.345" y2="19.929" gradientUnits="userSpaceOnUse">
<stop offset="0.151042" stop-color="#F39324"/>
<stop offset="1" stop-color="#EC663B"/>
</linearGradient>
<linearGradient id="paint2_linear" x1="5.61035" y1="36.0218" x2="13.345" y2="36.0218" gradientUnits="userSpaceOnUse">
<stop offset="0.151042" stop-color="#F39324"/>
<stop offset="1" stop-color="#EC663B"/>
</linearGradient>
</defs>
</svg>
