<svg width="48" height="48" viewBox="0 0 48 48" fill="none" xmlns="http://www.w3.org/2000/svg">
<path d="M17.9011 19.5237L23.7033 14.4621C24.066 13.8595 25.9517 13.522 30.5934 16.9929C35.2352 20.4638 34.2198 24.2239 33.1319 25.6701L40.3846 31.8164L34.9451 32.901L33.1319 38.3242L27.5105 32.3695C27.4484 32.3211 27.3864 32.2533 27.3297 32.1779L27.5105 32.3695C27.8454 32.6308 28.1818 32.3311 27.6923 29.6471C27.1121 26.4655 25.2747 24.2239 24.4286 23.5008L17.9011 19.5237Z" fill="url(#paint0_linear)"/>
<ellipse rx="7.63675" ry="4.7402" transform="matrix(0.704479 0.709725 -0.71184 0.702342 8.7542 39.251)" fill="url(#paint1_linear)"/>
<path d="M47.7278 8.44147C47.2423 6.71219 46.131 4.91864 44.5987 3.3912C43.0668 1.86366 41.2678 0.755785 39.5332 0.271582C37.5264 -0.288636 35.7967 0.0248258 34.6638 1.15457L2.74032 32.9821C1.60718 34.1117 1.29277 35.8359 1.85467 37.837C2.34034 39.5663 3.45163 41.3598 4.98377 42.8873C6.51582 44.4148 8.31477 45.5227 10.0493 46.007C10.6997 46.1886 11.3209 46.2784 11.9022 46.2784C13.1144 46.2784 14.1529 45.8876 14.9187 45.1242L26.7141 33.3641L34.1644 40.792L35.8309 34.1459L42.4972 32.4844L35.0469 25.0565L46.8423 13.2965C47.9753 12.1669 48.2898 10.4426 47.7278 8.44147ZM12.996 43.2068C12.5941 43.6076 11.7872 43.6766 10.7826 43.3961C9.50921 43.0407 8.09655 42.1564 6.90665 40.9702C5.71684 39.784 4.83002 38.3755 4.47345 37.1059C4.19205 36.1042 4.26122 35.2999 4.6632 34.8992C4.90218 34.6609 5.28422 34.54 5.7658 34.54C6.09435 34.54 6.46922 34.5963 6.87646 34.71C8.14986 35.0654 9.56251 35.9496 10.7524 37.1359C11.9423 38.3221 12.8291 39.7305 13.1856 41.0002C13.467 42.0017 13.3978 42.806 12.996 43.2068ZM25.848 30.3933L15.8326 40.3788C15.8228 40.342 15.8149 40.3059 15.8045 40.269C15.3188 38.5397 14.2075 36.7461 12.6754 35.2187C11.1433 33.6911 9.34439 32.5833 7.6099 32.099C7.57291 32.0887 7.53664 32.0807 7.49975 32.071L17.5152 22.0856C17.9171 21.685 18.724 21.616 19.7286 21.8964C21.002 22.2519 22.4146 23.136 23.6045 24.3223C24.7942 25.5084 25.6812 26.9169 26.0378 28.1866C26.319 29.1883 26.2499 29.9926 25.848 30.3933ZM25.5274 22.4052C23.9954 20.8776 22.1964 19.7698 20.4618 19.2856C20.4248 19.2752 20.3886 19.2673 20.3518 19.2575L24.0105 15.6098C24.4125 15.2094 25.2189 15.1404 26.2237 15.4209C27.4971 15.7764 28.9097 16.6605 30.0996 17.8468C31.2893 19.0329 32.1763 20.4414 32.5329 21.7111C32.8142 22.7128 32.745 23.517 32.3431 23.9178L28.6846 27.5653C28.6748 27.5286 28.6669 27.4924 28.6565 27.4555C28.1709 25.7263 27.0596 23.9327 25.5274 22.4052ZM37.1781 31.0152L33.5885 31.91L32.6911 35.4887L28.6372 31.4469L33.1241 26.9735L37.1781 31.0152ZM44.9194 11.3793L35.1796 21.0899C35.1698 21.0531 35.1619 21.017 35.1515 20.98C34.6659 19.2508 33.5546 17.4572 32.0224 15.9298C30.4904 14.4022 28.6914 13.2943 26.9568 12.8101C26.9198 12.7998 26.8836 12.7918 26.8468 12.782L36.5866 3.07159C36.9886 2.67099 37.795 2.60203 38.8 2.88241C40.0734 3.23781 41.486 4.12206 42.6759 5.3083C43.8657 6.49445 44.7526 7.90295 45.1091 9.17252C45.3904 10.1742 45.3213 10.9785 44.9194 11.3793Z" fill="white"/>
<defs>
<linearGradient id="paint0_linear" x1="17.9011" y1="38.3242" x2="39.4212" y2="38.3242" gradientUnits="userSpaceOnUse">
<stop offset="0.151042" stop-color="#F39324"/>
<stop offset="1" stop-color="#EC663B"/>
</linearGradient>
<linearGradient id="paint1_linear" x1="6.1052e-07" y1="9.4804" x2="14.619" y2="9.4804" gradientUnits="userSpaceOnUse">
<stop offset="0.151042" stop-color="#F39324"/>
<stop offset="1" stop-color="#EC663B"/>
</linearGradient>
</defs>
</svg>
