<svg width="43" height="48" viewBox="0 0 43 48" fill="none" xmlns="http://www.w3.org/2000/svg">
<rect x="14.25" y="7.50024" width="13.5" height="12.75" fill="url(#paint0_linear)"/>
<rect x="6.75" y="25.5002" width="27" height="12.75" fill="url(#paint1_linear)"/>
<path d="M42.363 1.40666C42.363 0.629945 41.7333 0.000244141 40.9566 0.000244141H1.40755C0.630826 0.000244141 0.00112524 0.629945 0.00112524 1.40666L1.04709e-08 46.5936C-9.37509e-05 47.3704 0.629514 48.0001 1.40623 48.0002H1.40642C2.18305 48.0002 2.81275 47.3706 2.81284 46.594L2.81303 45.5206H39.5491V46.5938C39.5491 47.3705 40.1788 48.0002 40.9555 48.0002C41.7322 48.0002 42.3619 47.3705 42.3619 46.5938L42.363 1.40666ZM14.6905 30.5138C15.4672 30.5138 16.097 29.8841 16.097 29.1073V27.2744H19.7752V37.1266H9.60585V27.2743H13.2842V29.1072C13.2841 29.8841 13.9138 30.5138 14.6905 30.5138ZM27.6734 30.5247C28.4501 30.5247 29.0798 29.895 29.0798 29.1183V27.2743H32.7582V37.1265H22.5887V27.2743H26.267V29.1183C26.267 29.895 26.8967 30.5247 27.6734 30.5247ZM34.1647 24.4615C27.6891 24.4615 14.6645 24.4615 8.19943 24.4615C7.42271 24.4615 6.79301 25.0912 6.79301 25.8679V37.1265H2.81397V21.6179H39.5502V37.1265H35.5712V25.8679C35.5711 25.0912 34.9414 24.4615 34.1647 24.4615ZM27.793 2.81308L39.5501 10.5665V18.8049H29.0795V7.54635C29.0795 6.76963 28.4498 6.13993 27.6731 6.13993H14.6908C13.9141 6.13993 13.2844 6.76963 13.2844 7.54635V18.805H2.81397V10.6905L14.7072 2.81308H27.793ZM21.182 12.4735C21.9587 12.4735 22.5884 11.8438 22.5884 11.0671V8.95277H26.2667V18.805H16.0972V8.95277H19.7755V11.067C19.7756 11.8438 20.4053 12.4735 21.182 12.4735ZM39.5501 7.19718L32.9023 2.81308H39.5501V7.19718ZM9.61326 2.81308L2.81397 7.31654V2.81308H9.61326ZM2.8134 42.7077L2.81378 39.9393H39.5491V42.7077H2.8134Z" fill="white"/>
<defs>
<linearGradient id="paint0_linear" x1="14.25" y1="20.2502" x2="27.1715" y2="20.2502" gradientUnits="userSpaceOnUse">
<stop offset="0.151042" stop-color="#F39324"/>
<stop offset="1" stop-color="#EC663B"/>
</linearGradient>
<linearGradient id="paint1_linear" x1="6.75" y1="38.2502" x2="32.593" y2="38.2502" gradientUnits="userSpaceOnUse">
<stop offset="0.151042" stop-color="#F39324"/>
<stop offset="1" stop-color="#EC663B"/>
</linearGradient>
</defs>
</svg>
