<svg width="48" height="48" viewBox="0 0 48 48" fill="none" xmlns="http://www.w3.org/2000/svg">
<path d="M2.625 11.6252L14.625 7.12524L36.75 17.2502L24 21.3752L2.625 11.6252Z" fill="url(#paint0_linear)"/>
<path d="M47.9906 11.8379C47.9346 11.3217 47.6138 10.8647 47.1342 10.6409L24.6342 0.14094C24.2321 -0.0466543 23.7677 -0.0466543 23.3656 0.14094L0.865594 10.6409C0.386156 10.8647 0.0653438 11.3216 0.0091875 11.8379C0.00796875 11.8487 0 11.9924 0 12.0002V37.5002C0 38.1136 0.373406 38.6652 0.942938 38.8929L23.4429 47.8929C23.6217 47.9644 23.8109 48.0002 24 48.0002C24.1891 48.0002 24.3783 47.9645 24.5571 47.8929L47.0571 38.8929C47.6266 38.6652 48 38.1136 48 37.5002V12.0002C48 11.9924 47.9919 11.8486 47.9906 11.8379ZM24 3.15547L42.726 11.8943L35.5153 14.7786L16.4369 6.68497L24 3.15547ZM12.7791 8.39197L31.5615 16.3601L24 19.3846L5.274 11.8943L12.7791 8.39197ZM3 14.2157L22.5 22.0157V44.2846L3 36.4846V14.2157ZM25.5 44.2847V22.0157L45 14.2157V36.4846L25.5 44.2847Z" fill="white"/>
<defs>
<linearGradient id="paint0_linear" x1="2.625" y1="21.3752" x2="35.2877" y2="21.3752" gradientUnits="userSpaceOnUse">
<stop offset="0.151042" stop-color="#F39324"/>
<stop offset="1" stop-color="#EC663B"/>
</linearGradient>
</defs>
</svg>
