<svg width="54" height="48" viewBox="0 0 54 48" fill="none" xmlns="http://www.w3.org/2000/svg">
<path d="M52.2353 22.5885H28.2353V1.41201C28.2353 1.03759 28.0866 0.678497 27.8218 0.413739C27.557 0.148982 27.198 0.000244141 26.8235 0.000244141H1.41176C1.03734 0.000244141 0.678254 0.148982 0.413496 0.413739C0.148739 0.678497 0 1.03759 0 1.41201V46.5885C0 46.9629 0.148739 47.322 0.413496 47.5868C0.678254 47.8515 1.03734 48.0002 1.41176 48.0002H52.2353C52.6097 48.0002 52.9688 47.8515 53.2336 47.5868C53.4983 47.322 53.6471 46.9629 53.6471 46.5885V24.0002C53.6471 23.6258 53.4983 23.2667 53.2336 23.002C52.9688 22.7372 52.6097 22.5885 52.2353 22.5885ZM36.7059 25.412H42.3529V31.0591H36.7059V25.412ZM11.2941 2.82377H16.9412V8.47083H11.2941V2.82377ZM2.82353 2.82377H8.47059V9.8826C8.47059 10.257 8.61933 10.6161 8.88409 10.8809C9.14884 11.1456 9.50793 11.2944 9.88235 11.2944H18.3529C18.7274 11.2944 19.0865 11.1456 19.3512 10.8809C19.616 10.6161 19.7647 10.257 19.7647 9.8826V2.82377H25.4118V22.5885H2.82353V2.82377ZM11.2941 25.412H16.9412V31.0591H11.2941V25.412ZM2.82353 25.412H8.47059V32.4708C8.47059 32.8453 8.61933 33.2043 8.88409 33.4691C9.14884 33.7339 9.50793 33.8826 9.88235 33.8826H18.3529C18.7274 33.8826 19.0865 33.7339 19.3512 33.4691C19.616 33.2043 19.7647 32.8453 19.7647 32.4708V25.412H25.4118V45.1767H2.82353V25.412ZM50.8235 45.1767H28.2353V25.412H33.8824V32.4708C33.8824 32.8453 34.0311 33.2043 34.2959 33.4691C34.5606 33.7339 34.9197 33.8826 35.2941 33.8826H43.7647C44.1391 33.8826 44.4982 33.7339 44.763 33.4691C45.0277 33.2043 45.1765 32.8453 45.1765 32.4708V25.412H50.8235V45.1767Z" fill="white"/>
<path d="M45.1758 39.5298H47.9993V42.3533H45.1758V39.5298Z" fill="white"/>
<path d="M19.7646 39.5298H22.5882V42.3533H19.7646V39.5298Z" fill="white"/>
<path d="M19.7646 16.9415H22.5882V19.765H19.7646V16.9415Z" fill="white"/>
</svg>
