<svg width="40" height="50" viewBox="0 0 40 50" fill="none" xmlns="http://www.w3.org/2000/svg">
<rect x="17.3635" y="28.8184" width="5.45455" height="5.45455" fill="url(#paint0_linear)"/>
<path d="M20.3635 2.09116C6.18173 2.09116 2.27264 13.7275 2.09082 19.5457H37.8181C37.909 13.7275 34.5454 2.09116 20.3635 2.09116Z" fill="url(#paint1_linear)"/>
<mask id="path-3-outside-1" maskUnits="userSpaceOnUse" x="0" y="0.000244141" width="40" height="50" fill="black">
<rect fill="white" y="0.000244141" width="40" height="50"/>
<path fill-rule="evenodd" clip-rule="evenodd" d="M38.0001 21.0003H37.5678L32.0003 30.2795V46.0003C32.0003 47.6543 30.6543 49.0003 29.0003 49.0003H11.0002C9.34622 49.0003 8.00022 47.6543 8.00022 46.0003V30.2128L2.4349 21.0003H2C1.448 21.0003 1 20.5523 1 20.0003C1 9.52426 9.52402 1.00024 20 1.00024C30.4761 1.00024 39.0001 9.52426 39.0001 20.0003C39.0001 20.5523 38.5521 21.0003 38.0001 21.0003ZM30.0003 30.0305C29.9997 30.013 29.9996 29.9954 30 29.9778C29.988 29.4362 29.5428 29.0003 29.0003 29.0003H24V34.0003C24 34.5523 23.552 35.0003 23 35.0003H17C16.448 35.0003 16 34.5523 16 34.0003V29.0003H11.0002C10.4502 29.0003 10.0002 29.4483 10.0002 30.0003V46.0003C10.0002 46.5523 10.4502 47.0003 11.0002 47.0003H29.0003C29.5503 47.0003 30.0003 46.5523 30.0003 46.0003V30.0305ZM17.6163 27.0003H22.3794L25.3794 21.0003H14.6163L17.6163 27.0003ZM18 29.0003V33.0003H22V29.0003H18ZM35.2338 21.0003L31.1114 27.871C30.5689 27.333 29.8227 27.0003 29.0003 27.0003H24.6165L27.6165 21.0003H35.2338ZM12.3813 21.0003L15.3813 27.0003H11.0002C10.1887 27.0003 9.45125 27.3243 8.91061 27.8498L4.77275 21.0003H12.3813ZM3.03 19.0003H36.9721C36.4521 10.0903 29.038 3.00025 20 3.00025C10.962 3.00025 3.548 10.0903 3.03 19.0003Z"/>
</mask>
<path fill-rule="evenodd" clip-rule="evenodd" d="M38.0001 21.0003H37.5678L32.0003 30.2795V46.0003C32.0003 47.6543 30.6543 49.0003 29.0003 49.0003H11.0002C9.34622 49.0003 8.00022 47.6543 8.00022 46.0003V30.2128L2.4349 21.0003H2C1.448 21.0003 1 20.5523 1 20.0003C1 9.52426 9.52402 1.00024 20 1.00024C30.4761 1.00024 39.0001 9.52426 39.0001 20.0003C39.0001 20.5523 38.5521 21.0003 38.0001 21.0003ZM30.0003 30.0305C29.9997 30.013 29.9996 29.9954 30 29.9778C29.988 29.4362 29.5428 29.0003 29.0003 29.0003H24V34.0003C24 34.5523 23.552 35.0003 23 35.0003H17C16.448 35.0003 16 34.5523 16 34.0003V29.0003H11.0002C10.4502 29.0003 10.0002 29.4483 10.0002 30.0003V46.0003C10.0002 46.5523 10.4502 47.0003 11.0002 47.0003H29.0003C29.5503 47.0003 30.0003 46.5523 30.0003 46.0003V30.0305ZM17.6163 27.0003H22.3794L25.3794 21.0003H14.6163L17.6163 27.0003ZM18 29.0003V33.0003H22V29.0003H18ZM35.2338 21.0003L31.1114 27.871C30.5689 27.333 29.8227 27.0003 29.0003 27.0003H24.6165L27.6165 21.0003H35.2338ZM12.3813 21.0003L15.3813 27.0003H11.0002C10.1887 27.0003 9.45125 27.3243 8.91061 27.8498L4.77275 21.0003H12.3813ZM3.03 19.0003H36.9721C36.4521 10.0903 29.038 3.00025 20 3.00025C10.962 3.00025 3.548 10.0903 3.03 19.0003Z" fill="white"/>
<path d="M37.5678 21.0003V20.4003H37.2281L37.0533 20.6916L37.5678 21.0003ZM32.0003 30.2795L31.4858 29.9708L31.4003 30.1133V30.2795H32.0003ZM8.00022 30.2128H8.60022V30.0456L8.51378 29.9025L8.00022 30.2128ZM2.4349 21.0003L2.94846 20.69L2.77342 20.4003H2.4349V21.0003ZM30 29.9778L30.5999 29.9909L30.6002 29.9777L30.5999 29.9646L30 29.9778ZM30.0003 30.0305H30.6003V30.0212L30.6 30.0119L30.0003 30.0305ZM24 29.0003V28.4003H23.4V29.0003H24ZM16 29.0003H16.6V28.4003H16V29.0003ZM17.6163 27.0003L17.0796 27.2686L17.2454 27.6003H17.6163V27.0003ZM22.3794 27.0003V27.6003H22.7503L22.9161 27.2686L22.3794 27.0003ZM25.3794 21.0003L25.9161 21.2686L26.3503 20.4003H25.3794V21.0003ZM14.6163 21.0003V20.4003H13.6454L14.0796 21.2686L14.6163 21.0003ZM18 29.0003V28.4003H17.4V29.0003H18ZM18 33.0003H17.4V33.6003H18V33.0003ZM22 33.0003V33.6003H22.6V33.0003H22ZM22 29.0003H22.6V28.4003H22V29.0003ZM31.1114 27.871L30.6889 28.297L31.2323 28.8357L31.6259 28.1796L31.1114 27.871ZM35.2338 21.0003L35.7483 21.309L36.2935 20.4003H35.2338V21.0003ZM24.6165 27.0003L24.0798 26.7319L23.6456 27.6003H24.6165V27.0003ZM27.6165 21.0003V20.4003H27.2456L27.0798 20.732L27.6165 21.0003ZM15.3813 27.0003V27.6003H16.3521L15.9179 26.7319L15.3813 27.0003ZM12.3813 21.0003L12.9179 20.732L12.7521 20.4003H12.3813V21.0003ZM8.91061 27.8498L8.39705 28.1601L8.78743 28.8063L9.3288 28.2801L8.91061 27.8498ZM4.77275 21.0003V20.4003H3.7093L4.25919 21.3105L4.77275 21.0003ZM36.9721 19.0003V19.6003H37.6081L37.571 18.9653L36.9721 19.0003ZM3.03 19.0003L2.43102 18.9655L2.39411 19.6003H3.03V19.0003ZM37.5678 21.6003H38.0001V20.4003H37.5678V21.6003ZM32.5148 30.5882L38.0823 21.309L37.0533 20.6916L31.4858 29.9708L32.5148 30.5882ZM32.6003 46.0003V30.2795H31.4003V46.0003H32.6003ZM29.0003 49.6003C30.9856 49.6003 32.6003 47.9857 32.6003 46.0003H31.4003C31.4003 47.3229 30.3229 48.4003 29.0003 48.4003V49.6003ZM11.0002 49.6003H29.0003V48.4003H11.0002V49.6003ZM7.40022 46.0003C7.40022 47.9857 9.01485 49.6003 11.0002 49.6003V48.4003C9.67759 48.4003 8.60022 47.3229 8.60022 46.0003H7.40022ZM7.40022 30.2128V46.0003H8.60022V30.2128H7.40022ZM1.92133 21.3105L7.48666 30.523L8.51378 29.9025L2.94846 20.69L1.92133 21.3105ZM2 21.6003H2.4349V20.4003H2V21.6003ZM0.4 20.0003C0.4 20.8837 1.11663 21.6003 2 21.6003V20.4003C1.77937 20.4003 1.6 20.2209 1.6 20.0003H0.4ZM20 0.400244C9.19264 0.400244 0.4 9.19289 0.4 20.0003H1.6C1.6 9.85563 9.85539 1.60024 20 1.60024V0.400244ZM39.6001 20.0003C39.6001 9.19289 30.8074 0.400244 20 0.400244V1.60024C30.1447 1.60024 38.4001 9.85563 38.4001 20.0003H39.6001ZM38.0001 21.6003C38.8834 21.6003 39.6001 20.8837 39.6001 20.0003H38.4001C38.4001 20.2209 38.2207 20.4003 38.0001 20.4003V21.6003ZM29.4002 29.9648C29.3995 29.993 29.3997 30.0211 29.4006 30.0492L30.6 30.0119C30.5998 30.0049 30.5997 29.9979 30.5999 29.9909L29.4002 29.9648ZM29.0003 29.6003C29.2165 29.6003 29.3954 29.7755 29.4002 29.9911L30.5999 29.9646C30.5807 29.0968 29.869 28.4003 29.0003 28.4003V29.6003ZM24 29.6003H29.0003V28.4003H24V29.6003ZM23.4 29.0003V34.0003H24.6V29.0003H23.4ZM23.4 34.0003C23.4 34.2209 23.2206 34.4003 23 34.4003V35.6003C23.8834 35.6003 24.6 34.8836 24.6 34.0003H23.4ZM23 34.4003H17V35.6003H23V34.4003ZM17 34.4003C16.7794 34.4003 16.6 34.2209 16.6 34.0003H15.4C15.4 34.8836 16.1166 35.6003 17 35.6003V34.4003ZM16.6 34.0003V29.0003H15.4V34.0003H16.6ZM11.0002 29.6003H16V28.4003H11.0002V29.6003ZM10.6002 30.0003C10.6002 29.7804 10.7808 29.6003 11.0002 29.6003V28.4003C10.1196 28.4003 9.40022 29.1161 9.40022 30.0003H10.6002ZM10.6002 46.0003V30.0003H9.40022V46.0003H10.6002ZM11.0002 46.4003C10.7808 46.4003 10.6002 46.2201 10.6002 46.0003H9.40022C9.40022 46.8844 10.1196 47.6003 11.0002 47.6003V46.4003ZM29.0003 46.4003H11.0002V47.6003H29.0003V46.4003ZM29.4003 46.0003C29.4003 46.2201 29.2197 46.4003 29.0003 46.4003V47.6003C29.8809 47.6003 30.6003 46.8844 30.6003 46.0003H29.4003ZM29.4003 30.0305V46.0003H30.6003V30.0305H29.4003ZM17.6163 27.6003H22.3794V26.4003H17.6163V27.6003ZM22.9161 27.2686L25.9161 21.2686L24.8428 20.732L21.8428 26.7319L22.9161 27.2686ZM25.3794 20.4003H14.6163V21.6003H25.3794V20.4003ZM14.0796 21.2686L17.0796 27.2686L18.1529 26.7319L15.1529 20.732L14.0796 21.2686ZM17.4 29.0003V33.0003H18.6V29.0003H17.4ZM18 33.6003H22V32.4003H18V33.6003ZM22.6 33.0003V29.0003H21.4V33.0003H22.6ZM22 28.4003H18V29.6003H22V28.4003ZM31.6259 28.1796L35.7483 21.309L34.7193 20.6916L30.5969 27.5623L31.6259 28.1796ZM29.0003 27.6003C29.6575 27.6003 30.2538 27.8656 30.6889 28.297L31.5339 27.4449C30.884 26.8005 29.9878 26.4003 29.0003 26.4003V27.6003ZM24.6165 27.6003H29.0003V26.4003H24.6165V27.6003ZM27.0798 20.732L24.0798 26.7319L25.1531 27.2686L28.1531 21.2686L27.0798 20.732ZM35.2338 20.4003H27.6165V21.6003H35.2338V20.4003ZM15.9179 26.7319L12.9179 20.732L11.8446 21.2686L14.8446 27.2686L15.9179 26.7319ZM11.0002 27.6003H15.3813V26.4003H11.0002V27.6003ZM9.3288 28.2801C9.76238 27.8586 10.3516 27.6003 11.0002 27.6003V26.4003C10.0257 26.4003 9.14011 26.79 8.49241 27.4196L9.3288 28.2801ZM4.25919 21.3105L8.39705 28.1601L9.42417 27.5396L5.28632 20.69L4.25919 21.3105ZM12.3813 20.4003H4.77275V21.6003H12.3813V20.4003ZM36.9721 18.4003H3.03V19.6003H36.9721V18.4003ZM20 3.60025C28.7182 3.60025 35.8715 10.4404 36.3731 19.0352L37.571 18.9653C37.0326 9.74009 29.3579 2.40025 20 2.40025V3.60025ZM3.62899 19.0351C4.12866 10.4404 11.2818 3.60025 20 3.60025V2.40025C10.6422 2.40025 2.96735 9.74009 2.43102 18.9655L3.62899 19.0351Z" fill="white" mask="url(#path-3-outside-1)"/>
<path d="M22.7273 45.3002H26.7273C27.445 45.3002 28.0273 44.7179 28.0273 44.0002C28.0273 43.2826 27.445 42.7002 26.7273 42.7002H22.7273C22.0096 42.7002 21.4273 43.2826 21.4273 44.0002C21.4273 44.7179 22.0096 45.3002 22.7273 45.3002Z" fill="url(#paint2_linear)" stroke="url(#paint3_linear)" stroke-width="0.6"/>
<defs>
<linearGradient id="paint0_linear" x1="17.3635" y1="34.273" x2="22.5843" y2="34.273" gradientUnits="userSpaceOnUse">
<stop offset="0.151042" stop-color="#F39324"/>
<stop offset="1" stop-color="#EC663B"/>
</linearGradient>
<linearGradient id="paint1_linear" x1="2.09082" y1="19.5457" x2="36.2889" y2="19.5457" gradientUnits="userSpaceOnUse">
<stop offset="0.151042" stop-color="#F39324"/>
<stop offset="1" stop-color="#EC663B"/>
</linearGradient>
<linearGradient id="paint2_linear" x1="21.7273" y1="45.0002" x2="27.4702" y2="45.0002" gradientUnits="userSpaceOnUse">
<stop offset="0.151042" stop-color="#F39324"/>
<stop offset="1" stop-color="#EC663B"/>
</linearGradient>
<linearGradient id="paint3_linear" x1="21.7273" y1="45.0002" x2="27.4702" y2="45.0002" gradientUnits="userSpaceOnUse">
<stop offset="0.151042" stop-color="#F39324"/>
<stop offset="1" stop-color="#EC663B"/>
</linearGradient>
</defs>
</svg>
