<svg width="16" height="16" viewBox="0 0 16 16" fill="none" xmlns="http://www.w3.org/2000/svg">
<path d="M8.79972 11.2H7.19971V12.8H8.79972V11.2Z" fill="white"/>
<path d="M8.00029 3.19995C6.23227 3.19995 4.80029 4.63197 4.80029 6.39994H6.40031C6.40031 5.51993 7.12031 4.79993 8.00032 4.79993C8.88034 4.79993 9.6003 5.51997 9.6003 6.39998C9.6003 8 7.2003 7.79997 7.2003 10.4H8.80031C8.80031 8.6 11.2003 8.40001 11.2003 6.39998C11.2003 4.63197 9.7683 3.19995 8.00029 3.19995Z" fill="white"/>
<path d="M8 0C3.58399 0 0 3.58399 0 8C0 12.416 3.58399 16 8 16C12.416 16 16 12.416 16 8C16 3.58399 12.416 0 8 0ZM8 14.4C4.47199 14.4 1.59998 11.528 1.59998 8C1.59998 4.47199 4.47199 1.60002 8 1.60002C11.528 1.60002 14.4 4.47199 14.4 8C14.4 11.528 11.528 14.4 8 14.4Z" fill="white"/>
</svg>
