<svg width="20" height="24" viewBox="0 0 20 24" fill="none" xmlns="http://www.w3.org/2000/svg">
<path d="M2.41297 18.4827C3.17339 17.6728 4.12855 16.4024 4.15019 14.526C4.18729 11.132 5.11154 8.55705 6.54892 7.10112C7.63082 6.00686 10.453 5.04551 12.5766 7.16913C14.0418 8.63433 14.8672 11.2463 14.8981 14.5168C14.9135 16.4611 15.9583 17.7656 16.626 18.4703C15.5565 18.5136 3.48869 18.5198 2.41297 18.4827ZM7.82865 21.5306C7.47935 21.1813 7.25988 20.7516 7.17333 20.3003C7.28461 20.3003 11.7544 20.2941 11.8688 20.2972C11.7822 20.7485 11.5597 21.1813 11.2104 21.5306C10.2768 22.4641 8.76217 22.4641 7.82865 21.5306ZM8.73744 2.11821C9.17948 1.67617 9.89662 1.67617 10.3387 2.11821C10.7807 2.56024 10.7807 3.27738 10.3387 3.71942C9.89662 4.16145 9.17948 4.16145 8.73744 3.71942C8.29541 3.27738 8.29541 2.56024 8.73744 2.11821ZM19.0711 19.3946C19.3679 18.6836 18.8176 18.1334 18.4869 17.8026C18.4869 17.8026 16.7126 16.4735 16.6848 14.4982C16.6384 10.7548 15.64 7.7039 13.8409 5.90485C13.266 5.3299 12.6199 4.88787 11.9213 4.59112C12.725 3.45358 12.6199 1.87091 11.6029 0.853929C10.4623 -0.286702 8.61689 -0.28361 7.47626 0.85702C6.46236 1.87091 6.35108 3.4474 7.14241 4.58493C4.23674 5.80903 2.42534 9.43802 2.3666 14.5106C2.35115 16.0531 1.37744 16.9649 0.706663 17.6728C-0.301049 18.7424 0.00497347 19.5491 0.205898 19.7501C0.688115 20.2323 1.33107 20.2941 5.37737 20.2972C5.47629 21.206 5.87505 22.087 6.57055 22.7825C8.19649 24.4084 10.8332 24.4053 12.4623 22.7763C13.1609 22.0777 13.5596 21.1967 13.6585 20.2879C18.388 20.2817 18.7404 20.189 19.0711 19.3946Z" fill="#C3C4D4"/>
</svg>
