<svg width="17" height="17" viewBox="0 0 17 17" fill="none" xmlns="http://www.w3.org/2000/svg">
<path d="M15.7 3.05674H14.9V1.85674C14.9 1.21674 14.34 0.656738 13.7 0.656738C13.06 0.656738 12.5 1.21674 12.5 1.85674V3.05674H5.3V1.85674C5.3 1.21674 4.74 0.656738 4.1 0.656738C3.46 0.656738 2.9 1.21674 2.9 1.85674V3.05674H1.3C0.9 3.05674 0.5 3.45674 0.5 3.85674V15.8567C0.5 16.2567 0.82 16.6567 1.3 16.6567H15.7C16.18 16.6567 16.5 16.2567 16.5 15.8567V3.85674C16.5 3.45674 16.18 3.05674 15.7 3.05674ZM5.3 15.0567H2.1V11.8567H5.3V15.0567ZM5.3 10.2567H2.1V7.05674H5.3V10.2567ZM10.1 15.0567H6.9V11.8567H10.1V15.0567ZM10.1 10.2567H6.9V7.05674H10.1V10.2567ZM14.9 10.2567H11.7V7.05674H14.9V10.2567Z" fill="#EC663B"/>
</svg>
