<svg width="24" height="24" viewBox="0 0 24 24" fill="none" xmlns="http://www.w3.org/2000/svg">
<path d="M12 1.99837C6.4849 1.99837 1.99837 6.4849 1.99837 12C1.99837 17.5151 6.4849 22.0016 12 22.0016C17.5151 22.0016 22.0016 17.5151 22.0016 12C22.0016 6.4849 17.5151 1.99837 12 1.99837ZM12 24C5.38286 24 0 18.6171 0 12C0 5.38286 5.38286 0 12 0C18.6171 0 24 5.38286 24 12C24 18.6171 18.6171 24 12 24Z" fill="#F39323"/>
<path d="M15.5218 12.9991H12.0002C11.4467 12.9991 11.001 12.5534 11.001 11.9999V5.52482C11.001 4.97135 11.4467 4.52563 12.0002 4.52563C12.5536 4.52563 12.9993 4.97135 12.9993 5.52482V11.0007H15.5218C16.0753 11.0007 16.521 11.4465 16.521 11.9999C16.521 12.5534 16.0753 12.9991 15.5218 12.9991Z" fill="#F39323"/>
</svg>
