<svg width="14" height="17" viewBox="0 0 14 17" fill="none" xmlns="http://www.w3.org/2000/svg">
<path d="M13.956 9.52641C13.904 9.4018 13.7827 9.32048 13.6481 9.32048H9.99667V0.98997C9.99667 0.806032 9.84738 0.656738 9.66344 0.656738H4.33189C4.14795 0.656738 3.99865 0.806032 3.99865 0.98997V9.32052H0.333229C0.198618 9.32052 0.0773148 9.40183 0.0253323 9.52579C-0.0259942 9.6504 0.00199626 9.7937 0.097308 9.88901L6.74507 16.5588C6.80771 16.6214 6.89237 16.6567 6.981 16.6567C7.06962 16.6567 7.15428 16.6214 7.21692 16.5594L13.884 9.88967C13.9793 9.79432 14.008 9.65106 13.956 9.52641Z" fill="#F39323"/>
</svg>
