<svg width="17" height="17" viewBox="0 0 17 17" fill="none" xmlns="http://www.w3.org/2000/svg">
<path d="M15.6855 15.745C15.4883 15.6301 14.2871 14.8863 13.6445 13.5414C15.1454 12.138 15.9991 10.1856 15.9991 8.18756C15.9991 4.05235 12.3933 0.656738 7.99954 0.656738C3.60574 0.656738 0 4.05235 0 8.18756C0 12.3228 3.60574 15.7184 7.99954 15.7184C8.58937 15.7184 9.22291 15.6631 10.097 15.4795C12.3944 16.7002 14.4565 16.6659 15.2411 16.6535C15.5903 16.6492 15.8439 16.7123 15.9744 16.3514C16.0627 16.1094 15.9321 15.8298 15.6855 15.745ZM8.937 11.9686C8.937 12.4863 8.51729 12.9061 7.99954 12.9061C7.48179 12.9061 7.06208 12.4863 7.06208 11.9686V8.18756C7.06208 7.66981 7.48179 7.2501 7.99954 7.2501C8.51729 7.2501 8.937 7.66981 8.937 8.18756V11.9686ZM7.99954 5.8127C7.48179 5.8127 7.06208 5.39293 7.06208 4.87524C7.06208 4.35749 7.48179 3.93778 7.99954 3.93778C8.51729 3.93778 8.937 4.35749 8.937 4.87524C8.937 5.39296 8.51729 5.8127 7.99954 5.8127Z" fill="#F39323"/>
</svg>
