<svg width="24" height="36" viewBox="0 0 24 36" fill="none" xmlns="http://www.w3.org/2000/svg">
<path d="M11.0914 35.816C10.2825 35.6547 9.45958 35.5496 8.66477 35.3252C6.21704 34.6452 4.21244 33.271 2.62282 31.294C1.42709 29.8077 0.618216 28.1251 0.273565 26.2462C0.111789 25.3908 0.0203512 24.5145 0.0133175 23.6451C-0.00778356 19.8172 -0.000749856 15.9752 0.0133175 12.1403C0.027385 8.37546 1.43413 5.22758 4.31794 2.77378C6.02713 1.32954 8.01064 0.432151 10.2403 0.130683C14.1511 -0.402142 17.5554 0.698564 20.39 3.41177C22.3383 5.27666 23.5059 7.58323 23.8505 10.2614C23.9771 11.2359 23.9912 12.2385 23.9912 13.227C24.0053 16.6763 23.9982 20.1327 23.9982 23.582C23.9982 26.9262 22.901 29.8427 20.5447 32.2405C18.6808 34.1404 16.4159 35.2902 13.7712 35.6828C13.4829 35.7249 13.1945 35.7739 12.9131 35.823C12.3082 35.816 11.7033 35.816 11.0914 35.816ZM20.9949 17.8892C20.9949 16.6974 21.0019 15.5125 20.9949 14.3207C20.9808 13.1569 21.0371 11.979 20.9034 10.8293C20.6502 8.63486 19.6514 6.79101 18.0055 5.29068C15.4804 2.9771 11.5205 2.29003 8.43266 3.74128C4.92988 5.38883 3.09408 8.18617 3.03078 12.0351C2.96747 15.9402 3.00967 19.8452 3.02374 23.7503C3.03078 25.3628 3.38949 26.8912 4.21244 28.2863C5.66138 30.7191 7.76446 32.2475 10.585 32.6751C13.9822 33.1939 16.7957 32.0652 18.9902 29.4431C20.404 27.7605 20.9878 25.7624 20.9878 23.582C20.9878 21.6891 20.9949 19.7892 20.9949 17.8892Z" fill="white"/>
<path d="M13.4972 7.46362C13.4972 9.94547 13.4972 12.4063 13.4972 14.9022C12.5055 14.9022 11.5348 14.9022 10.522 14.9022C10.522 12.4343 10.522 9.9665 10.522 7.46362C11.4997 7.46362 12.4773 7.46362 13.4972 7.46362Z" fill="white"/>
</svg>
