<svg width="18" height="17" viewBox="0 0 18 17" fill="none" xmlns="http://www.w3.org/2000/svg">
<path d="M14.2223 0.656738H3.55566V4.21228H14.2223V0.656738Z" fill="#F39323"/>
<path d="M15.1111 5.10107H2.66667C1.19554 5.10107 0 6.29662 0 7.76774V13.1011H3.55554V16.6566H14.2222V13.1011H17.7778V7.76774C17.7778 6.29662 16.5822 5.10107 15.1111 5.10107ZM12.4445 14.8789H5.33333V10.4344H12.4445V14.8789ZM15.1111 8.65662C14.6178 8.65662 14.2223 8.26107 14.2223 7.76774C14.2223 7.27441 14.6178 6.87887 15.1111 6.87887C15.6045 6.87887 16 7.27441 16 7.76774C16 8.26107 15.6045 8.65662 15.1111 8.65662Z" fill="#F39323"/>
</svg>
