<svg width="16" height="16" viewBox="0 0 16 16" fill="none" xmlns="http://www.w3.org/2000/svg">
<path d="M14.8225 2.66663C14.8225 3.86328 13.8525 4.83337 12.6559 4.83337C11.4592 4.83337 10.4893 3.86328 10.4893 2.66663C10.4893 1.47009 11.4592 0.5 12.6559 0.5C13.8525 0.5 14.8225 1.47009 14.8225 2.66663Z" fill="#2C2F49"/>
<path d="M12.6559 5.33337C11.1852 5.33337 9.98926 4.13733 9.98926 2.66663C9.98926 1.19604 11.1852 0 12.6559 0C14.1266 0 15.3225 1.19604 15.3225 2.66663C15.3225 4.13733 14.1266 5.33337 12.6559 5.33337ZM12.6559 1C11.7366 1 10.9893 1.74805 10.9893 2.66663C10.9893 3.58533 11.7366 4.33337 12.6559 4.33337C13.5752 4.33337 14.3225 3.58533 14.3225 2.66663C14.3225 1.74805 13.5752 1 12.6559 1Z" fill="#2C2F49"/>
<path d="M14.8225 13.3334C14.8225 14.5299 13.8525 15.5 12.6559 15.5C11.4592 15.5 10.4893 14.5299 10.4893 13.3334C10.4893 12.1367 11.4592 11.1666 12.6559 11.1666C13.8525 11.1666 14.8225 12.1367 14.8225 13.3334Z" fill="#2C2F49"/>
<path d="M12.6559 16C11.1852 16 9.98926 14.8039 9.98926 13.3334C9.98926 11.8627 11.1852 10.6666 12.6559 10.6666C14.1266 10.6666 15.3225 11.8627 15.3225 13.3334C15.3225 14.8039 14.1266 16 12.6559 16ZM12.6559 11.6666C11.7366 11.6666 10.9893 12.4147 10.9893 13.3334C10.9893 14.2519 11.7366 15 12.6559 15C13.5752 15 14.3225 14.2519 14.3225 13.3334C14.3225 12.4147 13.5752 11.6666 12.6559 11.6666Z" fill="#2C2F49"/>
<path d="M5.48962 8.00002C5.48962 9.19667 4.51953 10.1666 3.32288 10.1666C2.12634 10.1666 1.15625 9.19667 1.15625 8.00002C1.15625 6.80336 2.12634 5.83339 3.32288 5.83339C4.51953 5.83339 5.48962 6.80336 5.48962 8.00002Z" fill="#2C2F49"/>
<path d="M3.32288 10.6666C1.85229 10.6666 0.65625 9.47072 0.65625 8.00002C0.65625 6.52931 1.85229 5.33339 3.32288 5.33339C4.79358 5.33339 5.98962 6.52931 5.98962 8.00002C5.98962 9.47072 4.79358 10.6666 3.32288 10.6666ZM3.32288 6.33339C2.40356 6.33339 1.65625 7.08131 1.65625 8.00002C1.65625 8.91872 2.40356 9.66664 3.32288 9.66664C4.24231 9.66664 4.98962 8.91872 4.98962 8.00002C4.98962 7.08131 4.24231 6.33339 3.32288 6.33339Z" fill="#2C2F49"/>
<path d="M4.89682 7.68008C4.66477 7.68008 4.43943 7.55935 4.31675 7.34341C4.13474 7.02407 4.2468 6.61672 4.56614 6.43398L10.752 2.90737C11.0714 2.72402 11.4787 2.83608 11.6615 3.15664C11.8435 3.47597 11.7314 3.88332 11.4121 4.06606L5.22605 7.59267C5.12204 7.652 5.00876 7.68008 4.89682 7.68008Z" fill="#2C2F49"/>
<path d="M11.0824 13.1801C10.9703 13.1801 10.8571 13.152 10.753 13.0927L4.56702 9.5661C4.24768 9.38409 4.13575 8.97675 4.31775 8.65668C4.49903 8.33673 4.90699 8.22406 5.22705 8.40741L11.4131 11.934C11.7324 12.116 11.8444 12.5234 11.6623 12.8435C11.5391 13.0594 11.3137 13.1801 11.0824 13.1801Z" fill="#2C2F49"/>
</svg>
