<svg width="25" height="25" viewBox="0 0 25 25" fill="none" xmlns="http://www.w3.org/2000/svg">
<path d="M12.7691 0.224854H12.7631C6.14661 0.224854 0.766113 5.7016 0.766113 12.4361C0.766113 15.1073 1.61211 17.5832 3.05061 19.5934L1.55511 24.1299L6.16761 22.6295C8.06511 23.9086 10.3286 24.6474 12.7691 24.6474C19.3856 24.6474 24.7661 19.1691 24.7661 12.4361C24.7661 5.70313 19.3856 0.224854 12.7691 0.224854ZM19.7516 17.4687C19.4621 18.3006 18.3131 18.9905 17.3966 19.192C16.7696 19.3278 15.9506 19.4362 13.1936 18.2731C9.66711 16.7864 7.39611 13.1398 7.21911 12.9032C7.04961 12.6666 5.79411 10.9723 5.79411 9.21997C5.79411 7.46766 6.66861 6.61439 7.02111 6.24806C7.31061 5.94735 7.78911 5.80998 8.24811 5.80998C8.39661 5.80998 8.53011 5.81761 8.65011 5.82372C9.00261 5.83898 9.17961 5.86035 9.41211 6.42665C9.70161 7.13643 10.4066 8.88874 10.4906 9.06886C10.5761 9.24897 10.6616 9.4932 10.5416 9.72979C10.4291 9.97402 10.3301 10.0824 10.1531 10.29C9.97611 10.4976 9.80811 10.6563 9.63111 10.8792C9.46911 11.073 9.28611 11.2806 9.49011 11.6393C9.69411 11.9904 10.3991 13.1612 11.4371 14.1014C12.7766 15.3149 13.8626 15.7026 14.2511 15.8675C14.5406 15.9896 14.8856 15.9606 15.0971 15.7316C15.3656 15.437 15.6971 14.9486 16.0346 14.4678C16.2746 14.1228 16.5776 14.0801 16.8956 14.2022C17.2196 14.3166 18.9341 15.1791 19.2866 15.3577C19.6391 15.5378 19.8716 15.6233 19.9571 15.7744C20.0411 15.9255 20.0411 16.6353 19.7516 17.4687Z" fill="#2C2F49"/>
</svg>
