<svg width="48" height="48" viewBox="0 0 48 48" fill="none" xmlns="http://www.w3.org/2000/svg">
<path d="M44.9034 36.387C44.9034 41.0904 41.0906 44.9031 36.3872 44.9031C31.6838 44.9031 27.8711 41.0904 27.8711 36.387C27.8711 31.6836 31.6838 27.8708 36.3872 27.8708C41.0906 27.8708 44.9034 31.6836 44.9034 36.387Z" fill="url(#paint0_linear)"/>
<path d="M21.6775 13.1612C21.6775 10.1597 20.6255 7.25341 18.704 4.94784L17.8066 3.87085H16.2582L15.3607 4.94784C13.4392 7.25341 12.3872 10.1597 12.3872 13.1612H21.6775Z" fill="url(#paint1_linear)"/>
<path d="M0.774414 40.2581H6.96796V44.129H0.774414V40.2581Z" fill="url(#paint2_linear)"/>
<path d="M21.6773 17.8064C21.6773 18.234 21.3306 18.5806 20.9031 18.5806C20.4756 18.5806 20.1289 18.234 20.1289 17.8064C20.1289 17.3789 20.4756 17.0322 20.9031 17.0322C21.3306 17.0322 21.6773 17.3789 21.6773 17.8064Z" fill="url(#paint3_linear)"/>
<path d="M13.9356 17.8064C13.9356 18.234 13.5889 18.5806 13.1614 18.5806C12.7339 18.5806 12.3872 18.234 12.3872 17.8064C12.3872 17.3789 12.7339 17.0322 13.1614 17.0322C13.5889 17.0322 13.9356 17.3789 13.9356 17.8064Z" fill="url(#paint4_linear)"/>
<path d="M17.0323 25.5484C18.7402 25.5484 20.1291 24.1596 20.1291 22.4517H18.5807C18.5807 23.3056 17.8863 24 17.0323 24C16.1784 24 15.4839 23.3056 15.4839 22.4517H13.9355C13.9355 24.1596 15.3244 25.5484 17.0323 25.5484Z" fill="url(#paint5_linear)"/>
<path d="M45.3877 31.8205L46.8181 31.2278L47.4109 32.6582L45.9804 33.251L45.3877 31.8205Z" fill="url(#paint6_linear)"/>
<path d="M42.9565 28.7229L44.0513 27.6282L45.1461 28.7229L44.0513 29.8177L42.9565 28.7229Z" fill="url(#paint7_linear)"/>
<path d="M41.7833 29.2319L41.1414 26.664L43.0103 25.4184L42.1507 24.1301L39.3745 25.9813L40.281 29.6069L41.7833 29.2319Z" fill="url(#paint8_linear)"/>
<path d="M48 36.3871C48 36.1092 47.9898 35.8314 47.9705 35.5581L46.4259 35.6685C46.4429 35.9055 46.4516 36.1455 46.4516 36.3871C46.4516 39.1138 45.3784 41.667 43.4308 43.5764L43.9725 44.129L43.4308 43.5764C41.5384 45.4306 39.037 46.4516 36.3871 46.4516C30.8377 46.4516 26.3226 41.9365 26.3226 36.3871C26.3226 30.8377 30.8377 26.3226 36.3871 26.3226C36.8664 26.3226 37.3503 26.3566 37.8262 26.4246L38.044 24.8918C37.4966 24.8135 36.9383 24.7742 36.3871 24.7742C32.1903 24.7742 28.5174 27.0193 26.4776 30.364L22.4516 29.5588V27.1966C23.3574 26.3071 24.0473 25.1983 24.4313 23.9558C26.3604 23.7392 27.871 22.1155 27.871 20.129V13.1613C27.871 8.6817 24.9277 4.87878 20.8737 3.57838C20.7214 1.58241 19.066 0 17.0323 0C14.9985 0 13.3431 1.58241 13.1908 3.57838C9.13684 4.87878 6.19355 8.6817 6.19355 13.1613V20.129C6.19355 22.1155 7.70413 23.7392 9.63319 23.9565C10.0165 25.1991 10.7064 26.3071 11.6129 27.1973V29.5596L4.35635 31.0105C1.83266 31.5151 0 33.7511 0 36.3243V48H36.3871C39.4453 48 42.3315 46.8217 44.5146 44.6817C46.762 42.4793 48 39.5334 48 36.3871ZM26.3226 42.1565V46.4516H17.8065V35.1593L18.0318 34.934C19.7589 35.4401 21.3368 36.3671 22.6111 37.6414L23.7962 38.8337L24.7024 31.5877L25.7257 31.7922C25.1155 33.203 24.7742 34.7552 24.7742 36.3871C24.7742 38.4874 25.3431 40.4539 26.3226 42.1565ZM4.84022 32.4923L9.36215 31.5877L10.2683 38.8337L11.4519 37.6429C12.7277 36.3671 14.3056 35.4394 16.0328 34.934L16.2581 35.1593V46.4516H7.74194V40.5397C7.74194 37.5877 6.70842 34.7589 4.84022 32.4923ZM23.1801 31.2838L22.6406 35.5989C21.6218 34.793 20.4798 34.1545 19.2603 33.7054L21.9315 31.0343L23.1801 31.2838ZM24.7417 22.3193C24.7594 22.1072 24.7742 21.894 24.7742 21.6774V17.949C25.6731 18.2695 26.3226 19.1212 26.3226 20.129C26.3226 21.1486 25.6576 22.0078 24.7417 22.3193ZM26.3226 17.0523C25.8705 16.7102 25.3495 16.4539 24.7742 16.3371V13.9355H26.3226V17.0523ZM17.0323 1.54839C18.0828 1.54839 18.9624 2.25378 19.2479 3.21207C18.7757 3.14403 18.2971 3.09677 17.8065 3.09677H16.2581C15.7674 3.09677 15.2888 3.14403 14.8167 3.21207C15.1021 2.25378 15.9817 1.54839 17.0323 1.54839ZM16.2581 4.64516H17.8065C22.2418 4.64516 25.8954 8.05229 26.2878 12.3871H7.77671C8.1691 8.05229 11.8227 4.64516 16.2581 4.64516ZM23.0833 13.9355C22.7627 14.8344 21.911 15.4839 20.9032 15.4839H13.1613C12.1535 15.4839 11.3018 14.8344 10.9812 13.9355H23.0833ZM9.29032 13.9355V16.3363C8.71497 16.4539 8.19405 16.7094 7.74194 17.0515V13.9355H9.29032ZM7.74194 20.129C7.74194 19.1212 8.39138 18.2695 9.29032 17.949V21.6774C9.29032 21.894 9.30507 22.1072 9.32283 22.3193C8.40688 22.0078 7.74194 21.1486 7.74194 20.129ZM10.8387 21.6774V16.238C11.4874 16.7295 12.2865 17.0323 13.1613 17.0323H20.9032C21.778 17.0323 22.5771 16.7295 23.2258 16.238V21.6774C23.2258 25.0925 20.4473 27.871 17.0323 27.871C13.6172 27.871 10.8387 25.0925 10.8387 21.6774ZM17.0323 29.4194C18.4427 29.4194 19.7627 29.0338 20.9032 28.3718V29.873L17.0323 33.7439L13.1613 29.873V28.3718C14.3018 29.0338 15.6218 29.4194 17.0323 29.4194ZM12.1323 31.0335L14.8034 33.7046C13.5839 34.1537 12.4427 34.7922 11.4231 35.5982L10.8837 31.283L12.1323 31.0335ZM3.32056 33.0828C5.1725 35.1313 6.19355 37.7782 6.19355 40.5397V43.3548H1.54839V36.3243C1.54839 34.9858 2.24735 33.7818 3.32056 33.0828ZM1.54839 44.9032H6.19355V46.4516H1.54839V44.9032ZM27.871 46.4516V44.256C28.669 45.1191 29.5929 45.8615 30.6184 46.4516H27.871Z" fill="url(#paint9_linear)"/>
<path d="M29.4194 42.5807H43.3549V30.1936H29.4194V42.5807ZM37.9356 41.0323H34.8388V39.4839H37.9356V41.0323ZM34.8388 31.742H37.9356V33.2904H34.8388V31.742ZM30.9678 31.742H33.2904V34.8388H39.4839V31.742H41.8065V41.0323H39.4839V37.9355H33.2904V41.0323H30.9678V31.742Z" fill="url(#paint10_linear)"/>
<path d="M9.29053 40.2581H14.7099V41.8064H9.29053V40.2581Z" fill="url(#paint11_linear)"/>
<defs>
<linearGradient id="paint0_linear" x1="27.8711" y1="44.9031" x2="44.1735" y2="44.9031" gradientUnits="userSpaceOnUse">
<stop offset="0.151042" stop-color="#F39324"/>
<stop offset="1" stop-color="#EC663B"/>
</linearGradient>
<linearGradient id="paint1_linear" x1="12.3872" y1="13.1612" x2="21.2794" y2="13.1612" gradientUnits="userSpaceOnUse">
<stop offset="0.151042" stop-color="#F39324"/>
<stop offset="1" stop-color="#EC663B"/>
</linearGradient>
<linearGradient id="paint2_linear" x1="0.774414" y1="44.129" x2="6.70257" y2="44.129" gradientUnits="userSpaceOnUse">
<stop offset="0.151042" stop-color="#F39324"/>
<stop offset="1" stop-color="#EC663B"/>
</linearGradient>
<linearGradient id="paint3_linear" x1="20.1289" y1="17.0322" x2="21.6773" y2="18.5806" gradientUnits="userSpaceOnUse">
<stop offset="0.0238214" stop-color="#4F5062"/>
<stop offset="0.67038" stop-color="#3A3A4A"/>
</linearGradient>
<linearGradient id="paint4_linear" x1="12.3872" y1="17.0322" x2="13.9356" y2="18.5806" gradientUnits="userSpaceOnUse">
<stop offset="0.0238214" stop-color="#4F5062"/>
<stop offset="0.67038" stop-color="#3A3A4A"/>
</linearGradient>
<linearGradient id="paint5_linear" x1="13.9355" y1="22.4517" x2="16.413" y2="27.4065" gradientUnits="userSpaceOnUse">
<stop offset="0.0238214" stop-color="#4F5062"/>
<stop offset="0.67038" stop-color="#3A3A4A"/>
</linearGradient>
<linearGradient id="paint6_linear" x1="45.3877" y1="31.2278" x2="47.4109" y2="33.251" gradientUnits="userSpaceOnUse">
<stop offset="0.0238214" stop-color="#4F5062"/>
<stop offset="0.67038" stop-color="#3A3A4A"/>
</linearGradient>
<linearGradient id="paint7_linear" x1="42.9565" y1="27.6282" x2="45.1461" y2="29.8177" gradientUnits="userSpaceOnUse">
<stop offset="0.0238214" stop-color="#4F5062"/>
<stop offset="0.67038" stop-color="#3A3A4A"/>
</linearGradient>
<linearGradient id="paint8_linear" x1="39.3745" y1="24.1301" x2="44.4218" y2="27.4808" gradientUnits="userSpaceOnUse">
<stop offset="0.0238214" stop-color="#4F5062"/>
<stop offset="0.67038" stop-color="#3A3A4A"/>
</linearGradient>
<linearGradient id="paint9_linear" x1="0" y1="0" x2="48" y2="48" gradientUnits="userSpaceOnUse">
<stop offset="0.0238214" stop-color="#4F5062"/>
<stop offset="0.67038" stop-color="#3A3A4A"/>
</linearGradient>
<linearGradient id="paint10_linear" x1="29.4194" y1="30.1936" x2="41.7211" y2="44.033" gradientUnits="userSpaceOnUse">
<stop offset="0.0238214" stop-color="#4F5062"/>
<stop offset="0.67038" stop-color="#3A3A4A"/>
</linearGradient>
<linearGradient id="paint11_linear" x1="9.29053" y1="40.2581" x2="10.1085" y2="43.1211" gradientUnits="userSpaceOnUse">
<stop offset="0.0238214" stop-color="#4F5062"/>
<stop offset="0.67038" stop-color="#3A3A4A"/>
</linearGradient>
</defs>
</svg>
