<svg width="48" height="48" viewBox="0 0 48 48" fill="none" xmlns="http://www.w3.org/2000/svg">
<path d="M1.5 23.25H19.5V41.25H1.5V23.25Z" fill="url(#paint0_linear)"/>
<path d="M7.5 42.75H13.5V44.25H7.5V42.75Z" fill="url(#paint1_linear)"/>
<path d="M13.5 9.75H12C12 7.68225 13.6823 6 15.75 6V7.5C14.5095 7.5 13.5 8.5095 13.5 9.75Z" fill="url(#paint2_linear)"/>
<path d="M10.5 9.75H9C9 6.0285 12.0285 3 15.75 3V4.5C12.855 4.5 10.5 6.855 10.5 9.75Z" fill="url(#paint3_linear)"/>
<path d="M40.5 36.75V38.25C42.5677 38.25 44.25 36.5677 44.25 34.5H42.75C42.75 35.7405 41.7405 36.75 40.5 36.75Z" fill="url(#paint4_linear)"/>
<path d="M45.75 34.5C45.75 37.3942 43.395 39.75 40.5 39.75V41.25C44.2215 41.25 47.25 38.2222 47.25 34.5H45.75Z" fill="url(#paint5_linear)"/>
<path d="M12.75 20.25H14.25V21.75H12.75V20.25Z" fill="url(#paint6_linear)"/>
<path d="M6.75 20.25H8.25V21.75H6.75V20.25Z" fill="url(#paint7_linear)"/>
<path d="M9.75 20.25H11.25V21.75H9.75V20.25Z" fill="url(#paint8_linear)"/>
<circle cx="27" cy="22" r="2" fill="url(#paint9_linear)"/>
<circle cx="35" cy="30" r="2" fill="url(#paint10_linear)"/>
<path d="M44.0033 14.9272L42.6555 15.5865C43.6035 17.5245 44.13 19.5945 44.229 21.75H39.4635L40.4205 19.8353L39.0788 19.164L37.7865 21.75H35.2305C35.1877 19.1032 34.9178 16.5503 34.4468 14.25H35.0003V12.75H24.4492C25.4827 9.00675 27.0375 6.75 28.5 6.75C30.0225 6.75 31.527 6.96675 32.973 7.39425L33.3982 5.95575C31.8142 5.487 30.1665 5.25 28.5 5.25C21.0082 5.25 14.3453 10.1595 12.0787 17.25H4.5C2.43225 17.25 0.75 18.9323 0.75 21V43.5C0.75 45.5677 2.43225 47.25 4.5 47.25H16.5C18.5677 47.25 20.25 45.5677 20.25 43.5V37.6493C22.7715 39.0247 25.5968 39.75 28.5 39.75C38.0115 39.75 45.75 32.0122 45.75 22.5C45.75 19.8435 45.162 17.2957 44.0033 14.9272ZM35.2282 23.25H37.0365L35.127 27.0682C35.0872 27.06 35.0452 27.0578 35.0047 27.051C35.1315 25.8143 35.2072 24.5445 35.2282 23.25ZM34.5 28.5C35.3273 28.5 36 29.1728 36 30C36 30.8272 35.3273 31.5 34.5 31.5C33.6727 31.5 33 30.8272 33 30C33 29.1728 33.6727 28.5 34.5 28.5ZM31.6065 30.75H24.075C23.7847 29.4135 23.5597 27.9315 23.4195 26.325L25.2097 24.8933C25.7107 25.269 26.3265 25.5 27 25.5C27.555 25.5 28.068 25.3387 28.5143 25.0747L31.9253 28.4857C31.6613 28.932 31.5 29.445 31.5 30C31.5 30.2603 31.5435 30.5085 31.6065 30.75ZM23.298 24.501C23.28 24.0915 23.2703 23.6723 23.2635 23.25H24.1057C24.1485 23.4135 24.1987 23.5732 24.267 23.7255L23.298 24.501ZM25.5 22.5C25.5 21.6728 26.1728 21 27 21C27.8272 21 28.5 21.6728 28.5 22.5C28.5 23.3272 27.8272 24 27 24C26.1728 24 25.5 23.3272 25.5 22.5ZM29.5747 24.0143C29.7142 23.7773 29.8223 23.5222 29.8935 23.25H33.7282C33.7057 24.594 33.6278 25.9125 33.4875 27.1882C33.3113 27.252 33.1447 27.3315 32.9857 27.4253L29.5747 24.0143ZM32.9167 14.25C33.4072 16.527 33.6862 19.0883 33.7305 21.75H29.8935C29.5583 20.46 28.3935 19.5 27 19.5C25.6065 19.5 24.4417 20.46 24.1065 21.75H23.2642C23.3107 18.9368 23.6122 16.4032 24.078 14.25H32.9167ZM25.4422 7.06425C24.4282 8.32275 23.526 10.2315 22.8668 12.75H16.146C18.4538 9.84225 21.7485 7.80225 25.4422 7.06425ZM15.0975 14.25H22.5195C22.083 16.392 21.8062 18.8895 21.765 21.75H20.25V21C20.25 18.9323 18.5677 17.25 16.5 17.25H13.6508C14.0295 16.1895 14.5177 15.1868 15.0975 14.25ZM20.25 23.25H21.765C21.777 24.0818 21.8085 24.882 21.8573 25.6538L20.25 26.9392V23.25ZM20.25 28.8607L22.0095 27.453C22.1355 28.6343 22.3043 29.733 22.512 30.75H20.25V28.8607ZM18.75 43.5C18.75 44.7405 17.7405 45.75 16.5 45.75H4.5C3.2595 45.75 2.25 44.7405 2.25 43.5V21C2.25 19.7595 3.2595 18.75 4.5 18.75H16.5C17.7405 18.75 18.75 19.7595 18.75 21V43.5ZM20.25 35.9025V32.25H22.8592C23.52 34.77 24.4222 36.6862 25.4385 37.9432C23.6047 37.5817 21.8528 36.8895 20.25 35.9025ZM28.5 38.25C27.0368 38.25 25.4797 35.9925 24.444 32.25H32.5365C32.5432 32.256 32.55 32.2612 32.5568 32.2665C31.5457 35.9167 29.976 38.25 28.5 38.25ZM31.5975 37.9403C32.5118 36.7815 33.306 35.094 33.9255 32.9415C34.1123 32.9783 34.3035 33 34.5 33C35.2537 33 35.9355 32.7113 36.4635 32.25H40.8457C38.5702 35.1248 35.3235 37.194 31.5975 37.9403ZM41.8905 30.75H37.3935C37.4565 30.5085 37.5 30.2603 37.5 30C37.5 29.1 37.0935 28.3005 36.4635 27.75L38.7135 23.25H44.2118C44.082 25.992 43.2525 28.548 41.8905 30.75Z" fill="url(#paint11_linear)"/>
<path d="M39.75 0.75C35.6145 0.75 32.25 4.1145 32.25 8.25V8.45625C32.25 9.942 32.6858 11.3805 33.51 12.6165L37.9605 19.2922C38.3595 19.8915 39.0292 20.25 39.75 20.25C40.4707 20.25 41.1405 19.8915 41.5402 19.2922L45.9907 12.6165C46.815 11.3813 47.2507 9.94275 47.2507 8.45625V8.25C47.25 4.1145 43.8855 0.75 39.75 0.75ZM39.75 12C37.6792 12 36 10.3208 36 8.25C36 6.17925 37.6792 4.5 39.75 4.5C41.8207 4.5 43.5 6.17925 43.5 8.25C43.5 10.3208 41.8207 12 39.75 12Z" fill="url(#paint12_linear)"/>
<path d="M39.75 12.75C37.2682 12.75 35.25 10.7318 35.25 8.25C35.25 5.76825 37.2682 3.75 39.75 3.75C42.2318 3.75 44.25 5.76825 44.25 8.25C44.25 10.7318 42.2318 12.75 39.75 12.75ZM39.75 5.25C38.0955 5.25 36.75 6.5955 36.75 8.25C36.75 9.9045 38.0955 11.25 39.75 11.25C41.4045 11.25 42.75 9.9045 42.75 8.25C42.75 6.5955 41.4045 5.25 39.75 5.25Z" fill="url(#paint13_linear)"/>
<defs>
<linearGradient id="paint0_linear" x1="1.5" y1="41.25" x2="18.7287" y2="41.25" gradientUnits="userSpaceOnUse">
<stop offset="0.151042" stop-color="#F39324"/>
<stop offset="1" stop-color="#EC663B"/>
</linearGradient>
<linearGradient id="paint1_linear" x1="7.5" y1="42.75" x2="8.20588" y2="45.5735" gradientUnits="userSpaceOnUse">
<stop offset="0.0238214" stop-color="#4F5062"/>
<stop offset="0.67038" stop-color="#3A3A4A"/>
</linearGradient>
<linearGradient id="paint2_linear" x1="12" y1="6" x2="15.75" y2="9.75" gradientUnits="userSpaceOnUse">
<stop offset="0.0238214" stop-color="#4F5062"/>
<stop offset="0.67038" stop-color="#3A3A4A"/>
</linearGradient>
<linearGradient id="paint3_linear" x1="9" y1="3" x2="15.75" y2="9.75" gradientUnits="userSpaceOnUse">
<stop offset="0.0238214" stop-color="#4F5062"/>
<stop offset="0.67038" stop-color="#3A3A4A"/>
</linearGradient>
<linearGradient id="paint4_linear" x1="40.5" y1="34.5" x2="44.25" y2="38.25" gradientUnits="userSpaceOnUse">
<stop offset="0.0238214" stop-color="#4F5062"/>
<stop offset="0.67038" stop-color="#3A3A4A"/>
</linearGradient>
<linearGradient id="paint5_linear" x1="40.5" y1="34.5" x2="47.25" y2="41.25" gradientUnits="userSpaceOnUse">
<stop offset="0.0238214" stop-color="#4F5062"/>
<stop offset="0.67038" stop-color="#3A3A4A"/>
</linearGradient>
<linearGradient id="paint6_linear" x1="12.75" y1="20.25" x2="14.25" y2="21.75" gradientUnits="userSpaceOnUse">
<stop offset="0.0238214" stop-color="#4F5062"/>
<stop offset="0.67038" stop-color="#3A3A4A"/>
</linearGradient>
<linearGradient id="paint7_linear" x1="6.75" y1="20.25" x2="8.25" y2="21.75" gradientUnits="userSpaceOnUse">
<stop offset="0.0238214" stop-color="#4F5062"/>
<stop offset="0.67038" stop-color="#3A3A4A"/>
</linearGradient>
<linearGradient id="paint8_linear" x1="9.75" y1="20.25" x2="11.25" y2="21.75" gradientUnits="userSpaceOnUse">
<stop offset="0.0238214" stop-color="#4F5062"/>
<stop offset="0.67038" stop-color="#3A3A4A"/>
</linearGradient>
<linearGradient id="paint9_linear" x1="25" y1="24" x2="28.8286" y2="24" gradientUnits="userSpaceOnUse">
<stop offset="0.151042" stop-color="#F39324"/>
<stop offset="1" stop-color="#EC663B"/>
</linearGradient>
<linearGradient id="paint10_linear" x1="33" y1="32" x2="36.8286" y2="32" gradientUnits="userSpaceOnUse">
<stop offset="0.151042" stop-color="#F39324"/>
<stop offset="1" stop-color="#EC663B"/>
</linearGradient>
<linearGradient id="paint11_linear" x1="0.75" y1="5.25" x2="42.6502" y2="50.1431" gradientUnits="userSpaceOnUse">
<stop offset="0.0238214" stop-color="#4F5062"/>
<stop offset="0.67038" stop-color="#3A3A4A"/>
</linearGradient>
<linearGradient id="paint12_linear" x1="32.25" y1="20.25" x2="46.608" y2="20.25" gradientUnits="userSpaceOnUse">
<stop offset="0.151042" stop-color="#F39324"/>
<stop offset="1" stop-color="#EC663B"/>
</linearGradient>
<linearGradient id="paint13_linear" x1="35.25" y1="3.75" x2="44.25" y2="12.75" gradientUnits="userSpaceOnUse">
<stop offset="0.0238214" stop-color="#4F5062"/>
<stop offset="0.67038" stop-color="#3A3A4A"/>
</linearGradient>
</defs>
</svg>
