<svg width="48" height="48" viewBox="0 0 48 48" fill="none" xmlns="http://www.w3.org/2000/svg">
<path d="M8.51611 21.6772H18.5806V26.3224H8.51611V21.6772Z" fill="url(#paint0_linear)"/>
<path d="M22 1H31V7H22V1Z" fill="url(#paint1_linear)"/>
<path d="M31 21H40V25H31V21Z" fill="url(#paint2_linear)"/>
<path d="M31 37H40V41H31V37Z" fill="url(#paint3_linear)"/>
<path d="M16.2582 37.1613C16.2582 40.5821 13.4854 43.3549 10.0646 43.3549C6.6439 43.3549 3.87109 40.5821 3.87109 37.1613C3.87109 33.7406 6.6439 30.9678 10.0646 30.9678C13.4854 30.9678 16.2582 33.7406 16.2582 37.1613Z" fill="url(#paint4_linear)"/>
<path d="M39.484 17.0322H41.0324V10.8386H34.8389V12.387H36.3873V15.4838H39.484V17.0322Z" fill="url(#paint5_linear)"/>
<path d="M10.0643 37.615L8.28909 35.8398L7.19434 36.9345L10.0643 39.8045L18.3536 31.5152L17.2589 30.4204L10.0643 37.615Z" fill="url(#paint6_linear)"/>
<path d="M14.6849 36.6827C14.7011 36.84 14.7098 37.0003 14.7098 37.1613C14.7098 39.7232 12.6265 41.8065 10.0646 41.8065C7.50277 41.8065 5.41948 39.7232 5.41948 37.1613C5.41948 34.5995 7.50277 32.5162 10.0646 32.5162C10.928 32.5162 11.7756 32.76 12.5158 33.2216L13.3357 31.9075C12.3487 31.2929 11.2172 30.9678 10.0646 30.9678C6.64957 30.9678 3.87109 33.7463 3.87109 37.1613C3.87109 40.5764 6.64957 43.3549 10.0646 43.3549C13.4797 43.3549 16.2582 40.5764 16.2582 37.1613C16.2582 36.947 16.2465 36.7323 16.2257 36.524L14.6849 36.6827Z" fill="url(#paint7_linear)"/>
<path d="M8.51611 21.6775H10.0645V23.2259H8.51611V21.6775Z" fill="url(#paint8_linear)"/>
<path d="M11.6128 21.6775H18.5805V23.2259H11.6128V21.6775Z" fill="url(#paint9_linear)"/>
<path d="M8.51611 24.7742H10.0645V26.3226H8.51611V24.7742Z" fill="url(#paint10_linear)"/>
<path d="M11.6128 24.7742H18.5805V26.3226H11.6128V24.7742Z" fill="url(#paint11_linear)"/>
<path d="M33.2905 10.8386H34.8389V12.387H33.2905V10.8386Z" fill="url(#paint12_linear)"/>
<path d="M36.3872 10.8386H37.9356V12.387H36.3872V10.8386Z" fill="url(#paint13_linear)"/>
<path d="M39.4839 10.8386H41.0323V12.387H39.4839V10.8386Z" fill="url(#paint14_linear)"/>
<path d="M36.3872 13.9355H37.9356V15.4839H36.3872V13.9355Z" fill="url(#paint15_linear)"/>
<path d="M39.4839 13.9355H41.0323V15.4839H39.4839V13.9355Z" fill="url(#paint16_linear)"/>
<path d="M39.4839 17.0322H41.0323V18.5806H39.4839V17.0322Z" fill="url(#paint17_linear)"/>
<path d="M44.129 20.129V0H8.51613V18.5806H5.87298L0 24.4536V48H21.6774V27.871H23.2258V41.8064H48V20.129H44.129ZM27.0968 3.09677V6.19355H25.5484V3.09677H24V6.19355H22.4516V1.54839H30.1935V6.19355H28.6452V3.09677H27.0968ZM5.41935 21.2238V24H2.64315L5.41935 21.2238ZM20.129 46.4516H1.54839V25.5484H6.96774V20.129H20.129V46.4516ZM21.6774 26.3226V18.5806H10.0645V1.54839H20.9032V7.74194H31.7419V1.54839H42.5806V20.129H23.2258V26.3226H21.6774ZM36.3871 23.2258V24.7742H34.8387V23.2258H33.2903V24.7742H31.7419V21.6774H39.4839V24.7742H37.9355V23.2258H36.3871ZM34.8387 38.7097V37.1613H36.3871V38.7097H37.9355V37.1613H39.4839V40.2581H31.7419V37.1613H33.2903V38.7097H34.8387ZM46.4516 40.2581H41.0323V35.6129H30.1935V40.2581H24.7742V21.6774H30.1935V26.3226H41.0323V21.6774H46.4516V40.2581Z" fill="url(#paint18_linear)"/>
<defs>
<linearGradient id="paint0_linear" x1="8.51611" y1="26.3224" x2="18.1494" y2="26.3224" gradientUnits="userSpaceOnUse">
<stop offset="0.151042" stop-color="#F39324"/>
<stop offset="1" stop-color="#EC663B"/>
</linearGradient>
<linearGradient id="paint1_linear" x1="22" y1="7" x2="30.6143" y2="7" gradientUnits="userSpaceOnUse">
<stop offset="0.151042" stop-color="#F39324"/>
<stop offset="1" stop-color="#EC663B"/>
</linearGradient>
<linearGradient id="paint2_linear" x1="31" y1="25" x2="39.6143" y2="25" gradientUnits="userSpaceOnUse">
<stop offset="0.151042" stop-color="#F39324"/>
<stop offset="1" stop-color="#EC663B"/>
</linearGradient>
<linearGradient id="paint3_linear" x1="31" y1="41" x2="39.6143" y2="41" gradientUnits="userSpaceOnUse">
<stop offset="0.151042" stop-color="#F39324"/>
<stop offset="1" stop-color="#EC663B"/>
</linearGradient>
<linearGradient id="paint4_linear" x1="3.87109" y1="43.3549" x2="15.7274" y2="43.3549" gradientUnits="userSpaceOnUse">
<stop offset="0.151042" stop-color="#F39324"/>
<stop offset="1" stop-color="#EC663B"/>
</linearGradient>
<linearGradient id="paint5_linear" x1="34.8389" y1="17.0322" x2="40.767" y2="17.0322" gradientUnits="userSpaceOnUse">
<stop offset="0.151042" stop-color="#F39324"/>
<stop offset="1" stop-color="#EC663B"/>
</linearGradient>
<linearGradient id="paint6_linear" x1="7.19434" y1="30.4204" x2="16.4393" y2="41.4143" gradientUnits="userSpaceOnUse">
<stop offset="0.0238214" stop-color="#4F5062"/>
<stop offset="0.67038" stop-color="#3A3A4A"/>
</linearGradient>
<linearGradient id="paint7_linear" x1="3.87109" y1="30.9678" x2="16.2582" y2="43.3549" gradientUnits="userSpaceOnUse">
<stop offset="0.0238214" stop-color="#4F5062"/>
<stop offset="0.67038" stop-color="#3A3A4A"/>
</linearGradient>
<linearGradient id="paint8_linear" x1="8.51611" y1="21.6775" x2="10.0645" y2="23.2259" gradientUnits="userSpaceOnUse">
<stop offset="0.0238214" stop-color="#4F5062"/>
<stop offset="0.67038" stop-color="#3A3A4A"/>
</linearGradient>
<linearGradient id="paint9_linear" x1="11.6128" y1="21.6775" x2="12.2686" y2="24.6285" gradientUnits="userSpaceOnUse">
<stop offset="0.0238214" stop-color="#4F5062"/>
<stop offset="0.67038" stop-color="#3A3A4A"/>
</linearGradient>
<linearGradient id="paint10_linear" x1="8.51611" y1="24.7742" x2="10.0645" y2="26.3226" gradientUnits="userSpaceOnUse">
<stop offset="0.0238214" stop-color="#4F5062"/>
<stop offset="0.67038" stop-color="#3A3A4A"/>
</linearGradient>
<linearGradient id="paint11_linear" x1="11.6128" y1="24.7742" x2="12.2686" y2="27.7252" gradientUnits="userSpaceOnUse">
<stop offset="0.0238214" stop-color="#4F5062"/>
<stop offset="0.67038" stop-color="#3A3A4A"/>
</linearGradient>
<linearGradient id="paint12_linear" x1="33.2905" y1="10.8386" x2="34.8389" y2="12.387" gradientUnits="userSpaceOnUse">
<stop offset="0.0238214" stop-color="#4F5062"/>
<stop offset="0.67038" stop-color="#3A3A4A"/>
</linearGradient>
<linearGradient id="paint13_linear" x1="36.3872" y1="10.8386" x2="37.9356" y2="12.387" gradientUnits="userSpaceOnUse">
<stop offset="0.0238214" stop-color="#4F5062"/>
<stop offset="0.67038" stop-color="#3A3A4A"/>
</linearGradient>
<linearGradient id="paint14_linear" x1="39.4839" y1="10.8386" x2="41.0323" y2="12.387" gradientUnits="userSpaceOnUse">
<stop offset="0.0238214" stop-color="#4F5062"/>
<stop offset="0.67038" stop-color="#3A3A4A"/>
</linearGradient>
<linearGradient id="paint15_linear" x1="36.3872" y1="13.9355" x2="37.9356" y2="15.4839" gradientUnits="userSpaceOnUse">
<stop offset="0.0238214" stop-color="#4F5062"/>
<stop offset="0.67038" stop-color="#3A3A4A"/>
</linearGradient>
<linearGradient id="paint16_linear" x1="39.4839" y1="13.9355" x2="41.0323" y2="15.4839" gradientUnits="userSpaceOnUse">
<stop offset="0.0238214" stop-color="#4F5062"/>
<stop offset="0.67038" stop-color="#3A3A4A"/>
</linearGradient>
<linearGradient id="paint17_linear" x1="39.4839" y1="17.0322" x2="41.0323" y2="18.5806" gradientUnits="userSpaceOnUse">
<stop offset="0.0238214" stop-color="#4F5062"/>
<stop offset="0.67038" stop-color="#3A3A4A"/>
</linearGradient>
<linearGradient id="paint18_linear" x1="0" y1="0" x2="48" y2="48" gradientUnits="userSpaceOnUse">
<stop offset="0.0238214" stop-color="#4F5062"/>
<stop offset="0.67038" stop-color="#3A3A4A"/>
</linearGradient>
</defs>
</svg>
