<svg width="32" height="32" viewBox="0 0 32 32" fill="none" xmlns="http://www.w3.org/2000/svg">
<path d="M4.00725 4.46021L0 8.46752L11.1988 12.8539L17.4768 6.57589L4.00725 4.46021Z" fill="#2C2F49"/>
<path d="M31.3686 0.63096C30.6084 -0.129228 29.2946 -0.203978 27.5682 0.41471C26.381 0.840335 25.1357 1.55359 24.54 2.14934L8.88923 17.8002L2.92222 18.1497L0.0610352 21.0108L4.73641 23.2668L6.9566 21.0466L9.5651 21.0931L6.52735 24.1308L6.53666 24.1353L4.72254 25.9495L6.05004 27.277L7.86173 25.4653L7.87041 25.4833L10.9129 22.4408V25.0958L8.73535 27.2734L10.9893 31.9379L13.8498 29.0773L14.1993 23.1103L29.8501 7.45946C30.4459 6.86378 31.1592 5.61853 31.5848 4.43127C32.2035 2.70521 32.1287 1.39102 31.3686 0.63096Z" fill="#2C2F49"/>
<path d="M25.5023 14.5042L19.2334 20.7731L23.6022 31.9268L27.6095 27.9196L25.5023 14.5042Z" fill="#2C2F49"/>
</svg>
