<svg width="40" height="42" viewBox="0 0 40 42" fill="none" xmlns="http://www.w3.org/2000/svg">
<path d="M12.147 12.4985H2.67138C2.35269 12.4985 2.09424 12.7569 2.09424 13.0757V17.3846C2.09424 17.7034 2.35269 17.9619 2.67138 17.9619H12.147C12.4658 17.9619 12.7243 17.7034 12.7243 17.3846V13.0757C12.7243 12.7569 12.4658 12.4985 12.147 12.4985Z" fill="url(#paint0_linear)"/>
<path d="M30.7657 14.1084H27.3483C27.2118 14.1084 27.1011 14.2192 27.1011 14.3558V17.7731C27.1011 17.9097 27.2118 18.0205 27.3483 18.0205H30.7657C30.9022 18.0205 31.0129 17.9097 31.0129 17.7731V14.3558C31.0129 14.2192 30.9022 14.1084 30.7657 14.1084Z" fill="url(#paint1_linear)"/>
<path d="M25.2837 14.1084H21.8666C21.7297 14.1084 21.6191 14.2192 21.6191 14.3558V17.7731C21.6191 17.9097 21.7297 18.0205 21.8666 18.0205H25.2837C25.4206 18.0205 25.5313 17.9097 25.5313 17.7731V14.3558C25.5313 14.2192 25.4205 14.1084 25.2837 14.1084Z" fill="url(#paint2_linear)"/>
<path d="M19.8018 14.1084H16.3846C16.2479 14.1084 16.1372 14.2192 16.1372 14.3558V17.7731C16.1372 17.9097 16.2479 18.0205 16.3846 18.0205H19.8018C19.9383 18.0205 20.049 17.9097 20.049 17.7731V14.3558C20.0491 14.2192 19.9383 14.1084 19.8018 14.1084Z" fill="url(#paint3_linear)"/>
<path d="M25.2837 8.98242H21.8666C21.7297 8.98242 21.6191 9.0932 21.6191 9.22977V12.6471C21.6191 12.7836 21.7297 12.8944 21.8666 12.8944H25.2837C25.4206 12.8944 25.5313 12.7836 25.5313 12.6471V9.22977C25.5313 9.0932 25.4205 8.98242 25.2837 8.98242Z" fill="url(#paint4_linear)"/>
<path d="M19.8018 8.98242H16.3846C16.2479 8.98242 16.1372 9.0932 16.1372 9.22977V12.6471C16.1372 12.7836 16.2479 12.8944 16.3846 12.8944H19.8018C19.9383 12.8944 20.049 12.7836 20.049 12.6471V9.22977C20.0491 9.0932 19.9383 8.98242 19.8018 8.98242Z" fill="url(#paint5_linear)"/>
<path d="M8.94934 6.76758H5.86935C5.68722 6.76758 5.53955 6.91533 5.53955 7.09745V11.0039C5.53955 11.186 5.68722 11.3338 5.86935 11.3338H8.94934C9.13154 11.3338 9.27913 11.1861 9.27913 11.0039V7.09745C9.27913 6.91533 9.13146 6.76758 8.94934 6.76758Z" fill="url(#paint6_linear)"/>
<path d="M8.94934 4.0777H7.90403V0.494692C7.90403 0.221469 7.68248 0 7.40926 0C7.13595 0 6.91449 0.221469 6.91449 0.494692V4.0777H5.86935C5.68722 4.0777 5.53955 4.22538 5.53955 4.40758V5.27288C5.53955 5.45492 5.68722 5.60268 5.86935 5.60268H8.94934C9.13154 5.60268 9.27913 5.45492 9.27913 5.27288V4.40758C9.27913 4.22538 9.13146 4.0777 8.94934 4.0777Z" fill="url(#paint7_linear)"/>
<path d="M39.974 18.2135C39.9378 18.1482 39.8689 18.1077 39.794 18.1077H33.2202C33.1568 18.1077 33.0968 18.1369 33.0578 18.1868L32.1861 19.3021H0.206199C0.137628 19.3021 0.0737094 19.3362 0.0352605 19.3931C-0.00302508 19.4499 -0.0106985 19.5222 0.0150157 19.5857C0.0150157 19.5857 2.80742 26.4842 3.7399 28.7831C3.7715 28.8609 3.84709 28.9117 3.93101 28.9117H33.3461C33.4176 28.9117 33.4903 28.887 33.5351 28.8142C35.1383 26.2129 39.9691 18.4224 39.9691 18.4224C40.0085 18.3588 40.0103 18.2789 39.974 18.2135ZM26.8425 23.3739C26.3957 23.3739 26.0332 23.0115 26.0332 22.5645C26.0332 22.1174 26.3957 21.7551 26.8425 21.7551C27.2896 21.7551 27.652 22.1175 27.652 22.5645C27.652 23.0114 27.2897 23.3739 26.8425 23.3739ZM30.766 23.3739C30.3188 23.3739 29.9565 23.0115 29.9565 22.5645C29.9565 22.1174 30.3188 21.7551 30.766 21.7551C31.2128 21.7551 31.5751 22.1175 31.5751 22.5645C31.5751 23.0114 31.2127 23.3739 30.766 23.3739Z" fill="url(#paint8_linear)"/>
<path d="M32.2422 30C32.2422 30.7554 31.5801 31.3696 30.7656 31.3696C29.9512 31.3696 29.2949 30.7554 29.2949 30H27.5371C27.5371 30.7554 26.875 31.3696 26.0605 31.3696C25.2461 31.3696 24.584 30.7554 24.584 30H22.8262C22.8262 30.7554 22.1641 31.3696 21.3496 31.3696C20.5352 31.3696 19.8789 30.7554 19.8789 30H18.1211C18.1211 30.7554 17.459 31.3696 16.6445 31.3696C15.8301 31.3696 15.168 30.7554 15.168 30H13.4102C13.4102 30.7554 12.748 31.3696 11.9336 31.3696C11.1191 31.3696 10.457 30.7554 10.457 30H8.69922C8.69922 30.7554 8.03711 31.3696 7.22266 31.3696C6.4082 31.3696 5.75781 30.7554 5.75781 30H4C4 31.6522 5.44727 33 7.23438 33C8.16016 33 8.99805 32.6359 9.58984 32.0543C10.1816 32.6359 11.0137 33 11.9453 33C12.877 33 13.709 32.6359 14.3008 32.0543C14.8926 32.6359 15.7246 33 16.6562 33C17.5879 33 18.4199 32.6359 19.0117 32.0543C19.6035 32.6359 20.4355 33 21.3672 33C22.2988 33 23.1309 32.6359 23.7227 32.0543C24.3145 32.6359 25.1465 33 26.0781 33C27.0098 33 27.8418 32.6359 28.4336 32.0543C29.0254 32.6359 29.8574 33 30.7891 33C32.5527 33 34 31.6522 34 30H32.2422Z" fill="url(#paint9_linear)"/>
<defs>
<linearGradient id="paint0_linear" x1="2.09424" y1="12.4985" x2="6.5367" y2="21.1421" gradientUnits="userSpaceOnUse">
<stop offset="0.0238214" stop-color="#4F5062"/>
<stop offset="0.67038" stop-color="#3A3A4A"/>
</linearGradient>
<linearGradient id="paint1_linear" x1="27.1011" y1="14.1084" x2="31.0131" y2="18.0202" gradientUnits="userSpaceOnUse">
<stop offset="0.0238214" stop-color="#4F5062"/>
<stop offset="0.67038" stop-color="#3A3A4A"/>
</linearGradient>
<linearGradient id="paint2_linear" x1="21.6191" y1="14.1084" x2="25.5312" y2="18.0206" gradientUnits="userSpaceOnUse">
<stop offset="0.0238214" stop-color="#4F5062"/>
<stop offset="0.67038" stop-color="#3A3A4A"/>
</linearGradient>
<linearGradient id="paint3_linear" x1="16.1372" y1="14.1084" x2="20.0493" y2="18.0202" gradientUnits="userSpaceOnUse">
<stop offset="0.0238214" stop-color="#4F5062"/>
<stop offset="0.67038" stop-color="#3A3A4A"/>
</linearGradient>
<linearGradient id="paint4_linear" x1="21.6191" y1="8.98242" x2="25.5311" y2="12.8946" gradientUnits="userSpaceOnUse">
<stop offset="0.0238214" stop-color="#4F5062"/>
<stop offset="0.67038" stop-color="#3A3A4A"/>
</linearGradient>
<linearGradient id="paint5_linear" x1="16.1372" y1="8.98242" x2="20.0492" y2="12.8942" gradientUnits="userSpaceOnUse">
<stop offset="0.0238214" stop-color="#4F5062"/>
<stop offset="0.67038" stop-color="#3A3A4A"/>
</linearGradient>
<linearGradient id="paint6_linear" x1="5.53955" y1="6.76758" x2="10.0162" y2="10.4338" gradientUnits="userSpaceOnUse">
<stop offset="0.0238214" stop-color="#4F5062"/>
<stop offset="0.67038" stop-color="#3A3A4A"/>
</linearGradient>
<linearGradient id="paint7_linear" x1="5.53955" y1="0" x2="10.7136" y2="3.45351" gradientUnits="userSpaceOnUse">
<stop offset="0.0238214" stop-color="#4F5062"/>
<stop offset="0.67038" stop-color="#3A3A4A"/>
</linearGradient>
<linearGradient id="paint8_linear" x1="0" y1="18.1077" x2="5.43954" y2="38.2465" gradientUnits="userSpaceOnUse">
<stop offset="0.0238214" stop-color="#4F5062"/>
<stop offset="0.67038" stop-color="#3A3A4A"/>
</linearGradient>
<linearGradient id="paint9_linear" x1="4" y1="30" x2="4.59406" y2="35.9406" gradientUnits="userSpaceOnUse">
<stop offset="0.0238214" stop-color="#4F5062"/>
<stop offset="0.67038" stop-color="#3A3A4A"/>
</linearGradient>
</defs>
</svg>
