<svg width="46" height="30" viewBox="0 0 46 30" fill="none" xmlns="http://www.w3.org/2000/svg">
<path d="M37.8574 21.9797C35.7148 21.9797 33.9717 23.7233 33.9717 25.8655C33.9717 28.008 35.7148 29.7512 37.8574 29.7512C39.9995 29.7512 41.7431 28.008 41.7431 25.8655C41.7431 23.7233 39.9995 21.9797 37.8574 21.9797ZM37.8574 27.0083C37.227 27.0083 36.7145 26.4958 36.7145 25.8655C36.7145 25.2351 37.227 24.7226 37.8574 24.7226C38.4878 24.7226 39.0003 25.2351 39.0003 25.8655C39.0003 26.4958 38.4878 27.0083 37.8574 27.0083Z" fill="#2C2F49"/>
<path d="M37.4853 5.82764H30.7717C30.2665 5.82764 29.8574 6.23727 29.8574 6.74192V24.5705C29.8574 25.0751 30.2665 25.4848 30.7717 25.4848H31.7413C32.1939 25.4848 32.5948 25.1588 32.6533 24.7099C33.0122 21.9607 35.2051 20.2556 37.8579 20.2556C40.5106 20.2556 42.7036 21.9607 43.0624 24.7099C43.1209 25.1589 43.5214 25.4848 43.9744 25.4848H44.9431C45.4477 25.4848 45.8574 25.0751 45.8574 24.5705V15.6562C45.8574 15.4414 45.7819 15.2338 45.6443 15.0697L38.1865 6.15541C38.0129 5.9479 37.7559 5.82764 37.4853 5.82764ZM31.686 13.1419V8.57049C31.686 8.06584 32.0951 7.65621 32.6003 7.65621H36.6277C36.8988 7.65621 37.1562 7.77692 37.3298 7.98532L41.1392 12.5567C41.6352 13.1524 41.2119 14.0562 40.4366 14.0562H32.6003C32.0951 14.0562 31.686 13.6471 31.686 13.1419Z" fill="#2C2F49"/>
<path d="M1.05686 25.4853H3.39793C3.85051 25.4853 4.25141 25.1593 4.3099 24.7104C4.66874 21.9612 6.86168 20.2561 9.51446 20.2561C12.1672 20.2561 14.3602 21.9612 14.719 24.7104C14.7775 25.1594 15.1779 25.4853 15.631 25.4853H27.114C27.6187 25.4853 28.0283 25.0756 28.0283 24.571V1.71385C28.0283 1.2092 27.6187 0.799561 27.114 0.799561H1.05686C0.551691 0.799561 0.142578 1.2092 0.142578 1.71385V24.571C0.142578 25.0757 0.551691 25.4853 1.05686 25.4853Z" fill="#2C2F49"/>
<path d="M9.51364 21.9797C7.37105 21.9797 5.62793 23.7233 5.62793 25.8655C5.62793 28.008 7.37105 29.7512 9.51364 29.7512C11.6558 29.7512 13.3994 28.008 13.3994 25.8655C13.3994 23.7233 11.6558 21.9797 9.51364 21.9797ZM9.51364 27.0083C8.88328 27.0083 8.37079 26.4958 8.37079 25.8655C8.37079 25.2351 8.88328 24.7226 9.51364 24.7226C10.144 24.7226 10.6565 25.2351 10.6565 25.8655C10.6565 26.4958 10.144 27.0083 9.51364 27.0083Z" fill="#2C2F49"/>
</svg>
