<svg width="40" height="26" viewBox="0 0 40 26" fill="none" xmlns="http://www.w3.org/2000/svg">
<path d="M33.0001 18.5325C31.1253 18.5325 29.6001 20.0581 29.6001 21.9325C29.6001 23.8072 31.1253 25.3325 33.0001 25.3325C34.8745 25.3325 36.4001 23.8072 36.4001 21.9325C36.4001 20.0581 34.8745 18.5325 33.0001 18.5325ZM33.0001 22.9325C32.4485 22.9325 32.0001 22.484 32.0001 21.9325C32.0001 21.3809 32.4485 20.9325 33.0001 20.9325C33.5517 20.9325 34.0001 21.3809 34.0001 21.9325C34.0001 22.484 33.5517 22.9325 33.0001 22.9325Z" fill="url(#paint0_linear)"/>
<path d="M32.6744 4.39966H26.8C26.358 4.39966 26 4.75809 26 5.19966V20.7997C26 21.2412 26.358 21.5997 26.8 21.5997H27.6484C28.0444 21.5997 28.3952 21.3144 28.4464 20.9217C28.7604 18.5161 30.6792 17.0241 33.0004 17.0241C35.3216 17.0241 37.2404 18.5161 37.5544 20.9217C37.6056 21.3145 37.9559 21.5997 38.3524 21.5997H39.1999C39.6415 21.5997 39.9999 21.2412 39.9999 20.7997V12.9997C39.9999 12.8117 39.9339 12.63 39.8135 12.4865L33.2879 4.68646C33.136 4.50489 32.9112 4.39966 32.6744 4.39966ZM27.6 10.7997V6.79966C27.6 6.35809 27.958 5.99966 28.4 5.99966H31.924C32.1612 5.99966 32.3864 6.10528 32.5384 6.28763L35.8716 10.2876C36.3056 10.8088 35.9352 11.5997 35.2568 11.5997H28.4C27.958 11.5997 27.6 11.2417 27.6 10.7997Z" fill="url(#paint1_linear)"/>
<path d="M0.8 21.6H2.84843C3.24444 21.6 3.59523 21.3148 3.64641 20.922C3.96039 18.5164 5.87922 17.0244 8.20039 17.0244C10.5216 17.0244 12.4404 18.5165 12.7544 20.922C12.8056 21.3148 13.1559 21.6 13.5524 21.6H23.6C24.0416 21.6 24.4 21.2416 24.4 20.8V0.8C24.4 0.358431 24.0416 0 23.6 0H0.8C0.357974 0 0 0.358431 0 0.8V20.8C0 21.2416 0.357974 21.6 0.8 21.6Z" fill="url(#paint2_linear)"/>
<path d="M8.1998 18.5325C6.32503 18.5325 4.7998 20.0581 4.7998 21.9325C4.7998 23.8072 6.32503 25.3325 8.1998 25.3325C10.0742 25.3325 11.5998 23.8072 11.5998 21.9325C11.5998 20.0581 10.0742 18.5325 8.1998 18.5325ZM8.1998 22.9325C7.64824 22.9325 7.1998 22.484 7.1998 21.9325C7.1998 21.3809 7.64824 20.9325 8.1998 20.9325C8.75137 20.9325 9.1998 21.3809 9.1998 21.9325C9.1998 22.484 8.75137 22.9325 8.1998 22.9325Z" fill="url(#paint3_linear)"/>
<defs>
<linearGradient id="paint0_linear" x1="29.6001" y1="18.5325" x2="36.4001" y2="25.3325" gradientUnits="userSpaceOnUse">
<stop offset="0.0238214" stop-color="#4F5062"/>
<stop offset="0.67038" stop-color="#3A3A4A"/>
</linearGradient>
<linearGradient id="paint1_linear" x1="26" y1="4.39966" x2="42.8419" y2="18.1081" gradientUnits="userSpaceOnUse">
<stop offset="0.0238214" stop-color="#4F5062"/>
<stop offset="0.67038" stop-color="#3A3A4A"/>
</linearGradient>
<linearGradient id="paint2_linear" x1="0" y1="0" x2="21.4405" y2="24.2199" gradientUnits="userSpaceOnUse">
<stop offset="0.0238214" stop-color="#4F5062"/>
<stop offset="0.67038" stop-color="#3A3A4A"/>
</linearGradient>
<linearGradient id="paint3_linear" x1="4.7998" y1="18.5325" x2="11.5998" y2="25.3325" gradientUnits="userSpaceOnUse">
<stop offset="0.0238214" stop-color="#4F5062"/>
<stop offset="0.67038" stop-color="#3A3A4A"/>
</linearGradient>
</defs>
</svg>
