<svg width="40" height="25" viewBox="0 0 40 25" fill="none" xmlns="http://www.w3.org/2000/svg">
<g clip-path="url(#clip0)">
<path d="M39.1641 17.8359H39.0312H38.3281H1.66406H0.867188H0.835938C0.375 17.8359 0 18.2109 0 18.6719C0 19.1328 0.375 19.5078 0.835938 19.5078H2.13281C1.84375 20 1.67188 20.5625 1.67188 21.1719C1.67188 23.0078 3.16406 24.5078 5.00781 24.5078C6.84375 24.5078 8.34375 23.0156 8.34375 21.1797C8.34375 23.0156 9.83594 24.5078 11.6797 24.5078C13.5156 24.5078 15.0156 23.0156 15.0156 21.1719C15.0156 20.5625 14.8359 20 14.5547 19.5078H14.6719L16.0938 20.9297C16.25 21.0859 16.4609 21.1719 16.6797 21.1719H23.3438C23.5625 21.1719 23.7734 21.0859 23.9297 20.9297L25.3516 19.5078H25.4688C25.1797 20 25.0078 20.5625 25.0078 21.1719C25.0078 23.0078 26.5 24.5078 28.3438 24.5078C30.1797 24.5078 31.6797 23.0156 31.6797 21.1797C31.6797 23.0156 33.1719 24.5078 35.0156 24.5078C36.8516 24.5078 38.3516 23.0156 38.3516 21.1719C38.3516 20.5625 38.1719 20 37.8906 19.5078H39.1875C39.6484 19.5078 40.0234 19.1328 40.0234 18.6719C40 18.2109 39.625 17.8359 39.1641 17.8359ZM5 22.2031C4.44531 22.2031 4 21.7578 4 21.2031C4 20.6484 4.44531 20.2031 5 20.2031C5.55469 20.2031 6 20.6484 6 21.2031C6 21.7578 5.55469 22.2031 5 22.2031ZM8.33594 21.1719C8.33594 20.5625 8.15625 20 7.875 19.5078H8.80469C8.50781 20 8.33594 20.5625 8.33594 21.1719ZM11.6641 22.2031C11.1094 22.2031 10.6641 21.7578 10.6641 21.2031C10.6641 20.6484 11.1094 20.2031 11.6641 20.2031C12.2188 20.2031 12.6641 20.6484 12.6641 21.2031C12.6719 21.7578 12.2188 22.2031 11.6641 22.2031ZM28.3359 22.2031C27.7813 22.2031 27.3359 21.7578 27.3359 21.2031C27.3359 20.6484 27.7813 20.2031 28.3359 20.2031C28.8906 20.2031 29.3359 20.6484 29.3359 21.2031C29.3359 21.7578 28.8828 22.2031 28.3359 22.2031ZM31.6641 21.1719C31.6641 20.5625 31.4844 20 31.2031 19.5078H32.1328C31.8437 20 31.6641 20.5625 31.6641 21.1719ZM35 22.2031C34.4453 22.2031 34 21.7578 34 21.2031C34 20.6484 34.4453 20.2031 35 20.2031C35.5547 20.2031 36 20.6484 36 21.2031C36 21.7578 35.5547 22.2031 35 22.2031Z" fill="url(#paint0_linear)"/>
<path d="M37.5 0H2.5C2.03906 0 1.66406 0.375 1.66406 0.835937V16.6719H38.3281V0.835937C38.3359 0.375 37.9609 0 37.5 0ZM10.8359 15H5.83594C5.375 15 5 14.625 5 14.1641C5 13.7031 5.375 13.3281 5.83594 13.3281H10.8359C11.2969 13.3281 11.6719 13.7031 11.6719 14.1641C11.6719 14.625 11.2969 15 10.8359 15ZM10.8359 11.6641H5.83594C5.375 11.6641 5 11.2891 5 10.8281C5 10.3672 5.375 9.99999 5.83594 9.99999H10.8359C11.2969 9.99999 11.6719 10.375 11.6719 10.8359C11.6641 11.2969 11.2969 11.6641 10.8359 11.6641ZM10.8359 8.33593H5.83594C5.375 8.33593 5 7.96093 5 7.49999C5 7.03906 5.375 6.66406 5.83594 6.66406H10.8359C11.2969 6.66406 11.6719 7.03906 11.6719 7.49999C11.6641 7.96093 11.2969 8.33593 10.8359 8.33593ZM10.8359 5H5.83594C5.375 5 5 4.625 5 4.16406C5 3.70312 5.375 3.32812 5.83594 3.32812H10.8359C11.2969 3.32812 11.6719 3.70312 11.6719 4.16406C11.6719 4.625 11.2969 5 10.8359 5ZM22.5 15H17.5C17.0391 15 16.6641 14.625 16.6641 14.1641C16.6641 13.7031 17.0391 13.3281 17.5 13.3281H22.5C22.9609 13.3281 23.3359 13.7031 23.3359 14.1641C23.3359 14.625 22.9609 15 22.5 15ZM22.5 11.6641H17.5C17.0391 11.6641 16.6641 11.2891 16.6641 10.8281C16.6641 10.3672 17.0391 9.99999 17.5 9.99999H22.5C22.9609 9.99999 23.3359 10.375 23.3359 10.8359C23.3359 11.2969 22.9609 11.6641 22.5 11.6641ZM22.5 8.33593H17.5C17.0391 8.33593 16.6641 7.96093 16.6641 7.49999C16.6641 7.03906 17.0391 6.66406 17.5 6.66406H22.5C22.9609 6.66406 23.3359 7.03906 23.3359 7.49999C23.3359 7.96093 22.9609 8.33593 22.5 8.33593ZM22.5 5H17.5C17.0391 5 16.6641 4.625 16.6641 4.16406C16.6641 3.70312 17.0391 3.32812 17.5 3.32812H22.5C22.9609 3.32812 23.3359 3.70312 23.3359 4.16406C23.3359 4.625 22.9609 5 22.5 5ZM34.1641 15H29.1641C28.7031 15 28.3281 14.625 28.3281 14.1641C28.3281 13.7031 28.7031 13.3281 29.1641 13.3281H34.1641C34.625 13.3281 35 13.7031 35 14.1641C35 14.625 34.625 15 34.1641 15ZM34.1641 11.6641H29.1641C28.7031 11.6641 28.3281 11.2891 28.3281 10.8281C28.3281 10.3672 28.7031 9.99218 29.1641 9.99218H34.1641C34.625 9.99218 35 10.3672 35 10.8281C35 11.2891 34.625 11.6641 34.1641 11.6641ZM34.1641 8.33593H29.1641C28.7031 8.33593 28.3281 7.96093 28.3281 7.49999C28.3281 7.03906 28.7031 6.66406 29.1641 6.66406H34.1641C34.625 6.66406 35 7.03906 35 7.49999C35 7.96093 34.625 8.33593 34.1641 8.33593ZM34.1641 5H29.1641C28.7031 5 28.3281 4.625 28.3281 4.16406C28.3281 3.70312 28.7031 3.32812 29.1641 3.32812H34.1641C34.625 3.32812 35 3.70312 35 4.16406C35 4.625 34.625 5 34.1641 5Z" fill="url(#paint1_linear)"/>
</g>
<defs>
<linearGradient id="paint0_linear" x1="0" y1="17.8359" x2="2.16426" y2="30.8189" gradientUnits="userSpaceOnUse">
<stop offset="0.0238214" stop-color="#4F5062"/>
<stop offset="0.67038" stop-color="#3A3A4A"/>
</linearGradient>
<linearGradient id="paint1_linear" x1="1.66406" y1="0" x2="14.2282" y2="27.6306" gradientUnits="userSpaceOnUse">
<stop offset="0.0238214" stop-color="#4F5062"/>
<stop offset="0.67038" stop-color="#3A3A4A"/>
</linearGradient>
<clipPath id="clip0">
<rect width="40" height="24.5078" fill="white"/>
</clipPath>
</defs>
</svg>
