<svg width="46" height="29" viewBox="0 0 46 29" fill="none" xmlns="http://www.w3.org/2000/svg">
<g clip-path="url(#clip0)">
<path d="M44.9015 21.1833H44.7497H43.9462H2.04436H1.13365H1.09794C0.57115 21.1833 0.142578 21.6119 0.142578 22.1387C0.142578 22.6655 0.57115 23.0941 1.09794 23.0941H2.58008C2.24972 23.6566 2.05329 24.2994 2.05329 24.9959C2.05329 27.0941 3.75865 28.8084 5.86579 28.8084C7.96401 28.8084 9.67829 27.103 9.67829 25.0048C9.67829 27.103 11.3836 28.8084 13.4908 28.8084C15.589 28.8084 17.3033 27.103 17.3033 24.9959C17.3033 24.2994 17.0979 23.6566 16.7765 23.0941H16.9104L18.5354 24.7191C18.714 24.8976 18.9551 24.9959 19.2051 24.9959H26.8211C27.0711 24.9959 27.3122 24.8976 27.4908 24.7191L29.1158 23.0941H29.2497C28.9194 23.6566 28.7229 24.2994 28.7229 24.9959C28.7229 27.0941 30.4283 28.8084 32.5354 28.8084C34.6336 28.8084 36.3479 27.103 36.3479 25.0048C36.3479 27.103 38.0533 28.8084 40.1604 28.8084C42.2587 28.8084 43.9729 27.103 43.9729 24.9959C43.9729 24.2994 43.7676 23.6566 43.4462 23.0941H44.9283C45.4551 23.0941 45.8836 22.6655 45.8836 22.1387C45.8569 21.6119 45.4283 21.1833 44.9015 21.1833ZM5.85686 26.1744C5.22294 26.1744 4.71401 25.6655 4.71401 25.0316C4.71401 24.3976 5.22294 23.8887 5.85686 23.8887C6.49079 23.8887 6.99972 24.3976 6.99972 25.0316C6.99972 25.6655 6.49079 26.1744 5.85686 26.1744ZM9.66936 24.9959C9.66936 24.2994 9.46401 23.6566 9.14258 23.0941H10.2051C9.86579 23.6566 9.66936 24.2994 9.66936 24.9959ZM13.4729 26.1744C12.839 26.1744 12.3301 25.6655 12.3301 25.0316C12.3301 24.3976 12.839 23.8887 13.4729 23.8887C14.1069 23.8887 14.6158 24.3976 14.6158 25.0316C14.6247 25.6655 14.1069 26.1744 13.4729 26.1744ZM32.5265 26.1744C31.8926 26.1744 31.3836 25.6655 31.3836 25.0316C31.3836 24.3976 31.8926 23.8887 32.5265 23.8887C33.1604 23.8887 33.6694 24.3976 33.6694 25.0316C33.6694 25.6655 33.1515 26.1744 32.5265 26.1744ZM36.3301 24.9959C36.3301 24.2994 36.1247 23.6566 35.8033 23.0941H36.8658C36.5354 23.6566 36.3301 24.2994 36.3301 24.9959ZM40.1426 26.1744C39.5087 26.1744 38.9997 25.6655 38.9997 25.0316C38.9997 24.3976 39.5087 23.8887 40.1426 23.8887C40.7765 23.8887 41.2854 24.3976 41.2854 25.0316C41.2854 25.6655 40.7765 26.1744 40.1426 26.1744Z" fill="#2C2F49"/>
<path d="M43.0003 0.799561H3.00028C2.47349 0.799561 2.04492 1.22813 2.04492 1.75492V19.8531H43.9467V1.75492C43.9556 1.22813 43.5271 0.799561 43.0003 0.799561ZM12.5271 17.9424H6.81278C6.28599 17.9424 5.85742 17.5138 5.85742 16.987C5.85742 16.4603 6.28599 16.0317 6.81278 16.0317H12.5271C13.0539 16.0317 13.4824 16.4603 13.4824 16.987C13.4824 17.5138 13.0539 17.9424 12.5271 17.9424ZM12.5271 14.1299H6.81278C6.28599 14.1299 5.85742 13.7013 5.85742 13.1746C5.85742 12.6478 6.28599 12.2281 6.81278 12.2281H12.5271C13.0539 12.2281 13.4824 12.6567 13.4824 13.1835C13.4735 13.7103 13.0539 14.1299 12.5271 14.1299ZM12.5271 10.3263H6.81278C6.28599 10.3263 5.85742 9.89777 5.85742 9.37098C5.85742 8.8442 6.28599 8.41563 6.81278 8.41563H12.5271C13.0539 8.41563 13.4824 8.8442 13.4824 9.37098C13.4735 9.89777 13.0539 10.3263 12.5271 10.3263ZM12.5271 6.51384H6.81278C6.28599 6.51384 5.85742 6.08527 5.85742 5.55849C5.85742 5.0317 6.28599 4.60313 6.81278 4.60313H12.5271C13.0539 4.60313 13.4824 5.0317 13.4824 5.55849C13.4824 6.08527 13.0539 6.51384 12.5271 6.51384ZM25.8574 17.9424H20.1431C19.6164 17.9424 19.1878 17.5138 19.1878 16.987C19.1878 16.4603 19.6164 16.0317 20.1431 16.0317H25.8574C26.3842 16.0317 26.8128 16.4603 26.8128 16.987C26.8128 17.5138 26.3842 17.9424 25.8574 17.9424ZM25.8574 14.1299H20.1431C19.6164 14.1299 19.1878 13.7013 19.1878 13.1746C19.1878 12.6478 19.6164 12.2281 20.1431 12.2281H25.8574C26.3842 12.2281 26.8128 12.6567 26.8128 13.1835C26.8128 13.7103 26.3842 14.1299 25.8574 14.1299ZM25.8574 10.3263H20.1431C19.6164 10.3263 19.1878 9.89777 19.1878 9.37098C19.1878 8.8442 19.6164 8.41563 20.1431 8.41563H25.8574C26.3842 8.41563 26.8128 8.8442 26.8128 9.37098C26.8128 9.89777 26.3842 10.3263 25.8574 10.3263ZM25.8574 6.51384H20.1431C19.6164 6.51384 19.1878 6.08527 19.1878 5.55849C19.1878 5.0317 19.6164 4.60313 20.1431 4.60313H25.8574C26.3842 4.60313 26.8128 5.0317 26.8128 5.55849C26.8128 6.08527 26.3842 6.51384 25.8574 6.51384ZM39.1878 17.9424H33.4735C32.9467 17.9424 32.5181 17.5138 32.5181 16.987C32.5181 16.4603 32.9467 16.0317 33.4735 16.0317H39.1878C39.7146 16.0317 40.1431 16.4603 40.1431 16.987C40.1431 17.5138 39.7146 17.9424 39.1878 17.9424ZM39.1878 14.1299H33.4735C32.9467 14.1299 32.5181 13.7013 32.5181 13.1746C32.5181 12.6478 32.9467 12.2192 33.4735 12.2192H39.1878C39.7146 12.2192 40.1431 12.6478 40.1431 13.1746C40.1431 13.7013 39.7146 14.1299 39.1878 14.1299ZM39.1878 10.3263H33.4735C32.9467 10.3263 32.5181 9.89777 32.5181 9.37098C32.5181 8.8442 32.9467 8.41563 33.4735 8.41563H39.1878C39.7146 8.41563 40.1431 8.8442 40.1431 9.37098C40.1431 9.89777 39.7146 10.3263 39.1878 10.3263ZM39.1878 6.51384H33.4735C32.9467 6.51384 32.5181 6.08527 32.5181 5.55849C32.5181 5.0317 32.9467 4.60313 33.4735 4.60313H39.1878C39.7146 4.60313 40.1431 5.0317 40.1431 5.55849C40.1431 6.08527 39.7146 6.51384 39.1878 6.51384Z" fill="#2C2F49"/>
</g>
<defs>
<clipPath id="clip0">
<rect width="45.7143" height="28.0089" fill="white" transform="translate(0.142578 0.799561)"/>
</clipPath>
</defs>
</svg>
