<svg width="121" height="120" viewBox="0 0 121 120" fill="none" xmlns="http://www.w3.org/2000/svg">
<path d="M50.926 27.5051V54.1935H54.797V27.5051C54.797 25.5871 54.2357 23.7309 53.1712 22.138L44.3338 8.87612C44.328 8.86644 44.3183 8.8587 44.3106 8.84902L43.5054 7.64128C43.2964 7.32193 43.1841 6.95612 43.1841 6.57677V5.78128C43.1841 4.72838 44.0415 3.87096 45.0944 3.87096C45.7041 3.87096 46.2828 4.16516 46.6428 4.65677L59.4944 22.3277C60.2202 23.3284 60.6035 24.5071 60.6035 25.7438V49.6857H64.4744V25.7438C64.4744 23.6864 63.8357 21.7161 62.6241 20.0535L49.7725 2.38064C48.6886 0.890322 46.939 0 45.0944 0C42.1448 0 39.7312 2.22774 39.3828 5.08645C39.3673 5.08064 39.3557 5.0729 39.3403 5.06903L25.1609 0.340645C24.4854 0.114193 23.7809 0 23.0667 0H22.7145C19.0603 0 16.0874 2.9729 16.0874 6.62902C16.0874 9.2458 17.6319 11.6226 20.0222 12.6851L32.6048 18.2787C33.6132 18.7239 34.4667 19.4458 35.0764 20.3613L40.2732 28.1555C40.9119 29.1116 41.2486 30.2245 41.2486 31.3761V36.1877L38.777 32.4793C37.337 30.3213 34.9293 29.0322 32.3357 29.0322H13.1841C7.84802 29.0322 3.50674 33.3735 3.50674 38.7096C3.50674 38.7503 3.50674 38.7909 3.50867 38.8316C1.84029 39.2612 0.603516 40.7787 0.603516 42.5806V62.1696C0.603516 63.5593 0.911257 64.9606 1.49384 66.2264L11.268 87.4025C12.0829 89.1657 13.1087 90.8283 14.3183 92.338L15.5474 93.8747C18.3906 97.4302 19.9583 101.895 19.9583 106.451H23.8293C23.8293 101.019 21.9596 95.6921 18.5687 91.4573L17.3396 89.9205C16.3254 88.6528 15.4641 87.2593 14.7829 85.7805L5.00867 64.6044C4.66029 63.8457 4.47448 63.0038 4.47448 62.1696V42.5806C8.74415 42.5806 12.2164 46.0528 12.2164 50.3225V58.0644C12.2164 59.8819 13.0835 61.6199 14.539 62.7077L18.408 65.6109C20.2409 66.9851 22.5074 67.7419 24.797 67.7419C30.6654 67.7419 35.4422 62.9651 35.4422 57.0967V49.3548C35.4422 43.4864 30.6654 38.7096 24.797 38.7096H7.3777C7.3777 35.5083 9.98286 32.9032 13.1841 32.9032H32.3357C33.6325 32.9032 34.8364 33.5477 35.5564 34.6277L40.5964 42.1896C41.0241 42.8303 41.2486 43.5735 41.2486 44.338V54.1935H45.1196V44.338V31.3761C45.1196 29.458 44.5583 27.6019 43.4938 26.009L38.297 18.2148C37.279 16.6877 35.8525 15.4858 34.1744 14.7406L21.5938 9.14709C20.6009 8.7058 19.9583 7.71677 19.9583 6.62902C19.9583 5.10774 21.1951 3.87096 22.7164 3.87096H23.0687C23.3648 3.87096 23.6609 3.91741 23.9396 4.01032L38.117 8.73676C39.3325 9.14128 40.3932 9.95031 41.1054 11.0148L47.3802 20.4271L49.9506 24.2826C50.5893 25.2406 50.926 26.3535 50.926 27.5051ZM24.797 42.5806C28.5325 42.5806 31.5712 45.6193 31.5712 49.3548V57.0967C31.5712 60.8322 28.5325 63.8709 24.797 63.8709C23.3396 63.8709 21.8977 63.389 20.7306 62.5161L16.8596 59.6128C16.3758 59.249 16.0874 58.6703 16.0874 58.0644V50.3225C16.0874 47.3516 14.9648 44.6361 13.1241 42.5806H24.797Z" fill="url(#paint0_linear)"/>
<path d="M52.7737 93.8901C51.5485 96.8282 50.9272 99.9365 50.9272 103.122V106.451H54.7982V103.122C54.7982 100.449 55.3208 97.8424 56.3466 95.3785L61.7834 82.3333L58.2105 80.843L52.7737 93.8901Z" fill="url(#paint1_linear)"/>
<path d="M58.668 120H16.0874V104.516H58.668V120Z" fill="url(#paint2_linear)"/>
<path d="M87.6996 100.645C69.5564 100.645 54.7964 85.8855 54.7964 67.7423C54.7964 49.5991 69.5564 34.8391 87.6996 34.8391C105.843 34.8391 120.603 49.5991 120.603 67.7423C120.603 85.8855 105.843 100.645 87.6996 100.645ZM87.6996 44.5165C74.8925 44.5165 64.4738 54.9352 64.4738 67.7423C64.4738 80.5494 74.8925 90.9681 87.6996 90.9681C100.507 90.9681 110.925 80.5494 110.925 67.7423C110.925 54.9352 100.507 44.5165 87.6996 44.5165Z" fill="url(#paint3_linear)"/>
<path d="M99.8804 54.761L79.9585 74.6829L75.5205 70.2448L72.7837 72.9816L79.9585 80.1565L102.617 57.4978L99.8804 54.761Z" fill="url(#paint4_linear)"/>
<path d="M87.6994 89.0326C75.9607 89.0326 66.4091 79.481 66.4091 67.7423C66.4091 62.7198 68.1994 57.8424 71.449 54.0043L68.4974 51.5017C64.6555 56.0385 62.5381 61.8062 62.5381 67.7423C62.5381 81.6159 73.8258 92.9036 87.6994 92.9036C93.6355 92.9036 99.4032 90.7862 103.94 86.9443L101.437 83.9926C97.5993 87.2423 92.7219 89.0326 87.6994 89.0326Z" fill="url(#paint5_linear)"/>
<path d="M87.6996 42.5809C81.7635 42.5809 75.9958 44.6984 71.459 48.5403L73.9616 51.4919C77.7996 48.2422 82.677 46.4519 87.6996 46.4519C99.4383 46.4519 108.99 56.0035 108.99 67.7422C108.99 72.7648 107.2 77.6422 103.95 81.4802L106.902 83.9828C110.743 79.446 112.861 73.6783 112.861 67.7422C112.861 53.8687 101.573 42.5809 87.6996 42.5809Z" fill="url(#paint6_linear)"/>
<defs>
<linearGradient id="paint0_linear" x1="0.603516" y1="0" x2="94.5313" y2="56.3567" gradientUnits="userSpaceOnUse">
<stop offset="0.0238214" stop-color="#4F5062"/>
<stop offset="0.67038" stop-color="#3A3A4A"/>
</linearGradient>
<linearGradient id="paint1_linear" x1="50.9272" y1="80.843" x2="69.3319" y2="88.6453" gradientUnits="userSpaceOnUse">
<stop offset="0.0238214" stop-color="#4F5062"/>
<stop offset="0.67038" stop-color="#3A3A4A"/>
</linearGradient>
<linearGradient id="paint2_linear" x1="16.0874" y1="120" x2="56.8434" y2="120" gradientUnits="userSpaceOnUse">
<stop offset="0.151042" stop-color="#F39324"/>
<stop offset="1" stop-color="#EC663B"/>
</linearGradient>
<linearGradient id="paint3_linear" x1="54.7964" y1="100.645" x2="117.783" y2="100.645" gradientUnits="userSpaceOnUse">
<stop offset="0.151042" stop-color="#F39324"/>
<stop offset="1" stop-color="#EC663B"/>
</linearGradient>
<linearGradient id="paint4_linear" x1="72.7837" y1="54.761" x2="97.8533" y2="84.2117" gradientUnits="userSpaceOnUse">
<stop offset="0.0238214" stop-color="#4F5062"/>
<stop offset="0.67038" stop-color="#3A3A4A"/>
</linearGradient>
<linearGradient id="paint5_linear" x1="62.5381" y1="51.5017" x2="103.94" y2="92.9036" gradientUnits="userSpaceOnUse">
<stop offset="0.0238214" stop-color="#4F5062"/>
<stop offset="0.67038" stop-color="#3A3A4A"/>
</linearGradient>
<linearGradient id="paint6_linear" x1="71.459" y1="42.5809" x2="112.861" y2="83.9828" gradientUnits="userSpaceOnUse">
<stop offset="0.0238214" stop-color="#4F5062"/>
<stop offset="0.67038" stop-color="#3A3A4A"/>
</linearGradient>
</defs>
</svg>
