<svg width="101" height="45" viewBox="0 0 101 45" fill="none" xmlns="http://www.w3.org/2000/svg">
<path d="M85.1273 0.114746C83.688 0.114746 82.2487 0.787572 81.3851 1.94099L72.7493 13.6674L69.0071 3.09441C68.3355 1.36428 66.7043 0.114746 64.7852 0.114746H58.2604L52.6951 33.3716H61.9066L64.9771 16.8393L68.7193 25.2977C69.5829 27.22 72.1736 27.6045 73.5169 25.8744L80.3296 17.2238L77.3551 33.3716H86.6625L90.9804 9.24596C90.9804 9.24596 92.1319 9.34208 92.9955 9.14984C94.0509 8.86149 95.0105 8.28478 95.6822 7.3236C96.6417 6.17018 100 0.114746 100 0.114746H85.1273Z" fill="url(#paint0_linear)"/>
<path d="M64.7933 0.057373H22.5916V9.27397H38.7417L34.4157 33.3715H43.7405L47.9703 9.27397H56.7183C58.737 9.27397 60.179 8.50592 60.9481 6.87382L64.7933 0.057373Z" fill="url(#paint1_linear)"/>
<path opacity="0.6" d="M27.859 9.22974H15.8635L4.13391 24.1321H15.9371L27.859 9.22974Z" fill="#F39323"/>
<path d="M29.0356 7.59541C31.4392 4.71108 29.6125 0.0961444 25.4783 0H0L2.30747 4.03807L3.94192 6.9224C4.71108 8.46071 6.15325 9.32601 8.17228 9.32601H27.7857L29.0356 7.59541Z" fill="url(#paint2_linear)"/>
<path d="M26.2475 26.5359C25.2861 24.9976 23.8439 24.1323 22.2095 24.1323H16.0562H15.9601H4.13431L2.88443 25.7668C0.480822 28.6511 2.30757 33.266 6.44178 33.3622H30.1895L26.2475 26.5359Z" fill="url(#paint3_linear)"/>
<path d="M34.8442 43.763H37.2405V44.1326H34.4594V38.9575H34.8442V43.763Z" fill="#F39323"/>
<path d="M45.7172 43.4377C45.2089 43.9552 44.5893 44.214 43.8583 44.214C43.1273 44.214 42.5077 43.9552 41.9994 43.4377C41.4911 42.9153 41.2369 42.2844 41.2369 41.5451C41.2369 40.8058 41.4911 40.1774 41.9994 39.6599C42.5077 39.1374 43.1273 38.8762 43.8583 38.8762C44.5893 38.8762 45.2089 39.1374 45.7172 39.6599C46.2255 40.1774 46.4797 40.8058 46.4797 41.5451C46.4797 42.2844 46.2255 42.9153 45.7172 43.4377ZM42.268 43.1716C42.7037 43.6151 43.2338 43.8369 43.8583 43.8369C44.4828 43.8369 45.0105 43.6151 45.4413 43.1716C45.877 42.723 46.0948 42.1809 46.0948 41.5451C46.0948 40.9093 45.877 40.3696 45.4413 39.926C45.0105 39.4775 44.4828 39.2533 43.8583 39.2533C43.2338 39.2533 42.7037 39.4775 42.268 39.926C41.8372 40.3696 41.6218 40.9093 41.6218 41.5451C41.6218 42.1809 41.8372 42.723 42.268 43.1716Z" fill="#F39323"/>
<path d="M56.1404 41.7225V41.9221C56.1404 42.5678 55.9153 43.1124 55.4651 43.556C55.0149 43.9946 54.4219 44.214 53.686 44.214C52.9115 44.214 52.2725 43.9577 51.769 43.4451C51.2655 42.9276 51.0138 42.2943 51.0138 41.5451C51.0138 40.7959 51.2631 40.1651 51.7617 39.6525C52.2604 39.135 52.8921 38.8762 53.657 38.8762C54.1217 38.8762 54.5477 38.9896 54.935 39.2163C55.3271 39.443 55.6297 39.7461 55.8427 40.1256L55.5014 40.3326C55.332 40.0074 55.0802 39.7461 54.7462 39.549C54.417 39.3518 54.0539 39.2533 53.657 39.2533C52.9986 39.2533 52.4564 39.4751 52.0304 39.9186C51.6092 40.3573 51.3987 40.8994 51.3987 41.5451C51.3987 42.1908 51.6117 42.7354 52.0377 43.1789C52.4637 43.6176 53.0131 43.8369 53.686 43.8369C54.2815 43.8369 54.7631 43.6718 55.1311 43.3416C55.499 43.0114 55.7047 42.5949 55.7483 42.0922H53.5916V41.7225H56.1404Z" fill="#F39323"/>
<path d="M60.9535 38.9575H61.3384V44.1326H60.9535V38.9575Z" fill="#F39323"/>
<path d="M67.9303 44.214C67.4607 44.214 67.0613 44.1055 66.7322 43.8887C66.4078 43.6669 66.1876 43.3687 66.0714 42.9941L66.4054 42.7945C66.4974 43.1149 66.6716 43.3687 66.9282 43.556C67.1896 43.7433 67.5237 43.8369 67.9303 43.8369C68.3418 43.8369 68.6565 43.7408 68.8743 43.5486C69.097 43.3564 69.2083 43.1075 69.2083 42.8019C69.2083 42.516 69.1018 42.2967 68.8888 42.1439C68.6758 41.9911 68.3442 41.8408 67.894 41.693C67.7294 41.6387 67.6084 41.5993 67.5309 41.5747C67.4583 41.5451 67.3518 41.5032 67.2114 41.449C67.071 41.3898 66.9669 41.3381 66.8992 41.2937C66.8314 41.2494 66.7491 41.1902 66.6523 41.1163C66.5603 41.0424 66.4925 40.9684 66.449 40.8945C66.4054 40.8157 66.3667 40.7245 66.3328 40.621C66.2989 40.5125 66.282 40.3943 66.282 40.2661C66.282 39.8472 66.4272 39.512 66.7176 39.2607C67.0129 39.0044 67.3809 38.8762 67.8214 38.8762C68.2183 38.8762 68.5572 38.9773 68.838 39.1793C69.1188 39.3814 69.3245 39.6426 69.4552 39.963L69.1284 40.1478C68.8864 39.5514 68.4507 39.2533 67.8214 39.2533C67.4728 39.2533 67.1945 39.3469 66.9863 39.5342C66.7781 39.7215 66.6741 39.9605 66.6741 40.2513C66.6741 40.5323 66.7709 40.7417 66.9645 40.8797C67.1582 41.0177 67.4753 41.1607 67.9158 41.3085C68.1966 41.4022 68.4144 41.4835 68.5693 41.5525C68.7291 41.6166 68.8985 41.7077 69.0776 41.826C69.2616 41.9394 69.3947 42.0774 69.477 42.24C69.5593 42.3978 69.6004 42.5826 69.6004 42.7945C69.6004 43.2233 69.448 43.5683 69.143 43.8295C68.838 44.0858 68.4338 44.214 67.9303 44.214Z" fill="#F39323"/>
<path d="M77.3327 38.9575V39.3272H75.7351V44.1326H75.343V39.3272H73.7455V38.9575H77.3327Z" fill="#F39323"/>
<path d="M81.9803 38.9575H82.3651V44.1326H81.9803V38.9575Z" fill="#F39323"/>
<path d="M89.8268 44.214C89.0619 44.214 88.4301 43.9577 87.9315 43.4451C87.4329 42.9276 87.1836 42.2943 87.1836 41.5451C87.1836 40.7959 87.4329 40.1651 87.9315 39.6525C88.4301 39.135 89.0619 38.8762 89.8268 38.8762C90.2915 38.8762 90.7175 38.9896 91.1048 39.2163C91.4921 39.4381 91.7922 39.7387 92.0052 40.1182L91.6639 40.3179C91.4945 39.9975 91.2452 39.7412 90.916 39.549C90.5868 39.3518 90.2237 39.2533 89.8268 39.2533C89.1684 39.2533 88.6262 39.4751 88.2002 39.9186C87.779 40.3573 87.5684 40.8994 87.5684 41.5451C87.5684 42.1908 87.779 42.7354 88.2002 43.1789C88.6262 43.6176 89.1684 43.8369 89.8268 43.8369C90.2237 43.8369 90.5892 43.7384 90.9232 43.5412C91.2573 43.3441 91.509 43.0804 91.6784 42.7502L92.0197 42.9498C91.8116 43.3342 91.5114 43.6422 91.1193 43.8739C90.7272 44.1006 90.2963 44.214 89.8268 44.214Z" fill="#F39323"/>
<path d="M98.3298 44.214C97.8602 44.214 97.4608 44.1055 97.1316 43.8887C96.8073 43.6669 96.587 43.3687 96.4708 42.9941L96.8049 42.7945C96.8968 43.1149 97.0711 43.3687 97.3277 43.556C97.5891 43.7433 97.9231 43.8369 98.3298 43.8369C98.7412 43.8369 99.0559 43.7408 99.2738 43.5486C99.4964 43.3564 99.6078 43.1075 99.6078 42.8019C99.6078 42.516 99.5013 42.2967 99.2883 42.1439C99.0753 41.9911 98.7437 41.8408 98.2935 41.693C98.1289 41.6387 98.0078 41.5993 97.9304 41.5747C97.8578 41.5451 97.7513 41.5032 97.6109 41.449C97.4705 41.3898 97.3664 41.3381 97.2986 41.2937C97.2309 41.2494 97.1486 41.1902 97.0517 41.1163C96.9598 41.0424 96.892 40.9684 96.8484 40.8945C96.8049 40.8157 96.7661 40.7245 96.7322 40.621C96.6984 40.5125 96.6814 40.3943 96.6814 40.2661C96.6814 39.8472 96.8266 39.512 97.1171 39.2607C97.4124 39.0044 97.7803 38.8762 98.2208 38.8762C98.6178 38.8762 98.9567 38.9773 99.2374 39.1793C99.5182 39.3814 99.724 39.6426 99.8547 39.963L99.5279 40.1478C99.2859 39.5514 98.8502 39.2533 98.2208 39.2533C97.8723 39.2533 97.5939 39.3469 97.3858 39.5342C97.1776 39.7215 97.0735 39.9605 97.0735 40.2513C97.0735 40.5323 97.1703 40.7417 97.364 40.8797C97.5576 41.0177 97.8747 41.1607 98.3152 41.3085C98.596 41.4022 98.8139 41.4835 98.9688 41.5525C99.1285 41.6166 99.298 41.7077 99.4771 41.826C99.661 41.9394 99.7942 42.0774 99.8765 42.24C99.9588 42.3978 99.9999 42.5826 99.9999 42.7945C99.9999 43.2233 99.8474 43.5683 99.5424 43.8295C99.2374 44.0858 98.8332 44.214 98.3298 44.214Z" fill="#F39323"/>
<path d="M34.8442 43.763H37.2405V44.1326H34.4594V38.9575H34.8442V43.763Z" stroke="#F39323" stroke-width="0.3"/>
<path d="M45.7172 43.4377C45.2089 43.9552 44.5893 44.214 43.8583 44.214C43.1273 44.214 42.5077 43.9552 41.9994 43.4377C41.4911 42.9153 41.2369 42.2844 41.2369 41.5451C41.2369 40.8058 41.4911 40.1774 41.9994 39.6599C42.5077 39.1374 43.1273 38.8762 43.8583 38.8762C44.5893 38.8762 45.2089 39.1374 45.7172 39.6599C46.2255 40.1774 46.4797 40.8058 46.4797 41.5451C46.4797 42.2844 46.2255 42.9153 45.7172 43.4377ZM42.268 43.1716C42.7037 43.6151 43.2338 43.8369 43.8583 43.8369C44.4828 43.8369 45.0105 43.6151 45.4413 43.1716C45.877 42.723 46.0948 42.1809 46.0948 41.5451C46.0948 40.9093 45.877 40.3696 45.4413 39.926C45.0105 39.4775 44.4828 39.2533 43.8583 39.2533C43.2338 39.2533 42.7037 39.4775 42.268 39.926C41.8372 40.3696 41.6218 40.9093 41.6218 41.5451C41.6218 42.1809 41.8372 42.723 42.268 43.1716Z" stroke="#F39323" stroke-width="0.3"/>
<path d="M56.1404 41.7225V41.9221C56.1404 42.5678 55.9153 43.1124 55.4651 43.556C55.0149 43.9946 54.4219 44.214 53.686 44.214C52.9115 44.214 52.2725 43.9577 51.769 43.4451C51.2655 42.9276 51.0138 42.2943 51.0138 41.5451C51.0138 40.7959 51.2631 40.1651 51.7617 39.6525C52.2604 39.135 52.8921 38.8762 53.657 38.8762C54.1217 38.8762 54.5477 38.9896 54.935 39.2163C55.3271 39.443 55.6297 39.7461 55.8427 40.1256L55.5014 40.3326C55.332 40.0074 55.0802 39.7461 54.7462 39.549C54.417 39.3518 54.0539 39.2533 53.657 39.2533C52.9986 39.2533 52.4564 39.4751 52.0304 39.9186C51.6092 40.3573 51.3987 40.8994 51.3987 41.5451C51.3987 42.1908 51.6117 42.7354 52.0377 43.1789C52.4637 43.6176 53.0131 43.8369 53.686 43.8369C54.2815 43.8369 54.7631 43.6718 55.1311 43.3416C55.499 43.0114 55.7047 42.5949 55.7483 42.0922H53.5916V41.7225H56.1404Z" stroke="#F39323" stroke-width="0.3"/>
<path d="M60.9535 38.9575H61.3384V44.1326H60.9535V38.9575Z" stroke="#F39323" stroke-width="0.3"/>
<path d="M67.9303 44.214C67.4607 44.214 67.0613 44.1055 66.7322 43.8887C66.4078 43.6669 66.1876 43.3687 66.0714 42.9941L66.4054 42.7945C66.4974 43.1149 66.6716 43.3687 66.9282 43.556C67.1896 43.7433 67.5237 43.8369 67.9303 43.8369C68.3418 43.8369 68.6565 43.7408 68.8743 43.5486C69.097 43.3564 69.2083 43.1075 69.2083 42.8019C69.2083 42.516 69.1018 42.2967 68.8888 42.1439C68.6758 41.9911 68.3442 41.8408 67.894 41.693C67.7294 41.6387 67.6084 41.5993 67.5309 41.5747C67.4583 41.5451 67.3518 41.5032 67.2114 41.449C67.071 41.3898 66.9669 41.3381 66.8992 41.2937C66.8314 41.2494 66.7491 41.1902 66.6523 41.1163C66.5603 41.0424 66.4925 40.9684 66.449 40.8945C66.4054 40.8157 66.3667 40.7245 66.3328 40.621C66.2989 40.5125 66.282 40.3943 66.282 40.2661C66.282 39.8472 66.4272 39.512 66.7176 39.2607C67.0129 39.0044 67.3809 38.8762 67.8214 38.8762C68.2183 38.8762 68.5572 38.9773 68.838 39.1793C69.1188 39.3814 69.3245 39.6426 69.4552 39.963L69.1284 40.1478C68.8864 39.5514 68.4507 39.2533 67.8214 39.2533C67.4728 39.2533 67.1945 39.3469 66.9863 39.5342C66.7781 39.7215 66.6741 39.9605 66.6741 40.2513C66.6741 40.5323 66.7709 40.7417 66.9645 40.8797C67.1582 41.0177 67.4753 41.1607 67.9158 41.3085C68.1966 41.4022 68.4144 41.4835 68.5693 41.5525C68.7291 41.6166 68.8985 41.7077 69.0776 41.826C69.2616 41.9394 69.3947 42.0774 69.477 42.24C69.5593 42.3978 69.6004 42.5826 69.6004 42.7945C69.6004 43.2233 69.448 43.5683 69.143 43.8295C68.838 44.0858 68.4338 44.214 67.9303 44.214Z" stroke="#F39323" stroke-width="0.3"/>
<path d="M77.3327 38.9575V39.3272H75.7351V44.1326H75.343V39.3272H73.7455V38.9575H77.3327Z" stroke="#F39323" stroke-width="0.3"/>
<path d="M81.9803 38.9575H82.3651V44.1326H81.9803V38.9575Z" stroke="#F39323" stroke-width="0.3"/>
<path d="M89.8268 44.214C89.0619 44.214 88.4301 43.9577 87.9315 43.4451C87.4329 42.9276 87.1836 42.2943 87.1836 41.5451C87.1836 40.7959 87.4329 40.1651 87.9315 39.6525C88.4301 39.135 89.0619 38.8762 89.8268 38.8762C90.2915 38.8762 90.7175 38.9896 91.1048 39.2163C91.4921 39.4381 91.7922 39.7387 92.0052 40.1182L91.6639 40.3179C91.4945 39.9975 91.2452 39.7412 90.916 39.549C90.5868 39.3518 90.2237 39.2533 89.8268 39.2533C89.1684 39.2533 88.6262 39.4751 88.2002 39.9186C87.779 40.3573 87.5684 40.8994 87.5684 41.5451C87.5684 42.1908 87.779 42.7354 88.2002 43.1789C88.6262 43.6176 89.1684 43.8369 89.8268 43.8369C90.2237 43.8369 90.5892 43.7384 90.9232 43.5412C91.2573 43.3441 91.509 43.0804 91.6784 42.7502L92.0197 42.9498C91.8116 43.3342 91.5114 43.6422 91.1193 43.8739C90.7272 44.1006 90.2963 44.214 89.8268 44.214Z" stroke="#F39323" stroke-width="0.3"/>
<path d="M98.3298 44.214C97.8602 44.214 97.4608 44.1055 97.1316 43.8887C96.8073 43.6669 96.587 43.3687 96.4708 42.9941L96.8049 42.7945C96.8968 43.1149 97.0711 43.3687 97.3277 43.556C97.5891 43.7433 97.9231 43.8369 98.3298 43.8369C98.7412 43.8369 99.0559 43.7408 99.2738 43.5486C99.4964 43.3564 99.6078 43.1075 99.6078 42.8019C99.6078 42.516 99.5013 42.2967 99.2883 42.1439C99.0753 41.9911 98.7437 41.8408 98.2935 41.693C98.1289 41.6387 98.0078 41.5993 97.9304 41.5747C97.8578 41.5451 97.7513 41.5032 97.6109 41.449C97.4705 41.3898 97.3664 41.3381 97.2986 41.2937C97.2309 41.2494 97.1486 41.1902 97.0517 41.1163C96.9598 41.0424 96.892 40.9684 96.8484 40.8945C96.8049 40.8157 96.7661 40.7245 96.7322 40.621C96.6984 40.5125 96.6814 40.3943 96.6814 40.2661C96.6814 39.8472 96.8266 39.512 97.1171 39.2607C97.4124 39.0044 97.7803 38.8762 98.2208 38.8762C98.6178 38.8762 98.9567 38.9773 99.2374 39.1793C99.5182 39.3814 99.724 39.6426 99.8547 39.963L99.5279 40.1478C99.2859 39.5514 98.8502 39.2533 98.2208 39.2533C97.8723 39.2533 97.5939 39.3469 97.3858 39.5342C97.1776 39.7215 97.0735 39.9605 97.0735 40.2513C97.0735 40.5323 97.1703 40.7417 97.364 40.8797C97.5576 41.0177 97.8747 41.1607 98.3152 41.3085C98.596 41.4022 98.8139 41.4835 98.9688 41.5525C99.1285 41.6166 99.298 41.7077 99.4771 41.826C99.661 41.9394 99.7942 42.0774 99.8765 42.24C99.9588 42.3978 99.9999 42.5826 99.9999 42.7945C99.9999 43.2233 99.8474 43.5683 99.5424 43.8295C99.2374 44.0858 98.8332 44.214 98.3298 44.214Z" stroke="#F39323" stroke-width="0.3"/>
<defs>
<linearGradient id="paint0_linear" x1="52.6951" y1="33.3716" x2="97.973" y2="33.3716" gradientUnits="userSpaceOnUse">
<stop offset="0.151042" stop-color="#F39324"/>
<stop offset="1" stop-color="#EC663B"/>
</linearGradient>
<linearGradient id="paint1_linear" x1="22.5916" y1="33.3715" x2="62.985" y2="33.3715" gradientUnits="userSpaceOnUse">
<stop offset="0.151042" stop-color="#F39324"/>
<stop offset="1" stop-color="#EC663B"/>
</linearGradient>
<linearGradient id="paint2_linear" x1="1.20353e-06" y1="9.32601" x2="28.8187" y2="9.32601" gradientUnits="userSpaceOnUse">
<stop offset="0.151042" stop-color="#F39324"/>
<stop offset="1" stop-color="#EC663B"/>
</linearGradient>
<linearGradient id="paint3_linear" x1="1.81116" y1="33.3622" x2="28.9734" y2="33.3622" gradientUnits="userSpaceOnUse">
<stop offset="0.151042" stop-color="#F39324"/>
<stop offset="1" stop-color="#EC663B"/>
</linearGradient>
</defs>
</svg>
