<?xml version="1.0" standalone="no"?>
<!DOCTYPE svg PUBLIC "-//W3C//DTD SVG 20010904//EN"
 "http://www.w3.org/TR/2001/REC-SVG-20010904/DTD/svg10.dtd">
<svg version="1.0" xmlns="http://www.w3.org/2000/svg"
 width="255.000000pt" height="255.000000pt" viewBox="0 0 255.000000 255.000000"
 preserveAspectRatio="xMidYMid meet">
<metadata>
Created by potrace 1.11, written by Peter Selinger 2001-2013
</metadata>
<g transform="translate(0.000000,255.000000) scale(0.100000,-0.100000)"
fill="#000000" stroke="none">
<path d="M26 1653 c15 -27 42 -73 59 -103 42 -76 73 -90 201 -90 64 0 104 -4
112 -12 9 -9 12 -9 12 0 0 7 5 12 11 12 8 0 9 -4 0 -13 -6 -8 -8 -17 -4 -20 3
-4 1 -7 -4 -7 -6 0 -14 6 -17 13 -3 8 -9 6 -21 -8 -14 -18 -14 -21 1 -32 9 -7
21 -10 25 -7 5 3 9 0 9 -6 0 -8 -7 -9 -17 -5 -10 4 -27 9 -38 12 l-20 4 20
-15 c11 -8 26 -20 33 -27 7 -6 20 -8 28 -5 9 3 12 1 9 -4 -10 -16 -30 -12 -55
10 -31 27 -41 22 -65 -28 -11 -23 -24 -42 -29 -42 -6 0 -5 5 2 12 7 7 12 16
12 22 0 5 -6 1 -14 -10 -11 -15 -12 -22 -3 -33 8 -10 8 -12 1 -8 -12 7 -48
-15 -50 -30 -2 -26 -17 -63 -25 -63 -6 0 -5 9 1 21 7 11 10 23 7 25 -2 2 -12
-12 -23 -31 -10 -19 -22 -35 -27 -35 -4 0 -6 -4 -3 -9 3 -5 -1 -11 -9 -15 -8
-3 -15 -13 -15 -22 0 -10 -3 -14 -6 -11 -4 4 -16 -3 -26 -16 -69 -78 -67 -164
5 -207 30 -19 53 -20 345 -20 363 0 334 -15 250 124 -30 49 -62 90 -77 97 -14
7 -66 14 -116 16 -121 6 -124 6 -119 15 3 4 1 8 -5 8 -5 0 -13 -4 -16 -10 -3
-5 -11 -10 -18 -10 -6 0 -3 6 7 13 16 12 15 14 -11 37 -15 13 -30 23 -32 21
-1 -2 -11 2 -21 9 -18 13 -18 14 -2 26 9 8 22 14 28 14 19 0 67 -47 61 -61 -4
-9 -6 -7 -6 5 -1 11 -4 16 -8 13 -3 -4 -12 2 -20 13 -15 21 -38 26 -47 11 -3
-5 2 -15 11 -22 15 -12 16 -12 10 6 -5 12 3 7 19 -13 33 -41 75 -64 89 -48 12
13 13 41 2 52 -4 4 -7 12 -7 18 0 5 6 1 14 -9 8 -11 12 -24 8 -30 -3 -5 2 -4
11 4 16 13 16 15 1 26 -9 6 -14 18 -11 26 4 10 6 9 6 -3 1 -22 17 -23 39 -2
18 19 25 44 11 44 -5 0 -9 5 -9 12 0 6 9 3 20 -7 19 -18 20 -17 20 4 0 12 4
19 10 16 6 -3 10 4 10 16 0 12 3 20 6 17 5 -6 44 26 44 36 0 3 13 19 30 37 16
18 28 35 26 37 -2 2 8 15 21 29 25 24 31 25 137 25 185 0 169 5 162 -45 -9
-60 -14 -85 -37 -212 -12 -60 -23 -119 -24 -130 -23 -130 -35 -202 -35 -212 0
-10 30 -13 114 -13 63 0 117 3 119 8 3 4 8 30 11 57 4 28 11 68 16 90 5 22 11
56 14 75 3 19 8 49 11 65 3 17 7 44 10 60 3 17 7 41 10 55 6 29 35 199 35 203
0 5 210 0 216 -5 4 -5 -78 -524 -93 -586 -5 -22 -4 -22 111 -22 84 0 118 3
121 13 3 6 21 97 40 201 19 104 37 192 40 194 2 3 9 -6 14 -19 26 -67 83 -195
92 -205 14 -17 59 -24 83 -12 12 5 59 59 106 118 46 60 86 108 88 106 1 -2 -4
-44 -14 -92 -9 -49 -18 -100 -21 -114 -2 -14 -11 -59 -19 -100 -8 -41 -14 -78
-14 -82 0 -5 54 -8 120 -8 89 0 120 3 120 13 0 12 17 107 66 377 14 80 28 161
31 180 6 42 2 38 43 45 54 9 74 28 129 118 78 130 93 117 -134 117 -157 0
-204 -3 -229 -15 -23 -11 -68 -64 -146 -170 -63 -86 -117 -152 -120 -148 -8 9
-14 25 -66 173 -37 108 -54 133 -99 150 -17 6 -336 10 -857 10 l-830 0 28 -47z
m422 -213 c-7 -10 -14 -17 -17 -15 -4 4 18 35 25 35 2 0 -1 -9 -8 -20z m83
-31 c-12 -11 -21 -15 -21 -9 0 6 7 13 15 16 22 9 18 24 -5 24 -11 0 -19 -5
-17 -12 1 -6 -7 -13 -18 -15 -18 -3 -18 -2 -2 5 10 4 18 12 17 17 -3 17 34 23
43 8 6 -10 2 -21 -12 -34z m114 35 c11 15 13 15 19 1 3 -9 2 -13 -3 -10 -5 3
-13 1 -16 -5 -5 -8 -11 -7 -21 1 -8 6 -23 9 -34 6 -27 -7 -25 2 3 12 16 6 24
4 31 -7 8 -14 10 -13 21 2z m-182 -24 c-10 -11 -19 -20 -21 -20 -1 0 2 9 8 20
6 11 15 20 20 20 6 0 2 -9 -7 -20z m162 -10 c10 -11 16 -20 13 -20 -3 0 -15 9
-28 20 -13 11 -19 20 -13 20 5 0 18 -9 28 -20z m-230 0 c3 -5 1 -10 -4 -10 -6
0 -11 5 -11 10 0 6 2 10 4 10 3 0 8 -4 11 -10z m185 -1 c0 -5 -4 -7 -10 -4 -5
3 -10 2 -10 -4 0 -5 6 -12 13 -14 9 -4 9 -6 0 -6 -15 -1 -26 16 -18 29 8 13
25 13 25 -1z m-150 -9 c0 -5 -2 -10 -4 -10 -3 0 -8 5 -11 10 -3 6 -1 10 4 10
6 0 11 -4 11 -10z m167 -12 c-3 -8 -6 -5 -6 6 -1 11 2 17 5 13 3 -3 4 -12 1
-19z m-97 0 c0 -3 -9 -6 -20 -5 -11 1 -20 5 -20 9 0 3 9 6 20 5 11 -1 20 -5
20 -9z m44 -3 c3 -8 1 -15 -4 -15 -6 0 -10 7 -10 15 0 8 2 15 4 15 2 0 6 -7
10 -15z m-99 -14 c-8 -14 -25 -14 -25 0 0 5 5 7 10 4 6 -3 10 -1 10 6 0 7 3
10 6 6 3 -3 3 -10 -1 -16z m166 -4 c-10 -9 -11 -8 -5 6 3 10 9 15 12 12 3 -3
0 -11 -7 -18z m-98 -7 c-3 -12 -8 -19 -11 -16 -5 6 5 36 12 36 2 0 2 -9 -1
-20z m-36 1 c-10 -4 -17 -9 -15 -12 2 -3 -5 -13 -14 -23 -10 -10 -18 -13 -18
-7 0 5 8 15 18 20 9 6 13 11 9 11 -5 0 -5 5 -2 10 3 6 14 10 23 9 15 0 15 -1
-1 -8z m113 -1 c0 -5 -2 -10 -4 -10 -3 0 -8 5 -11 10 -3 6 -1 10 4 10 6 0 11
-4 11 -10z m-202 -47 c6 -2 -61 -63 -69 -63 -5 0 5 14 23 30 17 17 28 33 24
37 -4 4 -26 -13 -48 -37 -29 -32 -36 -36 -23 -15 10 16 28 37 39 46 18 15 19
19 6 35 -9 11 -2 9 15 -6 17 -14 31 -26 33 -27z m187 29 c18 -13 18 -14 1 -8
-14 5 -17 2 -12 -9 3 -9 2 -14 -3 -11 -12 8 -33 -19 -23 -29 4 -5 2 -5 -5 -1
-6 3 -13 -1 -16 -11 -3 -10 -4 -6 -4 9 1 15 4 25 8 22 9 -5 41 38 33 45 -3 3
-11 -1 -17 -10 -7 -8 -21 -18 -32 -22 l-20 -7 20 16 c11 8 19 19 18 23 -3 13
31 9 52 -7z m-94 -19 c-12 -20 -14 -14 -5 12 4 9 9 14 11 11 3 -2 0 -13 -6
-23z m-151 7 c0 -5 -5 -10 -11 -10 -5 0 -7 5 -4 10 3 6 8 10 11 10 2 0 4 -4 4
-10z m90 -19 c0 -5 -16 -25 -36 -45 -20 -20 -33 -40 -29 -44 4 -4 18 7 31 23
17 20 22 23 17 10 -6 -18 -5 -18 10 -7 9 8 16 17 15 20 -2 20 3 33 11 27 5 -3
12 3 14 12 4 17 5 17 6 0 0 -10 -6 -20 -14 -23 -8 -4 -13 -10 -10 -14 2 -4 -4
-18 -15 -30 -34 -39 -22 -47 14 -10 18 19 32 38 29 43 -2 4 1 7 6 7 19 0 12
-15 -26 -55 -37 -39 -50 -65 -32 -65 5 0 9 -5 9 -11 0 -5 -4 -7 -10 -4 -5 3
-10 2 -10 -4 0 -5 5 -12 10 -14 6 -3 5 -4 -2 -3 -7 2 -13 15 -12 29 1 15 -3
27 -8 27 -6 0 -7 7 -4 15 18 45 18 50 -1 29 -16 -18 -22 -20 -37 -9 -15 12
-13 17 26 58 49 51 48 50 48 38z m77 -17 c-3 -3 -12 -4 -19 -1 -8 3 -5 6 6 6
11 1 17 -2 13 -5z m-252 -75 c-4 -28 -3 -30 13 -17 9 7 20 18 24 23 5 6 8 5 8
-2 0 -7 -10 -18 -22 -24 -22 -12 -22 -12 11 -41 18 -16 31 -31 29 -34 -3 -2
-20 10 -39 28 -19 18 -38 32 -42 30 -4 -1 -3 7 3 17 6 11 10 24 9 28 -2 12 0
23 5 23 3 0 3 -14 1 -31z m22 9 c-3 -8 -6 -5 -6 6 -1 11 2 17 5 13 3 -3 4 -12
1 -19z m53 8 c0 -3 -4 -8 -10 -11 -5 -3 -10 -1 -10 4 0 6 5 11 10 11 6 0 10
-2 10 -4z m171 -13 c7 -10 9 -15 5 -11 -5 4 -15 3 -23 -3 -9 -9 -13 -8 -13 0
0 6 5 11 11 11 5 0 7 5 4 10 -10 17 2 11 16 -7z m-251 -57 c0 -2 -7 -7 -16
-10 -8 -3 -12 -2 -9 4 6 10 25 14 25 6z m-48 -13 c-6 -2 -10 -9 -6 -14 3 -5 0
-9 -5 -9 -12 0 -14 13 -4 23 3 4 11 7 17 6 6 0 5 -3 -2 -6z m68 -19 c11 -12
10 -18 -5 -32 -16 -15 -17 -15 -7 -1 10 14 10 20 -3 33 -9 9 -12 16 -7 16 5 0
15 -7 22 -16z m-40 -4 c0 -5 -2 -10 -4 -10 -3 0 -8 5 -11 10 -3 6 -1 10 4 10
6 0 11 -4 11 -10z m11 -27 c-12 -20 -14 -14 -5 12 4 9 9 14 11 11 3 -2 0 -13
-6 -23z m105 5 c-9 -5 -29 -11 -44 -13 -15 -2 -21 -2 -14 1 6 3 9 11 6 17 -5
9 -4 9 6 0 14 -13 43 -6 34 8 -3 5 2 6 12 2 15 -6 15 -7 0 -15z m-166 7 c0 -2
-6 -8 -13 -14 -10 -8 -14 -7 -14 2 0 8 6 14 14 14 7 0 13 -1 13 -2z m34 -10
c3 -8 1 -15 -3 -15 -5 0 -11 7 -15 15 -3 8 -1 15 3 15 5 0 11 -7 15 -15z"/>
</g>
</svg>
